<?xml version="1.0" encoding="utf-8"?>
<!-- Generator: Adobe Illustrator 17.1.0, SVG Export Plug-In . SVG Version: 6.00 Build 0)  -->
<!DOCTYPE svg PUBLIC "-//W3C//DTD SVG 1.1//EN" "http://www.w3.org/Graphics/SVG/1.1/DTD/svg11.dtd">
<svg version="1.1"
	 id="svg3132" sodipodi:docname="Wyolum-logo.svg" inkscape:version="0.48.4 r9939" xmlns:svg="http://www.w3.org/2000/svg" xmlns:rdf="http://www.w3.org/1999/02/22-rdf-syntax-ns#" xmlns:sodipodi="http://sodipodi.sourceforge.net/DTD/sodipodi-0.dtd" xmlns:inkscape="http://www.inkscape.org/namespaces/inkscape" xmlns:cc="http://creativecommons.org/ns#" xmlns:dc="http://purl.org/dc/elements/1.1/"
	 xmlns="http://www.w3.org/2000/svg" xmlns:xlink="http://www.w3.org/1999/xlink" x="0px" y="0px" viewBox="0 0 744.1 1052.4"
	 enable-background="new 0 0 744.1 1052.4" xml:space="preserve">
<sodipodi:namedview  inkscape:window-maximized="0" inkscape:current-layer="layer1" inkscape:document-units="px" inkscape:pageopacity="0.0" inkscape:window-y="52" inkscape:window-x="1972" inkscape:window-width="829" inkscape:window-height="443" inkscape:pageshadow="2" inkscape:zoom="0.37734375" inkscape:cx="375" id="base" showgrid="false" borderopacity="1.0" inkscape:cy="520" pagecolor="#ffffff" bordercolor="#666666">
	</sodipodi:namedview>
<g>
	<g>
		<path fill="#FFFFFF" d="M466,552c0,1,0,2,0,3c-62.3,0-124.7,0-187,0c0-18.3,0-36.7,0.1-55c0-0.6-1-2.2,0.9-2
			c0.1,17.9,0.1,35.8,0.2,53.5c3.9,0,7.2,0,10.8,0c0-11.3,0-22.2,0-34.3c3.9,12.2,7.5,23.3,11.1,34.5c3.7,0,7,0,10.6,0
			c3.7-11.5,7.3-22.9,10.9-34.3c0.2,0,0.4,0,0.6,0c0,11.4,0,22.8,0,34.2c3.8,0,7,0,10.7,0c0-2.1,0-3.9,0-5.6c0-16,0.1-32,0.1-48
			c14.7,0,29.3,0,44,0c0.1,17.9,0.1,35.8,0.2,53.6c4.2,0,7.8,0,11.7,0c0-3.6,0-6.9,0-9.8c1.7-2.1,3.2-3.9,4.6-5.7
			c2.9,5.3,5.8,10.5,8.6,15.6c3.9,0,7.5,0,11.7,0c-4.4-8.1-8.7-16-12.9-23.6c3.3-5.5,8.6-9.2,11.9-14.9c-4.1,0-7.6,0-11.6,0
			c-3.8,4.4-7.8,9-12.2,14.1c0-10.4,0-19.9,0-29.3c25,0,50,0,75,0c0,5,0,10,0,15c-4.2,0.1-8.4,0.2-12.6,0.3c0,4.1,0,7.6,0,11.7
			c4.4,0,8.5,0,12.6,0c0,5.3,0,10.7,0,16c-4.2,0.1-8.4,0.2-12.6,0.3c0,3.8,0,7,0,10.7C457.8,552,461.9,552,466,552z M375.1,551.7
			c-0.1-1.9-0.2-3.5-0.2-5.1c0-6,0.1-12-0.1-18c-0.1-2.8-0.4-5.7-1.3-8.2c-1.5-3.8-4.4-6.1-8.6-7.5c-4.6-1.5-8.9-0.6-13.1,0.5
			c-4.1,1-8.4,2.6-11.4,6.1c1.8,2.2,3.4,4.3,5,6.4c3.2-3.1,7.1-3.9,10.9-4.9c2.2-0.6,4.4,0.2,5.9,1.8c0.8,0.9,0.7,2.6,1,4
			c-3.7,0.6-6.9,0.8-9.8,1.7c-3,0.8-5.8,2.3-8.6,3.4c-6.5,2.5-7.2,11.4-4.4,16.5c0.5,1,1.5,2,2.4,2.4c3.4,1.5,6.7,2.7,10.9,1.6
			c3.6-1,6.2-2.8,8.9-5.2c0.7,1.7,1.4,3.1,2,4.7C368.1,551.7,371.6,551.7,375.1,551.7z M451.3,535.9c-0.5-3.6-0.7-6.6-1.4-9.4
			c-2.2-8.6-5.4-11.8-12.9-13.7c-3.7-0.9-7.1-0.5-10.1,0.5c-3.7,1.3-7.5,2.9-9.9,6.9c-4.2,7-4.8,14-2,21.6c1.8,5.1,5.4,8.4,10.2,9.8
			c8.8,2.6,17.2,1.5,24.8-4.5c-1.5-2.3-3-4.6-4.1-6.4c-3.3,1.5-6.2,3.1-9.3,4c-5.8,1.7-11.4-2.6-11.1-8.9
			C433.7,535.9,442,535.9,451.3,535.9z"/>
		<path d="M335,498c0,16-0.1,32-0.1,48c0,1.8,0,3.6,0,5.6c-3.6,0-6.9,0-10.7,0c0-11.4,0-22.8,0-34.2c-0.2,0-0.4,0-0.6,0
			c-3.6,11.4-7.3,22.9-10.9,34.3c-3.6,0-6.9,0-10.6,0c-3.6-11.1-7.2-22.2-11.1-34.5c0,12.1,0,23,0,34.3c-3.6,0-6.8,0-10.8,0
			c-0.1-17.7-0.1-35.6-0.2-53.5c5.3,0,10.7,0,16,0c3.7,12.9,7.5,25.8,11.3,39.2c0.8-1,1.5-1.4,1.6-2c2.7-9.6,5.5-19.2,8.1-28.8
			c0.8-2.8,1.3-5.7,1.9-8.5C324.3,498,329.7,498,335,498z"/>
		<path d="M391,498c0,9.5,0,18.9,0,29.3c4.5-5.2,8.5-9.8,12.2-14.1c4,0,7.5,0,11.6,0c-3.4,5.7-8.6,9.4-11.9,14.9
			c4.2,7.7,8.5,15.5,12.9,23.6c-4.2,0-7.8,0-11.7,0c-2.9-5.2-5.7-10.3-8.6-15.6c-1.4,1.8-2.9,3.5-4.6,5.7c0,2.9,0,6.2,0,9.8
			c-3.9,0-7.4,0-11.7,0c-0.1-17.8-0.1-35.7-0.2-53.6C383,498,387,498,391,498z"/>
		<path fill="#FFFFFF" d="M319,498c-0.6,2.8-1.2,5.7-1.9,8.5c-2.6,9.6-5.4,19.2-8.1,28.8c-0.2,0.6-0.8,1-1.6,2
			c-3.9-13.4-7.6-26.3-11.3-39.2C303.7,498,311.3,498,319,498z"/>
		<path d="M466,525c-4.1,0-8.2,0-12.6,0c0-4.1,0-7.6,0-11.7c4.1-0.1,8.4-0.2,12.6-0.3C466,517,466,521,466,525z"/>
		<path d="M466,552c-4.1,0-8.2,0-12.6,0c0-3.7,0-6.9,0-10.7c4.1-0.1,8.4-0.2,12.6-0.3C466,544.7,466,548.3,466,552z"/>
		<path d="M375.1,551.7c-3.6,0-7,0-10.6,0c-0.7-1.6-1.3-3-2-4.7c-2.6,2.4-5.3,4.2-8.9,5.2c-4.2,1.2-7.4-0.1-10.9-1.6
			c-1-0.4-1.9-1.4-2.4-2.4c-2.8-5.1-2-14,4.4-16.5c2.9-1.1,5.7-2.6,8.6-3.4c3-0.8,6.1-1.1,9.8-1.7c-0.3-1.4-0.2-3.1-1-4
			c-1.5-1.6-3.7-2.3-5.9-1.8c-3.8,1-7.7,1.7-10.9,4.9c-1.7-2.1-3.3-4.1-5-6.4c3-3.5,7.3-5,11.4-6.1c4.2-1,8.5-1.9,13.1-0.5
			c4.2,1.3,7.1,3.6,8.6,7.5c1,2.5,1.3,5.5,1.3,8.2c0.2,6,0,12,0.1,18C374.9,548.2,375,549.9,375.1,551.7z M363.1,533.3
			c-1.8,0.2-3.2,0.2-4.4,0.6c-2.4,0.8-4.9,1.8-7.2,2.9c-1.6,0.8-2.3,2.8-1.5,4.3c0.7,1.3,2.3,2.6,3.6,2.8c6,1.1,9.5-1.9,9.4-7.9
			C363.1,535.3,363.1,534.5,363.1,533.3z"/>
		<path d="M451.3,535.9c-9.3,0-17.6,0-25.8,0c-0.3,6.2,5.3,10.6,11.1,8.9c3.1-0.9,6-2.5,9.3-4c1.2,1.8,2.6,4.1,4.1,6.4
			c-7.6,6-16,7.1-24.8,4.5c-4.8-1.4-8.3-4.7-10.2-9.8c-2.7-7.6-2.2-14.6,2-21.6c2.4-3.9,6.2-5.6,9.9-6.9c3.1-1.1,6.4-1.5,10.1-0.5
			c7.4,1.9,10.7,5.1,12.9,13.7C450.5,529.4,450.7,532.3,451.3,535.9z M439.9,528.9c-0.1-5.3-1.8-7.6-5.7-8c-5.1-0.6-7.6,1.6-8.9,8
			C430,528.9,434.8,528.9,439.9,528.9z"/>
		<path fill="#FFFFFF" d="M363.1,533.3c0,1.2,0,2,0,2.8c0.1,6-3.4,9-9.4,7.9c-1.4-0.3-2.9-1.6-3.6-2.8c-0.8-1.5-0.2-3.4,1.5-4.3
			c2.3-1.2,4.7-2.1,7.2-2.9C359.9,533.5,361.3,533.6,363.1,533.3z"/>
		<path fill="#FFFFFF" d="M439.9,528.9c-5.1,0-9.8,0-14.6,0c1.2-6.4,3.8-8.6,8.9-8C438.1,521.3,439.8,523.6,439.9,528.9z"/>
	</g>
</g>
</svg>
