<?xml version="1.0" encoding="UTF-8" standalone="no"?>
<!-- Created with Inkscape (http://www.inkscape.org/) -->

<svg
   xmlns:dc="http://purl.org/dc/elements/1.1/"
   xmlns:cc="http://creativecommons.org/ns#"
   xmlns:rdf="http://www.w3.org/1999/02/22-rdf-syntax-ns#"
   xmlns:svg="http://www.w3.org/2000/svg"
   xmlns="http://www.w3.org/2000/svg"
   xmlns:sodipodi="http://sodipodi.sourceforge.net/DTD/sodipodi-0.dtd"
   xmlns:inkscape="http://www.inkscape.org/namespaces/inkscape"
   width="612pt"
   height="792pt"
   id="svg3126"
   version="1.1"
   inkscape:version="0.48.4 r9939"
   sodipodi:docname="New document 2">
  <defs
     id="defs3128" />
  <sodipodi:namedview
     inkscape:document-units="in"
     pagecolor="#ffffff"
     bordercolor="#666666"
     borderopacity="1.0"
     inkscape:pageopacity="0.0"
     inkscape:pageshadow="2"
     inkscape:zoom="1.2515625"
     inkscape:cx="340"
     inkscape:cy="500"
     inkscape:current-layer="layer1"
     id="namedview3130"
     showgrid="false"
     inkscape:window-width="1920"
     inkscape:window-height="1057"
     inkscape:window-x="-8"
     inkscape:window-y="-8"
     inkscape:window-maximized="1" />
  <metadata
     id="metadata3132">
    <rdf:RDF>
      <cc:Work
         rdf:about="">
        <dc:format>image/svg+xml</dc:format>
        <dc:type
           rdf:resource="http://purl.org/dc/dcmitype/StillImage" />
        <dc:title></dc:title>
      </cc:Work>
    </rdf:RDF>
  </metadata>
  <g
     inkscape:label="Layer 1"
     inkscape:groupmode="layer"
     id="layer1">
    <g
       transform="matrix(1.25,0,0,-1.25,254.57473,959.03102)"
       id="g3099">
      <rect
         transform="scale(-1,-1)"
         rx="8.5039368"
         ry="8.5039368"
         y="-499.03934"
         x="-241.2571"
         height="158.74016"
         width="240.94487"
         id="rect3197"
         style="fill:none;stroke:#00ff00;stroke-width:0.28346458;stroke-linecap:round;stroke-linejoin:round;stroke-miterlimit:4;stroke-opacity:1;stroke-dasharray:none" />
      <g
         id="g3095">
        <path
           sodipodi:type="arc"
           style="fill:none;stroke:#000000;stroke-width:0.35433072;stroke-linecap:round;stroke-linejoin:round;stroke-miterlimit:4;stroke-opacity:1;stroke-dasharray:none"
           id="path4149"
           sodipodi:cx="145.7708"
           sodipodi:cy="334.21451"
           sodipodi:rx="3.7060373"
           sodipodi:ry="4.9413834"
           d="m 149.47684,334.21451 c 0,2.72905 -1.65925,4.94138 -3.70604,4.94138 -2.04679,0 -3.70604,-2.21233 -3.70604,-4.94138 0,-2.72905 1.65925,-4.94139 3.70604,-4.94139 2.04679,0 3.70604,2.21234 3.70604,4.94139 z"
           transform="matrix(-1.0098902,0,0,-0.75741758,378.69005,603.21869)" />
        <path
           sodipodi:type="arc"
           style="fill:none;stroke:#000000;stroke-width:0.35433072;stroke-linecap:round;stroke-linejoin:round;stroke-miterlimit:4;stroke-opacity:1;stroke-dasharray:none"
           id="path4149-1"
           sodipodi:cx="145.7708"
           sodipodi:cy="334.21451"
           sodipodi:rx="3.7060373"
           sodipodi:ry="4.9413834"
           d="m 149.47684,334.21451 c 0,2.72905 -1.65925,4.94138 -3.70604,4.94138 -2.04679,0 -3.70604,-2.21233 -3.70604,-4.94138 0,-2.72905 1.65925,-4.94139 3.70604,-4.94139 2.04679,0 3.70604,2.21234 3.70604,4.94139 z"
           transform="matrix(-1.0098902,0,0,-0.75741758,214.28022,603.21869)" />
      </g>
      <g
         id="g3089">
        <path
           sodipodi:type="arc"
           style="fill:none;stroke:#000000;stroke-width:0.35433072;stroke-linecap:round;stroke-linejoin:round;stroke-miterlimit:4;stroke-opacity:1;stroke-dasharray:none"
           id="path4149-4"
           sodipodi:cx="145.7708"
           sodipodi:cy="334.21451"
           sodipodi:rx="3.7060373"
           sodipodi:ry="4.9413834"
           d="m 149.47684,334.21451 c 0,2.72905 -1.65925,4.94138 -3.70604,4.94138 -2.04679,0 -3.70604,-2.21233 -3.70604,-4.94138 0,-2.72905 1.65925,-4.94139 3.70604,-4.94139 2.04679,0 3.70604,2.21234 3.70604,4.94139 z"
           transform="matrix(-1.0098902,0,0,-0.75741758,378.69005,744.52579)" />
        <path
           sodipodi:type="arc"
           style="fill:none;stroke:#000000;stroke-width:0.35433072;stroke-linecap:round;stroke-linejoin:round;stroke-miterlimit:4;stroke-opacity:1;stroke-dasharray:none"
           id="path4149-1-0"
           sodipodi:cx="145.7708"
           sodipodi:cy="334.21451"
           sodipodi:rx="3.7060373"
           sodipodi:ry="4.9413834"
           d="m 149.47684,334.21451 c 0,2.72905 -1.65925,4.94138 -3.70604,4.94138 -2.04679,0 -3.70604,-2.21233 -3.70604,-4.94138 0,-2.72905 1.65925,-4.94139 3.70604,-4.94139 2.04679,0 3.70604,2.21234 3.70604,4.94139 z"
           transform="matrix(-1.0098902,0,0,-0.75741758,214.28022,744.52579)" />
      </g>
    </g>
  </g>
</svg>
