<?xml version="1.0" encoding="UTF-8" standalone="no"?>
<!-- Generator: Adobe Illustrator 17.1.0, SVG Export Plug-In . SVG Version: 6.00 Build 0)  -->

<svg
   xmlns:dc="http://purl.org/dc/elements/1.1/"
   xmlns:cc="http://creativecommons.org/ns#"
   xmlns:rdf="http://www.w3.org/1999/02/22-rdf-syntax-ns#"
   xmlns:svg="http://www.w3.org/2000/svg"
   xmlns="http://www.w3.org/2000/svg"
   xmlns:sodipodi="http://sodipodi.sourceforge.net/DTD/sodipodi-0.dtd"
   xmlns:inkscape="http://www.inkscape.org/namespaces/inkscape"
   version="1.1"
   id="svg3132"
   sodipodi:docname="Wyolum-logo.svg"
   inkscape:version="0.48.4 r9939"
   x="0px"
   y="0px"
   viewBox="0 0 744.1 1052.4"
   enable-background="new 0 0 744.1 1052.4"
   xml:space="preserve"
   width="100%"
   height="100%"><metadata
   id="metadata3523"><rdf:RDF><cc:Work
       rdf:about=""><dc:format>image/svg+xml</dc:format><dc:type
         rdf:resource="http://purl.org/dc/dcmitype/StillImage" /><dc:title></dc:title></cc:Work></rdf:RDF></metadata><defs
   id="defs3521">
	
	

		
			
		
			
		
			
		
			
		
			
		
			
		
			
		
			
		
			
		
			
		
			
		
			
		
			
		
			
		
			
		
			
		
			
		
			
		
			
		
			
		
			
		
			
		
			
		
			
		
			
		
			
		
			
		
			
		
			
	
			
			
			
			
			
			
			
			
			
			
			
			
		
				
				
				
				
				
				
				
				
				
				
				
				
				
				
				
			
				
				
				
				
				
				
					
				
					
				
					
				
					
				
					
				
					
				
					
				
					
				
					
			
		
	
				
				
				
				
			
				
				
			
				
				
			
					
						
					
				
					
						
					
				
					
						
					
				
					
						
					
				
					
						
					
				
					
						
					
				
					
						
					
				
				
					
				
					
				
					
				
					
				
					
				
					
				
				
				
				
				
				
					
				
				
			
				
				
				
			
				
				
				
				
				
				
				
				
				
					
				
				
				
					
				
				
			
					
						
					
				
					
						
					
				
					
						
					
				
					
						
					
				
					
						
					
				
					
						
					
				
					
						
					
				
					
						
					
				
					
						
					
				
					
						
					
				
					
						
					
				
					
						
					
				
					
						
					
				
					
						
					
				
					
						
					
				
					
						
					
				
					
						
					
				
					
						
					
				</defs>
<sodipodi:namedview
   inkscape:window-maximized="1"
   inkscape:current-layer="svg3132"
   inkscape:document-units="mm"
   inkscape:pageopacity="0.0"
   inkscape:window-y="-8"
   inkscape:window-x="-8"
   inkscape:window-width="1536"
   inkscape:window-height="841"
   inkscape:pageshadow="2"
   inkscape:zoom="4.2165023"
   inkscape:cx="306.57096"
   id="base"
   showgrid="true"
   borderopacity="1.0"
   inkscape:cy="650.84288"
   pagecolor="#ffffff"
   bordercolor="#666666">
	<inkscape:grid
   type="xygrid"
   id="grid5974"
   empspacing="1"
   visible="true"
   enabled="true"
   snapvisiblegridlinesonly="false"
   units="mm"
   spacingx="0.01mm"
   spacingy="0.01mm" /></sodipodi:namedview>
<path
   id="path3960"
   sodipodi:ry="11.375"
   sodipodi:rx="1.75"
   sodipodi:type="arc"
   sodipodi:cx="166.75"
   sodipodi:cy="455.23718"
   inkscape:export-filename="C:\Documents and Settings\Justin\My Documents\Arduino\clockthree\Faceplate\Images\WyoLum_v5_red.png"
   inkscape:export-xdpi="110.36"
   inkscape:export-ydpi="110.36"
   inkscape:transform-center-y="-3.0326855"
   inkscape:transform-center-x="0.42099741"
   d="m 168.5,455.23718 a 1.75,11.375 0 1 1 -3.5,0 1.75,11.375 0 1 1 3.5,0 z"
   style="fill:#ffffff"
   transform="translate(-5.8320985,12.497354)" /><path
   id="path3998"
   sodipodi:ry="0.625"
   sodipodi:rx="0.1875"
   sodipodi:type="arc"
   sodipodi:cx="151.25"
   sodipodi:cy="351.86218"
   inkscape:export-filename="C:\Documents and Settings\Justin\My Documents\Arduino\clockthree\Faceplate\Images\WyoLum_v5_red.png"
   inkscape:export-xdpi="110.36"
   inkscape:export-ydpi="110.36"
   d="m 151.4375,351.86218 a 0.1875,0.625 0 1 1 -0.375,0 0.1875,0.625 0 1 1 0.375,0 z"
   style="fill:#ffffff"
   transform="translate(-5.8320985,12.497354)" /><path
   id="path3960-2-7"
   sodipodi:ry="11.375"
   sodipodi:rx="1.75"
   sodipodi:type="arc"
   sodipodi:cx="166.75"
   sodipodi:cy="455.23718"
   inkscape:export-filename="C:\Documents and Settings\Justin\My Documents\Arduino\clockthree\Faceplate\Images\WyoLum_v5_red.png"
   inkscape:export-xdpi="110.36"
   inkscape:export-ydpi="110.36"
   inkscape:transform-center-y="-6.2873246"
   inkscape:transform-center-x="2.2965211"
   d="m 168.5,455.23718 a 1.75,11.375 0 1 1 -3.5,0 1.75,11.375 0 1 1 3.5,0 z"
   style="fill:#ffffff"
   transform="translate(-5.8320985,12.497354)" /><path
   id="path3960-2-7-6-1"
   sodipodi:ry="11.375"
   sodipodi:rx="1.75"
   sodipodi:type="arc"
   sodipodi:cx="166.75"
   sodipodi:cy="455.23718"
   inkscape:export-filename="C:\Documents and Settings\Justin\My Documents\Arduino\clockthree\Faceplate\Images\WyoLum_v5_red.png"
   inkscape:export-xdpi="110.36"
   inkscape:export-ydpi="110.36"
   inkscape:transform-center-y="-5.7181802"
   inkscape:transform-center-x="-1.3785664"
   d="m 168.5,455.23718 a 1.75,11.375 0 1 1 -3.5,0 1.75,11.375 0 1 1 3.5,0 z"
   style="fill:#ffffff"
   transform="translate(-5.8320985,12.497354)" /><path
   id="path3960-2-7-6-1-4"
   sodipodi:ry="11.375"
   sodipodi:rx="1.75"
   sodipodi:type="arc"
   sodipodi:cx="166.75"
   sodipodi:cy="455.23718"
   inkscape:export-filename="C:\Documents and Settings\Justin\My Documents\Arduino\clockthree\Faceplate\Images\WyoLum_v5_red.png"
   inkscape:export-xdpi="110.36"
   inkscape:export-ydpi="110.36"
   inkscape:transform-center-y="-5.7181802"
   inkscape:transform-center-x="-1.3785664"
   d="m 168.5,455.23718 a 1.75,11.375 0 1 1 -3.5,0 1.75,11.375 0 1 1 3.5,0 z"
   style="fill:#ffffff"
   transform="translate(-5.8320985,12.497354)" /><path
   id="path3960-2-7-9"
   sodipodi:ry="11.375"
   sodipodi:rx="1.75"
   sodipodi:type="arc"
   sodipodi:cx="166.75"
   sodipodi:cy="455.23718"
   inkscape:export-filename="C:\Documents and Settings\Justin\My Documents\Arduino\clockthree\Faceplate\Images\WyoLum_v5_red.png"
   inkscape:export-xdpi="110.36"
   inkscape:export-ydpi="110.36"
   inkscape:transform-center-y="-4.8864019"
   inkscape:transform-center-x="1.739407"
   d="m 168.5,455.23718 a 1.75,11.375 0 1 1 -3.5,0 1.75,11.375 0 1 1 3.5,0 z"
   style="fill:#ffffff"
   transform="translate(-5.8320985,12.497354)" /><path
   id="path3960-2-7-6-1-4-4"
   sodipodi:ry="11.375"
   sodipodi:rx="1.75"
   sodipodi:type="arc"
   sodipodi:cx="166.75"
   sodipodi:cy="455.23718"
   inkscape:export-filename="C:\Documents and Settings\Justin\My Documents\Arduino\clockthree\Faceplate\Images\WyoLum_v5_red.png"
   inkscape:export-xdpi="110.36"
   inkscape:export-ydpi="110.36"
   inkscape:transform-center-y="-6.9337213"
   inkscape:transform-center-x="0.37681917"
   d="m 168.5,455.23718 a 1.75,11.375 0 1 1 -3.5,0 1.75,11.375 0 1 1 3.5,0 z"
   style="fill:#ffffff"
   transform="translate(-5.8320985,12.497354)" /><path
   id="path3960-2-7-6-1-4-4-0"
   sodipodi:ry="11.375"
   sodipodi:rx="1.75"
   sodipodi:type="arc"
   sodipodi:cx="166.75"
   sodipodi:cy="455.23718"
   inkscape:export-filename="C:\Documents and Settings\Justin\My Documents\Arduino\clockthree\Faceplate\Images\WyoLum_v5_red.png"
   inkscape:export-xdpi="110.36"
   inkscape:export-ydpi="110.36"
   inkscape:transform-center-y="-7.2556872"
   inkscape:transform-center-x="0.76837313"
   d="m 168.5,455.23718 a 1.75,11.375 0 1 1 -3.5,0 1.75,11.375 0 1 1 3.5,0 z"
   style="fill:#ffffff"
   transform="translate(-5.8320985,12.497354)" /><path
   id="path3960-2-7-6-1-4-4-3"
   sodipodi:ry="11.375"
   sodipodi:rx="1.75"
   sodipodi:type="arc"
   sodipodi:cx="166.75"
   sodipodi:cy="455.23718"
   inkscape:export-filename="C:\Documents and Settings\Justin\My Documents\Arduino\clockthree\Faceplate\Images\WyoLum_v5_red.png"
   inkscape:export-xdpi="110.36"
   inkscape:export-ydpi="110.36"
   inkscape:transform-center-y="-5.8368453"
   inkscape:transform-center-x="0.72753035"
   d="m 168.5,455.23718 a 1.75,11.375 0 1 1 -3.5,0 1.75,11.375 0 1 1 3.5,0 z"
   style="fill:#ffffff"
   transform="translate(-5.8320985,12.497354)" /><path
   id="path3960-2-7-6-1-4-4-6"
   sodipodi:ry="11.375"
   sodipodi:rx="1.75"
   sodipodi:type="arc"
   sodipodi:cx="166.75"
   sodipodi:cy="455.23718"
   inkscape:export-filename="C:\Documents and Settings\Justin\My Documents\Arduino\clockthree\Faceplate\Images\WyoLum_v5_red.png"
   inkscape:export-xdpi="110.36"
   inkscape:export-ydpi="110.36"
   inkscape:transform-center-y="-5.8752315"
   inkscape:transform-center-x="0.28231603"
   d="m 168.5,455.23718 a 1.75,11.375 0 1 1 -3.5,0 1.75,11.375 0 1 1 3.5,0 z"
   style="fill:#ffffff"
   transform="translate(-5.8320985,12.497354)" /><path
   id="path3960-2-7-6-1-4-4-6-2"
   sodipodi:ry="11.375"
   sodipodi:rx="1.75"
   sodipodi:type="arc"
   sodipodi:cx="166.75"
   sodipodi:cy="455.23718"
   inkscape:export-filename="C:\Documents and Settings\Justin\My Documents\Arduino\clockthree\Faceplate\Images\WyoLum_v5_red.png"
   inkscape:export-xdpi="110.36"
   inkscape:export-ydpi="110.36"
   inkscape:transform-center-y="-5.8810939"
   inkscape:transform-center-x="0.10377979"
   d="m 168.5,455.23718 a 1.75,11.375 0 1 1 -3.5,0 1.75,11.375 0 1 1 3.5,0 z"
   style="fill:#ffffff"
   transform="translate(-5.8320985,12.497354)" /><path
   id="path3960-2-7-6-1-4-4-6-4"
   sodipodi:ry="11.375"
   sodipodi:rx="1.75"
   sodipodi:type="arc"
   sodipodi:cx="166.75"
   sodipodi:cy="455.23718"
   inkscape:export-filename="C:\Documents and Settings\Justin\My Documents\Arduino\clockthree\Faceplate\Images\WyoLum_v5_red.png"
   inkscape:export-xdpi="110.36"
   inkscape:export-ydpi="110.36"
   inkscape:transform-center-y="-4.3887822"
   inkscape:transform-center-x="2.461875"
   d="m 168.5,455.23718 a 1.75,11.375 0 1 1 -3.5,0 1.75,11.375 0 1 1 3.5,0 z"
   style="fill:#ffffff"
   transform="translate(-5.8320985,12.497354)" /><path
   id="path3960-2-7-6-1-4-4-6-5"
   sodipodi:ry="11.375"
   sodipodi:rx="1.75"
   sodipodi:type="arc"
   sodipodi:cx="166.75"
   sodipodi:cy="455.23718"
   inkscape:export-filename="C:\Documents and Settings\Justin\My Documents\Arduino\clockthree\Faceplate\Images\WyoLum_v5_red.png"
   inkscape:export-xdpi="110.36"
   inkscape:export-ydpi="110.36"
   inkscape:transform-center-y="-4.3890398"
   inkscape:transform-center-x="0.42307159"
   d="m 168.5,455.23718 a 1.75,11.375 0 1 1 -3.5,0 1.75,11.375 0 1 1 3.5,0 z"
   style="fill:#ffffff"
   transform="translate(-5.8320985,12.497354)" /><path
   id="path3960-2-7-6-1-4-4-6-8"
   sodipodi:ry="11.375"
   sodipodi:rx="1.75"
   sodipodi:type="arc"
   sodipodi:cx="166.75"
   sodipodi:cy="455.23718"
   inkscape:export-filename="C:\Documents and Settings\Justin\My Documents\Arduino\clockthree\Faceplate\Images\WyoLum_v5_red.png"
   inkscape:export-xdpi="110.36"
   inkscape:export-ydpi="110.36"
   inkscape:transform-center-y="-5.4977089"
   inkscape:transform-center-x="-2.0912248"
   d="m 168.5,455.23718 a 1.75,11.375 0 1 1 -3.5,0 1.75,11.375 0 1 1 3.5,0 z"
   style="fill:#ffffff"
   transform="translate(-5.8320985,12.497354)" />
<g
   transform="translate(-227.65747,-490.21419)"
   id="g4717"><path
     inkscape:connector-curvature="0"
     id="path4814"
     d="m 641.6875,894.1875 -0.15625,0.0312 c -1.06403,0.42561 -1.9965,1.0755 -2.8125,1.6875 l -0.0625,0.0312 L 638.625,896 c -1.59841,2.19781 -3.30139,4.49547 -4.8125,6.8125 l -0.0312,0.0312 0,0.0312 c -1.12351,2.4513 -1.82981,5.06588 -3,7.40625 -0.50186,1.00372 -1.04095,2.13837 -1.15625,3.4375 -9.4e-4,0.0106 8.9e-4,0.0206 0,0.0312 -0.69835,4.28985 -1.40037,8.57765 -2,12.875 l -0.0937,0.71875 0.71875,-0.15625 c 1.30532,-0.30123 2.76113,-0.70302 3.875,-1.6875 0.011,-0.01 0.0203,-0.0214 0.0312,-0.0312 4.38409,-3.18788 8.75196,-6.24581 13.5,-8.71875 1.29938,-0.64969 2.44683,-1.78684 2.5625,-3.40625 0.2196,-2.08619 -0.73912,-3.86925 -1.21875,-5.5 l 0,-0.0312 c -0.89056,-2.47379 -1.5625,-5.02099 -1.5625,-7.53125 l -0.0312,-0.0312 c -0.0931,-0.93104 0.0326,-2.05568 -0.1875,-3.15625 L 645.1875,897 645.125,896.9063 c -0.20942,-0.29319 -0.37819,-0.6718 -0.59375,-1.0625 -0.20905,-0.37891 -0.49066,-0.79209 -0.9375,-1.0625 -0.01,-0.006 -0.0215,0.006 -0.0312,0 -0.60118,-0.35142 -1.27035,-0.46657 -1.75,-0.5625 l -0.125,-0.0312 z m 0.0937,1.03125 c 0.46148,0.0928 0.93177,0.19656 1.28125,0.40625 0.22756,0.13003 0.40931,0.3532 0.59375,0.6875 0.15969,0.28943 0.33464,0.67742 0.5625,1.03125 0.1621,0.86999 0.12383,1.91147 0.21875,2.9375 0,0.0207 -9e-5,0.0418 0,0.0625 0.0109,2.6585 0.72733,5.28293 1.625,7.78125 l -0.0312,0 c 0.004,0.0128 0.0275,0.0185 0.0312,0.0312 0.52116,1.75438 1.33535,3.39233 1.15625,5.09375 -0.0843,1.18059 -0.93063,2.04344 -2.03125,2.59375 -4.83916,2.5204 -9.25224,5.64084 -13.65625,8.84375 l -0.0312,0.0312 c -0.70888,0.63799 -1.7244,1.00305 -2.75,1.28125 0.57471,-4.04241 1.21585,-8.07592 1.875,-12.125 l 0,-0.0312 c 0.0906,-1.08775 0.53721,-2.13693 1.03125,-3.125 1.21911,-2.43821 1.9393,-5.01107 3,-7.34375 0.005,-0.007 -0.005,-0.0242 0,-0.0312 0.005,-0.012 0.0258,-0.0193 0.0312,-0.0312 1.47205,-2.25215 3.13794,-4.51426 4.71875,-6.6875 0.008,-0.0116 0.0228,-0.0197 0.0312,-0.0312 0.71486,-0.52866 1.50525,-1.02098 2.34375,-1.375 z"
     style="font-size:medium;font-style:normal;font-variant:normal;font-weight:normal;font-stretch:normal;text-indent:0;text-align:start;text-decoration:none;line-height:normal;letter-spacing:normal;word-spacing:normal;text-transform:none;direction:ltr;block-progression:tb;writing-mode:lr-tb;text-anchor:start;baseline-shift:baseline;color:#000000;fill:#000000;fill-opacity:1;fill-rule:nonzero;stroke:none;stroke-width:1;marker:none;visibility:visible;display:inline;overflow:visible;enable-background:accumulate;font-family:Sans;-inkscape-font-specification:Sans" /><path
     inkscape:connector-curvature="0"
     id="path4816"
     d="m 648,915.53125 c -0.107,-0.0267 -0.35407,0.0471 -0.53125,0.15625 l -0.0312,-0.0625 c -3.61462,2.30934 -7.10212,4.83434 -10.6875,7.125 l -0.0312,0 c -1.89689,1.29787 -3.69064,2.47912 -5.59375,3.78125 l -0.15625,0.125 -0.0312,0.1875 c -0.3,1.3 -0.60869,2.61274 -0.8125,3.9375 l -0.0312,0.21875 0.125,0.1875 c 1.04723,1.25667 2.27589,2.15089 3.34375,3.21875 l 0.0312,0.0312 0.0625,0.0312 c 1.48402,0.95401 3.20476,1.47889 4.65625,2.15625 l 0.0312,0 c 1.45573,0.48524 2.87596,1.21502 4.5625,1.53125 l 0.0625,0 0.0312,0 c 1.2,0 2.132,-0.6389 3,-0.8125 l 0.0625,0 0.0312,-0.0312 c 0.70594,-0.26473 1.69969,-0.35223 2.59375,-0.6875 l 0.15625,-0.0625 0.0937,-0.125 c 0.56207,-0.84311 1.36207,-1.63686 2,-2.59375 1.01612,-1.46773 0.99923,-3.24713 1.375,-4.65625 l 0,-0.0312 c 0.61134,-2.75104 0.82138,-5.72466 0.0937,-8.53125 l -0.0312,-0.0312 c -0.73949,-2.11281 -2.21092,-3.90537 -4.125,-4.96875 l -0.0937,-0.0625 -0.15625,0 c 0.11667,0 0.12609,2.7e-4 0,-0.0312 z m -0.15625,1.03125 c 1.64927,0.94231 2.94331,2.5166 3.59375,4.375 0.65413,2.57699 0.45914,5.37137 -0.125,8 l 0.0312,0 c -0.42423,1.59088 -0.46612,3.21148 -1.25,4.34375 -0.52774,0.79161 -1.25885,1.55635 -1.875,2.4375 -0.68154,0.23221 -1.571,0.35428 -2.40625,0.65625 -0.0202,0.007 -0.0424,-0.008 -0.0625,0 l 0,0.0312 c -1.07038,0.23109 -1.91996,0.72813 -2.6875,0.75 -1.4892,-0.28456 -2.82527,-0.92761 -4.34375,-1.4375 -0.0129,-0.006 -0.0184,-0.0253 -0.0312,-0.0312 -1.53772,-0.71298 -3.19495,-1.22354 -4.5,-2.0625 -1.04723,-1.03214 -2.13206,-1.90395 -3.03125,-2.9375 0.18526,-1.13264 0.45312,-2.2854 0.71875,-3.4375 1.82772,-1.24858 3.56648,-2.42871 5.40625,-3.6875 l 0,0.0312 c 3.57072,-2.28129 7.02269,-4.76345 10.5625,-7.03125 z"
     style="font-size:medium;font-style:normal;font-variant:normal;font-weight:normal;font-stretch:normal;text-indent:0;text-align:start;text-decoration:none;line-height:normal;letter-spacing:normal;word-spacing:normal;text-transform:none;direction:ltr;block-progression:tb;writing-mode:lr-tb;text-anchor:start;baseline-shift:baseline;color:#000000;fill:#000000;fill-opacity:1;fill-rule:nonzero;stroke:none;stroke-width:1;marker:none;visibility:visible;display:inline;overflow:visible;enable-background:accumulate;font-family:Sans;-inkscape-font-specification:Sans" /><path
     inkscape:connector-curvature="0"
     id="path3324"
     transform="translate(0,225)"
     d="m 467.75,680.78125 c -25.3,0 -45.8125,17.2 -45.8125,38.5 0,21.3 20.6125,38.625 45.8125,38.625 l 133.1875,0 c 25.2,0 45.8125,-17.3 45.8125,-38.5 0,-2.2 -0.225,-4.30625 -0.625,-6.40625 -0.0764,-0.38211 -0.19175,-0.74687 -0.28125,-1.125 -0.51757,0.11324 -1.00591,0.32344 -1.5,0.5 0.50713,2.23814 0.78125,4.54474 0.78125,6.90625 0,20.5 -19.7875,37.125 -44.1875,37.125 l -133.1875,0 c -24.3,0 -44.21875,-16.725 -44.21875,-37.125 0,-20.4 19.81875,-37 44.21875,-37 l 0,-0.0937 133.09375,0 c 9.6,0 18.4875,2.60625 25.6875,6.90625 1.11145,0.66883 2.18784,1.37757 3.21875,2.125 0.0874,-0.53963 0.1622,-1.08537 0.25,-1.625 -0.0865,-0.0599 -0.163,-0.12814 -0.25,-0.1875 -7.9,-5.4 -17.9125,-8.625 -28.8125,-8.625 l -133.1875,0 z M 637.46875,696.125 c -0.42855,0.28984 -0.85547,0.57986 -1.28125,0.875 0.31641,0.35065 0.63586,0.70267 0.9375,1.0625 0.42545,-0.27256 0.8582,-0.53514 1.28125,-0.8125 -0.31252,-0.37387 -0.60974,-0.76105 -0.9375,-1.125 z" /><path
     inkscape:connector-curvature="0"
     id="path5684"
     transform="translate(0,225)"
     d="m 523.03125,686.28125 c -3.5,0 -4.1875,3.5 -4.1875,3.5 l 0,9 1.15625,0.0312 c -1.44385,0.3833 -2.33042,1.0441 -2.25,1.6875 0.1,0.9 1.975,1.70625 4.375,1.90625 1.4,0.1 3.125,-0.1 4.125,-0.5 2.31213,-0.67437 2.53982,-2.00114 0.5,-2.8125 l 0.1875,0 0,-9.5 c 0,0 -0.40625,-3.4125 -3.90625,-3.3125 z"
     style="fill:#000000;stroke:#000000;stroke-width:0.21969999" /><path
     inkscape:connector-curvature="0"
     id="path3969"
     transform="translate(0,225)"
     d="m 482.9375,695.3125 c -1.72244,0.10789 -3.275,0.90625 -3.78125,2.875 -1.4,3.4 -1.89375,7.41875 -3.59375,10.71875 -2.3,1.6 -3.2,-1.80625 -3.5,-3.40625 -1.3,-3.2 -1.39375,-7.31875 -4.09375,-9.71875 -2.5,-0.7 -5.60625,-0.58125 -7.90625,0.71875 -3.1,3.4 -2.6125,8.68125 -5.3125,12.28125 -2.9,1.1 -3.1875,-2.98125 -3.6875,-4.78125 -1.1,-2.7 -0.9875,-6.6125 -3.6875,-8.3125 -0.9,0.2 -2,0.21875 -3,0.21875 -2.7,-0.3 -5.525,2.075 -4.625,4.875 2.8,11.1 5.3,22.325 9,33.125 1.1,3.5 5.6125,2.875 8.3125,1.875 2.5,-2.7 2.8,-6.69375 4,-10.09375 1,-2 0.69375,-5.39375 3.09375,-6.09375 2.5,0.7 2.09375,4.1 3.09375,6 1.3,3.4 1.51875,7.6125 4.21875,10.3125 2.3,1 5.89375,0.88125 7.59375,-1.21875 2.4,-5.6 3.2875,-11.8 5.6875,-17.5 1.6,-1.9 3.4125,0.29375 3.8125,2.09375 1.7,4.9 4.1875,9.70625 4.6875,14.90625 -0.3,3 -4,1.29375 -5.5,3.09375 -2.2,1.5 -1.09375,4.71875 -0.0937,6.71875 2.4,3.6 8.1125,2.3875 10.8125,-0.3125 4.5,-5.1 5.5,-12.18125 9,-17.78125 2.2,-1.6 3.39375,1.6875 4.09375,3.1875 2.8,4.7 8.2125,8.4125 13.8125,7.3125 3.9,0.1 7.175,-2.3 9.875,-5 2.2,-1.4 3.00625,1.275 3.40625,2.875 1.7,2.8 5.79375,1.81875 8.59375,2.21875 5.5,0 11.125,-0.20625 16.625,-0.40625 1.3,-2.7 3.9875,-2.89375 6.1875,-1.09375 4,2.3 8.69375,0.6 13.09375,1 2.4,0 4.9,0.4 7,-1 2.1,-0.2 3.79375,1.6875 6.09375,1.1875 2,0.1 5.11875,-0.49375 4.71875,-3.09375 0.7,-5.7 0.29375,-11.7125 1.59375,-17.3125 1.4,-1.7 3.4,0.3 3,2 0.6,5.5 0.3125,11.1 0.8125,16.5 2,2.4 6.2875,2.90625 8.6875,0.90625 1.6,-4.4 0.8125,-9.30625 1.3125,-13.90625 0.4,-2.1 -0.4125,-5.2 1.6875,-6.5 -0.47147,-0.30734 -0.93283,-0.60587 -1.375,-0.9375 -1.9,-1.6 -3.51875,-3.48125 -5.21875,-5.28125 -0.74409,-0.74409 -1.04448,-1.75949 -1.40625,-2.78125 -5.4,-0.7 -10.9125,-0.49375 -16.3125,-0.0937 -1.8,1 -4.08125,1.8 -5.78125,0 -2.1,-0.4 -4.59375,-0.4 -6.59375,0.5 -1.8,3.1 -1,7.09375 -1.5,10.59375 -0.5,3.1 0.4875,6.70625 -1.3125,9.40625 -1.8,1.6 -3.7,-0.7875 -3.5,-2.6875 -1,-5.2 0.20625,-10.7125 -1.09375,-15.8125 -0.7,-1.8 -2.4125,-2.68125 -4.3125,-2.28125 -1.8,0 -4.4875,-0.1125 -4.6875,2.1875 -1,5.6 -0.69375,11.39375 -1.09375,17.09375 -1.7,2.6 -5.2125,1.00625 -7.8125,1.40625 -2.6,-0.4 -6.1125,1.2 -7.8125,-1.5 l 0,-27.1875 c -1.7,-2.5 -4.9,-1.925 -7.5,-1.625 -2.9,0.4 -2.3875,4.11875 -2.6875,6.21875 -0.6,2.5 0.7,5.8 -1.5,7.5 -2.5,0.3 -4.0125,-2.6125 -6.3125,-3.3125 -5.1,-2.4 -11.0875,-1.20625 -15.6875,1.59375 -2.3,0.4 -3.40625,-2.8 -5.90625,-2.5 -1.9,-0.2 -4.20625,-0.2875 -4.90625,1.8125 -1.9,2.3 -1.8,5.7875 -4,7.6875 -2.7,1 -2.7875,-2.68125 -3.6875,-4.28125 -1,-2.4 -2.39375,-6.00625 -5.59375,-5.40625 -2.5,0.2 -2.60625,-2.70625 -1.90625,-4.40625 0.6,-1.7 0.4125,-4.09375 -1.6875,-4.59375 -1.1375,-0.525 -2.59783,-0.86516 -3.9375,-0.78125 z M 626.75,707 c 0.2265,0.21419 0.45625,0.43125 0.71875,0.5625 -0.2282,-0.20344 -0.46825,-0.3861 -0.71875,-0.5625 z m 3.34375,6.5 c 0.0212,0.78301 0.0525,1.56074 0.0937,2.34375 0.2,1 -0.4125,1.81875 -0.8125,2.71875 -0.1,0.7 -0.5875,0.69375 -1.1875,0.59375 -2.1,0 -4.125,-0.49375 -6.125,-1.09375 -0.6,-0.4 -1.0875,-1 -1.6875,-1.5 -0.0262,-0.0262 -0.0673,-0.0368 -0.0937,-0.0625 0.30902,1.24352 0.17311,2.87895 0.28125,3.90625 0.2,4.9 0.0875,9.9875 1.1875,14.6875 2,1.3 4.91875,1.3875 7.21875,0.6875 1.6,-0.8 2.40625,-2.19375 1.90625,-4.09375 -0.33394,-6.011 0.27782,-12.22382 -0.78125,-18.1875 z" /><rect
     transform="matrix(0.07999016,0.99679565,-0.99679565,0.07999016,0,0)"
     id="rect3352"
     height="0.50000221"
     width="4.3000188"
     y="-448.06567"
     x="964.4978" /><rect
     transform="matrix(0.99967783,0.02538188,-0.02538188,0.99967783,0,0)"
     id="rect3354"
     height="19.600435"
     width="0.50001109"
     y="911.64563"
     x="545.60669" /><path
     style="fill:none;stroke:#ffffff;stroke-width:0.5"
     d="m 482.73549,922.19505 c 0,0 0.3,0.1 1.8,0.7 1.5,0.6 1,2 1,2"
     sodipodi:nodetypes="csc"
     inkscape:connector-curvature="0"
     inkscape:export-ydpi="110.36"
     inkscape:export-xdpi="110.36"
     inkscape:export-filename="C:\Documents and Settings\Justin\My Documents\Arduino\clockthree\Faceplate\Images\WyoLum_v5_red.png"
     id="path3162" /><path
     style="fill:none;stroke:#ffffff;stroke-width:0.5"
     d="m 506.93549,932.69505 c 0,0 0.3,0.1 1.8,0.7 1.5,0.6 1,2 1,2"
     sodipodi:nodetypes="csc"
     inkscape:connector-curvature="0"
     inkscape:export-ydpi="110.36"
     inkscape:export-xdpi="110.36"
     inkscape:export-filename="C:\Documents and Settings\Justin\My Documents\Arduino\clockthree\Faceplate\Images\WyoLum_v5_red.png"
     id="path3162-1" /><path
     inkscape:connector-curvature="0"
     id="path4810"
     d="m 591.6875,909.4375 -0.0625,0.0312 c -0.11838,0.0395 -0.35105,0.0731 -0.59375,0.21875 -0.12135,0.0728 -0.29627,0.23097 -0.34375,0.5 -0.0307,0.17394 0.0816,0.28091 0.15625,0.40625 l -0.0312,0 c 0.0209,0.0628 0.07,0.096 0.0937,0.15625 0.009,0.023 0.0218,0.0399 0.0312,0.0625 0.51983,1.24455 1.59228,2.00616 2.28125,2.78125 l 0.0312,0.0312 c 3.5,3.3 6.95624,6.57983 10.03125,10.25 l 0.0312,0 0,0.0312 c 1.36874,1.46651 2.811,3.06875 4.875,4.03125 l 0,0.0312 c 0.0296,0.0197 0.0639,0.0129 0.0937,0.0312 1.09366,0.67201 2.36303,0.47334 3.34375,0.5625 l 0.0312,0 c 4.08965,0.29924 8.18255,0.57393 12.3125,0.375 0.008,0 0.023,0 0.0312,0 0.17607,0 0.37707,-0.002 0.59375,-0.21875 0.11339,-0.11339 0.18768,-0.34268 0.15625,-0.53125 -0.0264,-0.15828 -0.10955,-0.22559 -0.1875,-0.3125 -0.0129,-0.02 -0.0181,-0.0429 -0.0312,-0.0625 -0.81952,-1.22057 -2.1362,-1.72146 -3.03125,-2.4375 l -0.0312,-0.0312 c -5.19754,-3.49834 -10.30625,-7 -15.40625,-10.5 l -0.0312,-0.0312 -0.0625,-0.0312 c -3.48204,-1.4923 -6.88033,-3.18338 -10.40625,-4.59375 l -0.0312,0 -0.0312,-0.0312 c -1.26533,-0.292 -2.40764,-0.71875 -3.71875,-0.71875 l -0.0937,0 z m 0.1875,1.03125 c 1.03872,0.0198 2.04685,0.3599 3.3125,0.65625 3.44018,1.37607 6.8312,3.03463 10.3125,4.53125 0.0343,0.0148 0.0594,0.0478 0.0937,0.0625 5.06214,3.47401 10.11771,6.96185 15.28125,10.4375 0.007,0.005 0.024,-0.005 0.0312,0 0.84729,0.67286 1.67198,1.14765 2.3125,1.75 -3.81319,0.13068 -7.65111,-0.0621 -11.5,-0.34375 -1.19251,-0.10841 -2.2821,0.0203 -2.96875,-0.4375 l -0.0312,0 -0.0312,-0.0312 c -1.8774,-0.84483 -3.24869,-2.3669 -4.65625,-3.875 l 0.0312,0 c -3.11547,-3.71846 -6.63558,-7.02248 -10.125,-10.3125 -0.0106,-0.0119 -0.0207,-0.0195 -0.0312,-0.0312 -0.79788,-0.88731 -1.6448,-1.53317 -2.03125,-2.40625 z"
     style="font-size:medium;font-style:normal;font-variant:normal;font-weight:normal;font-stretch:normal;text-indent:0;text-align:start;text-decoration:none;line-height:normal;letter-spacing:normal;word-spacing:normal;text-transform:none;direction:ltr;block-progression:tb;writing-mode:lr-tb;text-anchor:start;baseline-shift:baseline;color:#000000;fill:#000000;fill-opacity:1;fill-rule:nonzero;stroke:none;stroke-width:1;marker:none;visibility:visible;display:inline;overflow:visible;enable-background:accumulate;font-family:Sans;-inkscape-font-specification:Sans" /><rect
     transform="matrix(0.92274224,0.38541764,-0.38541764,0.92274224,0,0)"
     id="rect3375"
     height="0.99995422"
     width="8.3996153"
     y="615.40527"
     x="921.06439" /><rect
     transform="matrix(0.82631408,0.56320959,-0.56320959,0.82631408,0,0)"
     id="rect3377"
     height="1.0999813"
     width="5.5999045"
     y="417.63828"
     x="1019.2365" /><rect
     transform="matrix(0.80269187,0.59639396,-0.59639396,0.80269187,0,0)"
     id="rect3379"
     height="1.0000101"
     width="4.3000436"
     y="376.05975"
     x="1029.9274" /><rect
     transform="matrix(0.88047752,0.4740879,-0.4740879,0.88047752,0,0)"
     id="rect3381"
     height="1.0000255"
     width="4.3001099"
     y="520.83606"
     x="959.19983" /><rect
     id="rect3383"
     height="1"
     width="4.5999999"
     y="922.70709"
     x="606.72986" /><rect
     transform="matrix(0.99886821,0.04756364,-0.04756364,0.99886821,0,0)"
     id="rect3385"
     height="1.0000318"
     width="2.1000667"
     y="889.28418"
     x="646.8847" /><rect
     transform="matrix(0.08982755,0.99595733,-0.99595733,0.08982755,0,0)"
     id="rect3387"
     height="1.1000471"
     width="1.0000428"
     y="-516.71631"
     x="966.0257" /><path
     id="path2934-6-4-0-3-5-3-8"
     inkscape:connector-curvature="0"
     d="m 611.92606,922.77041 c -0.40312,0.002 -0.62963,0.24442 -0.39195,0.43487 0.19826,0.19291 0.76796,0.20306 0.9334,0.0103 0.17433,-0.17048 -0.0811,-0.40543 -0.42318,-0.45256 -0.0394,0.002 -0.0788,0.005 -0.11827,0.007 z"
     style="fill:#ffffff" /><path
     id="path2934-6-4-0-3-5-3-0"
     inkscape:connector-curvature="0"
     d="m 605.88601,922.86815 c -0.40312,0.002 -0.62963,0.24442 -0.39195,0.43487 0.19826,0.1929 0.76796,0.20306 0.9334,0.0103 0.17433,-0.17048 -0.0811,-0.40544 -0.42318,-0.45256 -0.0788,0.005 -0.11827,0.007 -0.11827,0.007 z"
     style="fill:#ffffff" /><path
     id="path2934-6-4-0-3-5-3-02"
     inkscape:connector-curvature="0"
     d="m 606.30216,919.27608 c -0.40313,0.002 -0.62964,0.24442 -0.39196,0.43487 0.19826,0.19291 0.76797,0.20306 0.93341,0.0103 0.17433,-0.17048 -0.0811,-0.40543 -0.42318,-0.45256 -0.0394,0.002 -0.0877,-0.0173 -0.11827,0.007 z"
     style="fill:#ffffff" /><path
     id="path2934-6-4-0-3-5-3-09"
     inkscape:connector-curvature="0"
     d="m 602.87962,919.22017 c -0.40312,0.002 -0.62963,0.24442 -0.39195,0.43488 0.19826,0.1929 0.76796,0.20306 0.9334,0.0103 0.17433,-0.17048 -0.0811,-0.40543 -0.42318,-0.45256 -0.0394,0.002 -0.0788,0.005 -0.11827,0.007 z"
     style="fill:#ffffff" /><path
     id="path2934-6-4-0-3-5-3-6"
     inkscape:connector-curvature="0"
     d="m 601.9488,915.89698 c -0.40312,0.002 -0.62964,0.24442 -0.39195,0.43487 0.19826,0.1929 0.76796,0.20306 0.9334,0.0103 0.17433,-0.17048 -0.0811,-0.40544 -0.42318,-0.45256 -0.0789,0.005 -0.11827,0.007 -0.11827,0.007 z"
     style="fill:#ffffff" /><path
     id="path2934-6-4-0-3-5-3-9"
     inkscape:connector-curvature="0"
     d="m 596.99061,913.37073 c -0.40312,0.002 -0.62964,0.24442 -0.39195,0.43487 0.19826,0.1929 0.76796,0.20306 0.9334,0.0103 0.17433,-0.17048 -0.0811,-0.40544 -0.42318,-0.45256 -0.0394,0.002 -0.0789,0.005 -0.11827,0.007 z"
     style="fill:#ffffff" /><path
     id="path2934-6-4-0-3-5-3-60"
     inkscape:connector-curvature="0"
     d="m 599.24236,916.04327 c -0.40312,0.002 -0.62963,0.24442 -0.39195,0.43487 0.19826,0.19291 0.76797,0.20307 0.93341,0.0103 0.17432,-0.17048 -0.0811,-0.40543 -0.42318,-0.45256 -0.0788,0.005 -0.11828,0.007 -0.11828,0.007 z"
     style="fill:#ffffff" /><path
     style="fill:none;stroke:#000000"
     d="m 622.70031,922.7938 c -0.1,-2.9 2.4,-5.9 3.3,-7.1 0.9,-1.3 -1.4,-2.9 -1.4,-2.9"
     inkscape:connector-curvature="0"
     id="path2908" /><path
     style="fill:none;stroke:#000000"
     d="m 622.20031,923.1938 c -1.4,-1.6 -4.5,-1.8 -4.5,-1.8"
     inkscape:connector-curvature="0"
     id="path2910" /><path
     d="m 623.30031,922.9938 c -0.6,0.2 -1.2,0.3 -1.7,0.7 -0.1,0.5 0.4,0.9 0.5,1.4 0.4,0.8 0.7,1.7 1.4,2.3 0.9,0.9 1.8,1.9 2.8,2.5 1,0.6 1.7,1.5 2.5,2.2 1.1,1.4 1.7,3.3 3.2,4.5 0.4,0.2 1.3,0.2 1.1,-0.5 0,-0.6 0.1,-1.3 -0.4,-1.8 -1.4,-1.8 -2.8,-3.8 -4.3,-5.6 -1.4,-1.2 -2.9,-2.3 -4.1,-3.6 -0.5,-0.6 0.1,-1.7 -0.6,-2.2 0,0.1 -0.2,0.1 -0.4,0.1 l 0,0 z"
     inkscape:connector-curvature="0"
     id="path3094" /><path
     id="path2934-6-4-0-3"
     inkscape:connector-curvature="0"
     d="m 636.84316,911.76194 c -0.33005,0.20292 -0.38951,0.52223 -0.0946,0.56605 0.26382,0.0656 0.73725,-0.2098 0.77237,-0.45655 0.0541,-0.23221 -0.27875,-0.30511 -0.58446,-0.17474 -0.0311,0.0217 -0.0622,0.0435 -0.0933,0.0652 z"
     style="fill:#ffffff" /><path
     id="path2934-6-4-0-3-1"
     inkscape:connector-curvature="0"
     d="m 638.17254,907.3471 c -0.33005,0.20292 -0.3895,0.52223 -0.0946,0.56606 0.26382,0.0656 0.73726,-0.20981 0.77238,-0.45656 0.0541,-0.23221 -0.27875,-0.3051 -0.58447,-0.17474 -0.0311,0.0217 -0.0622,0.0435 -0.0933,0.0652 z"
     style="fill:#ffffff" /><path
     id="path2934-6-4-0-3-6"
     inkscape:connector-curvature="0"
     d="m 638.98227,903.57747 c -0.33005,0.20293 -0.38951,0.52224 -0.0946,0.56606 0.26382,0.0656 0.73725,-0.2098 0.77237,-0.45655 0.0541,-0.23222 -0.27875,-0.30511 -0.58446,-0.17474 -0.0311,0.0217 -0.0622,0.0435 -0.0933,0.0652 z"
     style="fill:#ffffff" /><path
     id="path2934-6-4-0-3-1-1"
     inkscape:connector-curvature="0"
     d="m 641.22858,898.6891 c -0.33004,0.20292 -0.3895,0.52223 -0.0946,0.56605 0.26381,0.0656 0.73725,-0.2098 0.77237,-0.45655 0.0541,-0.23222 -0.27875,-0.30511 -0.58446,-0.17474 -0.0311,0.0217 -0.0622,0.0435 -0.0933,0.0652 z"
     style="fill:#ffffff" /><path
     id="path2934-6-4-0-3-1-5"
     inkscape:connector-curvature="0"
     d="m 641.42615,898.58172 c -0.33005,0.20292 -0.38951,0.52223 -0.0946,0.56606 0.26382,0.0656 0.73725,-0.20981 0.77237,-0.45656 0.0541,-0.23221 -0.27875,-0.3051 -0.58446,-0.17474 -0.0311,0.0217 -0.0622,0.0435 -0.0933,0.0652 z"
     style="fill:#ffffff" /><path
     id="path2934-6-4-0-3-1-9"
     inkscape:connector-curvature="0"
     d="m 642.3065,902.77824 c -0.33005,0.20293 -0.3895,0.52223 -0.0946,0.56606 0.26382,0.0656 0.73725,-0.20981 0.77238,-0.45656 0.0541,-0.23221 -0.27875,-0.3051 -0.58447,-0.17474 -0.0311,0.0217 -0.0622,0.0435 -0.0933,0.0652 z"
     style="fill:#ffffff" /><path
     id="path2934-6-4-0-3-1-9-7"
     inkscape:connector-curvature="0"
     d="m 643.09643,906.68379 c -0.33005,0.20292 -0.38951,0.52223 -0.0946,0.56605 0.26382,0.0656 0.73725,-0.2098 0.77237,-0.45655 0.0541,-0.23221 -0.27875,-0.3051 -0.58446,-0.17474 -0.0311,0.0217 -0.0622,0.0435 -0.0933,0.0652 z"
     style="fill:#ffffff" /><path
     id="path2934-6-4-0-3-1-9-7-1"
     inkscape:connector-curvature="0"
     d="m 643.59131,910.78203 c -0.33004,0.20292 -0.3895,0.52223 -0.0946,0.56605 0.26381,0.0656 0.73725,-0.2098 0.77237,-0.45655 0.0541,-0.23221 -0.27875,-0.30511 -0.58446,-0.17474 -0.0622,0.0435 -0.0622,0.0435 -0.0933,0.0652 z"
     style="fill:#ffffff" /><rect
     transform="matrix(0.88647071,0.46278471,-0.46278471,0.88647071,0,0)"
     id="rect3507"
     height="12.40041"
     width="1.000033"
     y="514.23206"
     x="985.85895" /><rect
     transform="matrix(0.1074017,0.99421571,-0.99421571,0.1074017,0,0)"
     id="rect3509"
     height="5.4999132"
     width="0.9999842"
     y="-541.6496"
     x="974.4826" /><rect
     transform="matrix(0.97932263,0.20230468,-0.20230468,0.97932263,0,0)"
     id="rect3511"
     height="3.3999214"
     width="0.99997687"
     y="760.2207"
     x="807.98309" /><rect
     transform="matrix(0.11720097,0.99310822,-0.99310822,0.11720097,0,0)"
     id="rect3513"
     height="3.2999725"
     width="0.99999171"
     y="-531.90503"
     x="975.53229" /><rect
     transform="matrix(0.9912898,0.13169864,-0.13169864,0.9912898,0,0)"
     id="rect3515"
     height="3.0000308"
     width="1.0000103"
     y="812.03961"
     x="751.60492" /><rect
     transform="matrix(0.16410708,0.98644253,-0.98644253,0.16410708,0,0)"
     id="rect3517"
     height="1.7999223"
     width="0.99995691"
     y="-484.96021"
     x="995.64545" /><rect
     transform="matrix(0.93135192,0.3641203,-0.3641203,0.93135192,0,0)"
     id="rect3519"
     height="4.7997327"
     width="0.99994427"
     y="603.61774"
     x="923.73071" /><path
     inkscape:connector-curvature="0"
     id="path5007-7"
     d="m 639.01029,902.52848 c -0.59661,0 -1.07693,0.4876 -1.07693,1.07189 0,0.58429 0.48032,1.04859 1.07693,1.04859 0.59662,0 1.07693,-0.4643 1.07693,-1.04859 0,-0.58429 -0.48031,-1.07189 -1.07693,-1.07189 z m 0,0.55925 c 0.27612,0 0.50257,0.2242 0.50257,0.51264 0,0.28844 -0.22645,0.48934 -0.50257,0.48934 -0.27611,0 -0.50256,-0.2009 -0.50256,-0.48934 0,-0.28844 0.22645,-0.51264 0.50256,-0.51264 z"
     style="font-size:medium;font-style:normal;font-variant:normal;font-weight:normal;font-stretch:normal;text-indent:0;text-align:start;text-decoration:none;line-height:normal;letter-spacing:normal;word-spacing:normal;text-transform:none;direction:ltr;block-progression:tb;writing-mode:lr-tb;text-anchor:start;baseline-shift:baseline;color:#000000;fill:#000000;fill-opacity:1;stroke:none;stroke-width:0.75400001;marker:none;visibility:visible;display:inline;overflow:visible;enable-background:accumulate;font-family:Sans;-inkscape-font-specification:Sans" /><path
     inkscape:connector-curvature="0"
     id="path5007-7-4"
     d="m 641.40746,896.86882 c -0.59661,0 -1.07693,0.4876 -1.07693,1.07189 0,0.58429 0.48032,1.04859 1.07693,1.04859 0.59662,0 1.07693,-0.4643 1.07693,-1.04859 0,-0.58429 -0.48031,-1.07189 -1.07693,-1.07189 z m 0,0.55925 c 0.27612,0 0.50257,0.2242 0.50257,0.51264 0,0.28844 -0.22645,0.48934 -0.50257,0.48934 -0.27611,0 -0.50256,-0.2009 -0.50256,-0.48934 0,-0.28844 0.22645,-0.51264 0.50256,-0.51264 z"
     style="font-size:medium;font-style:normal;font-variant:normal;font-weight:normal;font-stretch:normal;text-indent:0;text-align:start;text-decoration:none;line-height:normal;letter-spacing:normal;word-spacing:normal;text-transform:none;direction:ltr;block-progression:tb;writing-mode:lr-tb;text-anchor:start;baseline-shift:baseline;color:#000000;fill:#000000;fill-opacity:1;stroke:none;stroke-width:0.75400001;marker:none;visibility:visible;display:inline;overflow:visible;enable-background:accumulate;font-family:Sans;-inkscape-font-specification:Sans" /><path
     inkscape:connector-curvature="0"
     id="path5007-7-0"
     d="m 642.35553,901.88802 c -0.59661,0 -1.07693,0.4876 -1.07693,1.07189 0,0.58429 0.48032,1.04859 1.07693,1.04859 0.59662,0 1.07693,-0.4643 1.07693,-1.04859 0,-0.58429 -0.48031,-1.07189 -1.07693,-1.07189 z m 0,0.55925 c 0.27612,0 0.50257,0.2242 0.50257,0.51264 0,0.28844 -0.22645,0.48934 -0.50257,0.48934 -0.27611,0 -0.50256,-0.2009 -0.50256,-0.48934 0,-0.28844 0.22645,-0.51264 0.50256,-0.51264 z"
     style="font-size:medium;font-style:normal;font-variant:normal;font-weight:normal;font-stretch:normal;text-indent:0;text-align:start;text-decoration:none;line-height:normal;letter-spacing:normal;word-spacing:normal;text-transform:none;direction:ltr;block-progression:tb;writing-mode:lr-tb;text-anchor:start;baseline-shift:baseline;color:#000000;fill:#000000;fill-opacity:1;stroke:none;stroke-width:0.75400001;marker:none;visibility:visible;display:inline;overflow:visible;enable-background:accumulate;font-family:Sans;-inkscape-font-specification:Sans" /><path
     inkscape:connector-curvature="0"
     id="path5007-7-9"
     d="m 643.19206,905.6803 c -0.59661,0 -1.07693,0.4876 -1.07693,1.07189 0,0.58429 0.48032,1.04859 1.07693,1.04859 0.59662,0 1.07693,-0.4643 1.07693,-1.04859 0,-0.58429 -0.48031,-1.07189 -1.07693,-1.07189 z m 0,0.55925 c 0.27612,0 0.50257,0.2242 0.50257,0.51264 0,0.28844 -0.22645,0.48934 -0.50257,0.48934 -0.27611,0 -0.50256,-0.2009 -0.50256,-0.48934 0,-0.28844 0.22645,-0.51264 0.50256,-0.51264 z"
     style="font-size:medium;font-style:normal;font-variant:normal;font-weight:normal;font-stretch:normal;text-indent:0;text-align:start;text-decoration:none;line-height:normal;letter-spacing:normal;word-spacing:normal;text-transform:none;direction:ltr;block-progression:tb;writing-mode:lr-tb;text-anchor:start;baseline-shift:baseline;color:#000000;fill:#000000;fill-opacity:1;stroke:none;stroke-width:0.75400001;marker:none;visibility:visible;display:inline;overflow:visible;enable-background:accumulate;font-family:Sans;-inkscape-font-specification:Sans" /><path
     inkscape:connector-curvature="0"
     id="path5007-7-48"
     d="m 638.28441,906.4053 c -0.59661,0 -1.07693,0.4876 -1.07693,1.07189 0,0.58429 0.48032,1.04859 1.07693,1.04859 0.59662,0 1.07693,-0.4643 1.07693,-1.04859 0,-0.58429 -0.48031,-1.07189 -1.07693,-1.07189 z m 0,0.55925 c 0.27612,0 0.50257,0.2242 0.50257,0.51264 0,0.28844 -0.22645,0.48934 -0.50257,0.48934 -0.27611,0 -0.50256,-0.2009 -0.50256,-0.48934 0,-0.28844 0.22645,-0.51264 0.50256,-0.51264 z"
     style="font-size:medium;font-style:normal;font-variant:normal;font-weight:normal;font-stretch:normal;text-indent:0;text-align:start;text-decoration:none;line-height:normal;letter-spacing:normal;word-spacing:normal;text-transform:none;direction:ltr;block-progression:tb;writing-mode:lr-tb;text-anchor:start;baseline-shift:baseline;color:#000000;fill:#000000;fill-opacity:1;stroke:none;stroke-width:0.75400001;marker:none;visibility:visible;display:inline;overflow:visible;enable-background:accumulate;font-family:Sans;-inkscape-font-specification:Sans" /><path
     inkscape:connector-curvature="0"
     id="path5007-7-8"
     d="m 637.00172,910.81104 c -0.59661,0 -1.07693,0.4876 -1.07693,1.07189 0,0.58429 0.48032,1.04859 1.07693,1.04859 0.59662,0 1.07693,-0.4643 1.07693,-1.04859 0,-0.58429 -0.48031,-1.07189 -1.07693,-1.07189 z m 0,0.55925 c 0.27612,0 0.50257,0.2242 0.50257,0.51264 0,0.28844 -0.22645,0.48934 -0.50257,0.48934 -0.27611,0 -0.50256,-0.2009 -0.50256,-0.48934 0,-0.28844 0.22645,-0.51264 0.50256,-0.51264 z"
     style="font-size:medium;font-style:normal;font-variant:normal;font-weight:normal;font-stretch:normal;text-indent:0;text-align:start;text-decoration:none;line-height:normal;letter-spacing:normal;word-spacing:normal;text-transform:none;direction:ltr;block-progression:tb;writing-mode:lr-tb;text-anchor:start;baseline-shift:baseline;color:#000000;fill:#000000;fill-opacity:1;stroke:none;stroke-width:0.75400001;marker:none;visibility:visible;display:inline;overflow:visible;enable-background:accumulate;font-family:Sans;-inkscape-font-specification:Sans" /><path
     inkscape:connector-curvature="0"
     id="path5007-7-2"
     d="m 643.69399,909.86297 c -0.59661,0 -1.07693,0.4876 -1.07693,1.07189 0,0.58429 0.48032,1.04859 1.07693,1.04859 0.59662,0 1.07693,-0.4643 1.07693,-1.04859 0,-0.58429 -0.48031,-1.07189 -1.07693,-1.07189 z m 0,0.55925 c 0.27612,0 0.50257,0.2242 0.50257,0.51264 0,0.28844 -0.22645,0.48934 -0.50257,0.48934 -0.27611,0 -0.50256,-0.2009 -0.50256,-0.48934 0,-0.28844 0.22645,-0.51264 0.50256,-0.51264 z"
     style="font-size:medium;font-style:normal;font-variant:normal;font-weight:normal;font-stretch:normal;text-indent:0;text-align:start;text-decoration:none;line-height:normal;letter-spacing:normal;word-spacing:normal;text-transform:none;direction:ltr;block-progression:tb;writing-mode:lr-tb;text-anchor:start;baseline-shift:baseline;color:#000000;fill:#000000;fill-opacity:1;stroke:none;stroke-width:0.75400001;marker:none;visibility:visible;display:inline;overflow:visible;enable-background:accumulate;font-family:Sans;-inkscape-font-specification:Sans" /><g
     transform="translate(184.23657,495.95326)"
     id="g3486"><g
       id="g3465"
       transform="translate(0,-34)"><path
         id="path2934-6-4-0-3-5-8"
         inkscape:connector-curvature="0"
         d="m 459.87491,459.53519 c -0.33005,0.20292 -0.3895,0.52223 -0.0946,0.56605 0.26382,0.0656 0.73726,-0.2098 0.77238,-0.45655 0.0541,-0.23222 -0.27875,-0.30511 -0.58447,-0.17474 -0.0311,0.0217 -0.0622,0.0435 -0.0933,0.0652 z"
         style="fill:#ffffff" /><path
         id="path2934-6-4-0-3-5-8-5"
         inkscape:connector-curvature="0"
         d="m 461.52851,462.57138 c -0.33005,0.20293 -0.3895,0.52224 -0.0946,0.56606 0.26382,0.0656 0.73726,-0.20981 0.77238,-0.45655 0.0541,-0.23222 -0.27875,-0.30511 -0.58446,-0.17475 -0.0311,0.0217 -0.0622,0.0435 -0.0933,0.0652 z"
         style="fill:#ffffff" /><path
         id="path2934-6-4-0-3-5-8-5-6"
         inkscape:connector-curvature="0"
         d="m 460.46012,465.98516 c -0.33005,0.20292 -0.3895,0.52223 -0.0946,0.56606 0.26382,0.0656 0.73726,-0.20981 0.77238,-0.45656 0.0541,-0.23221 -0.27875,-0.3051 -0.58446,-0.17474 -0.0311,0.0217 -0.0622,0.0435 -0.0933,0.0652 z"
         style="fill:#ffffff" /><path
         id="path2934-6-4-0-3-5-8-5-6-2"
         inkscape:connector-curvature="0"
         d="m 455.9606,468.32221 c -0.33005,0.20293 -0.38951,0.52224 -0.0946,0.56606 0.26382,0.0656 0.73725,-0.2098 0.77237,-0.45655 0.0541,-0.23222 -0.27874,-0.30511 -0.58446,-0.17474 -0.0122,0.0363 -0.0622,0.0435 -0.0933,0.0652 z"
         style="fill:#ffffff" /><path
         id="path2934-6-4-0-3-5-8-5-6-2-6"
         inkscape:connector-curvature="0"
         d="m 450.67808,468.43822 c -0.33005,0.20292 -0.3895,0.52223 -0.0946,0.56605 0.26381,0.0656 0.73725,-0.2098 0.77237,-0.45655 0.0541,-0.23221 -0.27875,-0.30511 -0.58446,-0.17474 -0.0311,0.0217 -0.0622,0.0435 -0.0933,0.0652 z"
         style="fill:#ffffff" /><rect
         transform="matrix(0.57356972,0.81915675,-0.81915675,0.57356972,0,0)"
         id="rect3464"
         height="1.0000528"
         width="2.4001267"
         y="-113.75284"
         x="640.9975" /><rect
         transform="matrix(0.97025416,0.24208856,-0.24208856,0.97025416,0,0)"
         id="rect3466"
         height="2.4001136"
         width="1.0000472"
         y="337.79449"
         x="559.75275" /><rect
         transform="matrix(0.50179291,0.86498779,-0.86498779,0.50179291,0,0)"
         id="rect3468"
         height="3.5000494"
         width="1.0000141"
         y="-163.70865"
         x="633.96924" /><rect
         transform="matrix(0.02538193,0.99967783,-0.99967783,0.02538193,0,0)"
         id="rect3470"
         height="3.7000821"
         width="1.0000222"
         y="-443.43274"
         x="479.54065" /><path
         inkscape:connector-curvature="0"
         id="path3472"
         d="m 461.21197,459.4645 -1,-0.2 c 0.1,-0.7 2.2,-2.5 3.9,-3.8 l 0.6,0.8 c -1.5,1.2 -3.3,2.8 -3.5,3.2 z" /><rect
         transform="matrix(0.33029252,0.94387862,-0.94387862,0.33029252,0,0)"
         id="rect3474"
         height="4.1000929"
         width="1.0000226"
         y="-288.00067"
         x="588.65222" /><rect
         transform="matrix(0.03907229,0.99923639,-0.99923639,0.03907229,0,0)"
         id="rect3476"
         height="5.0998144"
         width="0.99996358"
         y="-448.13708"
         x="483.51889" /><rect
         transform="matrix(0.96397494,0.26599308,-0.26599308,0.96397494,0,0)"
         id="rect3478"
         height="1.000026"
         width="8.8002291"
         y="329.97012"
         x="565.1629" /><rect
         transform="matrix(0.88493341,0.46571758,-0.46571758,0.88493341,0,0)"
         id="rect3480"
         height="0.99996227"
         width="10.499603"
         y="204.61743"
         x="617.59216" /><path
         inkscape:connector-curvature="0"
         id="path5007-7-45"
         d="m 460.01509,458.69235 c -0.59661,0 -1.07693,0.4876 -1.07693,1.07189 0,0.58429 0.48032,1.04859 1.07693,1.04859 0.59662,0 1.07693,-0.4643 1.07693,-1.04859 0,-0.58429 -0.48031,-1.07189 -1.07693,-1.07189 z m 0,0.55925 c 0.27612,0 0.50257,0.2242 0.50257,0.51264 0,0.28844 -0.22645,0.48934 -0.50257,0.48934 -0.27611,0 -0.50256,-0.2009 -0.50256,-0.48934 0,-0.28844 0.22645,-0.51264 0.50256,-0.51264 z"
         style="font-size:medium;font-style:normal;font-variant:normal;font-weight:normal;font-stretch:normal;text-indent:0;text-align:start;text-decoration:none;line-height:normal;letter-spacing:normal;word-spacing:normal;text-transform:none;direction:ltr;block-progression:tb;writing-mode:lr-tb;text-anchor:start;baseline-shift:baseline;color:#000000;fill:#000000;fill-opacity:1;stroke:none;stroke-width:0.75400001;marker:none;visibility:visible;display:inline;overflow:visible;enable-background:accumulate;font-family:Sans;-inkscape-font-specification:Sans" /><path
         inkscape:connector-curvature="0"
         id="path5007-7-5"
         d="m 461.75927,461.67114 c -0.59661,0 -1.07693,0.4876 -1.07693,1.07189 0,0.58429 0.48032,1.04859 1.07693,1.04859 0.59662,0 1.07693,-0.4643 1.07693,-1.04859 0,-0.58429 -0.48031,-1.07189 -1.07693,-1.07189 z m 0,0.55925 c 0.27612,0 0.50257,0.2242 0.50257,0.51264 0,0.28844 -0.22645,0.48934 -0.50257,0.48934 -0.27611,0 -0.50256,-0.2009 -0.50256,-0.48934 0,-0.28844 0.22645,-0.51264 0.50256,-0.51264 z"
         style="font-size:medium;font-style:normal;font-variant:normal;font-weight:normal;font-stretch:normal;text-indent:0;text-align:start;text-decoration:none;line-height:normal;letter-spacing:normal;word-spacing:normal;text-transform:none;direction:ltr;block-progression:tb;writing-mode:lr-tb;text-anchor:start;baseline-shift:baseline;color:#000000;fill:#000000;fill-opacity:1;stroke:none;stroke-width:0.75400001;marker:none;visibility:visible;display:inline;overflow:visible;enable-background:accumulate;font-family:Sans;-inkscape-font-specification:Sans" /><path
         inkscape:connector-curvature="0"
         id="path5007-7-1"
         d="m 460.75544,465.24034 c -0.59661,0 -1.07693,0.4876 -1.07693,1.07189 0,0.58429 0.48032,1.04859 1.07693,1.04859 0.59662,0 1.07693,-0.4643 1.07693,-1.04859 0,-0.58429 -0.48031,-1.07189 -1.07693,-1.07189 z m 0,0.55925 c 0.27612,0 0.50257,0.2242 0.50257,0.51264 0,0.28844 -0.22645,0.48934 -0.50257,0.48934 -0.27611,0 -0.50256,-0.2009 -0.50256,-0.48934 0,-0.28844 0.22645,-0.51264 0.50256,-0.51264 z"
         style="font-size:medium;font-style:normal;font-variant:normal;font-weight:normal;font-stretch:normal;text-indent:0;text-align:start;text-decoration:none;line-height:normal;letter-spacing:normal;word-spacing:normal;text-transform:none;direction:ltr;block-progression:tb;writing-mode:lr-tb;text-anchor:start;baseline-shift:baseline;color:#000000;fill:#000000;fill-opacity:1;stroke:none;stroke-width:0.75400001;marker:none;visibility:visible;display:inline;overflow:visible;enable-background:accumulate;font-family:Sans;-inkscape-font-specification:Sans" /><path
         inkscape:connector-curvature="0"
         id="path5007-7-7"
         d="m 456.29392,467.52687 c -0.59661,0 -1.07693,0.4876 -1.07693,1.07189 0,0.58429 0.48032,1.04859 1.07693,1.04859 0.59662,0 1.07693,-0.4643 1.07693,-1.04859 0,-0.58429 -0.48031,-1.07189 -1.07693,-1.07189 z m 0,0.55925 c 0.27612,0 0.50257,0.2242 0.50257,0.51264 0,0.28844 -0.22645,0.48934 -0.50257,0.48934 -0.27611,0 -0.50256,-0.2009 -0.50256,-0.48934 0,-0.28844 0.22645,-0.51264 0.50256,-0.51264 z"
         style="font-size:medium;font-style:normal;font-variant:normal;font-weight:normal;font-stretch:normal;text-indent:0;text-align:start;text-decoration:none;line-height:normal;letter-spacing:normal;word-spacing:normal;text-transform:none;direction:ltr;block-progression:tb;writing-mode:lr-tb;text-anchor:start;baseline-shift:baseline;color:#000000;fill:#000000;fill-opacity:1;stroke:none;stroke-width:0.75400001;marker:none;visibility:visible;display:inline;overflow:visible;enable-background:accumulate;font-family:Sans;-inkscape-font-specification:Sans" /><path
         inkscape:connector-curvature="0"
         id="path5007-7-11"
         d="m 450.82858,467.35956 c -0.59661,0 -1.07693,0.4876 -1.07693,1.07189 0,0.58429 0.48032,1.04859 1.07693,1.04859 0.59662,0 1.07693,-0.4643 1.07693,-1.04859 0,-0.58429 -0.48031,-1.07189 -1.07693,-1.07189 z m 0,0.55925 c 0.27612,0 0.50257,0.2242 0.50257,0.51264 0,0.28844 -0.22645,0.48934 -0.50257,0.48934 -0.27611,0 -0.50256,-0.2009 -0.50256,-0.48934 0,-0.28844 0.22645,-0.51264 0.50256,-0.51264 z"
         style="font-size:medium;font-style:normal;font-variant:normal;font-weight:normal;font-stretch:normal;text-indent:0;text-align:start;text-decoration:none;line-height:normal;letter-spacing:normal;word-spacing:normal;text-transform:none;direction:ltr;block-progression:tb;writing-mode:lr-tb;text-anchor:start;baseline-shift:baseline;color:#000000;fill:#000000;fill-opacity:1;stroke:none;stroke-width:0.75400001;marker:none;visibility:visible;display:inline;overflow:visible;enable-background:accumulate;font-family:Sans;-inkscape-font-specification:Sans" /></g></g><path
     inkscape:connector-curvature="0"
     id="path4808"
     d="m 609.875,928.75 -0.15625,0.28125 c -0.0702,0.14037 -0.0937,0.15625 -0.0937,0.15625 l -0.0312,0.0312 -0.0312,0.0625 c -0.28817,0.43225 -0.24112,0.95435 0,1.40625 l -0.0625,0.0312 c 0.39085,1.07485 0.70715,2.26965 1.625,3.1875 1.68693,1.78616 3.27536,3.67596 5.21875,5.3125 l 0.0312,0.0312 c 1.24978,0.93733 2.63125,1.63125 3.65625,2.65625 l 0.0312,0.0312 c 0.55382,0.46152 1.06466,1.07436 1.75,1.53125 l 0.0625,0.0312 0.0625,0.0312 c 1.98536,0.59561 4.01226,1.11029 6.15625,1.125 0.0316,2.2e-4 0.0621,0 0.0937,0 0.29613,0.0478 0.59833,0.0885 0.9375,-0.0312 0.33388,-0.11784 0.55418,-0.50333 0.65625,-0.90625 l 0.0625,0.0312 c 0.36242,-0.81544 1.02101,-1.73289 0.8125,-2.9375 l 0.0312,0 c -0.0991,-1.88253 -0.11783,-3.77003 -0.21875,-5.6875 l 0,-0.15625 -0.0937,-0.0937 c -0.73464,-1.04948 -1.65732,-1.99041 -2.59375,-2.71875 l -0.0312,-0.0312 -0.0625,-0.0312 c -0.60024,-0.30012 -1.17424,-1.09593 -1.78125,-1.8125 -0.0161,-0.0268 -0.0453,-0.0367 -0.0625,-0.0625 -0.36078,-0.54004 -0.94829,-0.83132 -1.5625,-0.75 l 0,-0.0312 c -3.42966,-0.10087 -6.88661,0.11502 -10.21875,-0.375 l -0.0312,0 c -1.27263,-0.0979 -2.49247,-0.3125 -3.84375,-0.3125 l -0.3125,0 z m 0.5625,1.03125 c 1.15815,0.0233 2.26143,0.18598 3.5,0.28125 l 0,-0.0312 c 3.45783,0.50423 6.9522,0.30742 10.3125,0.40625 l 0.0625,0 0.0625,0 c 0.324,-0.0648 0.45812,-0.007 0.6875,0.375 l 0,0.0312 0.0312,0.0312 c 0.54913,0.64065 1.14347,1.55858 2.0625,2.0625 0.83058,0.646 1.65793,1.49814 2.3125,2.40625 0.0912,1.83182 0.1206,3.66638 0.21875,5.53125 l 0,0.0312 0,0.0312 c 0.15223,0.76114 -0.35055,1.43716 -0.78125,2.40625 l 0,0.0625 -0.0312,0.0625 c -0.0335,0.23451 -0.0105,0.20041 -0.0625,0.21875 -0.052,0.0183 -0.28472,0.015 -0.5625,-0.0312 l -0.0312,0 -0.0312,0 c -1.99813,0 -3.94377,-0.47605 -5.90625,-1.0625 -0.48781,-0.33965 -0.95451,-0.89321 -1.5625,-1.40625 -0.011,-0.011 -0.0202,-0.0203 -0.0312,-0.0312 -1.15755,-1.14438 -2.55381,-1.84382 -3.6875,-2.6875 -0.0112,-0.009 -0.0201,-0.0218 -0.0312,-0.0312 -1.84228,-1.55788 -3.42222,-3.41581 -5.125,-5.21875 l 0,-0.0312 c -0.68215,-0.68215 -0.9971,-1.68735 -1.40625,-2.8125 l 0,-0.0625 -0.0312,-0.0312 c -0.0862,-0.12932 -0.0862,-0.33943 0,-0.46875 0.005,-0.006 0.0246,-0.0234 0.0312,-0.0312 z"
     style="font-size:medium;font-style:normal;font-variant:normal;font-weight:normal;font-stretch:normal;text-indent:0;text-align:start;text-decoration:none;line-height:normal;letter-spacing:normal;word-spacing:normal;text-transform:none;direction:ltr;block-progression:tb;writing-mode:lr-tb;text-anchor:start;baseline-shift:baseline;color:#000000;fill:#000000;fill-opacity:1;fill-rule:nonzero;stroke:none;stroke-width:1;marker:none;visibility:visible;display:inline;overflow:visible;enable-background:accumulate;font-family:Sans;-inkscape-font-specification:Sans" /><g
     transform="translate(184.94623,516.18981)"
     id="g3444"><path
       style="fill:#ffffff"
       d="m 430.95648,415.51235 c -0.40313,0.002 -0.62964,0.24442 -0.39195,0.43487 0.19826,0.1929 0.76796,0.20306 0.9334,0.0103 0.17433,-0.17048 -0.0811,-0.40544 -0.42318,-0.45256 -0.0394,0.002 -0.0788,0.005 -0.11827,0.007 z"
       inkscape:connector-curvature="0"
       id="path2934-6-4-0-3-5-3" /><path
       style="fill:#ffffff"
       d="m 434.38393,418.92214 c -0.40312,0.002 -0.62963,0.24443 -0.39195,0.43488 0.19826,0.1929 0.76796,0.20306 0.9334,0.0103 0.17433,-0.17048 -0.0811,-0.40544 -0.42318,-0.45257 -0.0788,0.005 -0.0788,0.005 -0.11827,0.007 z"
       inkscape:connector-curvature="0"
       id="path2934-6-4-0-3-5-3-3" /><path
       style="fill:#ffffff"
       d="m 438.92299,421.2971 c -0.40313,0.002 -0.62964,0.24443 -0.39196,0.43488 0.19826,0.1929 0.76797,0.20306 0.93341,0.0103 0.17433,-0.17048 -0.0811,-0.40544 -0.42318,-0.45257 -0.0394,0.002 -0.0788,0.005 -0.11827,0.007 z"
       inkscape:connector-curvature="0"
       id="path2934-6-4-0-3-5-3-1" /><path
       style="fill:#ffffff"
       d="m 440.82767,417.69282 c -0.40312,0.002 -0.62963,0.24442 -0.39195,0.43487 0.19826,0.19291 0.76796,0.20306 0.9334,0.0103 0.17433,-0.17048 -0.0811,-0.40543 -0.42318,-0.45256 -0.0394,0.002 -0.0788,0.005 -0.11827,0.007 z"
       inkscape:connector-curvature="0"
       id="path2934-6-4-0-3-5-3-7" /><path
       style="fill:#ffffff"
       d="m 441.11402,419.87124 c -0.40312,0.002 -0.62963,0.24443 -0.39195,0.43488 0.19826,0.1929 0.76796,0.20306 0.9334,0.0103 0.17433,-0.17048 -0.0811,-0.40544 -0.42318,-0.45257 -0.0394,0.002 -0.0789,0.005 -0.11827,0.007 z"
       inkscape:connector-curvature="0"
       id="path2934-6-4-0-3-5-3-79" /><rect
       x="454.28812"
       y="383.94006"
       width="3.9999509"
       height="0.99998772"
       id="rect3426"
       transform="matrix(0.99751227,0.07049303,-0.07049303,0.99751227,0,0)" /><rect
       x="599.21527"
       y="-16.600208"
       width="3.8001096"
       height="1.0000288"
       id="rect3428"
       transform="matrix(0.70087978,0.71327942,-0.71327942,0.70087978,0,0)" /><rect
       x="518.33453"
       y="-307.92413"
       width="0.99996907"
       height="3.1999011"
       id="rect3430"
       transform="matrix(0.26360816,0.96462985,-0.96462985,0.26360816,0,0)" /><rect
       x="580.71552"
       y="167.11949"
       width="3.800004"
       height="1.0000011"
       id="rect3432"
       transform="matrix(0.88409907,0.46729951,-0.46729951,0.88409907,0,0)" /><rect
       x="580.58478"
       y="181.12924"
       width="0.9999696"
       height="3.8998816"
       id="rect3434"
       transform="matrix(0.89442719,0.4472136,-0.4472136,0.89442719,0,0)" /><rect
       x="597.83459"
       y="-113.72652"
       width="1.0000323"
       height="1.2000388"
       id="rect3436"
       transform="matrix(0.58188123,0.81327377,-0.81327377,0.58188123,0,0)" /><rect
       x="450.83051"
       y="-408.24277"
       width="1.2000378"
       height="1.0000315"
       id="rect3438"
       transform="matrix(0.07651311,0.99706858,-0.99706858,0.07651311,0,0)" /><rect
       x="605.00439"
       y="-76.561989"
       width="4.4000726"
       height="1.0000165"
       id="rect3440"
       transform="matrix(0.63258956,0.77448722,-0.77448722,0.63258956,0,0)" /><rect
       x="580.69305"
       y="180.85567"
       width="2.6000099"
       height="1.0000038"
       id="rect3442"
       transform="matrix(0.89809656,0.43979832,-0.43979832,0.89809656,0,0)" /><path
       inkscape:connector-curvature="0"
       id="path5007-7-52"
       d="m 441.01327,416.59416 c -0.59662,0 -1.07693,0.4876 -1.07693,1.07189 0,0.58429 0.48031,1.04859 1.07693,1.04859 0.59661,0 1.07693,-0.4643 1.07693,-1.04859 0,-0.58429 -0.48032,-1.07189 -1.07693,-1.07189 z m 0,0.55925 c 0.27611,0 0.50256,0.2242 0.50256,0.51264 0,0.28844 -0.22645,0.48934 -0.50256,0.48934 -0.27612,0 -0.50257,-0.2009 -0.50257,-0.48934 0,-0.28844 0.22645,-0.51264 0.50257,-0.51264 z"
       style="font-size:medium;font-style:normal;font-variant:normal;font-weight:normal;font-stretch:normal;text-indent:0;text-align:start;text-decoration:none;line-height:normal;letter-spacing:normal;word-spacing:normal;text-transform:none;direction:ltr;block-progression:tb;writing-mode:lr-tb;text-anchor:start;baseline-shift:baseline;color:#000000;fill:#000000;fill-opacity:1;stroke:none;stroke-width:0.75400001;marker:none;visibility:visible;display:inline;overflow:visible;enable-background:accumulate;font-family:Sans;-inkscape-font-specification:Sans" /><path
       inkscape:connector-curvature="0"
       id="path5007-7-76"
       d="m 441.06904,419.04799 c -0.59662,0 -1.07693,0.4876 -1.07693,1.07189 0,0.58429 0.48031,1.04859 1.07693,1.04859 0.59661,0 1.07693,-0.4643 1.07693,-1.04859 0,-0.58429 -0.48032,-1.07189 -1.07693,-1.07189 z m 0,0.55925 c 0.27611,0 0.50256,0.2242 0.50256,0.51264 0,0.28844 -0.22645,0.48934 -0.50256,0.48934 -0.27612,0 -0.50257,-0.2009 -0.50257,-0.48934 0,-0.28844 0.22645,-0.51264 0.50257,-0.51264 z"
       style="font-size:medium;font-style:normal;font-variant:normal;font-weight:normal;font-stretch:normal;text-indent:0;text-align:start;text-decoration:none;line-height:normal;letter-spacing:normal;word-spacing:normal;text-transform:none;direction:ltr;block-progression:tb;writing-mode:lr-tb;text-anchor:start;baseline-shift:baseline;color:#000000;fill:#000000;fill-opacity:1;stroke:none;stroke-width:0.75400001;marker:none;visibility:visible;display:inline;overflow:visible;enable-background:accumulate;font-family:Sans;-inkscape-font-specification:Sans" /><path
       inkscape:connector-curvature="0"
       id="path5007-7-14"
       d="m 438.94982,420.44221 c -0.59662,0 -1.07693,0.4876 -1.07693,1.07189 0,0.58429 0.48031,1.04859 1.07693,1.04859 0.59662,0 1.07693,-0.4643 1.07693,-1.04859 0,-0.58429 -0.48031,-1.07189 -1.07693,-1.07189 z m 0,0.55925 c 0.27611,0 0.50257,0.2242 0.50257,0.51264 0,0.28844 -0.22646,0.48934 -0.50257,0.48934 -0.27612,0 -0.50257,-0.2009 -0.50257,-0.48934 0,-0.28844 0.22645,-0.51264 0.50257,-0.51264 z"
       style="font-size:medium;font-style:normal;font-variant:normal;font-weight:normal;font-stretch:normal;text-indent:0;text-align:start;text-decoration:none;line-height:normal;letter-spacing:normal;word-spacing:normal;text-transform:none;direction:ltr;block-progression:tb;writing-mode:lr-tb;text-anchor:start;baseline-shift:baseline;color:#000000;fill:#000000;fill-opacity:1;stroke:none;stroke-width:0.75400001;marker:none;visibility:visible;display:inline;overflow:visible;enable-background:accumulate;font-family:Sans;-inkscape-font-specification:Sans" /><path
       inkscape:connector-curvature="0"
       id="path5007-7-23"
       d="m 434.321,418.21146 c -0.59661,0 -1.07693,0.4876 -1.07693,1.07189 0,0.58429 0.48032,1.04859 1.07693,1.04859 0.59662,0 1.07693,-0.4643 1.07693,-1.04859 0,-0.58429 -0.48031,-1.07189 -1.07693,-1.07189 z m 0,0.55925 c 0.27612,0 0.50257,0.2242 0.50257,0.51264 0,0.28844 -0.22645,0.48934 -0.50257,0.48934 -0.27611,0 -0.50256,-0.2009 -0.50256,-0.48934 0,-0.28844 0.22645,-0.51264 0.50256,-0.51264 z"
       style="font-size:medium;font-style:normal;font-variant:normal;font-weight:normal;font-stretch:normal;text-indent:0;text-align:start;text-decoration:none;line-height:normal;letter-spacing:normal;word-spacing:normal;text-transform:none;direction:ltr;block-progression:tb;writing-mode:lr-tb;text-anchor:start;baseline-shift:baseline;color:#000000;fill:#000000;fill-opacity:1;stroke:none;stroke-width:0.75400001;marker:none;visibility:visible;display:inline;overflow:visible;enable-background:accumulate;font-family:Sans;-inkscape-font-specification:Sans" /><path
       inkscape:connector-curvature="0"
       id="path5007-7-22"
       d="m 430.86334,414.64225 c -0.59662,0 -1.07693,0.4876 -1.07693,1.07189 0,0.58429 0.48031,1.04859 1.07693,1.04859 0.59661,0 1.07693,-0.4643 1.07693,-1.04859 0,-0.58429 -0.48032,-1.07189 -1.07693,-1.07189 z m 0,0.55925 c 0.27611,0 0.50256,0.2242 0.50256,0.51264 0,0.28844 -0.22645,0.48934 -0.50256,0.48934 -0.27612,0 -0.50257,-0.2009 -0.50257,-0.48934 0,-0.28844 0.22645,-0.51264 0.50257,-0.51264 z"
       style="font-size:medium;font-style:normal;font-variant:normal;font-weight:normal;font-stretch:normal;text-indent:0;text-align:start;text-decoration:none;line-height:normal;letter-spacing:normal;word-spacing:normal;text-transform:none;direction:ltr;block-progression:tb;writing-mode:lr-tb;text-anchor:start;baseline-shift:baseline;color:#000000;fill:#000000;fill-opacity:1;stroke:none;stroke-width:0.75400001;marker:none;visibility:visible;display:inline;overflow:visible;enable-background:accumulate;font-family:Sans;-inkscape-font-specification:Sans" /></g><path
     inkscape:connector-curvature="0"
     id="path5007-7-16"
     d="m 611.90574,922.02058 c -0.59661,0 -1.07693,0.4876 -1.07693,1.07189 0,0.58429 0.48032,1.04859 1.07693,1.04859 0.59662,0 1.07693,-0.4643 1.07693,-1.04859 0,-0.58429 -0.48031,-1.07189 -1.07693,-1.07189 z m 0,0.55925 c 0.27612,0 0.50257,0.2242 0.50257,0.51264 0,0.28844 -0.22645,0.48934 -0.50257,0.48934 -0.27611,0 -0.50256,-0.2009 -0.50256,-0.48934 0,-0.28844 0.22645,-0.51264 0.50256,-0.51264 z"
     style="font-size:medium;font-style:normal;font-variant:normal;font-weight:normal;font-stretch:normal;text-indent:0;text-align:start;text-decoration:none;line-height:normal;letter-spacing:normal;word-spacing:normal;text-transform:none;direction:ltr;block-progression:tb;writing-mode:lr-tb;text-anchor:start;baseline-shift:baseline;color:#000000;fill:#000000;fill-opacity:1;stroke:none;stroke-width:0.75400001;marker:none;visibility:visible;display:inline;overflow:visible;enable-background:accumulate;font-family:Sans;-inkscape-font-specification:Sans" /><path
     inkscape:connector-curvature="0"
     id="path5007-7-85"
     d="m 606.10578,922.02058 c -0.59661,0 -1.07693,0.4876 -1.07693,1.07189 0,0.58429 0.48032,1.04859 1.07693,1.04859 0.59662,0 1.07693,-0.4643 1.07693,-1.04859 0,-0.58429 -0.48031,-1.07189 -1.07693,-1.07189 z m 0,0.55925 c 0.27612,0 0.50257,0.2242 0.50257,0.51264 0,0.28844 -0.22645,0.48934 -0.50257,0.48934 -0.27611,0 -0.50256,-0.2009 -0.50256,-0.48934 0,-0.28844 0.22645,-0.51264 0.50256,-0.51264 z"
     style="font-size:medium;font-style:normal;font-variant:normal;font-weight:normal;font-stretch:normal;text-indent:0;text-align:start;text-decoration:none;line-height:normal;letter-spacing:normal;word-spacing:normal;text-transform:none;direction:ltr;block-progression:tb;writing-mode:lr-tb;text-anchor:start;baseline-shift:baseline;color:#000000;fill:#000000;fill-opacity:1;stroke:none;stroke-width:0.75400001;marker:none;visibility:visible;display:inline;overflow:visible;enable-background:accumulate;font-family:Sans;-inkscape-font-specification:Sans" /><path
     inkscape:connector-curvature="0"
     id="path5007-7-761"
     d="m 606.44039,918.17253 c -0.59661,0 -1.07693,0.4876 -1.07693,1.07189 0,0.58429 0.48032,1.04859 1.07693,1.04859 0.59662,0 1.07693,-0.4643 1.07693,-1.04859 0,-0.58429 -0.48031,-1.07189 -1.07693,-1.07189 z m 0,0.55925 c 0.27612,0 0.50257,0.2242 0.50257,0.51264 0,0.28844 -0.22645,0.48934 -0.50257,0.48934 -0.27611,0 -0.50256,-0.2009 -0.50256,-0.48934 0,-0.28844 0.22645,-0.51264 0.50256,-0.51264 z"
     style="font-size:medium;font-style:normal;font-variant:normal;font-weight:normal;font-stretch:normal;text-indent:0;text-align:start;text-decoration:none;line-height:normal;letter-spacing:normal;word-spacing:normal;text-transform:none;direction:ltr;block-progression:tb;writing-mode:lr-tb;text-anchor:start;baseline-shift:baseline;color:#000000;fill:#000000;fill-opacity:1;stroke:none;stroke-width:0.75400001;marker:none;visibility:visible;display:inline;overflow:visible;enable-background:accumulate;font-family:Sans;-inkscape-font-specification:Sans" /><path
     inkscape:connector-curvature="0"
     id="path5007-7-27"
     d="m 603.09426,918.3956 c -0.59661,0 -1.07693,0.4876 -1.07693,1.07189 0,0.58429 0.48032,1.04859 1.07693,1.04859 0.59662,0 1.07693,-0.4643 1.07693,-1.04859 0,-0.58429 -0.48031,-1.07189 -1.07693,-1.07189 z m 0,0.55925 c 0.27612,0 0.50257,0.2242 0.50257,0.51264 0,0.28844 -0.22645,0.48934 -0.50257,0.48934 -0.27611,0 -0.50256,-0.2009 -0.50256,-0.48934 0,-0.28844 0.22645,-0.51264 0.50256,-0.51264 z"
     style="font-size:medium;font-style:normal;font-variant:normal;font-weight:normal;font-stretch:normal;text-indent:0;text-align:start;text-decoration:none;line-height:normal;letter-spacing:normal;word-spacing:normal;text-transform:none;direction:ltr;block-progression:tb;writing-mode:lr-tb;text-anchor:start;baseline-shift:baseline;color:#000000;fill:#000000;fill-opacity:1;stroke:none;stroke-width:0.75400001;marker:none;visibility:visible;display:inline;overflow:visible;enable-background:accumulate;font-family:Sans;-inkscape-font-specification:Sans" /><path
     inkscape:connector-curvature="0"
     id="path5007-7-95"
     d="m 601.97888,914.8264 c -0.59661,0 -1.07693,0.4876 -1.07693,1.07189 0,0.58429 0.48032,1.04859 1.07693,1.04859 0.59662,0 1.07693,-0.4643 1.07693,-1.04859 0,-0.58429 -0.48031,-1.07189 -1.07693,-1.07189 z m 0,0.55925 c 0.27612,0 0.50257,0.2242 0.50257,0.51264 0,0.28844 -0.22645,0.48934 -0.50257,0.48934 -0.27611,0 -0.50256,-0.2009 -0.50256,-0.48934 0,-0.28844 0.22645,-0.51264 0.50256,-0.51264 z"
     style="font-size:medium;font-style:normal;font-variant:normal;font-weight:normal;font-stretch:normal;text-indent:0;text-align:start;text-decoration:none;line-height:normal;letter-spacing:normal;word-spacing:normal;text-transform:none;direction:ltr;block-progression:tb;writing-mode:lr-tb;text-anchor:start;baseline-shift:baseline;color:#000000;fill:#000000;fill-opacity:1;stroke:none;stroke-width:0.75400001;marker:none;visibility:visible;display:inline;overflow:visible;enable-background:accumulate;font-family:Sans;-inkscape-font-specification:Sans" /><path
     inkscape:connector-curvature="0"
     id="path5007-7-43"
     d="m 599.35775,915.55138 c -0.59661,0 -1.07693,0.4876 -1.07693,1.07189 0,0.58429 0.48032,1.04859 1.07693,1.04859 0.59662,0 1.07693,-0.4643 1.07693,-1.04859 0,-0.58429 -0.48031,-1.07189 -1.07693,-1.07189 z m 0,0.55925 c 0.27612,0 0.50257,0.2242 0.50257,0.51264 0,0.28844 -0.22645,0.48934 -0.50257,0.48934 -0.27611,0 -0.50256,-0.2009 -0.50256,-0.48934 0,-0.28844 0.22645,-0.51264 0.50256,-0.51264 z"
     style="font-size:medium;font-style:normal;font-variant:normal;font-weight:normal;font-stretch:normal;text-indent:0;text-align:start;text-decoration:none;line-height:normal;letter-spacing:normal;word-spacing:normal;text-transform:none;direction:ltr;block-progression:tb;writing-mode:lr-tb;text-anchor:start;baseline-shift:baseline;color:#000000;fill:#000000;fill-opacity:1;stroke:none;stroke-width:0.75400001;marker:none;visibility:visible;display:inline;overflow:visible;enable-background:accumulate;font-family:Sans;-inkscape-font-specification:Sans" /><path
     inkscape:connector-curvature="0"
     id="path5007-7-12"
     d="m 596.82762,912.47655 c -0.59661,0 -1.07693,0.4876 -1.07693,1.07189 0,0.58429 0.48032,1.04859 1.07693,1.04859 0.59662,0 1.07693,-0.4643 1.07693,-1.04859 0,-0.58429 -0.48031,-1.07189 -1.07693,-1.07189 z m 0,0.55925 c 0.27612,0 0.50257,0.2242 0.50257,0.51264 0,0.28844 -0.22645,0.48934 -0.50257,0.48934 -0.27611,0 -0.50256,-0.2009 -0.50256,-0.48934 0,-0.28844 0.22645,-0.51264 0.50256,-0.51264 z"
     style="font-size:medium;font-style:normal;font-variant:normal;font-weight:normal;font-stretch:normal;text-indent:0;text-align:start;text-decoration:none;line-height:normal;letter-spacing:normal;word-spacing:normal;text-transform:none;direction:ltr;block-progression:tb;writing-mode:lr-tb;text-anchor:start;baseline-shift:baseline;color:#000000;fill:#000000;fill-opacity:1;stroke:none;stroke-width:0.75400001;marker:none;visibility:visible;display:inline;overflow:visible;enable-background:accumulate;font-family:Sans;-inkscape-font-specification:Sans" /></g></svg>