<?xml version="1.0" encoding="UTF-8" standalone="no"?>
<!-- Created with Inkscape (http://www.inkscape.org/) -->

<svg
   xmlns:dc="http://purl.org/dc/elements/1.1/"
   xmlns:cc="http://creativecommons.org/ns#"
   xmlns:rdf="http://www.w3.org/1999/02/22-rdf-syntax-ns#"
   xmlns:svg="http://www.w3.org/2000/svg"
   xmlns="http://www.w3.org/2000/svg"
   xmlns:sodipodi="http://sodipodi.sourceforge.net/DTD/sodipodi-0.dtd"
   xmlns:inkscape="http://www.inkscape.org/namespaces/inkscape"
   width="1800"
   height="1080"
   id="svg2"
   version="1.1"
   inkscape:version="0.48.4 r9939"
   sodipodi:docname="bogen3001_keyboard_page2.svg">
  <defs
     id="defs4" />
  <sodipodi:namedview
     id="base"
     pagecolor="#ffffff"
     bordercolor="#666666"
     borderopacity="1.0"
     inkscape:pageopacity="0.0"
     inkscape:pageshadow="2"
     inkscape:zoom="0.7"
     inkscape:cx="922.37322"
     inkscape:cy="1044.0822"
     inkscape:document-units="px"
     inkscape:current-layer="layer1"
     showgrid="false"
     units="in"
     inkscape:window-width="1855"
     inkscape:window-height="1056"
     inkscape:window-x="65"
     inkscape:window-y="24"
     inkscape:window-maximized="1" />
  <metadata
     id="metadata7">
    <rdf:RDF>
      <cc:Work
         rdf:about="">
        <dc:format>image/svg+xml</dc:format>
        <dc:type
           rdf:resource="http://purl.org/dc/dcmitype/StillImage" />
        <dc:title></dc:title>
      </cc:Work>
    </rdf:RDF>
  </metadata>
  <g
     inkscape:label="Layer 1"
     inkscape:groupmode="layer"
     id="layer1"
     transform="translate(0,27.64025)">
    <text
       xml:space="preserve"
       style="font-size:10px;font-style:normal;font-weight:normal;line-height:125%;letter-spacing:0px;word-spacing:0px;fill:none;fill-opacity:1;stroke:none;font-family:Sans"
       x="-1236.4268"
       y="-277.64502"
       id="text3133"
       sodipodi:linespacing="125%"
       transform="translate(0,-27.64025)"><tspan
         sodipodi:role="line"
         id="tspan3135" /></text>
    <g
       id="g5186"
       transform="translate(-3e-5,0)">
      <path
         transform="matrix(0,-0.33189916,0.33189916,0,156.95091,469.2036)"
         d="m 341.43155,-255.42166 c 0,10.04205 -8.14069,18.18274 -18.18274,18.18274 -10.04205,0 -18.18275,-8.14069 -18.18275,-18.18274 0,-10.04205 8.1407,-18.18275 18.18275,-18.18275 10.04205,0 18.18274,8.1407 18.18274,18.18275 z"
         sodipodi:ry="18.182745"
         sodipodi:rx="18.182745"
         sodipodi:cy="-255.42166"
         sodipodi:cx="323.24881"
         id="path3387"
         style="fill:none;stroke:#000000;stroke-width:1;stroke-miterlimit:4;stroke-opacity:1;stroke-dasharray:none"
         sodipodi:type="arc" />
      <path
         sodipodi:type="arc"
         style="fill:none;stroke:#000000;stroke-width:1;stroke-miterlimit:4;stroke-opacity:1;stroke-dasharray:none"
         id="path3411"
         sodipodi:cx="323.24881"
         sodipodi:cy="-255.42166"
         sodipodi:rx="18.182745"
         sodipodi:ry="18.182745"
         d="m 341.43155,-255.42166 c 0,10.04205 -8.14069,18.18274 -18.18274,18.18274 -10.04205,0 -18.18275,-8.14069 -18.18275,-18.18274 0,-10.04205 8.1407,-18.18275 18.18275,-18.18275 10.04205,0 18.18274,8.1407 18.18274,18.18275 z"
         transform="matrix(0,-0.33189916,0.33189916,0,354.95092,469.2036)" />
      <path
         transform="matrix(0,0.33189916,0.33189916,0,802.95092,-35.18604)"
         d="m 341.43155,-255.42166 c 0,10.04205 -8.14069,18.18274 -18.18274,18.18274 -10.04205,0 -18.18275,-8.14069 -18.18275,-18.18274 0,-10.04205 8.1407,-18.18275 18.18275,-18.18275 10.04205,0 18.18274,8.1407 18.18274,18.18275 z"
         sodipodi:ry="18.182745"
         sodipodi:rx="18.182745"
         sodipodi:cy="-255.42166"
         sodipodi:cx="323.24881"
         id="path3431"
         style="fill:none;stroke:#000000;stroke-width:1;stroke-miterlimit:4;stroke-opacity:1;stroke-dasharray:none"
         sodipodi:type="arc" />
      <path
         sodipodi:type="arc"
         style="fill:none;stroke:#000000;stroke-width:1;stroke-miterlimit:4;stroke-opacity:1;stroke-dasharray:none"
         id="path3439"
         sodipodi:cx="323.24881"
         sodipodi:cy="-255.42166"
         sodipodi:rx="18.182745"
         sodipodi:ry="18.182745"
         d="m 341.43155,-255.42166 c 0,10.04205 -8.14069,18.18274 -18.18274,18.18274 -10.04205,0 -18.18275,-8.14069 -18.18275,-18.18274 0,-10.04205 8.1407,-18.18275 18.18275,-18.18275 10.04205,0 18.18274,8.1407 18.18274,18.18275 z"
         transform="matrix(0,0.33189916,0.33189916,0,1295.808,-35.18604)" />
      <path
         transform="matrix(0,0.33189916,0.33189916,0,354.95092,-35.18604)"
         d="m 341.43155,-255.42166 c 0,10.04205 -8.14069,18.18274 -18.18274,18.18274 -10.04205,0 -18.18275,-8.14069 -18.18275,-18.18274 0,-10.04205 8.1407,-18.18275 18.18275,-18.18275 10.04205,0 18.18274,8.1407 18.18274,18.18275 z"
         sodipodi:ry="18.182745"
         sodipodi:rx="18.182745"
         sodipodi:cy="-255.42166"
         sodipodi:cx="323.24881"
         id="path3447"
         style="fill:none;stroke:#000000;stroke-width:1;stroke-miterlimit:4;stroke-opacity:1;stroke-dasharray:none"
         sodipodi:type="arc" />
      <path
         sodipodi:nodetypes="ccccccc"
         inkscape:connector-curvature="0"
         id="path4991"
         d="m 298.15999,397.96875 -251.83856,0 0,-49.12592 L 242.75,35.43118 l 1085.8929,0 -57.3362,57.3362 z"
         style="fill:none;stroke:#000000;stroke-width:1px;stroke-linecap:butt;stroke-linejoin:miter;stroke-opacity:1" />
    </g>
    <g
       transform="matrix(-1,0,0,-1,1837.8214,433.39993)"
       id="g5194">
      <path
         sodipodi:type="arc"
         style="fill:none;stroke:#000000;stroke-width:1;stroke-miterlimit:4;stroke-opacity:1;stroke-dasharray:none"
         id="path5196"
         sodipodi:cx="323.24881"
         sodipodi:cy="-255.42166"
         sodipodi:rx="18.182745"
         sodipodi:ry="18.182745"
         d="m 341.43155,-255.42166 c 0,10.04205 -8.14069,18.18274 -18.18274,18.18274 -10.04205,0 -18.18275,-8.14069 -18.18275,-18.18274 0,-10.04205 8.1407,-18.18275 18.18275,-18.18275 10.04205,0 18.18274,8.1407 18.18274,18.18275 z"
         transform="matrix(0,-0.33189916,0.33189916,0,156.95091,469.2036)" />
      <path
         transform="matrix(0,-0.33189916,0.33189916,0,354.95092,469.2036)"
         d="m 341.43155,-255.42166 c 0,10.04205 -8.14069,18.18274 -18.18274,18.18274 -10.04205,0 -18.18275,-8.14069 -18.18275,-18.18274 0,-10.04205 8.1407,-18.18275 18.18275,-18.18275 10.04205,0 18.18274,8.1407 18.18274,18.18275 z"
         sodipodi:ry="18.182745"
         sodipodi:rx="18.182745"
         sodipodi:cy="-255.42166"
         sodipodi:cx="323.24881"
         id="path5198"
         style="fill:none;stroke:#000000;stroke-width:1;stroke-miterlimit:4;stroke-opacity:1;stroke-dasharray:none"
         sodipodi:type="arc" />
      <path
         sodipodi:type="arc"
         style="fill:none;stroke:#000000;stroke-width:1;stroke-miterlimit:4;stroke-opacity:1;stroke-dasharray:none"
         id="path5200"
         sodipodi:cx="323.24881"
         sodipodi:cy="-255.42166"
         sodipodi:rx="18.182745"
         sodipodi:ry="18.182745"
         d="m 341.43155,-255.42166 c 0,10.04205 -8.14069,18.18274 -18.18274,18.18274 -10.04205,0 -18.18275,-8.14069 -18.18275,-18.18274 0,-10.04205 8.1407,-18.18275 18.18275,-18.18275 10.04205,0 18.18274,8.1407 18.18274,18.18275 z"
         transform="matrix(0,0.33189916,0.33189916,0,802.95092,-35.18604)" />
      <path
         transform="matrix(0,0.33189916,0.33189916,0,1295.808,-35.18604)"
         d="m 341.43155,-255.42166 c 0,10.04205 -8.14069,18.18274 -18.18274,18.18274 -10.04205,0 -18.18275,-8.14069 -18.18275,-18.18274 0,-10.04205 8.1407,-18.18275 18.18275,-18.18275 10.04205,0 18.18274,8.1407 18.18274,18.18275 z"
         sodipodi:ry="18.182745"
         sodipodi:rx="18.182745"
         sodipodi:cy="-255.42166"
         sodipodi:cx="323.24881"
         id="path5202"
         style="fill:none;stroke:#000000;stroke-width:1;stroke-miterlimit:4;stroke-opacity:1;stroke-dasharray:none"
         sodipodi:type="arc" />
      <path
         sodipodi:type="arc"
         style="fill:none;stroke:#000000;stroke-width:1;stroke-miterlimit:4;stroke-opacity:1;stroke-dasharray:none"
         id="path5204"
         sodipodi:cx="323.24881"
         sodipodi:cy="-255.42166"
         sodipodi:rx="18.182745"
         sodipodi:ry="18.182745"
         d="m 341.43155,-255.42166 c 0,10.04205 -8.14069,18.18274 -18.18274,18.18274 -10.04205,0 -18.18275,-8.14069 -18.18275,-18.18274 0,-10.04205 8.1407,-18.18275 18.18275,-18.18275 10.04205,0 18.18274,8.1407 18.18274,18.18275 z"
         transform="matrix(0,0.33189916,0.33189916,0,354.95092,-35.18604)" />
      <path
         style="fill:none;stroke:#000000;stroke-width:1px;stroke-linecap:butt;stroke-linejoin:miter;stroke-opacity:1"
         d="m 298.15999,397.96875 -251.83856,0 0,-49.12592 L 242.75,35.43118 l 1085.8929,0 -57.3362,57.3362 z"
         id="path5206"
         inkscape:connector-curvature="0"
         sodipodi:nodetypes="ccccccc" />
    </g>
  </g>
</svg>
