<?xml version="1.0" encoding="UTF-8" standalone="no"?>
<!-- Created with Inkscape (http://www.inkscape.org/) -->

<svg
   xmlns:dc="http://purl.org/dc/elements/1.1/"
   xmlns:cc="http://creativecommons.org/ns#"
   xmlns:rdf="http://www.w3.org/1999/02/22-rdf-syntax-ns#"
   xmlns:svg="http://www.w3.org/2000/svg"
   xmlns="http://www.w3.org/2000/svg"
   xmlns:sodipodi="http://sodipodi.sourceforge.net/DTD/sodipodi-0.dtd"
   xmlns:inkscape="http://www.inkscape.org/namespaces/inkscape"
   width="1800"
   height="1080"
   id="svg2"
   version="1.1"
   inkscape:version="0.48.4 r9939"
   sodipodi:docname="bogen3001_keyboard_page1.svg">
  <defs
     id="defs4" />
  <sodipodi:namedview
     id="base"
     pagecolor="#ffffff"
     bordercolor="#666666"
     borderopacity="1.0"
     inkscape:pageopacity="0.0"
     inkscape:pageshadow="2"
     inkscape:zoom="0.70710678"
     inkscape:cx="512.44811"
     inkscape:cy="568.50458"
     inkscape:document-units="px"
     inkscape:current-layer="layer1"
     showgrid="false"
     units="in"
     inkscape:window-width="1855"
     inkscape:window-height="1056"
     inkscape:window-x="65"
     inkscape:window-y="24"
     inkscape:window-maximized="1" />
  <metadata
     id="metadata7">
    <rdf:RDF>
      <cc:Work
         rdf:about="">
        <dc:format>image/svg+xml</dc:format>
        <dc:type
           rdf:resource="http://purl.org/dc/dcmitype/StillImage" />
        <dc:title></dc:title>
      </cc:Work>
    </rdf:RDF>
  </metadata>
  <g
     inkscape:label="Layer 1"
     inkscape:groupmode="layer"
     id="layer1"
     transform="translate(0,27.64025)">
    <path
       style="fill:none;stroke:#000000;stroke-width:0.125;stroke-linecap:butt;stroke-linejoin:miter;stroke-opacity:1;stroke-miterlimit:4;stroke-dasharray:none"
       d="m 947.67857,21.607141 -95.35714,0 -829.017859,518.214289 0,539.10717 1753.175929,0 0,-539.10767 z"
       id="path4515"
       inkscape:connector-curvature="0"
       transform="translate(0,-27.64025)" />
    <path
       sodipodi:type="arc"
       style="fill:none;fill-opacity:1;stroke:#000000;stroke-width:0.16417735;stroke-miterlimit:4;stroke-opacity:1;stroke-dasharray:none"
       id="path2989"
       sodipodi:cx="831.42859"
       sodipodi:cy="112.85714"
       sodipodi:rx="60"
       sodipodi:ry="60"
       d="m 891.42859,112.85714 a 60,60 0 1 1 -120,0 60,60 0 1 1 120,0 z"
       transform="matrix(0.65936729,0.38068588,-0.38068588,0.65936729,394.74632,-326.95465)" />
    <text
       xml:space="preserve"
       style="font-size:10px;font-style:normal;font-weight:normal;line-height:125%;letter-spacing:0px;word-spacing:0px;fill:none;fill-opacity:1;stroke:none;font-family:Sans;stroke-width:0.125;stroke-miterlimit:4;stroke-dasharray:none"
       x="-1236.4268"
       y="-277.64502"
       id="text3133"
       sodipodi:linespacing="125%"
       transform="translate(0,-27.64025)"><tspan
         sodipodi:role="line"
         id="tspan3135"></tspan></text>
    <path
       sodipodi:type="arc"
       style="fill:none;fill-opacity:1;stroke:#000000;stroke-width:0.37662042;stroke-miterlimit:4;stroke-opacity:1;stroke-dasharray:none"
       id="path3196"
       sodipodi:cx="323.24881"
       sodipodi:cy="-255.42166"
       sodipodi:rx="18.182745"
       sodipodi:ry="18.182745"
       d="m 341.43155,-255.42166 a 18.182745,18.182745 0 1 1 -36.36549,0 18.182745,18.182745 0 1 1 36.36549,0 z"
       transform="matrix(0.2874331,0.16594958,-0.16594958,0.2874331,401.19698,511.35043)" />
    <path
       transform="matrix(0.2874331,0.16594958,-0.16594958,0.2874331,154.76838,938.17728)"
       d="m 341.43155,-255.42166 a 18.182745,18.182745 0 1 1 -36.36549,0 18.182745,18.182745 0 1 1 36.36549,0 z"
       sodipodi:ry="18.182745"
       sodipodi:rx="18.182745"
       sodipodi:cy="-255.42166"
       sodipodi:cx="323.24881"
       id="path3204"
       style="fill:none;fill-opacity:1;stroke:#000000;stroke-width:0.37662042;stroke-miterlimit:4;stroke-opacity:1;stroke-dasharray:none"
       sodipodi:type="arc" />
    <path
       sodipodi:type="arc"
       style="fill:none;fill-opacity:1;stroke:#000000;stroke-width:0.37662042;stroke-miterlimit:4;stroke-opacity:1;stroke-dasharray:none"
       id="path3240"
       sodipodi:cx="323.24881"
       sodipodi:cy="-255.42166"
       sodipodi:rx="18.182745"
       sodipodi:ry="18.182745"
       d="m 341.43155,-255.42166 a 18.182745,18.182745 0 1 1 -36.36549,0 18.182745,18.182745 0 1 1 36.36549,0 z"
       transform="matrix(0.2874331,0.16594958,-0.16594958,0.2874331,625.19698,123.37105)" />
    <path
       inkscape:connector-curvature="0"
       id="path3630"
       d="M 324.49507,295.29502 491.16727,6.61023 15.56647,6.54503 182.33997,295.40519 z"
       style="fill:none;stroke:#000000;stroke-width:0.125;stroke-linecap:butt;stroke-linejoin:miter;stroke-opacity:1;stroke-miterlimit:4;stroke-dasharray:none" />
    <path
       sodipodi:type="arc"
       style="fill:none;stroke:#000000;stroke-width:0.37662042;stroke-miterlimit:4;stroke-opacity:1;stroke-dasharray:none"
       id="path3632"
       sodipodi:cx="323.24881"
       sodipodi:cy="-255.42166"
       sodipodi:rx="18.182745"
       sodipodi:ry="18.182745"
       d="m 341.43155,-255.42166 a 18.182745,18.182745 0 1 1 -36.36549,0 18.182745,18.182745 0 1 1 36.36549,0 z"
       transform="matrix(-0.2874331,-0.16594958,0.16594958,-0.2874331,430.25267,226.64961)" />
    <path
       transform="matrix(-0.2874331,-0.16594958,0.16594958,-0.2874331,529.25267,55.17658)"
       d="m 341.43155,-255.42166 a 18.182745,18.182745 0 1 1 -36.36549,0 18.182745,18.182745 0 1 1 36.36549,0 z"
       sodipodi:ry="18.182745"
       sodipodi:rx="18.182745"
       sodipodi:cy="-255.42166"
       sodipodi:cx="323.24881"
       id="path3634"
       style="fill:none;stroke:#000000;stroke-width:0.37662042;stroke-miterlimit:4;stroke-opacity:1;stroke-dasharray:none"
       sodipodi:type="arc" />
    <path
       transform="matrix(0.2874331,-0.16594958,-0.16594958,-0.2874331,76.48105,226.64961)"
       d="m 341.43155,-255.42166 a 18.182745,18.182745 0 1 1 -36.36549,0 18.182745,18.182745 0 1 1 36.36549,0 z"
       sodipodi:ry="18.182745"
       sodipodi:rx="18.182745"
       sodipodi:cy="-255.42166"
       sodipodi:cx="323.24881"
       id="path3666"
       style="fill:none;stroke:#000000;stroke-width:0.37662042;stroke-miterlimit:4;stroke-opacity:1;stroke-dasharray:none"
       sodipodi:type="arc" />
    <path
       sodipodi:type="arc"
       style="fill:none;stroke:#000000;stroke-width:0.37662042;stroke-miterlimit:4;stroke-opacity:1;stroke-dasharray:none"
       id="path3668"
       sodipodi:cx="323.24881"
       sodipodi:cy="-255.42166"
       sodipodi:rx="18.182745"
       sodipodi:ry="18.182745"
       d="m 341.43155,-255.42166 a 18.182745,18.182745 0 1 1 -36.36549,0 18.182745,18.182745 0 1 1 36.36549,0 z"
       transform="matrix(0.2874331,-0.16594958,-0.16594958,-0.2874331,-22.51895,55.17658)" />
    <path
       transform="matrix(-0.2874331,0.16594958,0.16594958,0.2874331,1400.9449,511.35043)"
       d="m 341.43155,-255.42166 a 18.182745,18.182745 0 1 1 -36.36549,0 18.182745,18.182745 0 1 1 36.36549,0 z"
       sodipodi:ry="18.182745"
       sodipodi:rx="18.182745"
       sodipodi:cy="-255.42166"
       sodipodi:cx="323.24881"
       id="path4509"
       style="fill:none;stroke:#000000;stroke-width:0.37662042;stroke-miterlimit:4;stroke-opacity:1;stroke-dasharray:none"
       sodipodi:type="arc" />
    <path
       sodipodi:type="arc"
       style="fill:none;stroke:#000000;stroke-width:0.37662042;stroke-miterlimit:4;stroke-opacity:1;stroke-dasharray:none"
       id="path4511"
       sodipodi:cx="323.24881"
       sodipodi:cy="-255.42166"
       sodipodi:rx="18.182745"
       sodipodi:ry="18.182745"
       d="m 341.43155,-255.42166 a 18.182745,18.182745 0 1 1 -36.36549,0 18.182745,18.182745 0 1 1 36.36549,0 z"
       transform="matrix(-0.2874331,0.16594958,0.16594958,0.2874331,1647.3735,938.17728)" />
    <path
       transform="matrix(-0.2874331,0.16594958,0.16594958,0.2874331,1176.9449,123.37105)"
       d="m 341.43155,-255.42166 a 18.182745,18.182745 0 1 1 -36.36549,0 18.182745,18.182745 0 1 1 36.36549,0 z"
       sodipodi:ry="18.182745"
       sodipodi:rx="18.182745"
       sodipodi:cy="-255.42166"
       sodipodi:cx="323.24881"
       id="path4513"
       style="fill:none;stroke:#000000;stroke-width:0.37662042;stroke-miterlimit:4;stroke-opacity:1;stroke-dasharray:none"
       sodipodi:type="arc" />
    <g
       id="g4872"
       style="stroke:#000000;stroke-width:0.125;stroke-miterlimit:4;stroke-opacity:1;stroke-dasharray:none"
       transform="matrix(0.5,-0.8660254,0.8660254,0.5,407.31117,562.08408)">
      <g
         transform="translate(-48.790368,9.8994949)"
         id="g4814"
         style="stroke:#000000;stroke-width:0.125;stroke-miterlimit:4;stroke-opacity:1;stroke-dasharray:none">
        <path
           transform="matrix(0.50113717,0,0,0.50113717,130.77173,-161.86617)"
           style="fill:none;stroke:#000000;stroke-width:0.24943271;stroke-miterlimit:4;stroke-dasharray:none"
           d="m 365.98626,-280.55864 c -30.74857,20.25589 -72.09586,11.74989 -92.35175,-18.99868 -20.25589,-30.74857 -11.7499,-72.09586 18.99868,-92.35175 2.09418,-1.37956 4.26454,-2.63987 6.50071,-3.77491"
           id="path4796" />
        <path
           transform="matrix(0.50113717,0,0,0.50113717,258.33078,-161.86617)"
           style="fill:none;stroke:#000000;stroke-width:0.24943271;stroke-miterlimit:4;stroke-dasharray:none"
           inkscape:transform-center-x="-127.5552"
           inkscape:transform-center-y="-0.0390625"
           d="m 361.26248,-394.74812 c 32.31653,17.64702 44.20853,58.15048 26.56151,90.46702 -17.64702,32.31654 -58.15049,44.20853 -90.46702,26.56151 -1.21995,-0.66618 -2.41877,-1.37034 -3.5947,-2.11146"
           id="path4808" />
        <path
           transform="matrix(0.25056859,-0.43399752,0.43399752,0.25056859,422.95868,-213.64272)"
           style="fill:none;stroke:#000000;stroke-width:0.2494327;stroke-miterlimit:4;stroke-dasharray:none"
           inkscape:transform-center-x="-63.743771"
           inkscape:transform-center-y="-110.48558"
           d="m 293.76434,-392.63797 c 31.15113,-19.63117 72.31832,-10.2924 91.94949,20.85873 19.63118,31.15113 10.2924,72.31832 -20.85873,91.94949 -1.09144,0.68782 -2.20261,1.34381 -3.33212,1.96715"
           id="path4812" />
      </g>
      <path
         transform="matrix(1.2024711,0,0,1.2024711,-87.262861,42.302398)"
         style="fill:none;stroke:#000000;stroke-width:0.1039526;stroke-miterlimit:4;stroke-dasharray:none"
         d="m 358.77534,-393.0229 c 25.88778,11.70903 41.43517,38.61346 38.65383,66.88964"
         id="path4827" />
      <path
         transform="matrix(1.2024711,0,0,1.2024711,-87.262861,42.302398)"
         style="fill:none;stroke:#000000;stroke-width:0.1039526;stroke-miterlimit:4;stroke-dasharray:none"
         d="m 369.36256,-278.23831 c -22.92038,15.97569 -53.39667,15.86634 -76.20182,-0.27342"
         id="path4833" />
      <path
         transform="matrix(1.2024711,0,0,1.2024711,-87.262861,42.302398)"
         style="fill:none;stroke:#000000;stroke-width:0.1039526;stroke-miterlimit:4;stroke-dasharray:none"
         d="m 265.45809,-326.3962 c -2.62597,-27.83475 12.49365,-54.32482 37.79566,-66.21925"
         id="path4835" />
    </g>
  </g>
</svg>
