<?xml version="1.0" encoding="UTF-8" standalone="no"?>
<!-- Created with Inkscape (http://www.inkscape.org/) -->

<svg
   xmlns:dc="http://purl.org/dc/elements/1.1/"
   xmlns:cc="http://creativecommons.org/ns#"
   xmlns:rdf="http://www.w3.org/1999/02/22-rdf-syntax-ns#"
   xmlns:svg="http://www.w3.org/2000/svg"
   xmlns="http://www.w3.org/2000/svg"
   xmlns:sodipodi="http://sodipodi.sourceforge.net/DTD/sodipodi-0.dtd"
   xmlns:inkscape="http://www.inkscape.org/namespaces/inkscape"
   width="1080"
   height="1080"
   id="svg4492"
   version="1.1"
   inkscape:version="0.48.4 r9939"
   sodipodi:docname="button_box-top.svg">
  <defs
     id="defs4494" />
  <sodipodi:namedview
     id="base"
     pagecolor="#ffffff"
     bordercolor="#666666"
     borderopacity="1.0"
     inkscape:pageopacity="0.0"
     inkscape:pageshadow="2"
     inkscape:zoom="1.025822"
     inkscape:cx="258.50805"
     inkscape:cy="519.9998"
     inkscape:document-units="mm"
     inkscape:current-layer="g4508"
     showgrid="false"
     units="mm"
     inkscape:window-width="1920"
     inkscape:window-height="1057"
     inkscape:window-x="-8"
     inkscape:window-y="-8"
     inkscape:window-maximized="1" />
  <metadata
     id="metadata4497">
    <rdf:RDF>
      <cc:Work
         rdf:about="">
        <dc:format>image/svg+xml</dc:format>
        <dc:type
           rdf:resource="http://purl.org/dc/dcmitype/StillImage" />
        <dc:title />
      </cc:Work>
    </rdf:RDF>
  </metadata>
  <g
     inkscape:label="Layer 1"
     inkscape:groupmode="layer"
     id="layer1"
     transform="translate(0,27.638016)">
    <g
       transform="matrix(1.25,0,0,-1.25,4.724375,955.78737)"
       inkscape:label="button_box"
       id="g4508">
      <path
         inkscape:connector-curvature="0"
         d="m 0,0 357.1654,0 0,226.7717 L 0,226.7717 0,0 z"
         style="fill:none;stroke:#000000;stroke-width:1;stroke-linecap:butt;stroke-linejoin:miter;stroke-miterlimit:10;stroke-opacity:1;stroke-dasharray:none"
         id="path4516" />
      <path
         inkscape:connector-curvature="0"
         d="m 42.12283,28.8 c 0,2.6614 -2.15749,4.8189 -4.81889,4.8189 -2.66141,0 -4.8189,-2.1575 -4.8189,-4.8189 0,-2.6614 2.15749,-4.8189 4.8189,-4.8189 2.6614,0 4.81889,2.1575 4.81889,4.8189"
         style="fill:none;stroke:#000000;stroke-width:1;stroke-linecap:butt;stroke-linejoin:miter;stroke-miterlimit:10;stroke-opacity:1;stroke-dasharray:none"
         id="path4518" />
      <path
         inkscape:connector-curvature="0"
         d="m 324.6803,28.8 c 0,2.6614 -2.1575,4.8189 -4.8189,4.8189 -2.6614,0 -4.8189,-2.1575 -4.8189,-4.8189 0,-2.6614 2.1575,-4.8189 4.8189,-4.8189 2.6614,0 4.8189,2.1575 4.8189,4.8189"
         style="fill:none;stroke:#000000;stroke-width:1;stroke-linecap:butt;stroke-linejoin:miter;stroke-miterlimit:10;stroke-opacity:1;stroke-dasharray:none"
         id="path4520" />
      <path
         inkscape:connector-curvature="0"
         d="m 324.6803,197.9717 c 0,2.6614 -2.1575,4.8189 -4.8189,4.8189 -2.6614,0 -4.8189,-2.1575 -4.8189,-4.8189 0,-2.6615 2.1575,-4.8189 4.8189,-4.8189 2.6614,0 4.8189,2.1574 4.8189,4.8189"
         style="fill:none;stroke:#000000;stroke-width:1;stroke-linecap:butt;stroke-linejoin:miter;stroke-miterlimit:10;stroke-opacity:1;stroke-dasharray:none"
         id="path4522" />
      <path
         inkscape:connector-curvature="0"
         d="m 42.12283,197.9717 c 0,2.6614 -2.15749,4.8189 -4.81889,4.8189 -2.66141,0 -4.8189,-2.1575 -4.8189,-4.8189 0,-2.6615 2.15749,-4.8189 4.8189,-4.8189 2.6614,0 4.81889,2.1574 4.81889,4.8189"
         style="fill:none;stroke:#000000;stroke-width:1;stroke-linecap:butt;stroke-linejoin:miter;stroke-miterlimit:10;stroke-opacity:1;stroke-dasharray:none"
         id="path4524" />
      <path
         id="path4532"
         style="fill:none;stroke:#000000;stroke-width:1;stroke-linecap:butt;stroke-linejoin:miter;stroke-miterlimit:10;stroke-opacity:1;stroke-dasharray:none"
         d="m 0,235.2756 357.1654,0 0,442.2047 -357.1654,0 0,-442.2047 z"
         inkscape:connector-curvature="0" />
      <path
         id="path4534"
         style="fill:none;stroke:#000000;stroke-width:1;stroke-linecap:butt;stroke-linejoin:miter;stroke-miterlimit:10;stroke-opacity:1;stroke-dasharray:none"
         d="m 42.12283,272.57954 c 0,2.6614 -2.15749,4.81889 -4.81889,4.81889 -2.66141,0 -4.8189,-2.15749 -4.8189,-4.81889 0,-2.66141 2.15749,-4.8189 4.8189,-4.8189 2.6614,0 4.81889,2.15749 4.81889,4.8189"
         inkscape:connector-curvature="0" />
      <path
         id="path4536"
         style="fill:none;stroke:#000000;stroke-width:1;stroke-linecap:butt;stroke-linejoin:miter;stroke-miterlimit:10;stroke-opacity:1;stroke-dasharray:none"
         d="m 324.6803,272.57954 c 0,2.6614 -2.1575,4.81889 -4.8189,4.81889 -2.6614,0 -4.8189,-2.15749 -4.8189,-4.81889 0,-2.66141 2.1575,-4.8189 4.8189,-4.8189 2.6614,0 4.8189,2.15749 4.8189,4.8189"
         inkscape:connector-curvature="0" />
      <path
         id="path4538"
         style="fill:none;stroke:#000000;stroke-width:1;stroke-linecap:butt;stroke-linejoin:miter;stroke-miterlimit:10;stroke-opacity:1;stroke-dasharray:none"
         d="m 324.6803,640.1764 c 0,2.6614 -2.1575,4.8189 -4.8189,4.8189 -2.6614,0 -4.8189,-2.1575 -4.8189,-4.8189 0,-2.6614 2.1575,-4.8189 4.8189,-4.8189 2.6614,0 4.8189,2.1575 4.8189,4.8189"
         inkscape:connector-curvature="0" />
      <path
         id="path4540"
         style="fill:none;stroke:#000000;stroke-width:1;stroke-linecap:butt;stroke-linejoin:miter;stroke-miterlimit:10;stroke-opacity:1;stroke-dasharray:none"
         d="m 42.12283,640.1764 c 0,2.6614 -2.15749,4.8189 -4.81889,4.8189 -2.66141,0 -4.8189,-2.1575 -4.8189,-4.8189 0,-2.6614 2.15749,-4.8189 4.8189,-4.8189 2.6614,0 4.81889,2.1575 4.81889,4.8189"
         inkscape:connector-curvature="0" />
      <path
         inkscape:connector-curvature="0"
         d="m 365.6693,243.77953 226.7717,0 0,425.1969 -226.7717,0 0,-425.1969 z"
         style="fill:none;stroke:#000000;stroke-width:1;stroke-linecap:butt;stroke-linejoin:miter;stroke-miterlimit:10;stroke-opacity:1;stroke-dasharray:none"
         id="path4556" />
      <path
         inkscape:connector-curvature="0"
         d="m 399.2882,272.57953 c 0,2.6614 -2.1575,4.8189 -4.8189,4.8189 -2.6614,0 -4.8189,-2.1575 -4.8189,-4.8189 0,-2.6614 2.1575,-4.8189 4.8189,-4.8189 2.6614,0 4.8189,2.1575 4.8189,4.8189"
         style="fill:none;stroke:#000000;stroke-width:1;stroke-linecap:butt;stroke-linejoin:miter;stroke-miterlimit:10;stroke-opacity:1;stroke-dasharray:none"
         id="path4558" />
      <path
         inkscape:connector-curvature="0"
         d="m 568.4599,272.57953 c 0,2.6614 -2.1575,4.8189 -4.8189,4.8189 -2.6615,0 -4.8189,-2.1575 -4.8189,-4.8189 0,-2.6614 2.1574,-4.8189 4.8189,-4.8189 2.6614,0 4.8189,2.1575 4.8189,4.8189"
         style="fill:none;stroke:#000000;stroke-width:1;stroke-linecap:butt;stroke-linejoin:miter;stroke-miterlimit:10;stroke-opacity:1;stroke-dasharray:none"
         id="path4560" />
      <path
         inkscape:connector-curvature="0"
         d="m 568.4599,640.17643 c 0,2.6614 -2.1575,4.8188 -4.8189,4.8188 -2.6615,0 -4.8189,-2.1574 -4.8189,-4.8188 0,-2.6615 2.1574,-4.8189 4.8189,-4.8189 2.6614,0 4.8189,2.1574 4.8189,4.8189"
         style="fill:none;stroke:#000000;stroke-width:1;stroke-linecap:butt;stroke-linejoin:miter;stroke-miterlimit:10;stroke-opacity:1;stroke-dasharray:none"
         id="path4562" />
      <path
         inkscape:connector-curvature="0"
         d="m 399.2882,640.17643 c 0,2.6614 -2.1575,4.8188 -4.8189,4.8188 -2.6614,0 -4.8189,-2.1574 -4.8189,-4.8188 0,-2.6615 2.1575,-4.8189 4.8189,-4.8189 2.6614,0 4.8189,2.1574 4.8189,4.8189"
         style="fill:none;stroke:#000000;stroke-width:1;stroke-linecap:butt;stroke-linejoin:miter;stroke-miterlimit:10;stroke-opacity:1;stroke-dasharray:none"
         id="path4564" />
      <g
         id="g4574"
         transform="translate(0,3e-5)" />
      <g
         id="g5096"
         transform="matrix(0.8,0,0,-0.8,-308.60338,876.80822)"
         style="stroke-width:0.09;stroke-miterlimit:4;stroke-dasharray:none">
        <path
           sodipodi:type="arc"
           style="fill:none;stroke:#000000;stroke-width:0.10233372;stroke-linecap:round;stroke-linejoin:round;stroke-miterlimit:4;stroke-opacity:1;stroke-dasharray:none"
           id="path4558-2"
           sodipodi:cx="515.71429"
           sodipodi:cy="462.36218"
           sodipodi:rx="181.42857"
           sodipodi:ry="172.85715"
           d="m 697.14287,462.36218 c 0,95.46637 -81.22834,172.85715 -181.42858,172.85715 -100.20023,0 -181.42857,-77.39078 -181.42857,-172.85715 0,-95.46636 81.22834,-172.85714 181.42857,-172.85714 100.20024,0 181.42858,77.39078 181.42858,172.85714 z"
           transform="matrix(0.85844916,0,0,0.90101687,166.2681,108.9323)" />
        <path
           style="fill:#00ff00;stroke:#00ff00;stroke-width:0.09;stroke-linecap:butt;stroke-linejoin:miter;stroke-miterlimit:4;stroke-opacity:1;stroke-dasharray:none"
           d="m 610.71296,370.26394 0,310.81368"
           id="path4566-4"
           inkscape:connector-curvature="0"
           sodipodi:nodetypes="cc" />
        <path
           sodipodi:type="arc"
           style="fill:none;stroke:#000000;stroke-width:0.11524857;stroke-linecap:round;stroke-linejoin:round;stroke-miterlimit:4;stroke-opacity:1;stroke-dasharray:none"
           id="path5076"
           sodipodi:cx="610"
           sodipodi:cy="397.85715"
           sodipodi:rx="13.571428"
           sodipodi:ry="13.571428"
           d="m 596.43898,398.38849 c -0.29345,-7.48955 5.54013,-13.79891 13.02968,-14.09237 7.48955,-0.29345 13.79891,5.54014 14.09236,13.02969 0.0165,0.42218 0.0134,0.8449 -0.01,1.26678 L 610,397.85715 z"
           transform="matrix(0.79975355,0,0,0.76253148,122.86523,66.223729)"
           sodipodi:start="3.1024313"
           sodipodi:end="6.3374026"
           clip-path="none" />
        <path
           sodipodi:type="arc"
           style="fill:none;stroke:#000000;stroke-width:0.11524857;stroke-linecap:round;stroke-linejoin:round;stroke-miterlimit:4;stroke-opacity:1;stroke-dasharray:none"
           id="path5076-3"
           sodipodi:cx="610"
           sodipodi:cy="397.85715"
           sodipodi:rx="13.571428"
           sodipodi:ry="13.571428"
           d="m 596.44089,398.43526 c -0.31928,-7.48849 5.49251,-13.81794 12.981,-14.13722 7.48849,-0.31928 13.81794,5.49251 14.13722,12.981 0.0193,0.45322 0.0159,0.90713 -0.0102,1.36002 L 610,397.85715 z"
           transform="matrix(0.79975355,0,0,-0.76253148,122.86523,984.85192)"
           sodipodi:start="3.0989822"
           sodipodi:end="6.3408316" />
      </g>
      <path
         transform="matrix(0.8,0,0,-0.8,-326.20296,677.19365)"
         sodipodi:type="arc"
         style="fill:none;stroke:#000000;stroke-width:0.09;stroke-linecap:round;stroke-linejoin:round;stroke-miterlimit:4;stroke-opacity:1;stroke-dasharray:none"
         id="path5380"
         sodipodi:cx="1085.4089"
         sodipodi:cy="276.01959"
         sodipodi:rx="9.1923885"
         sodipodi:ry="14.849242"
         d="m 1094.6013,276.01959 a 9.1923885,14.849242 0 1 1 -18.3848,0 9.1923885,14.849242 0 1 1 18.3848,0 z" />
    </g>
  </g>
</svg>
