<?xml version="1.0" encoding="UTF-8" standalone="no"?>
<!-- Created with Inkscape (http://www.inkscape.org/) -->

<svg
   xmlns:dc="http://purl.org/dc/elements/1.1/"
   xmlns:cc="http://creativecommons.org/ns#"
   xmlns:rdf="http://www.w3.org/1999/02/22-rdf-syntax-ns#"
   xmlns:svg="http://www.w3.org/2000/svg"
   xmlns="http://www.w3.org/2000/svg"
   xmlns:sodipodi="http://sodipodi.sourceforge.net/DTD/sodipodi-0.dtd"
   xmlns:inkscape="http://www.inkscape.org/namespaces/inkscape"
   width="1080"
   height="1080"
   id="svg4492"
   version="1.1"
   inkscape:version="0.48.4 r9939"
   sodipodi:docname="button_box-bottom.svg">
  <defs
     id="defs4494" />
  <sodipodi:namedview
     id="base"
     pagecolor="#ffffff"
     bordercolor="#666666"
     borderopacity="1.0"
     inkscape:pageopacity="0.0"
     inkscape:pageshadow="2"
     inkscape:zoom="1.2167969"
     inkscape:cx="276.79133"
     inkscape:cy="618.61958"
     inkscape:document-units="mm"
     inkscape:current-layer="g4508"
     showgrid="false"
     units="mm"
     inkscape:window-width="1920"
     inkscape:window-height="1057"
     inkscape:window-x="-8"
     inkscape:window-y="-8"
     inkscape:window-maximized="1" />
  <metadata
     id="metadata4497">
    <rdf:RDF>
      <cc:Work
         rdf:about="">
        <dc:format>image/svg+xml</dc:format>
        <dc:type
           rdf:resource="http://purl.org/dc/dcmitype/StillImage" />
        <dc:title></dc:title>
      </cc:Work>
    </rdf:RDF>
  </metadata>
  <g
     inkscape:label="Layer 1"
     inkscape:groupmode="layer"
     id="layer1"
     transform="translate(0,27.638016)">
    <g
       transform="matrix(1.25,0,0,-1.25,4.724375,955.78737)"
       inkscape:label="button_box"
       id="g4508">
      <path
         inkscape:connector-curvature="0"
         d="m 0,0 357.1654,0 0,226.7717 L 0,226.7717 0,0 z"
         style="fill:none;stroke:#000000;stroke-width:1;stroke-linecap:butt;stroke-linejoin:miter;stroke-miterlimit:10;stroke-opacity:1;stroke-dasharray:none"
         id="path4516" />
      <path
         inkscape:connector-curvature="0"
         d="m 42.12283,28.8 c 0,2.6614 -2.15749,4.8189 -4.81889,4.8189 -2.66141,0 -4.8189,-2.1575 -4.8189,-4.8189 0,-2.6614 2.15749,-4.8189 4.8189,-4.8189 2.6614,0 4.81889,2.1575 4.81889,4.8189"
         style="fill:none;stroke:#000000;stroke-width:1;stroke-linecap:butt;stroke-linejoin:miter;stroke-miterlimit:10;stroke-opacity:1;stroke-dasharray:none"
         id="path4518" />
      <path
         inkscape:connector-curvature="0"
         d="m 324.6803,28.8 c 0,2.6614 -2.1575,4.8189 -4.8189,4.8189 -2.6614,0 -4.8189,-2.1575 -4.8189,-4.8189 0,-2.6614 2.1575,-4.8189 4.8189,-4.8189 2.6614,0 4.8189,2.1575 4.8189,4.8189"
         style="fill:none;stroke:#000000;stroke-width:1;stroke-linecap:butt;stroke-linejoin:miter;stroke-miterlimit:10;stroke-opacity:1;stroke-dasharray:none"
         id="path4520" />
      <path
         inkscape:connector-curvature="0"
         d="m 324.6803,197.9717 c 0,2.6614 -2.1575,4.8189 -4.8189,4.8189 -2.6614,0 -4.8189,-2.1575 -4.8189,-4.8189 0,-2.6615 2.1575,-4.8189 4.8189,-4.8189 2.6614,0 4.8189,2.1574 4.8189,4.8189"
         style="fill:none;stroke:#000000;stroke-width:1;stroke-linecap:butt;stroke-linejoin:miter;stroke-miterlimit:10;stroke-opacity:1;stroke-dasharray:none"
         id="path4522" />
      <path
         inkscape:connector-curvature="0"
         d="m 42.12283,197.9717 c 0,2.6614 -2.15749,4.8189 -4.81889,4.8189 -2.66141,0 -4.8189,-2.1575 -4.8189,-4.8189 0,-2.6615 2.15749,-4.8189 4.8189,-4.8189 2.6614,0 4.81889,2.1574 4.81889,4.8189"
         style="fill:none;stroke:#000000;stroke-width:1;stroke-linecap:butt;stroke-linejoin:miter;stroke-miterlimit:10;stroke-opacity:1;stroke-dasharray:none"
         id="path4524" />
      <path
         id="path4532"
         style="fill:none;stroke:#000000;stroke-width:1;stroke-linecap:butt;stroke-linejoin:miter;stroke-miterlimit:10;stroke-opacity:1;stroke-dasharray:none"
         d="m 0,235.2756 357.1654,0 0,442.2047 -357.1654,0 0,-442.2047 z"
         inkscape:connector-curvature="0" />
      <path
         id="path4534"
         style="fill:none;stroke:#000000;stroke-width:1;stroke-linecap:butt;stroke-linejoin:miter;stroke-miterlimit:10;stroke-opacity:1;stroke-dasharray:none"
         d="m 42.12283,272.57954 c 0,2.6614 -2.15749,4.81889 -4.81889,4.81889 -2.66141,0 -4.8189,-2.15749 -4.8189,-4.81889 0,-2.66141 2.15749,-4.8189 4.8189,-4.8189 2.6614,0 4.81889,2.15749 4.81889,4.8189"
         inkscape:connector-curvature="0" />
      <path
         id="path4536"
         style="fill:none;stroke:#000000;stroke-width:1;stroke-linecap:butt;stroke-linejoin:miter;stroke-miterlimit:10;stroke-opacity:1;stroke-dasharray:none"
         d="m 324.6803,272.57954 c 0,2.6614 -2.1575,4.81889 -4.8189,4.81889 -2.6614,0 -4.8189,-2.15749 -4.8189,-4.81889 0,-2.66141 2.1575,-4.8189 4.8189,-4.8189 2.6614,0 4.8189,2.15749 4.8189,4.8189"
         inkscape:connector-curvature="0" />
      <path
         id="path4538"
         style="fill:none;stroke:#000000;stroke-width:1;stroke-linecap:butt;stroke-linejoin:miter;stroke-miterlimit:10;stroke-opacity:1;stroke-dasharray:none"
         d="m 324.6803,640.1764 c 0,2.6614 -2.1575,4.8189 -4.8189,4.8189 -2.6614,0 -4.8189,-2.1575 -4.8189,-4.8189 0,-2.6614 2.1575,-4.8189 4.8189,-4.8189 2.6614,0 4.8189,2.1575 4.8189,4.8189"
         inkscape:connector-curvature="0" />
      <path
         id="path4540"
         style="fill:none;stroke:#000000;stroke-width:1;stroke-linecap:butt;stroke-linejoin:miter;stroke-miterlimit:10;stroke-opacity:1;stroke-dasharray:none"
         d="m 42.12283,640.1764 c 0,2.6614 -2.15749,4.8189 -4.81889,4.8189 -2.66141,0 -4.8189,-2.1575 -4.8189,-4.8189 0,-2.6614 2.15749,-4.8189 4.8189,-4.8189 2.6614,0 4.81889,2.1575 4.81889,4.8189"
         inkscape:connector-curvature="0" />
      <path
         inkscape:connector-curvature="0"
         d="m 365.6693,243.77953 226.7717,0 0,425.1969 -226.7717,0 0,-425.1969 z"
         style="fill:none;stroke:#000000;stroke-width:1;stroke-linecap:butt;stroke-linejoin:miter;stroke-miterlimit:10;stroke-opacity:1;stroke-dasharray:none"
         id="path4556" />
      <path
         inkscape:connector-curvature="0"
         d="m 399.2882,272.57953 c 0,2.6614 -2.1575,4.8189 -4.8189,4.8189 -2.6614,0 -4.8189,-2.1575 -4.8189,-4.8189 0,-2.6614 2.1575,-4.8189 4.8189,-4.8189 2.6614,0 4.8189,2.1575 4.8189,4.8189"
         style="fill:none;stroke:#000000;stroke-width:1;stroke-linecap:butt;stroke-linejoin:miter;stroke-miterlimit:10;stroke-opacity:1;stroke-dasharray:none"
         id="path4558" />
      <path
         inkscape:connector-curvature="0"
         d="m 568.4599,272.57953 c 0,2.6614 -2.1575,4.8189 -4.8189,4.8189 -2.6615,0 -4.8189,-2.1575 -4.8189,-4.8189 0,-2.6614 2.1574,-4.8189 4.8189,-4.8189 2.6614,0 4.8189,2.1575 4.8189,4.8189"
         style="fill:none;stroke:#000000;stroke-width:1;stroke-linecap:butt;stroke-linejoin:miter;stroke-miterlimit:10;stroke-opacity:1;stroke-dasharray:none"
         id="path4560" />
      <path
         inkscape:connector-curvature="0"
         d="m 568.4599,640.17643 c 0,2.6614 -2.1575,4.8188 -4.8189,4.8188 -2.6615,0 -4.8189,-2.1574 -4.8189,-4.8188 0,-2.6615 2.1574,-4.8189 4.8189,-4.8189 2.6614,0 4.8189,2.1574 4.8189,4.8189"
         style="fill:none;stroke:#000000;stroke-width:1;stroke-linecap:butt;stroke-linejoin:miter;stroke-miterlimit:10;stroke-opacity:1;stroke-dasharray:none"
         id="path4562" />
      <path
         inkscape:connector-curvature="0"
         d="m 399.2882,640.17643 c 0,2.6614 -2.1575,4.8188 -4.8189,4.8188 -2.6614,0 -4.8189,-2.1574 -4.8189,-4.8188 0,-2.6615 2.1575,-4.8189 4.8189,-4.8189 2.6614,0 4.8189,2.1574 4.8189,4.8189"
         style="fill:none;stroke:#000000;stroke-width:1;stroke-linecap:butt;stroke-linejoin:miter;stroke-miterlimit:10;stroke-opacity:1;stroke-dasharray:none"
         id="path4564" />
      <g
         id="g4574"
         transform="translate(0,3e-5)" />
    </g>
  </g>
</svg>
