<?xml version="1.0" encoding="UTF-8" standalone="no"?>
<!-- Created with Inkscape (http://www.inkscape.org/) -->

<svg
   xmlns:dc="http://purl.org/dc/elements/1.1/"
   xmlns:cc="http://creativecommons.org/ns#"
   xmlns:rdf="http://www.w3.org/1999/02/22-rdf-syntax-ns#"
   xmlns:svg="http://www.w3.org/2000/svg"
   xmlns="http://www.w3.org/2000/svg"
   xmlns:sodipodi="http://sodipodi.sourceforge.net/DTD/sodipodi-0.dtd"
   xmlns:inkscape="http://www.inkscape.org/namespaces/inkscape"
   id="svg2"
   version="1.1"
   inkscape:version="0.48.4 r9939"
   width="1890"
   height="1170"
   xml:space="preserve"
   sodipodi:docname="photobooth-back.svg"><metadata
     id="metadata8"><rdf:RDF><cc:Work
         rdf:about=""><dc:format>image/svg+xml</dc:format><dc:type
           rdf:resource="http://purl.org/dc/dcmitype/StillImage" /><dc:title /></cc:Work></rdf:RDF></metadata><defs
     id="defs6" /><sodipodi:namedview
     pagecolor="#ffffff"
     bordercolor="#666666"
     borderopacity="1"
     objecttolerance="10"
     gridtolerance="10"
     guidetolerance="10"
     inkscape:pageopacity="0"
     inkscape:pageshadow="2"
     inkscape:window-width="1920"
     inkscape:window-height="1057"
     id="namedview4"
     showgrid="false"
     inkscape:document-units="mm"
     units="mm"
     inkscape:zoom="0.69121655"
     inkscape:cx="629.83722"
     inkscape:cy="388.05244"
     inkscape:window-x="-8"
     inkscape:window-y="-8"
     inkscape:window-maximized="1"
     inkscape:current-layer="g10" /><g
     id="g10"
     inkscape:groupmode="layer"
     inkscape:label="photoboothframe"
     transform="matrix(1.25,0,0,-1.25,0,1169.9998)">
<text
   transform="scale(1,-1)"
   id="text3382"
   x="9.2240763"
   y="-1008.2939"><tspan
     style="font-size:12px;font-variant:normal;font-weight:normal;writing-mode:lr-tb;fill:#000000;fill-opacity:1;fill-rule:nonzero;stroke:none;font-family:Helvetica;-inkscape-font-specification:Helvetica"
     x="9.2240763 15.896076 22.568075 29.240076 35.912075 39.248077 42.584076 49.256077 56.264076 62.936077 69.608078 76.280075 79.616074 86.288078 92.960075 96.296074 99.632072 106.30408 112.97607 116.31207 122.98408 129.65608 136.32808 139.66408 143.00008 146.33607 157.66408 164.67207 171.34407 178.01608 184.68808 188.02408 194.69608 201.36807 204.70407 208.04007 214.71208 218.04808 224.72008 231.39207 238.06407 241.40007 244.73607 248.07208 256.73608 263.74408 270.41608 277.0881 280.4241 287.0961 293.7681 297.1041 300.44009 307.11209 310.44809 317.12009 323.79208 330.46408 333.80008 337.13608 340.47208 347.80408 354.8121 361.4841 364.8201 371.4921 378.16409 381.50009 384.83609 391.50809 394.84409 401.51608 408.18808 414.86008"
     y="-1008.2939"
     sodipodi:role="line"
     id="tspan3384">Lada, L=296.00 [11.654], W=206.00 [8.110], H=56.00 [2.205], T=3.00 [0.118]</tspan></text>


<g
   id="g4311"><g
     transform="matrix(0,-1,1,0,66.820268,946.00848)"
     id="g3396"><rect
   transform="matrix(0,-1,-1,0,0,0)"
   y="-602.11688"
   x="-646.46649"
   height="240.02747"
   width="157.82274"
   id="rect5918"
   style="fill:none;stroke:#00ff00;stroke-width:0.08;stroke-miterlimit:4;stroke-opacity:1;stroke-dasharray:none" /><rect
   transform="scale(-1,1)"
   y="611.18781"
   x="-601.47705"
   height="34.946598"
   width="13.686755"
   id="rect5920"
   style="fill:none;stroke:#00ff00;stroke-width:0.08;stroke-miterlimit:4;stroke-opacity:1;stroke-dasharray:none" /><path
   transform="matrix(0,-0.54879114,-0.88796272,0,1674.48,1970.4681)"
   d="m 2483.1944,1223.755 a 6.8599687,4.2396936 0 1 1 -13.7199,0 6.8599687,4.2396936 0 1 1 13.7199,0 z"
   sodipodi:ry="4.2396936"
   sodipodi:rx="6.8599687"
   sodipodi:cy="1223.755"
   sodipodi:cx="2476.3345"
   id="path5922"
   style="fill:none;stroke:#000000;stroke-width:0.11460118;stroke-miterlimit:4;stroke-opacity:1;stroke-dasharray:none"
   sodipodi:type="arc" /><rect
   transform="scale(-1,1)"
   y="488.7767"
   x="-432.6864"
   height="49.178825"
   width="70.438675"
   id="rect5924"
   style="fill:none;stroke:#00ff00;stroke-width:0.08;stroke-miterlimit:4;stroke-opacity:1;stroke-dasharray:none" /><path
   transform="matrix(0,-0.54879114,-0.88796272,0,1519.1556,1897.0217)"
   d="m 2483.1944,1223.755 a 6.8599687,4.2396936 0 1 1 -13.7199,0 6.8599687,4.2396936 0 1 1 13.7199,0 z"
   sodipodi:ry="4.2396936"
   sodipodi:rx="6.8599687"
   sodipodi:cy="1223.755"
   sodipodi:cx="2476.3345"
   id="path5922-4"
   style="fill:none;stroke:#000000;stroke-width:0.11460118;stroke-miterlimit:4;stroke-opacity:1;stroke-dasharray:none"
   sodipodi:type="arc" /><text
   sodipodi:linespacing="125%"
   id="text6716"
   y="-618.42297"
   x="385.17273"
   style="font-size:9.60000038px;font-style:normal;font-weight:normal;line-height:125%;letter-spacing:0px;word-spacing:0px;fill:none;stroke:#00ff00;stroke-width:0.08;stroke-miterlimit:4;stroke-opacity:1;stroke-dasharray:none;font-family:Sans"
   xml:space="preserve"
   transform="scale(1,-1)"><tspan
     y="-618.42297"
     x="385.17273"
     id="tspan6718"
     sodipodi:role="line"
     style="stroke-width:0.08">Raspberry Pi</tspan></text>

<rect
   y="-586.74463"
   x="565.62646"
   height="37.335239"
   width="36.203865"
   id="rect6729"
   style="fill:none;stroke:#00ff00;stroke-width:0.08;stroke-miterlimit:4;stroke-opacity:1;stroke-dasharray:none"
   transform="scale(1,-1)" /><text
   sodipodi:linespacing="125%"
   id="text6731"
   y="-570.33972"
   x="571.84894"
   style="font-size:9.60000038px;font-style:normal;font-weight:normal;line-height:125%;letter-spacing:0px;word-spacing:0px;fill:none;stroke:#00ff00;stroke-width:0.08;stroke-miterlimit:4;stroke-opacity:1;stroke-dasharray:none;font-family:Sans"
   xml:space="preserve"
   transform="scale(1,-1)"><tspan
     y="-570.33972"
     x="571.84894"
     id="tspan6733"
     sodipodi:role="line"
     style="stroke-width:0.08">usb</tspan></text>

</g><g
     transform="translate(-69.824738,55.449057)"
     id="g4300"><rect
   style="fill:none;stroke:#00ff00;stroke-width:0.28084427;stroke-linecap:round;stroke-linejoin:round;stroke-miterlimit:4;stroke-opacity:1;stroke-dasharray:none"
   id="rect3408"
   width="186.80577"
   height="257.67191"
   x="184.3924"
   y="-569.62317"
   transform="scale(1,-1)" /><path
   sodipodi:type="arc"
   style="fill:none;stroke:#000000;stroke-width:0.35433072;stroke-linecap:round;stroke-linejoin:round;stroke-miterlimit:4;stroke-opacity:1;stroke-dasharray:none"
   id="path4178"
   sodipodi:cx="149.21187"
   sodipodi:cy="345.00275"
   sodipodi:rx="5.4550576"
   sodipodi:ry="6.7386007"
   d="m 154.66693,345.00275 a 5.4550576,6.7386007 0 1 1 -10.91012,0 5.4550576,6.7386007 0 1 1 10.91012,0 z"
   transform="matrix(1.0097662,0,0,-0.81742974,39.252159,843.27519)"
   inkscape:transform-center-x="-3.8506289"
   inkscape:transform-center-y="7.0866142" /><path
   sodipodi:type="arc"
   style="fill:none;stroke:#000000;stroke-width:0.35433072;stroke-linecap:round;stroke-linejoin:round;stroke-miterlimit:4;stroke-opacity:1;stroke-dasharray:none"
   id="path4178-1"
   sodipodi:cx="149.21187"
   sodipodi:cy="345.00275"
   sodipodi:rx="5.4550576"
   sodipodi:ry="6.7386007"
   d="m 154.66693,345.00275 a 5.4550576,6.7386007 0 1 1 -10.91012,0 5.4550576,6.7386007 0 1 1 10.91012,0 z"
   transform="matrix(1.0097662,0,0,-0.81742976,209.3309,843.2752)"
   inkscape:transform-center-x="-3.0805106"
   inkscape:transform-center-y="-5.6693364" /><path
   sodipodi:type="arc"
   style="fill:none;stroke:#000000;stroke-width:0.35433072;stroke-linecap:round;stroke-linejoin:round;stroke-miterlimit:4;stroke-opacity:1;stroke-dasharray:none"
   id="path4178-1-2"
   sodipodi:cx="149.21187"
   sodipodi:cy="345.00275"
   sodipodi:rx="5.4550576"
   sodipodi:ry="6.7386007"
   d="m 154.66693,345.00275 a 5.4550576,6.7386007 0 1 1 -10.91012,0 5.4550576,6.7386007 0 1 1 10.91012,0 z"
   transform="matrix(1.0097662,0,0,-0.81742976,209.3309,602.33031)"
   inkscape:transform-center-x="-2.4644159"
   inkscape:transform-center-y="4.5354241" /><path
   sodipodi:type="arc"
   style="fill:none;stroke:#000000;stroke-width:0.35433072;stroke-linecap:round;stroke-linejoin:round;stroke-miterlimit:4;stroke-opacity:1;stroke-dasharray:none"
   id="path4178-3"
   sodipodi:cx="149.21187"
   sodipodi:cy="345.00275"
   sodipodi:rx="5.4550576"
   sodipodi:ry="6.7386007"
   d="m 154.66693,345.00275 a 5.4550576,6.7386007 0 1 1 -10.91012,0 5.4550576,6.7386007 0 1 1 10.91012,0 z"
   transform="matrix(1.0097662,0,0,-0.81742976,39.252159,625.00748)"
   inkscape:transform-center-x="-3.0805106"
   inkscape:transform-center-y="-5.6693364" /><text
   xml:space="preserve"
   style="font-size:14px;font-style:normal;font-variant:normal;font-weight:bold;font-stretch:normal;line-height:125%;letter-spacing:0px;word-spacing:0px;fill:#ffffff;fill-opacity:1;stroke:#00ff00;stroke-opacity:1;font-family:Segoe UI;-inkscape-font-specification:Segoe UI Bold"
   x="270.18579"
   y="506.72916"
   id="text4296"
   sodipodi:linespacing="125%"
   transform="matrix(0.8,0,0,-0.8,0,935.99984)"><tspan
     sodipodi:role="line"
     id="tspan4298"
     x="270.18579"
     y="506.72916">LVDS Controller</tspan></text>

</g></g><g
   transform="translate(8.0666984,12.337845)"
   inkscape:label="photobooth"
   id="g3420"><text
     id="text3422"
     transform="matrix(1,0,0,-1,0,997.7953)"><tspan
       id="tspan3424"
       sodipodi:role="line"
       y="0"
       x="0 6.6719999 13.344 20.016001 26.688 30.024 33.360001 40.032001 47.040001 53.712002 60.383999 67.056 70.391998 77.064003 83.736 87.071999 90.407997 97.080002 103.752 107.088 113.76 120.432 127.104 130.44 133.776 137.112 148.44 155.448 162.12 168.79201 175.464 178.8 185.472 192.144 195.48 198.81599 205.48801 208.82401 215.496 222.168 228.84 232.17599 235.51199 238.84801 247.51199 254.52 261.19199 267.86401 271.20001 277.87201 284.54401 287.88 291.216 297.888 301.224 307.896 314.56799 321.23999 324.57599 327.91199 331.24799 338.57999 345.58801 352.26001 355.59601 362.26801 368.94 372.276 375.612 382.284 385.62 392.29199 398.96399 405.63599"
       style="font-size:12px;font-variant:normal;font-weight:normal;writing-mode:lr-tb;fill:#000000;fill-opacity:1;fill-rule:nonzero;stroke:none;font-family:Helvetica;-inkscape-font-specification:Helvetica">Lada, L=296.00 [11.654], W=206.00 [8.110], H=56.00 [2.205], T=3.00 [0.118]</tspan></text>
<g
     id="g3426"><path
       id="path3428"
       style="fill:none;stroke:#000000;stroke-width:1;stroke-linecap:butt;stroke-linejoin:miter;stroke-miterlimit:10;stroke-opacity:1;stroke-dasharray:none"
       d="m 0,0 839.0551,0 0,141.7323 L 0,141.7323 0,0 z"
       inkscape:connector-curvature="0" /><path
       id="path3430"
       style="fill:none;stroke:#000000;stroke-width:1;stroke-linecap:butt;stroke-linejoin:miter;stroke-miterlimit:10;stroke-opacity:1;stroke-dasharray:none"
       d="m 42.12283,28.8 c 0,2.6614 -2.15749,4.8189 -4.81889,4.8189 -2.66141,0 -4.8189,-2.1575 -4.8189,-4.8189 0,-2.6614 2.15749,-4.8189 4.8189,-4.8189 2.6614,0 4.81889,2.1575 4.81889,4.8189"
       inkscape:connector-curvature="0" /><path
       id="path3432"
       style="fill:none;stroke:#000000;stroke-width:1;stroke-linecap:butt;stroke-linejoin:miter;stroke-miterlimit:10;stroke-opacity:1;stroke-dasharray:none"
       d="m 806.5701,28.8 c 0,2.6614 -2.1575,4.8189 -4.8189,4.8189 -2.6614,0 -4.8189,-2.1575 -4.8189,-4.8189 0,-2.6614 2.1575,-4.8189 4.8189,-4.8189 2.6614,0 4.8189,2.1575 4.8189,4.8189"
       inkscape:connector-curvature="0" /><path
       id="path3434"
       style="fill:none;stroke:#000000;stroke-width:1;stroke-linecap:butt;stroke-linejoin:miter;stroke-miterlimit:10;stroke-opacity:1;stroke-dasharray:none"
       d="m 806.5701,112.9323 c 0,2.6614 -2.1575,4.8189 -4.8189,4.8189 -2.6614,0 -4.8189,-2.1575 -4.8189,-4.8189 0,-2.6614 2.1575,-4.8189 4.8189,-4.8189 2.6614,0 4.8189,2.1575 4.8189,4.8189"
       inkscape:connector-curvature="0" /><path
       id="path3436"
       style="fill:none;stroke:#000000;stroke-width:1;stroke-linecap:butt;stroke-linejoin:miter;stroke-miterlimit:10;stroke-opacity:1;stroke-dasharray:none"
       d="m 42.12283,112.9323 c 0,2.6614 -2.15749,4.8189 -4.81889,4.8189 -2.66141,0 -4.8189,-2.1575 -4.8189,-4.8189 0,-2.6614 2.15749,-4.8189 4.8189,-4.8189 2.6614,0 4.81889,2.1575 4.81889,4.8189"
       inkscape:connector-curvature="0" /><path
       id="path3438"
       style="fill:none;stroke:#000000;stroke-width:1;stroke-linecap:butt;stroke-linejoin:miter;stroke-miterlimit:10;stroke-opacity:1;stroke-dasharray:none"
       d="m 296.9386,28.8 c 0,2.6614 -2.1575,4.8189 -4.8189,4.8189 -2.6614,0 -4.8189,-2.1575 -4.8189,-4.8189 0,-2.6614 2.1575,-4.8189 4.8189,-4.8189 2.6614,0 4.8189,2.1575 4.8189,4.8189"
       inkscape:connector-curvature="0" /><path
       id="path3440"
       style="fill:none;stroke:#000000;stroke-width:1;stroke-linecap:butt;stroke-linejoin:miter;stroke-miterlimit:10;stroke-opacity:1;stroke-dasharray:none"
       d="m 296.9386,112.9323 c 0,2.6614 -2.1575,4.8189 -4.8189,4.8189 -2.6614,0 -4.8189,-2.1575 -4.8189,-4.8189 0,-2.6614 2.1575,-4.8189 4.8189,-4.8189 2.6614,0 4.8189,2.1575 4.8189,4.8189"
       inkscape:connector-curvature="0" /><path
       id="path3442"
       style="fill:none;stroke:#000000;stroke-width:1;stroke-linecap:butt;stroke-linejoin:miter;stroke-miterlimit:10;stroke-opacity:1;stroke-dasharray:none"
       d="m 551.7543,28.8 c 0,2.6614 -2.1575,4.8189 -4.8189,4.8189 -2.6614,0 -4.8189,-2.1575 -4.8189,-4.8189 0,-2.6614 2.1575,-4.8189 4.8189,-4.8189 2.6614,0 4.8189,2.1575 4.8189,4.8189"
       inkscape:connector-curvature="0" /><path
       id="path3444"
       style="fill:none;stroke:#000000;stroke-width:1;stroke-linecap:butt;stroke-linejoin:miter;stroke-miterlimit:10;stroke-opacity:1;stroke-dasharray:none"
       d="m 551.7543,112.9323 c 0,2.6614 -2.1575,4.8189 -4.8189,4.8189 -2.6614,0 -4.8189,-2.1575 -4.8189,-4.8189 0,-2.6614 2.1575,-4.8189 4.8189,-4.8189 2.6614,0 4.8189,2.1575 4.8189,4.8189"
       inkscape:connector-curvature="0" /><g
       transform="translate(0,150.2362)"
       id="g3446"><path
         id="path3448"
         style="fill:none;stroke:#000000;stroke-width:1;stroke-linecap:butt;stroke-linejoin:miter;stroke-miterlimit:10;stroke-opacity:1;stroke-dasharray:none"
         d="m 0,0 839.0551,0 0,583.937 L 0,583.937 0,0 z"
         inkscape:connector-curvature="0" /><path
         id="path3450"
         style="fill:none;stroke:#000000;stroke-width:1;stroke-linecap:butt;stroke-linejoin:miter;stroke-miterlimit:10;stroke-opacity:1;stroke-dasharray:none"
         d="m 42.12283,37.30394 c 0,2.6614 -2.15749,4.81889 -4.81889,4.81889 -2.66141,0 -4.8189,-2.15749 -4.8189,-4.81889 0,-2.66141 2.15749,-4.8189 4.8189,-4.8189 2.6614,0 4.81889,2.15749 4.81889,4.8189"
         inkscape:connector-curvature="0" /><path
         id="path3452"
         style="fill:none;stroke:#000000;stroke-width:1;stroke-linecap:butt;stroke-linejoin:miter;stroke-miterlimit:10;stroke-opacity:1;stroke-dasharray:none"
         d="m 806.5701,37.30394 c 0,2.6614 -2.1575,4.81889 -4.8189,4.81889 -2.6614,0 -4.8189,-2.15749 -4.8189,-4.81889 0,-2.66141 2.1575,-4.8189 4.8189,-4.8189 2.6614,0 4.8189,2.15749 4.8189,4.8189"
         inkscape:connector-curvature="0" /><path
         id="path3454"
         style="fill:none;stroke:#000000;stroke-width:1;stroke-linecap:butt;stroke-linejoin:miter;stroke-miterlimit:10;stroke-opacity:1;stroke-dasharray:none"
         d="m 806.5701,546.6331 c 0,2.6614 -2.1575,4.8189 -4.8189,4.8189 -2.6614,0 -4.8189,-2.1575 -4.8189,-4.8189 0,-2.6614 2.1575,-4.8189 4.8189,-4.8189 2.6614,0 4.8189,2.1575 4.8189,4.8189"
         inkscape:connector-curvature="0" /><path
         id="path3456"
         style="fill:none;stroke:#000000;stroke-width:1;stroke-linecap:butt;stroke-linejoin:miter;stroke-miterlimit:10;stroke-opacity:1;stroke-dasharray:none"
         d="m 42.12283,546.6331 c 0,2.6614 -2.15749,4.8189 -4.81889,4.8189 -2.66141,0 -4.8189,-2.1575 -4.8189,-4.8189 0,-2.6614 2.15749,-4.8189 4.8189,-4.8189 2.6614,0 4.81889,2.1575 4.81889,4.8189"
         inkscape:connector-curvature="0" /><path
         id="path3458"
         style="fill:none;stroke:#000000;stroke-width:1;stroke-linecap:butt;stroke-linejoin:miter;stroke-miterlimit:10;stroke-opacity:1;stroke-dasharray:none"
         d="m 296.9386,37.30394 c 0,2.6614 -2.1575,4.81889 -4.8189,4.81889 -2.6614,0 -4.8189,-2.15749 -4.8189,-4.81889 0,-2.66141 2.1575,-4.8189 4.8189,-4.8189 2.6614,0 4.8189,2.15749 4.8189,4.8189"
         inkscape:connector-curvature="0" /><path
         id="path3460"
         style="fill:none;stroke:#000000;stroke-width:1;stroke-linecap:butt;stroke-linejoin:miter;stroke-miterlimit:10;stroke-opacity:1;stroke-dasharray:none"
         d="m 296.9386,546.6331 c 0,2.6614 -2.1575,4.8189 -4.8189,4.8189 -2.6614,0 -4.8189,-2.1575 -4.8189,-4.8189 0,-2.6614 2.1575,-4.8189 4.8189,-4.8189 2.6614,0 4.8189,2.1575 4.8189,4.8189"
         inkscape:connector-curvature="0" /><path
         id="path3462"
         style="fill:none;stroke:#000000;stroke-width:1;stroke-linecap:butt;stroke-linejoin:miter;stroke-miterlimit:10;stroke-opacity:1;stroke-dasharray:none"
         d="m 551.7543,37.30394 c 0,2.6614 -2.1575,4.81889 -4.8189,4.81889 -2.6614,0 -4.8189,-2.15749 -4.8189,-4.81889 0,-2.66141 2.1575,-4.8189 4.8189,-4.8189 2.6614,0 4.8189,2.15749 4.8189,4.8189"
         inkscape:connector-curvature="0" /><path
         id="path3464"
         style="fill:none;stroke:#000000;stroke-width:1;stroke-linecap:butt;stroke-linejoin:miter;stroke-miterlimit:10;stroke-opacity:1;stroke-dasharray:none"
         d="m 551.7543,546.6331 c 0,2.6614 -2.1575,4.8189 -4.8189,4.8189 -2.6614,0 -4.8189,-2.1575 -4.8189,-4.8189 0,-2.6614 2.1575,-4.8189 4.8189,-4.8189 2.6614,0 4.8189,2.1575 4.8189,4.8189"
         inkscape:connector-curvature="0" /><path
         id="path3466"
         style="fill:none;stroke:#000000;stroke-width:1;stroke-linecap:butt;stroke-linejoin:miter;stroke-miterlimit:10;stroke-opacity:1;stroke-dasharray:none"
         d="m 42.12283,291.9685 c 0,2.6614 -2.15749,4.8189 -4.81889,4.8189 -2.66141,0 -4.8189,-2.1575 -4.8189,-4.8189 0,-2.6614 2.15749,-4.8189 4.8189,-4.8189 2.6614,0 4.81889,2.1575 4.81889,4.8189"
         inkscape:connector-curvature="0" /><path
         id="path3468"
         style="fill:none;stroke:#000000;stroke-width:1;stroke-linecap:butt;stroke-linejoin:miter;stroke-miterlimit:10;stroke-opacity:1;stroke-dasharray:none"
         d="m 806.5701,291.9685 c 0,2.6614 -2.1575,4.8189 -4.8189,4.8189 -2.6614,0 -4.8189,-2.1575 -4.8189,-4.8189 0,-2.6614 2.1575,-4.8189 4.8189,-4.8189 2.6614,0 4.8189,2.1575 4.8189,4.8189"
         inkscape:connector-curvature="0" /><g
         transform="translate(847.5591,8.503957)"
         id="g3470"><path
           id="path3472"
           style="fill:none;stroke:#000000;stroke-width:1;stroke-linecap:butt;stroke-linejoin:miter;stroke-miterlimit:10;stroke-opacity:1;stroke-dasharray:none"
           d="m 0,0 141.7323,0 0,566.9291 L 0,566.9291 0,0 z"
           inkscape:connector-curvature="0" /><path
           id="path3474"
           style="fill:none;stroke:#000000;stroke-width:1;stroke-linecap:butt;stroke-linejoin:miter;stroke-miterlimit:10;stroke-opacity:1;stroke-dasharray:none"
           d="m 33.6189,28.8 c 0,2.6614 -2.1575,4.8189 -4.8189,4.8189 -2.6614,0 -4.8189,-2.1575 -4.8189,-4.8189 0,-2.6614 2.1575,-4.8189 4.8189,-4.8189 2.6614,0 4.8189,2.1575 4.8189,4.8189"
           inkscape:connector-curvature="0" /><path
           id="path3476"
           style="fill:none;stroke:#000000;stroke-width:1;stroke-linecap:butt;stroke-linejoin:miter;stroke-miterlimit:10;stroke-opacity:1;stroke-dasharray:none"
           d="m 117.7512,28.8 c 0,2.6614 -2.1575,4.8189 -4.8189,4.8189 -2.6614,0 -4.8189,-2.1575 -4.8189,-4.8189 0,-2.6614 2.1575,-4.8189 4.8189,-4.8189 2.6614,0 4.8189,2.1575 4.8189,4.8189"
           inkscape:connector-curvature="0" /><path
           id="path3478"
           style="fill:none;stroke:#000000;stroke-width:1;stroke-linecap:butt;stroke-linejoin:miter;stroke-miterlimit:10;stroke-opacity:1;stroke-dasharray:none"
           d="m 117.7512,538.1291 c 0,2.6614 -2.1575,4.8189 -4.8189,4.8189 -2.6614,0 -4.8189,-2.1575 -4.8189,-4.8189 0,-2.6614 2.1575,-4.8189 4.8189,-4.8189 2.6614,0 4.8189,2.1575 4.8189,4.8189"
           inkscape:connector-curvature="0" /><path
           id="path3480"
           style="fill:none;stroke:#000000;stroke-width:1;stroke-linecap:butt;stroke-linejoin:miter;stroke-miterlimit:10;stroke-opacity:1;stroke-dasharray:none"
           d="m 33.6189,538.1291 c 0,2.6614 -2.1575,4.8189 -4.8189,4.8189 -2.6614,0 -4.8189,-2.1575 -4.8189,-4.8189 0,-2.6614 2.1575,-4.8189 4.8189,-4.8189 2.6614,0 4.8189,2.1575 4.8189,4.8189"
           inkscape:connector-curvature="0" /><path
           id="path3482"
           style="fill:none;stroke:#000000;stroke-width:1;stroke-linecap:butt;stroke-linejoin:miter;stroke-miterlimit:10;stroke-opacity:1;stroke-dasharray:none"
           d="m 33.6189,283.4646 c 0,2.6614 -2.1575,4.8189 -4.8189,4.8189 -2.6614,0 -4.8189,-2.1575 -4.8189,-4.8189 0,-2.6614 2.1575,-4.8189 4.8189,-4.8189 2.6614,0 4.8189,2.1575 4.8189,4.8189"
           inkscape:connector-curvature="0" /><path
           id="path3484"
           style="fill:none;stroke:#000000;stroke-width:1;stroke-linecap:butt;stroke-linejoin:miter;stroke-miterlimit:10;stroke-opacity:1;stroke-dasharray:none"
           d="m 117.7512,283.4646 c 0,2.6614 -2.1575,4.8189 -4.8189,4.8189 -2.6614,0 -4.8189,-2.1575 -4.8189,-4.8189 0,-2.6614 2.1575,-4.8189 4.8189,-4.8189 2.6614,0 4.8189,2.1575 4.8189,4.8189"
           inkscape:connector-curvature="0" /><g
           transform="translate(-847.5591,-158.7402)"
           id="g3486" /></g></g></g></g></g></svg>