<?xml version="1.0" encoding="UTF-8" standalone="no"?>
<!-- Created with Inkscape (http://www.inkscape.org/) -->

<svg
   xmlns:dc="http://purl.org/dc/elements/1.1/"
   xmlns:cc="http://creativecommons.org/ns#"
   xmlns:rdf="http://www.w3.org/1999/02/22-rdf-syntax-ns#"
   xmlns:svg="http://www.w3.org/2000/svg"
   xmlns="http://www.w3.org/2000/svg"
   xmlns:sodipodi="http://sodipodi.sourceforge.net/DTD/sodipodi-0.dtd"
   xmlns:inkscape="http://www.inkscape.org/namespaces/inkscape"
   id="svg2"
   version="1.1"
   inkscape:version="0.48.4 r9939"
   width="1890"
   height="1170"
   xml:space="preserve"
   sodipodi:docname="photobooth-front.svg"><metadata
     id="metadata8"><rdf:RDF><cc:Work
         rdf:about=""><dc:format>image/svg+xml</dc:format><dc:type
           rdf:resource="http://purl.org/dc/dcmitype/StillImage" /><dc:title /></cc:Work></rdf:RDF></metadata><defs
     id="defs6">
</defs><sodipodi:namedview
     pagecolor="#ffffff"
     bordercolor="#666666"
     borderopacity="1"
     objecttolerance="10"
     gridtolerance="10"
     guidetolerance="10"
     inkscape:pageopacity="0"
     inkscape:pageshadow="2"
     inkscape:window-width="1920"
     inkscape:window-height="1057"
     id="namedview4"
     showgrid="false"
     inkscape:document-units="mm"
     units="mm"
     inkscape:zoom="0.69121655"
     inkscape:cx="456.95363"
     inkscape:cy="471.78387"
     inkscape:window-x="-8"
     inkscape:window-y="-8"
     inkscape:window-maximized="1"
     inkscape:current-layer="g10" /><g
     id="g10"
     inkscape:groupmode="layer"
     inkscape:label="photoboothframe"
     transform="matrix(1.25,0,0,-1.25,0,1170.001)">
<text
   transform="scale(1,-1)"
   id="text3382"
   x="9.2240763"
   y="-1008.2939"><tspan
     style="font-size:12px;font-variant:normal;font-weight:normal;writing-mode:lr-tb;fill:#000000;fill-opacity:1;fill-rule:nonzero;stroke:none;font-family:Helvetica;-inkscape-font-specification:Helvetica"
     x="9.2240763 15.896076 22.568075 29.240076 35.912075 39.248077 42.584076 49.256077 56.264076 62.936077 69.608078 76.280075 79.616074 86.288078 92.960075 96.296074 99.632072 106.30408 112.97607 116.31207 122.98408 129.65608 136.32808 139.66408 143.00008 146.33607 157.66408 164.67207 171.34407 178.01608 184.68808 188.02408 194.69608 201.36807 204.70407 208.04007 214.71208 218.04808 224.72008 231.39207 238.06407 241.40007 244.73607 248.07208 256.73608 263.74408 270.41608 277.0881 280.4241 287.0961 293.7681 297.1041 300.44009 307.11209 310.44809 317.12009 323.79208 330.46408 333.80008 337.13608 340.47208 347.80408 354.8121 361.4841 364.8201 371.4921 378.16409 381.50009 384.83609 391.50809 394.84409 401.51608 408.18808 414.86008"
     y="-1008.2939"
     sodipodi:role="line"
     id="tspan3384">Lada, L=296.00 [11.654], W=206.00 [8.110], H=56.00 [2.205], T=3.00 [0.118]</tspan></text>

<g
   id="g3338"
   transform="translate(-2.4573553,-2.581533)"><rect
     transform="scale(1,-1)"
     y="-645.2478"
     x="81.245941"
     height="410.79218"
     width="699.92609"
     id="rect3077"
     style="fill:none;stroke:#000000;stroke-width:0.23140304;stroke-linecap:round;stroke-linejoin:round;stroke-miterlimit:4;stroke-opacity:1;stroke-dasharray:none" /><rect
     transform="scale(1,-1)"
     y="-718.81769"
     x="395.93356"
     height="70.550941"
     width="70.550941"
     id="rect3288"
     style="fill:none;stroke:#000000;stroke-width:0.31520379;stroke-linecap:round;stroke-linejoin:round;stroke-miterlimit:4;stroke-opacity:1;stroke-dasharray:none" /></g><text
   transform="scale(1,-1)"
   id="text3153"
   x="9.2240782"
   y="-1011.1486"><tspan
     style="font-size:12px;font-variant:normal;font-weight:normal;writing-mode:lr-tb;fill:#000000;fill-opacity:1;fill-rule:nonzero;stroke:none;font-family:Helvetica;-inkscape-font-specification:Helvetica"
     x="9.2240782 15.896078 22.568077 29.240078 35.912079 39.248077 42.58408 49.256081 56.26408 62.936081 69.608078 76.280075 79.616074 86.288078 92.960075 96.296074 99.632072 106.30408 112.97607 116.31207 122.98408 129.65608 136.32808 139.66408 143.00008 146.33607 157.66408 164.67207 171.34407 178.01608 184.68808 188.02408 194.69608 201.36807 204.70407 208.04007 214.71208 218.04808 224.72008 231.39207 238.06407 241.40007 244.73607 248.07208 256.73608 263.74408 270.41608 277.0881 280.4241 287.0961 293.7681 297.1041 300.44009 307.11209 310.44809 317.12009 323.79208 330.46408 333.80008 337.13608 340.47208 347.80408 354.8121 361.4841 364.8201 371.4921 378.16409 381.50009 384.83609 391.50809 394.84409 401.51608 408.18808 414.86008"
     y="-1011.1486"
     sodipodi:role="line"
     id="tspan3155">Lada, L=296.00 [11.654], W=206.00 [8.110], H=56.00 [2.205], T=3.00 [0.118]</tspan></text>
<path
   id="path3159"
   style="fill:none;stroke:#000000;stroke-width:1;stroke-linecap:butt;stroke-linejoin:miter;stroke-miterlimit:10;stroke-opacity:1;stroke-dasharray:none"
   d="m 9.2240781,13.353303 839.0551019,0 0,141.732297 -839.0551019,0 0,-141.732297 z"
   inkscape:connector-curvature="0" /><path
   id="path3161"
   style="fill:none;stroke:#000000;stroke-width:1;stroke-linecap:butt;stroke-linejoin:miter;stroke-miterlimit:10;stroke-opacity:1;stroke-dasharray:none"
   d="m 51.346908,42.153303 c 0,2.6614 -2.15749,4.8189 -4.81889,4.8189 -2.66141,0 -4.8189,-2.1575 -4.8189,-4.8189 0,-2.6614 2.15749,-4.8189 4.8189,-4.8189 2.6614,0 4.81889,2.1575 4.81889,4.8189"
   inkscape:connector-curvature="0" /><path
   id="path3163"
   style="fill:none;stroke:#000000;stroke-width:1;stroke-linecap:butt;stroke-linejoin:miter;stroke-miterlimit:10;stroke-opacity:1;stroke-dasharray:none"
   d="m 815.79418,42.153303 c 0,2.6614 -2.1575,4.8189 -4.8189,4.8189 -2.6614,0 -4.8189,-2.1575 -4.8189,-4.8189 0,-2.6614 2.1575,-4.8189 4.8189,-4.8189 2.6614,0 4.8189,2.1575 4.8189,4.8189"
   inkscape:connector-curvature="0" /><path
   id="path3165"
   style="fill:none;stroke:#000000;stroke-width:1;stroke-linecap:butt;stroke-linejoin:miter;stroke-miterlimit:10;stroke-opacity:1;stroke-dasharray:none"
   d="m 815.79418,126.2856 c 0,2.6614 -2.1575,4.8189 -4.8189,4.8189 -2.6614,0 -4.8189,-2.1575 -4.8189,-4.8189 0,-2.6614 2.1575,-4.8189 4.8189,-4.8189 2.6614,0 4.8189,2.1575 4.8189,4.8189"
   inkscape:connector-curvature="0" /><path
   id="path3167"
   style="fill:none;stroke:#000000;stroke-width:1;stroke-linecap:butt;stroke-linejoin:miter;stroke-miterlimit:10;stroke-opacity:1;stroke-dasharray:none"
   d="m 51.346908,126.2856 c 0,2.6614 -2.15749,4.8189 -4.81889,4.8189 -2.66141,0 -4.8189,-2.1575 -4.8189,-4.8189 0,-2.6614 2.15749,-4.8189 4.8189,-4.8189 2.6614,0 4.81889,2.1575 4.81889,4.8189"
   inkscape:connector-curvature="0" /><path
   id="path3169"
   style="fill:none;stroke:#000000;stroke-width:1;stroke-linecap:butt;stroke-linejoin:miter;stroke-miterlimit:10;stroke-opacity:1;stroke-dasharray:none"
   d="m 306.16268,42.153303 c 0,2.6614 -2.1575,4.8189 -4.8189,4.8189 -2.6614,0 -4.8189,-2.1575 -4.8189,-4.8189 0,-2.6614 2.1575,-4.8189 4.8189,-4.8189 2.6614,0 4.8189,2.1575 4.8189,4.8189"
   inkscape:connector-curvature="0" /><path
   id="path3171"
   style="fill:none;stroke:#000000;stroke-width:1;stroke-linecap:butt;stroke-linejoin:miter;stroke-miterlimit:10;stroke-opacity:1;stroke-dasharray:none"
   d="m 306.16268,126.2856 c 0,2.6614 -2.1575,4.8189 -4.8189,4.8189 -2.6614,0 -4.8189,-2.1575 -4.8189,-4.8189 0,-2.6614 2.1575,-4.8189 4.8189,-4.8189 2.6614,0 4.8189,2.1575 4.8189,4.8189"
   inkscape:connector-curvature="0" /><path
   id="path3173"
   style="fill:none;stroke:#000000;stroke-width:1;stroke-linecap:butt;stroke-linejoin:miter;stroke-miterlimit:10;stroke-opacity:1;stroke-dasharray:none"
   d="m 560.97838,42.153303 c 0,2.6614 -2.1575,4.8189 -4.8189,4.8189 -2.6614,0 -4.8189,-2.1575 -4.8189,-4.8189 0,-2.6614 2.1575,-4.8189 4.8189,-4.8189 2.6614,0 4.8189,2.1575 4.8189,4.8189"
   inkscape:connector-curvature="0" /><path
   id="path3175"
   style="fill:none;stroke:#000000;stroke-width:1;stroke-linecap:butt;stroke-linejoin:miter;stroke-miterlimit:10;stroke-opacity:1;stroke-dasharray:none"
   d="m 560.97838,126.2856 c 0,2.6614 -2.1575,4.8189 -4.8189,4.8189 -2.6614,0 -4.8189,-2.1575 -4.8189,-4.8189 0,-2.6614 2.1575,-4.8189 4.8189,-4.8189 2.6614,0 4.8189,2.1575 4.8189,4.8189"
   inkscape:connector-curvature="0" /><path
   inkscape:connector-curvature="0"
   d="m 9.2240781,163.5895 839.0551019,0 0,583.937 -839.0551019,0 0,-583.937 z"
   style="fill:none;stroke:#000000;stroke-width:1;stroke-linecap:butt;stroke-linejoin:miter;stroke-miterlimit:10;stroke-opacity:1;stroke-dasharray:none"
   id="path3179" /><path
   inkscape:connector-curvature="0"
   d="m 51.346908,200.89344 c 0,2.6614 -2.15749,4.81889 -4.81889,4.81889 -2.66141,0 -4.8189,-2.15749 -4.8189,-4.81889 0,-2.66141 2.15749,-4.8189 4.8189,-4.8189 2.6614,0 4.81889,2.15749 4.81889,4.8189"
   style="fill:none;stroke:#000000;stroke-width:1;stroke-linecap:butt;stroke-linejoin:miter;stroke-miterlimit:10;stroke-opacity:1;stroke-dasharray:none"
   id="path3181" /><path
   inkscape:connector-curvature="0"
   d="m 815.79418,200.89344 c 0,2.6614 -2.1575,4.81889 -4.8189,4.81889 -2.6614,0 -4.8189,-2.15749 -4.8189,-4.81889 0,-2.66141 2.1575,-4.8189 4.8189,-4.8189 2.6614,0 4.8189,2.15749 4.8189,4.8189"
   style="fill:none;stroke:#000000;stroke-width:1;stroke-linecap:butt;stroke-linejoin:miter;stroke-miterlimit:10;stroke-opacity:1;stroke-dasharray:none"
   id="path3183" /><path
   inkscape:connector-curvature="0"
   d="m 815.79418,710.2226 c 0,2.6614 -2.1575,4.8189 -4.8189,4.8189 -2.6614,0 -4.8189,-2.1575 -4.8189,-4.8189 0,-2.6614 2.1575,-4.8189 4.8189,-4.8189 2.6614,0 4.8189,2.1575 4.8189,4.8189"
   style="fill:none;stroke:#000000;stroke-width:1;stroke-linecap:butt;stroke-linejoin:miter;stroke-miterlimit:10;stroke-opacity:1;stroke-dasharray:none"
   id="path3185" /><path
   inkscape:connector-curvature="0"
   d="m 51.346908,710.2226 c 0,2.6614 -2.15749,4.8189 -4.81889,4.8189 -2.66141,0 -4.8189,-2.1575 -4.8189,-4.8189 0,-2.6614 2.15749,-4.8189 4.8189,-4.8189 2.6614,0 4.81889,2.1575 4.81889,4.8189"
   style="fill:none;stroke:#000000;stroke-width:1;stroke-linecap:butt;stroke-linejoin:miter;stroke-miterlimit:10;stroke-opacity:1;stroke-dasharray:none"
   id="path3187" /><path
   inkscape:connector-curvature="0"
   d="m 306.16268,200.89344 c 0,2.6614 -2.1575,4.81889 -4.8189,4.81889 -2.6614,0 -4.8189,-2.15749 -4.8189,-4.81889 0,-2.66141 2.1575,-4.8189 4.8189,-4.8189 2.6614,0 4.8189,2.15749 4.8189,4.8189"
   style="fill:none;stroke:#000000;stroke-width:1;stroke-linecap:butt;stroke-linejoin:miter;stroke-miterlimit:10;stroke-opacity:1;stroke-dasharray:none"
   id="path3189" /><path
   inkscape:connector-curvature="0"
   d="m 306.16268,710.2226 c 0,2.6614 -2.1575,4.8189 -4.8189,4.8189 -2.6614,0 -4.8189,-2.1575 -4.8189,-4.8189 0,-2.6614 2.1575,-4.8189 4.8189,-4.8189 2.6614,0 4.8189,2.1575 4.8189,4.8189"
   style="fill:none;stroke:#000000;stroke-width:1;stroke-linecap:butt;stroke-linejoin:miter;stroke-miterlimit:10;stroke-opacity:1;stroke-dasharray:none"
   id="path3191" /><path
   inkscape:connector-curvature="0"
   d="m 560.97838,200.89344 c 0,2.6614 -2.1575,4.81889 -4.8189,4.81889 -2.6614,0 -4.8189,-2.15749 -4.8189,-4.81889 0,-2.66141 2.1575,-4.8189 4.8189,-4.8189 2.6614,0 4.8189,2.15749 4.8189,4.8189"
   style="fill:none;stroke:#000000;stroke-width:1;stroke-linecap:butt;stroke-linejoin:miter;stroke-miterlimit:10;stroke-opacity:1;stroke-dasharray:none"
   id="path3193" /><path
   inkscape:connector-curvature="0"
   d="m 560.97838,710.2226 c 0,2.6614 -2.1575,4.8189 -4.8189,4.8189 -2.6614,0 -4.8189,-2.1575 -4.8189,-4.8189 0,-2.6614 2.1575,-4.8189 4.8189,-4.8189 2.6614,0 4.8189,2.1575 4.8189,4.8189"
   style="fill:none;stroke:#000000;stroke-width:1;stroke-linecap:butt;stroke-linejoin:miter;stroke-miterlimit:10;stroke-opacity:1;stroke-dasharray:none"
   id="path3195" /><path
   inkscape:connector-curvature="0"
   d="m 51.346908,455.558 c 0,2.6614 -2.15749,4.8189 -4.81889,4.8189 -2.66141,0 -4.8189,-2.1575 -4.8189,-4.8189 0,-2.6614 2.15749,-4.8189 4.8189,-4.8189 2.6614,0 4.81889,2.1575 4.81889,4.8189"
   style="fill:none;stroke:#000000;stroke-width:1;stroke-linecap:butt;stroke-linejoin:miter;stroke-miterlimit:10;stroke-opacity:1;stroke-dasharray:none"
   id="path3197" /><path
   inkscape:connector-curvature="0"
   d="m 815.79418,455.558 c 0,2.6614 -2.1575,4.8189 -4.8189,4.8189 -2.6614,0 -4.8189,-2.1575 -4.8189,-4.8189 0,-2.6614 2.1575,-4.8189 4.8189,-4.8189 2.6614,0 4.8189,2.1575 4.8189,4.8189"
   style="fill:none;stroke:#000000;stroke-width:1;stroke-linecap:butt;stroke-linejoin:miter;stroke-miterlimit:10;stroke-opacity:1;stroke-dasharray:none"
   id="path3199" /><g
   id="g3201"
   transform="translate(856.78318,172.09346)"><path
     inkscape:connector-curvature="0"
     d="m 0,0 141.7323,0 0,566.9291 L 0,566.9291 0,0 z"
     style="fill:none;stroke:#000000;stroke-width:1;stroke-linecap:butt;stroke-linejoin:miter;stroke-miterlimit:10;stroke-opacity:1;stroke-dasharray:none"
     id="path3203" /><path
     inkscape:connector-curvature="0"
     d="m 33.6189,28.8 c 0,2.6614 -2.1575,4.8189 -4.8189,4.8189 -2.6614,0 -4.8189,-2.1575 -4.8189,-4.8189 0,-2.6614 2.1575,-4.8189 4.8189,-4.8189 2.6614,0 4.8189,2.1575 4.8189,4.8189"
     style="fill:none;stroke:#000000;stroke-width:1;stroke-linecap:butt;stroke-linejoin:miter;stroke-miterlimit:10;stroke-opacity:1;stroke-dasharray:none"
     id="path3205" /><path
     inkscape:connector-curvature="0"
     d="m 117.7512,28.8 c 0,2.6614 -2.1575,4.8189 -4.8189,4.8189 -2.6614,0 -4.8189,-2.1575 -4.8189,-4.8189 0,-2.6614 2.1575,-4.8189 4.8189,-4.8189 2.6614,0 4.8189,2.1575 4.8189,4.8189"
     style="fill:none;stroke:#000000;stroke-width:1;stroke-linecap:butt;stroke-linejoin:miter;stroke-miterlimit:10;stroke-opacity:1;stroke-dasharray:none"
     id="path3207" /><path
     inkscape:connector-curvature="0"
     d="m 117.7512,538.1291 c 0,2.6614 -2.1575,4.8189 -4.8189,4.8189 -2.6614,0 -4.8189,-2.1575 -4.8189,-4.8189 0,-2.6614 2.1575,-4.8189 4.8189,-4.8189 2.6614,0 4.8189,2.1575 4.8189,4.8189"
     style="fill:none;stroke:#000000;stroke-width:1;stroke-linecap:butt;stroke-linejoin:miter;stroke-miterlimit:10;stroke-opacity:1;stroke-dasharray:none"
     id="path3209" /><path
     inkscape:connector-curvature="0"
     d="m 33.6189,538.1291 c 0,2.6614 -2.1575,4.8189 -4.8189,4.8189 -2.6614,0 -4.8189,-2.1575 -4.8189,-4.8189 0,-2.6614 2.1575,-4.8189 4.8189,-4.8189 2.6614,0 4.8189,2.1575 4.8189,4.8189"
     style="fill:none;stroke:#000000;stroke-width:1;stroke-linecap:butt;stroke-linejoin:miter;stroke-miterlimit:10;stroke-opacity:1;stroke-dasharray:none"
     id="path3211" /><path
     inkscape:connector-curvature="0"
     d="m 33.6189,283.4646 c 0,2.6614 -2.1575,4.8189 -4.8189,4.8189 -2.6614,0 -4.8189,-2.1575 -4.8189,-4.8189 0,-2.6614 2.1575,-4.8189 4.8189,-4.8189 2.6614,0 4.8189,2.1575 4.8189,4.8189"
     style="fill:none;stroke:#000000;stroke-width:1;stroke-linecap:butt;stroke-linejoin:miter;stroke-miterlimit:10;stroke-opacity:1;stroke-dasharray:none"
     id="path3213" /><path
     inkscape:connector-curvature="0"
     d="m 117.7512,283.4646 c 0,2.6614 -2.1575,4.8189 -4.8189,4.8189 -2.6614,0 -4.8189,-2.1575 -4.8189,-4.8189 0,-2.6614 2.1575,-4.8189 4.8189,-4.8189 2.6614,0 4.8189,2.1575 4.8189,4.8189"
     style="fill:none;stroke:#000000;stroke-width:1;stroke-linecap:butt;stroke-linejoin:miter;stroke-miterlimit:10;stroke-opacity:1;stroke-dasharray:none"
     id="path3215" /><g
     id="g3217"
     transform="translate(-847.5591,-158.7402)" /></g></g></svg>