<?xml version="1.0" encoding="UTF-8" standalone="no"?>
<!-- Created with Inkscape (http://www.inkscape.org/) -->

<svg
   xmlns:dc="http://purl.org/dc/elements/1.1/"
   xmlns:cc="http://creativecommons.org/ns#"
   xmlns:rdf="http://www.w3.org/1999/02/22-rdf-syntax-ns#"
   xmlns:svg="http://www.w3.org/2000/svg"
   xmlns="http://www.w3.org/2000/svg"
   xmlns:sodipodi="http://sodipodi.sourceforge.net/DTD/sodipodi-0.dtd"
   xmlns:inkscape="http://www.inkscape.org/namespaces/inkscape"
   id="svg2"
   version="1.1"
   inkscape:version="0.48.4 r9939"
   width="1890"
   height="1170"
   xml:space="preserve"
   sodipodi:docname="photobooth-back.svg"><metadata
     id="metadata8"><rdf:RDF><cc:Work
         rdf:about=""><dc:format>image/svg+xml</dc:format><dc:type
           rdf:resource="http://purl.org/dc/dcmitype/StillImage" /><dc:title /></cc:Work></rdf:RDF></metadata><defs
     id="defs6" /><sodipodi:namedview
     pagecolor="#ffffff"
     bordercolor="#666666"
     borderopacity="1"
     objecttolerance="10"
     gridtolerance="10"
     guidetolerance="10"
     inkscape:pageopacity="0"
     inkscape:pageshadow="2"
     inkscape:window-width="1920"
     inkscape:window-height="1057"
     id="namedview4"
     showgrid="false"
     inkscape:document-units="mm"
     units="mm"
     inkscape:zoom="1.1018046"
     inkscape:cx="646.46541"
     inkscape:cy="555.27462"
     inkscape:window-x="-8"
     inkscape:window-y="-8"
     inkscape:window-maximized="1"
     inkscape:current-layer="g10" /><g
     id="g10"
     inkscape:groupmode="layer"
     inkscape:label="photoboothframe"
     transform="matrix(1.25,0,0,-1.25,0,1169.9998)">
<text
   transform="scale(1,-1)"
   id="text3382"
   x="9.2240763"
   y="-1008.2939"><tspan
     style="font-size:12px;font-variant:normal;font-weight:normal;writing-mode:lr-tb;fill:#000000;fill-opacity:1;fill-rule:nonzero;stroke:none;font-family:Helvetica;-inkscape-font-specification:Helvetica"
     x="9.2240763 15.896076 22.568075 29.240076 35.912075 39.248077 42.584076 49.256077 56.264076 62.936077 69.608078 76.280075 79.616074 86.288078 92.960075 96.296074 99.632072 106.30408 112.97607 116.31207 122.98408 129.65608 136.32808 139.66408 143.00008 146.33607 157.66408 164.67207 171.34407 178.01608 184.68808 188.02408 194.69608 201.36807 204.70407 208.04007 214.71208 218.04808 224.72008 231.39207 238.06407 241.40007 244.73607 248.07208 256.73608 263.74408 270.41608 277.0881 280.4241 287.0961 293.7681 297.1041 300.44009 307.11209 310.44809 317.12009 323.79208 330.46408 333.80008 337.13608 340.47208 347.80408 354.8121 361.4841 364.8201 371.4921 378.16409 381.50009 384.83609 391.50809 394.84409 401.51608 408.18808 414.86008"
     y="-1008.2939"
     sodipodi:role="line"
     id="tspan3384">Lada, L=296.00 [11.654], W=206.00 [8.110], H=56.00 [2.205], T=3.00 [0.118]</tspan></text>

<path
   id="path3388"
   style="fill:none;stroke:#000000;stroke-width:1;stroke-linecap:butt;stroke-linejoin:miter;stroke-miterlimit:10;stroke-opacity:1;stroke-dasharray:none"
   d="m 9.2240762,10.498556 839.0551038,0 0,141.732304 -839.0551038,0 0,-141.732304 z"
   inkscape:connector-curvature="0" /><path
   id="path3390"
   style="fill:none;stroke:#000000;stroke-width:1;stroke-linecap:butt;stroke-linejoin:miter;stroke-miterlimit:10;stroke-opacity:1;stroke-dasharray:none"
   d="m 51.346906,39.298556 c 0,2.6614 -2.15749,4.8189 -4.81889,4.8189 -2.66141,0 -4.8189,-2.1575 -4.8189,-4.8189 0,-2.6614 2.15749,-4.8189 4.8189,-4.8189 2.6614,0 4.81889,2.1575 4.81889,4.8189"
   inkscape:connector-curvature="0" /><path
   id="path3392"
   style="fill:none;stroke:#000000;stroke-width:1;stroke-linecap:butt;stroke-linejoin:miter;stroke-miterlimit:10;stroke-opacity:1;stroke-dasharray:none"
   d="m 815.79418,39.298556 c 0,2.6614 -2.1575,4.8189 -4.8189,4.8189 -2.6614,0 -4.8189,-2.1575 -4.8189,-4.8189 0,-2.6614 2.1575,-4.8189 4.8189,-4.8189 2.6614,0 4.8189,2.1575 4.8189,4.8189"
   inkscape:connector-curvature="0" /><path
   id="path3394"
   style="fill:none;stroke:#000000;stroke-width:1;stroke-linecap:butt;stroke-linejoin:miter;stroke-miterlimit:10;stroke-opacity:1;stroke-dasharray:none"
   d="m 815.79418,123.43086 c 0,2.6614 -2.1575,4.8189 -4.8189,4.8189 -2.6614,0 -4.8189,-2.1575 -4.8189,-4.8189 0,-2.6614 2.1575,-4.8189 4.8189,-4.8189 2.6614,0 4.8189,2.1575 4.8189,4.8189"
   inkscape:connector-curvature="0" /><path
   id="path3396"
   style="fill:none;stroke:#000000;stroke-width:1;stroke-linecap:butt;stroke-linejoin:miter;stroke-miterlimit:10;stroke-opacity:1;stroke-dasharray:none"
   d="m 51.346906,123.43086 c 0,2.6614 -2.15749,4.8189 -4.81889,4.8189 -2.66141,0 -4.8189,-2.1575 -4.8189,-4.8189 0,-2.6614 2.15749,-4.8189 4.8189,-4.8189 2.6614,0 4.81889,2.1575 4.81889,4.8189"
   inkscape:connector-curvature="0" /><path
   id="path3398"
   style="fill:none;stroke:#000000;stroke-width:1;stroke-linecap:butt;stroke-linejoin:miter;stroke-miterlimit:10;stroke-opacity:1;stroke-dasharray:none"
   d="m 204.23638,39.298556 c 0,2.6614 -2.1575,4.8189 -4.8189,4.8189 -2.6614,0 -4.8189,-2.1575 -4.8189,-4.8189 0,-2.6614 2.1575,-4.8189 4.8189,-4.8189 2.6614,0 4.8189,2.1575 4.8189,4.8189"
   inkscape:connector-curvature="0" /><path
   id="path3400"
   style="fill:none;stroke:#000000;stroke-width:1;stroke-linecap:butt;stroke-linejoin:miter;stroke-miterlimit:10;stroke-opacity:1;stroke-dasharray:none"
   d="m 204.23638,123.43086 c 0,2.6614 -2.1575,4.8189 -4.8189,4.8189 -2.6614,0 -4.8189,-2.1575 -4.8189,-4.8189 0,-2.6614 2.1575,-4.8189 4.8189,-4.8189 2.6614,0 4.8189,2.1575 4.8189,4.8189"
   inkscape:connector-curvature="0" /><path
   id="path3402"
   style="fill:none;stroke:#000000;stroke-width:1;stroke-linecap:butt;stroke-linejoin:miter;stroke-miterlimit:10;stroke-opacity:1;stroke-dasharray:none"
   d="m 357.12578,39.298556 c 0,2.6614 -2.1575,4.8189 -4.8189,4.8189 -2.6614,0 -4.8189,-2.1575 -4.8189,-4.8189 0,-2.6614 2.1575,-4.8189 4.8189,-4.8189 2.6614,0 4.8189,2.1575 4.8189,4.8189"
   inkscape:connector-curvature="0" /><path
   id="path3404"
   style="fill:none;stroke:#000000;stroke-width:1;stroke-linecap:butt;stroke-linejoin:miter;stroke-miterlimit:10;stroke-opacity:1;stroke-dasharray:none"
   d="m 357.12578,123.43086 c 0,2.6614 -2.1575,4.8189 -4.8189,4.8189 -2.6614,0 -4.8189,-2.1575 -4.8189,-4.8189 0,-2.6614 2.1575,-4.8189 4.8189,-4.8189 2.6614,0 4.8189,2.1575 4.8189,4.8189"
   inkscape:connector-curvature="0" /><path
   id="path3406"
   style="fill:none;stroke:#000000;stroke-width:1;stroke-linecap:butt;stroke-linejoin:miter;stroke-miterlimit:10;stroke-opacity:1;stroke-dasharray:none"
   d="m 510.01528,39.298556 c 0,2.6614 -2.1575,4.8189 -4.8189,4.8189 -2.6614,0 -4.8189,-2.1575 -4.8189,-4.8189 0,-2.6614 2.1575,-4.8189 4.8189,-4.8189 2.6614,0 4.8189,2.1575 4.8189,4.8189"
   inkscape:connector-curvature="0" /><path
   id="path3408"
   style="fill:none;stroke:#000000;stroke-width:1;stroke-linecap:butt;stroke-linejoin:miter;stroke-miterlimit:10;stroke-opacity:1;stroke-dasharray:none"
   d="m 510.01528,123.43086 c 0,2.6614 -2.1575,4.8189 -4.8189,4.8189 -2.6614,0 -4.8189,-2.1575 -4.8189,-4.8189 0,-2.6614 2.1575,-4.8189 4.8189,-4.8189 2.6614,0 4.8189,2.1575 4.8189,4.8189"
   inkscape:connector-curvature="0" /><path
   id="path3410"
   style="fill:none;stroke:#000000;stroke-width:1;stroke-linecap:butt;stroke-linejoin:miter;stroke-miterlimit:10;stroke-opacity:1;stroke-dasharray:none"
   d="m 662.90468,39.298556 c 0,2.6614 -2.1575,4.8189 -4.8189,4.8189 -2.6614,0 -4.8189,-2.1575 -4.8189,-4.8189 0,-2.6614 2.1575,-4.8189 4.8189,-4.8189 2.6614,0 4.8189,2.1575 4.8189,4.8189"
   inkscape:connector-curvature="0" /><path
   id="path3412"
   style="fill:none;stroke:#000000;stroke-width:1;stroke-linecap:butt;stroke-linejoin:miter;stroke-miterlimit:10;stroke-opacity:1;stroke-dasharray:none"
   d="m 662.90468,123.43086 c 0,2.6614 -2.1575,4.8189 -4.8189,4.8189 -2.6614,0 -4.8189,-2.1575 -4.8189,-4.8189 0,-2.6614 2.1575,-4.8189 4.8189,-4.8189 2.6614,0 4.8189,2.1575 4.8189,4.8189"
   inkscape:connector-curvature="0" /><g
   id="g3642"
   sodipodi:insensitive="true"><path
     id="path3416"
     style="fill:none;stroke:#000000;stroke-width:1;stroke-linecap:butt;stroke-linejoin:miter;stroke-miterlimit:10;stroke-opacity:1;stroke-dasharray:none"
     d="m 11.681432,160.73476 839.055108,0 0,583.937 -839.055108,0 0,-583.937 z"
     inkscape:connector-curvature="0" /><path
     id="path3418"
     style="fill:none;stroke:#000000;stroke-width:1;stroke-linecap:butt;stroke-linejoin:miter;stroke-miterlimit:10;stroke-opacity:1;stroke-dasharray:none"
     d="m 51.346906,198.0387 c 0,2.6614 -2.15749,4.81889 -4.81889,4.81889 -2.66141,0 -4.8189,-2.15749 -4.8189,-4.81889 0,-2.66141 2.15749,-4.8189 4.8189,-4.8189 2.6614,0 4.81889,2.15749 4.81889,4.8189"
     inkscape:connector-curvature="0" /><path
     id="path3420"
     style="fill:none;stroke:#000000;stroke-width:1;stroke-linecap:butt;stroke-linejoin:miter;stroke-miterlimit:10;stroke-opacity:1;stroke-dasharray:none"
     d="m 815.79418,198.0387 c 0,2.6614 -2.1575,4.81889 -4.8189,4.81889 -2.6614,0 -4.8189,-2.15749 -4.8189,-4.81889 0,-2.66141 2.1575,-4.8189 4.8189,-4.8189 2.6614,0 4.8189,2.15749 4.8189,4.8189"
     inkscape:connector-curvature="0" /><path
     id="path3422"
     style="fill:none;stroke:#000000;stroke-width:1;stroke-linecap:butt;stroke-linejoin:miter;stroke-miterlimit:10;stroke-opacity:1;stroke-dasharray:none"
     d="m 815.79418,707.36786 c 0,2.6614 -2.1575,4.8189 -4.8189,4.8189 -2.6614,0 -4.8189,-2.1575 -4.8189,-4.8189 0,-2.6614 2.1575,-4.8189 4.8189,-4.8189 2.6614,0 4.8189,2.1575 4.8189,4.8189"
     inkscape:connector-curvature="0" /><path
     id="path3424"
     style="fill:none;stroke:#000000;stroke-width:1;stroke-linecap:butt;stroke-linejoin:miter;stroke-miterlimit:10;stroke-opacity:1;stroke-dasharray:none"
     d="m 51.346906,707.36786 c 0,2.6614 -2.15749,4.8189 -4.81889,4.8189 -2.66141,0 -4.8189,-2.1575 -4.8189,-4.8189 0,-2.6614 2.15749,-4.8189 4.8189,-4.8189 2.6614,0 4.81889,2.1575 4.81889,4.8189"
     inkscape:connector-curvature="0" /><path
     id="path3426"
     style="fill:none;stroke:#000000;stroke-width:1;stroke-linecap:butt;stroke-linejoin:miter;stroke-miterlimit:10;stroke-opacity:1;stroke-dasharray:none"
     d="m 204.23638,198.0387 c 0,2.6614 -2.1575,4.81889 -4.8189,4.81889 -2.6614,0 -4.8189,-2.15749 -4.8189,-4.81889 0,-2.66141 2.1575,-4.8189 4.8189,-4.8189 2.6614,0 4.8189,2.15749 4.8189,4.8189"
     inkscape:connector-curvature="0" /><path
     id="path3428"
     style="fill:none;stroke:#000000;stroke-width:1;stroke-linecap:butt;stroke-linejoin:miter;stroke-miterlimit:10;stroke-opacity:1;stroke-dasharray:none"
     d="m 204.23638,707.36786 c 0,2.6614 -2.1575,4.8189 -4.8189,4.8189 -2.6614,0 -4.8189,-2.1575 -4.8189,-4.8189 0,-2.6614 2.1575,-4.8189 4.8189,-4.8189 2.6614,0 4.8189,2.1575 4.8189,4.8189"
     inkscape:connector-curvature="0" /><path
     id="path3430"
     style="fill:none;stroke:#000000;stroke-width:1;stroke-linecap:butt;stroke-linejoin:miter;stroke-miterlimit:10;stroke-opacity:1;stroke-dasharray:none"
     d="m 357.12578,198.0387 c 0,2.6614 -2.1575,4.81889 -4.8189,4.81889 -2.6614,0 -4.8189,-2.15749 -4.8189,-4.81889 0,-2.66141 2.1575,-4.8189 4.8189,-4.8189 2.6614,0 4.8189,2.15749 4.8189,4.8189"
     inkscape:connector-curvature="0" /><path
     id="path3432"
     style="fill:none;stroke:#000000;stroke-width:1;stroke-linecap:butt;stroke-linejoin:miter;stroke-miterlimit:10;stroke-opacity:1;stroke-dasharray:none"
     d="m 357.12578,707.36786 c 0,2.6614 -2.1575,4.8189 -4.8189,4.8189 -2.6614,0 -4.8189,-2.1575 -4.8189,-4.8189 0,-2.6614 2.1575,-4.8189 4.8189,-4.8189 2.6614,0 4.8189,2.1575 4.8189,4.8189"
     inkscape:connector-curvature="0" /><path
     id="path3434"
     style="fill:none;stroke:#000000;stroke-width:1;stroke-linecap:butt;stroke-linejoin:miter;stroke-miterlimit:10;stroke-opacity:1;stroke-dasharray:none"
     d="m 510.01528,198.0387 c 0,2.6614 -2.1575,4.81889 -4.8189,4.81889 -2.6614,0 -4.8189,-2.15749 -4.8189,-4.81889 0,-2.66141 2.1575,-4.8189 4.8189,-4.8189 2.6614,0 4.8189,2.15749 4.8189,4.8189"
     inkscape:connector-curvature="0" /><path
     id="path3436"
     style="fill:none;stroke:#000000;stroke-width:1;stroke-linecap:butt;stroke-linejoin:miter;stroke-miterlimit:10;stroke-opacity:1;stroke-dasharray:none"
     d="m 510.01528,707.36786 c 0,2.6614 -2.1575,4.8189 -4.8189,4.8189 -2.6614,0 -4.8189,-2.1575 -4.8189,-4.8189 0,-2.6614 2.1575,-4.8189 4.8189,-4.8189 2.6614,0 4.8189,2.1575 4.8189,4.8189"
     inkscape:connector-curvature="0" /><path
     id="path3438"
     style="fill:none;stroke:#000000;stroke-width:1;stroke-linecap:butt;stroke-linejoin:miter;stroke-miterlimit:10;stroke-opacity:1;stroke-dasharray:none"
     d="m 662.90468,198.0387 c 0,2.6614 -2.1575,4.81889 -4.8189,4.81889 -2.6614,0 -4.8189,-2.15749 -4.8189,-4.81889 0,-2.66141 2.1575,-4.8189 4.8189,-4.8189 2.6614,0 4.8189,2.15749 4.8189,4.8189"
     inkscape:connector-curvature="0" /><path
     id="path3440"
     style="fill:none;stroke:#000000;stroke-width:1;stroke-linecap:butt;stroke-linejoin:miter;stroke-miterlimit:10;stroke-opacity:1;stroke-dasharray:none"
     d="m 662.90468,707.36786 c 0,2.6614 -2.1575,4.8189 -4.8189,4.8189 -2.6614,0 -4.8189,-2.1575 -4.8189,-4.8189 0,-2.6614 2.1575,-4.8189 4.8189,-4.8189 2.6614,0 4.8189,2.1575 4.8189,4.8189"
     inkscape:connector-curvature="0" /><path
     id="path3442"
     style="fill:none;stroke:#000000;stroke-width:1;stroke-linecap:butt;stroke-linejoin:miter;stroke-miterlimit:10;stroke-opacity:1;stroke-dasharray:none"
     d="m 51.346906,367.81506 c 0,2.6614 -2.15749,4.8189 -4.81889,4.8189 -2.66141,0 -4.8189,-2.1575 -4.8189,-4.8189 0,-2.6614 2.15749,-4.8189 4.8189,-4.8189 2.6614,0 4.81889,2.1575 4.81889,4.8189"
     inkscape:connector-curvature="0" /><path
     id="path3444"
     style="fill:none;stroke:#000000;stroke-width:1;stroke-linecap:butt;stroke-linejoin:miter;stroke-miterlimit:10;stroke-opacity:1;stroke-dasharray:none"
     d="m 815.79418,367.81506 c 0,2.6614 -2.1575,4.8189 -4.8189,4.8189 -2.6614,0 -4.8189,-2.1575 -4.8189,-4.8189 0,-2.6614 2.1575,-4.8189 4.8189,-4.8189 2.6614,0 4.8189,2.1575 4.8189,4.8189"
     inkscape:connector-curvature="0" /><path
     id="path3446"
     style="fill:none;stroke:#000000;stroke-width:1;stroke-linecap:butt;stroke-linejoin:miter;stroke-miterlimit:10;stroke-opacity:1;stroke-dasharray:none"
     d="m 51.346906,537.59146 c 0,2.6614 -2.15749,4.8189 -4.81889,4.8189 -2.66141,0 -4.8189,-2.1575 -4.8189,-4.8189 0,-2.6614 2.15749,-4.8189 4.8189,-4.8189 2.6614,0 4.81889,2.1575 4.81889,4.8189"
     inkscape:connector-curvature="0" /><path
     id="path3448"
     style="fill:none;stroke:#000000;stroke-width:1;stroke-linecap:butt;stroke-linejoin:miter;stroke-miterlimit:10;stroke-opacity:1;stroke-dasharray:none"
     d="m 815.79418,537.59146 c 0,2.6614 -2.1575,4.8189 -4.8189,4.8189 -2.6614,0 -4.8189,-2.1575 -4.8189,-4.8189 0,-2.6614 2.1575,-4.8189 4.8189,-4.8189 2.6614,0 4.8189,2.1575 4.8189,4.8189"
     inkscape:connector-curvature="0" /></g><g
   id="g3450"
   transform="translate(856.78318,169.23872)"><path
     inkscape:connector-curvature="0"
     d="m 0,0 141.7323,0 0,566.9291 L 0,566.9291 0,0 z"
     style="fill:none;stroke:#000000;stroke-width:1;stroke-linecap:butt;stroke-linejoin:miter;stroke-miterlimit:10;stroke-opacity:1;stroke-dasharray:none"
     id="path3452" /><path
     inkscape:connector-curvature="0"
     d="m 33.6189,28.8 c 0,2.6614 -2.1575,4.8189 -4.8189,4.8189 -2.6614,0 -4.8189,-2.1575 -4.8189,-4.8189 0,-2.6614 2.1575,-4.8189 4.8189,-4.8189 2.6614,0 4.8189,2.1575 4.8189,4.8189"
     style="fill:none;stroke:#000000;stroke-width:1;stroke-linecap:butt;stroke-linejoin:miter;stroke-miterlimit:10;stroke-opacity:1;stroke-dasharray:none"
     id="path3454" /><path
     inkscape:connector-curvature="0"
     d="m 117.7512,28.8 c 0,2.6614 -2.1575,4.8189 -4.8189,4.8189 -2.6614,0 -4.8189,-2.1575 -4.8189,-4.8189 0,-2.6614 2.1575,-4.8189 4.8189,-4.8189 2.6614,0 4.8189,2.1575 4.8189,4.8189"
     style="fill:none;stroke:#000000;stroke-width:1;stroke-linecap:butt;stroke-linejoin:miter;stroke-miterlimit:10;stroke-opacity:1;stroke-dasharray:none"
     id="path3456" /><path
     inkscape:connector-curvature="0"
     d="m 117.7512,538.1291 c 0,2.6614 -2.1575,4.8189 -4.8189,4.8189 -2.6614,0 -4.8189,-2.1575 -4.8189,-4.8189 0,-2.6614 2.1575,-4.8189 4.8189,-4.8189 2.6614,0 4.8189,2.1575 4.8189,4.8189"
     style="fill:none;stroke:#000000;stroke-width:1;stroke-linecap:butt;stroke-linejoin:miter;stroke-miterlimit:10;stroke-opacity:1;stroke-dasharray:none"
     id="path3458" /><path
     inkscape:connector-curvature="0"
     d="m 33.6189,538.1291 c 0,2.6614 -2.1575,4.8189 -4.8189,4.8189 -2.6614,0 -4.8189,-2.1575 -4.8189,-4.8189 0,-2.6614 2.1575,-4.8189 4.8189,-4.8189 2.6614,0 4.8189,2.1575 4.8189,4.8189"
     style="fill:none;stroke:#000000;stroke-width:1;stroke-linecap:butt;stroke-linejoin:miter;stroke-miterlimit:10;stroke-opacity:1;stroke-dasharray:none"
     id="path3460" /><path
     inkscape:connector-curvature="0"
     d="m 33.6189,198.5764 c 0,2.6614 -2.1575,4.8189 -4.8189,4.8189 -2.6614,0 -4.8189,-2.1575 -4.8189,-4.8189 0,-2.6614 2.1575,-4.8189 4.8189,-4.8189 2.6614,0 4.8189,2.1575 4.8189,4.8189"
     style="fill:none;stroke:#000000;stroke-width:1;stroke-linecap:butt;stroke-linejoin:miter;stroke-miterlimit:10;stroke-opacity:1;stroke-dasharray:none"
     id="path3462" /><path
     inkscape:connector-curvature="0"
     d="m 117.7512,198.5764 c 0,2.6614 -2.1575,4.8189 -4.8189,4.8189 -2.6614,0 -4.8189,-2.1575 -4.8189,-4.8189 0,-2.6614 2.1575,-4.8189 4.8189,-4.8189 2.6614,0 4.8189,2.1575 4.8189,4.8189"
     style="fill:none;stroke:#000000;stroke-width:1;stroke-linecap:butt;stroke-linejoin:miter;stroke-miterlimit:10;stroke-opacity:1;stroke-dasharray:none"
     id="path3464" /><path
     inkscape:connector-curvature="0"
     d="m 33.6189,368.3528 c 0,2.6614 -2.1575,4.8189 -4.8189,4.8189 -2.6614,0 -4.8189,-2.1575 -4.8189,-4.8189 0,-2.6614 2.1575,-4.8189 4.8189,-4.8189 2.6614,0 4.8189,2.1575 4.8189,4.8189"
     style="fill:none;stroke:#000000;stroke-width:1;stroke-linecap:butt;stroke-linejoin:miter;stroke-miterlimit:10;stroke-opacity:1;stroke-dasharray:none"
     id="path3466" /><path
     inkscape:connector-curvature="0"
     d="m 117.7512,368.3528 c 0,2.6614 -2.1575,4.8189 -4.8189,4.8189 -2.6614,0 -4.8189,-2.1575 -4.8189,-4.8189 0,-2.6614 2.1575,-4.8189 4.8189,-4.8189 2.6614,0 4.8189,2.1575 4.8189,4.8189"
     style="fill:none;stroke:#000000;stroke-width:1;stroke-linecap:butt;stroke-linejoin:miter;stroke-miterlimit:10;stroke-opacity:1;stroke-dasharray:none"
     id="path3468" /><g
     id="g3470"
     transform="translate(-847.5591,-158.7402)" /></g><g
   id="g4311"
   sodipodi:insensitive="true"><g
     transform="matrix(0,-1,1,0,66.820268,946.00848)"
     id="g3396"><rect
       transform="matrix(0,-1,-1,0,0,0)"
       y="-602.11688"
       x="-646.46649"
       height="240.02747"
       width="157.82274"
       id="rect5918"
       style="fill:none;stroke:#00ff00;stroke-width:0.08;stroke-miterlimit:4;stroke-opacity:1;stroke-dasharray:none" /><rect
       transform="scale(-1,1)"
       y="611.18781"
       x="-601.47705"
       height="34.946598"
       width="13.686755"
       id="rect5920"
       style="fill:none;stroke:#00ff00;stroke-width:0.08;stroke-miterlimit:4;stroke-opacity:1;stroke-dasharray:none" /><path
       transform="matrix(0,-0.54879114,-0.88796272,0,1674.48,1970.4681)"
       d="m 2483.1944,1223.755 a 6.8599687,4.2396936 0 1 1 -13.7199,0 6.8599687,4.2396936 0 1 1 13.7199,0 z"
       sodipodi:ry="4.2396936"
       sodipodi:rx="6.8599687"
       sodipodi:cy="1223.755"
       sodipodi:cx="2476.3345"
       id="path5922"
       style="fill:none;stroke:#000000;stroke-width:0.11460118;stroke-miterlimit:4;stroke-opacity:1;stroke-dasharray:none"
       sodipodi:type="arc" /><rect
       transform="scale(-1,1)"
       y="488.7767"
       x="-432.6864"
       height="49.178825"
       width="70.438675"
       id="rect5924"
       style="fill:none;stroke:#00ff00;stroke-width:0.08;stroke-miterlimit:4;stroke-opacity:1;stroke-dasharray:none" /><path
       transform="matrix(0,-0.54879114,-0.88796272,0,1519.1556,1897.0217)"
       d="m 2483.1944,1223.755 a 6.8599687,4.2396936 0 1 1 -13.7199,0 6.8599687,4.2396936 0 1 1 13.7199,0 z"
       sodipodi:ry="4.2396936"
       sodipodi:rx="6.8599687"
       sodipodi:cy="1223.755"
       sodipodi:cx="2476.3345"
       id="path5922-4"
       style="fill:none;stroke:#000000;stroke-width:0.11460118;stroke-miterlimit:4;stroke-opacity:1;stroke-dasharray:none"
       sodipodi:type="arc" /><text
       sodipodi:linespacing="125%"
       id="text6716"
       y="-618.42297"
       x="385.17273"
       style="font-size:9.60000038px;font-style:normal;font-weight:normal;line-height:125%;letter-spacing:0px;word-spacing:0px;fill:none;stroke:#00ff00;stroke-width:0.08;stroke-miterlimit:4;stroke-opacity:1;stroke-dasharray:none;font-family:Sans"
       xml:space="preserve"
       transform="scale(1,-1)"><tspan
         y="-618.42297"
         x="385.17273"
         id="tspan6718"
         sodipodi:role="line"
         style="stroke-width:0.08">Raspberry Pi</tspan></text>
<rect
       y="-586.74463"
       x="565.62646"
       height="37.335239"
       width="36.203865"
       id="rect6729"
       style="fill:none;stroke:#00ff00;stroke-width:0.08;stroke-miterlimit:4;stroke-opacity:1;stroke-dasharray:none"
       transform="scale(1,-1)" /><text
       sodipodi:linespacing="125%"
       id="text6731"
       y="-570.33972"
       x="571.84894"
       style="font-size:9.60000038px;font-style:normal;font-weight:normal;line-height:125%;letter-spacing:0px;word-spacing:0px;fill:none;stroke:#00ff00;stroke-width:0.08;stroke-miterlimit:4;stroke-opacity:1;stroke-dasharray:none;font-family:Sans"
       xml:space="preserve"
       transform="scale(1,-1)"><tspan
         y="-570.33972"
         x="571.84894"
         id="tspan6733"
         sodipodi:role="line"
         style="stroke-width:0.08">usb</tspan></text>
</g><g
     transform="translate(-69.824738,55.449057)"
     id="g4300"><rect
       style="fill:none;stroke:#00ff00;stroke-width:0.28084427;stroke-linecap:round;stroke-linejoin:round;stroke-miterlimit:4;stroke-opacity:1;stroke-dasharray:none"
       id="rect3408"
       width="186.80577"
       height="257.67191"
       x="184.3924"
       y="-569.62317"
       transform="scale(1,-1)" /><path
       sodipodi:type="arc"
       style="fill:none;stroke:#000000;stroke-width:0.35433072;stroke-linecap:round;stroke-linejoin:round;stroke-miterlimit:4;stroke-opacity:1;stroke-dasharray:none"
       id="path4178"
       sodipodi:cx="149.21187"
       sodipodi:cy="345.00275"
       sodipodi:rx="5.4550576"
       sodipodi:ry="6.7386007"
       d="m 154.66693,345.00275 a 5.4550576,6.7386007 0 1 1 -10.91012,0 5.4550576,6.7386007 0 1 1 10.91012,0 z"
       transform="matrix(1.0097662,0,0,-0.81742974,39.252159,843.27519)"
       inkscape:transform-center-x="-3.8506289"
       inkscape:transform-center-y="7.0866142" /><path
       sodipodi:type="arc"
       style="fill:none;stroke:#000000;stroke-width:0.35433072;stroke-linecap:round;stroke-linejoin:round;stroke-miterlimit:4;stroke-opacity:1;stroke-dasharray:none"
       id="path4178-1"
       sodipodi:cx="149.21187"
       sodipodi:cy="345.00275"
       sodipodi:rx="5.4550576"
       sodipodi:ry="6.7386007"
       d="m 154.66693,345.00275 a 5.4550576,6.7386007 0 1 1 -10.91012,0 5.4550576,6.7386007 0 1 1 10.91012,0 z"
       transform="matrix(1.0097662,0,0,-0.81742976,209.3309,843.2752)"
       inkscape:transform-center-x="-3.0805106"
       inkscape:transform-center-y="-5.6693364" /><path
       sodipodi:type="arc"
       style="fill:none;stroke:#000000;stroke-width:0.35433072;stroke-linecap:round;stroke-linejoin:round;stroke-miterlimit:4;stroke-opacity:1;stroke-dasharray:none"
       id="path4178-1-2"
       sodipodi:cx="149.21187"
       sodipodi:cy="345.00275"
       sodipodi:rx="5.4550576"
       sodipodi:ry="6.7386007"
       d="m 154.66693,345.00275 a 5.4550576,6.7386007 0 1 1 -10.91012,0 5.4550576,6.7386007 0 1 1 10.91012,0 z"
       transform="matrix(1.0097662,0,0,-0.81742976,209.3309,602.33031)"
       inkscape:transform-center-x="-2.4644159"
       inkscape:transform-center-y="4.5354241" /><path
       sodipodi:type="arc"
       style="fill:none;stroke:#000000;stroke-width:0.35433072;stroke-linecap:round;stroke-linejoin:round;stroke-miterlimit:4;stroke-opacity:1;stroke-dasharray:none"
       id="path4178-3"
       sodipodi:cx="149.21187"
       sodipodi:cy="345.00275"
       sodipodi:rx="5.4550576"
       sodipodi:ry="6.7386007"
       d="m 154.66693,345.00275 a 5.4550576,6.7386007 0 1 1 -10.91012,0 5.4550576,6.7386007 0 1 1 10.91012,0 z"
       transform="matrix(1.0097662,0,0,-0.81742976,39.252159,625.00748)"
       inkscape:transform-center-x="-3.0805106"
       inkscape:transform-center-y="-5.6693364" /><text
       xml:space="preserve"
       style="font-size:14px;font-style:normal;font-variant:normal;font-weight:bold;font-stretch:normal;line-height:125%;letter-spacing:0px;word-spacing:0px;fill:#ffffff;fill-opacity:1;stroke:#00ff00;stroke-opacity:1;font-family:Segoe UI;-inkscape-font-specification:Segoe UI Bold"
       x="270.18579"
       y="506.72916"
       id="text4296"
       sodipodi:linespacing="125%"
       transform="matrix(0.8,0,0,-0.8,0,935.99984)"><tspan
         sodipodi:role="line"
         id="tspan4298"
         x="270.18579"
         y="506.72916">LVDS Controller</tspan></text>
</g></g><path
   sodipodi:type="arc"
   style="fill:none;stroke:#000000;stroke-width:0.35433072;stroke-linecap:round;stroke-linejoin:round;stroke-miterlimit:4;stroke-opacity:1;stroke-dasharray:none"
   id="path4332"
   sodipodi:cx="903.06396"
   sodipodi:cy="831.46448"
   sodipodi:rx="12.706428"
   sodipodi:ry="14.521631"
   d="m 915.77039,831.46448 a 12.706428,14.521631 0 1 1 -25.41285,0 12.706428,14.521631 0 1 1 25.41285,0 z"
   transform="matrix(1.3763462,0,0,-1.2043029,-506.53308,1229.4734)" /></g></svg>