<?xml version="1.0" encoding="UTF-8" standalone="no"?>
<!-- Created with Inkscape (http://www.inkscape.org/) -->

<svg
   xmlns:dc="http://purl.org/dc/elements/1.1/"
   xmlns:cc="http://creativecommons.org/ns#"
   xmlns:rdf="http://www.w3.org/1999/02/22-rdf-syntax-ns#"
   xmlns:svg="http://www.w3.org/2000/svg"
   xmlns="http://www.w3.org/2000/svg"
   xmlns:sodipodi="http://sodipodi.sourceforge.net/DTD/sodipodi-0.dtd"
   xmlns:inkscape="http://www.inkscape.org/namespaces/inkscape"
   id="svg5425"
   version="1.1"
   inkscape:version="0.48.4 r9939"
   width="1890"
   height="1170"
   xml:space="preserve"
   sodipodi:docname="TiM_lada_front_and_back.svg"><metadata
     id="metadata5431"><rdf:RDF><cc:Work
         rdf:about=""><dc:format>image/svg+xml</dc:format><dc:type
           rdf:resource="http://purl.org/dc/dcmitype/StillImage" /><dc:title></dc:title></cc:Work></rdf:RDF></metadata><defs
     id="defs5429" /><sodipodi:namedview
     pagecolor="#ffffff"
     bordercolor="#666666"
     borderopacity="1"
     objecttolerance="10"
     gridtolerance="10"
     guidetolerance="10"
     inkscape:pageopacity="0"
     inkscape:pageshadow="2"
     inkscape:window-width="1855"
     inkscape:window-height="1056"
     id="namedview5427"
     showgrid="false"
     inkscape:zoom="0.66878306"
     inkscape:cx="678.48032"
     inkscape:cy="485.05189"
     inkscape:window-x="65"
     inkscape:window-y="24"
     inkscape:window-maximized="1"
     inkscape:current-layer="g5433" /><g
     id="g5433"
     inkscape:groupmode="layer"
     inkscape:label="TiM_lada"
     transform="matrix(1.25,0,0,-1.25,0,1170)"><text
       transform="matrix(1,0,0,-1,0,1244.409)"
       id="text5435"
       style="stroke-width:0.1;stroke-miterlimit:4;stroke-dasharray:none"><tspan
         style="fill:#000000;fill-opacity:1;fill-rule:nonzero;stroke:none;font-family:Helvetica;font-variant:normal;font-weight:normal;font-size:12;writing-mode:lr;-inkscape-font-specification:Helvetica;stroke-width:0.1;stroke-miterlimit:4;stroke-dasharray:none"
         x="0 6.672 13.344 20.016 26.688 30.024 33.36 40.032 47.04 53.712 60.384 67.056 70.392 77.064 83.736 87.072 90.408 97.08 100.416 107.088 113.76 120.432 123.768 127.104 130.44 141.768 148.776 155.448 162.12 165.456 172.128 178.8 182.136 185.472 192.144 195.48 202.152 208.824 215.496 218.832 222.168 225.504 234.168 241.176 247.848 254.52 261.192 264.528 271.2 277.872 281.208 284.544 291.216 297.888 301.224 307.896 314.568 321.24 324.576 327.912 331.248 338.58 345.588 352.26 355.596 362.268 368.94 372.276 375.612 382.284 385.62 392.292 398.964 405.636"
         y="0"
         sodipodi:role="line"
         id="tspan5437">Lada, L=133.00 [5.236], W=56.50 [2.224], H=306.00 [12.047], T=3.00 [0.118]</tspan></text>
<g
       id="g3210"
       transform="translate(-144,-18.934427)"><path
         inkscape:connector-curvature="0"
         id="path5453"
         style="fill:none;stroke:#000000;stroke-width:0.1024738;stroke-linecap:butt;stroke-linejoin:miter;stroke-miterlimit:4;stroke-opacity:1;stroke-dasharray:none"
         d="m 1346.8936,473.38704 0,395.89752 -160.1551,0 0,-395.89752 160.1551,0 z" /><path
         inkscape:connector-curvature="0"
         id="path5455"
         style="fill:none;stroke:#000000;stroke-width:0.1;stroke-linecap:butt;stroke-linejoin:miter;stroke-miterlimit:4;stroke-opacity:1;stroke-dasharray:none"
         d="m 1309.5909,515.50863 c -2.6614,0 -4.8189,-2.15749 -4.8189,-4.81889 0,-2.66141 2.1575,-4.8189 4.8189,-4.8189 2.6614,0 4.8189,2.15749 4.8189,4.8189 0,2.6614 -2.1575,4.81889 -4.8189,4.81889" /><path
         inkscape:connector-curvature="0"
         id="path5457"
         style="fill:none;stroke:#000000;stroke-width:0.1;stroke-linecap:butt;stroke-linejoin:miter;stroke-miterlimit:4;stroke-opacity:1;stroke-dasharray:none"
         d="m 1309.5909,817.9086 c -2.6614,0 -4.8189,-2.1575 -4.8189,-4.8189 0,-2.6614 2.1575,-4.8189 4.8189,-4.8189 2.6614,0 4.8189,2.1575 4.8189,4.8189 0,2.6614 -2.1575,4.8189 -4.8189,4.8189" /><path
         inkscape:connector-curvature="0"
         id="path5459"
         style="fill:none;stroke:#000000;stroke-width:0.1;stroke-linecap:butt;stroke-linejoin:miter;stroke-miterlimit:4;stroke-opacity:1;stroke-dasharray:none"
         d="m 1224.0413,817.9086 c -2.6614,0 -4.8189,-2.1575 -4.8189,-4.8189 0,-2.6614 2.1575,-4.8189 4.8189,-4.8189 2.6614,0 4.8189,2.1575 4.8189,4.8189 0,2.6614 -2.1575,4.8189 -4.8189,4.8189" /><path
         inkscape:connector-curvature="0"
         id="path5461"
         style="fill:none;stroke:#000000;stroke-width:0.1;stroke-linecap:butt;stroke-linejoin:miter;stroke-miterlimit:4;stroke-opacity:1;stroke-dasharray:none"
         d="m 1224.0413,515.50863 c -2.6614,0 -4.8189,-2.15749 -4.8189,-4.81889 0,-2.66141 2.1575,-4.8189 4.8189,-4.8189 2.6614,0 4.8189,2.15749 4.8189,4.8189 0,2.6614 -2.1575,4.81889 -4.8189,4.81889" /></g><g
       id="g5701"
       transform="translate(-7.6125861,-1.1058617e-6)"
       style="stroke-width:0.1;stroke-miterlimit:4;stroke-dasharray:none"><path
         d="m 903.51267,850.3937 0,-850.393750285862 143.14963,0 0,850.393750285862 -143.14963,0 z"
         style="fill:none;stroke:#000000;stroke-width:0.1;stroke-linecap:butt;stroke-linejoin:miter;stroke-miterlimit:4;stroke-opacity:1;stroke-dasharray:none"
         id="path5465"
         inkscape:connector-curvature="0" /><path
         d="m 932.31257,816.73362 c 2.6614,0 4.8189,2.1575 4.8189,4.8189 0,2.6614 -2.1575,4.8189 -4.8189,4.8189 -2.6613,0 -4.8188,-2.1575 -4.8188,-4.8189 0,-2.6614 2.1575,-4.8189 4.8188,-4.8189"
         style="fill:none;stroke:#000000;stroke-width:0.1;stroke-linecap:butt;stroke-linejoin:miter;stroke-miterlimit:4;stroke-opacity:1;stroke-dasharray:none"
         id="path5467"
         inkscape:connector-curvature="0" /><path
         d="m 932.31257,23.939871 c 2.6614,0 4.8189,2.1575 4.8189,4.8189 0,2.6614 -2.1575,4.8189 -4.8189,4.8189 -2.6613,0 -4.8188,-2.1575 -4.8188,-4.8189 0,-2.6614 2.1575,-4.8189 4.8188,-4.8189"
         style="fill:none;stroke:#000000;stroke-width:0.1;stroke-linecap:butt;stroke-linejoin:miter;stroke-miterlimit:4;stroke-opacity:1;stroke-dasharray:none"
         id="path5469"
         inkscape:connector-curvature="0" /><path
         d="m 1017.8622,23.939871 c 2.6614,0 4.8189,2.1575 4.8189,4.8189 0,2.6614 -2.1575,4.8189 -4.8189,4.8189 -2.6614,0 -4.8189,-2.1575 -4.8189,-4.8189 0,-2.6614 2.1575,-4.8189 4.8189,-4.8189"
         style="fill:none;stroke:#000000;stroke-width:0.1;stroke-linecap:butt;stroke-linejoin:miter;stroke-miterlimit:4;stroke-opacity:1;stroke-dasharray:none"
         id="path5471"
         inkscape:connector-curvature="0" /><path
         d="m 1017.8622,816.73362 c 2.6614,0 4.8189,2.1575 4.8189,4.8189 0,2.6614 -2.1575,4.8189 -4.8189,4.8189 -2.6614,0 -4.8189,-2.1575 -4.8189,-4.8189 0,-2.6614 2.1575,-4.8189 4.8189,-4.8189"
         style="fill:none;stroke:#000000;stroke-width:0.1;stroke-linecap:butt;stroke-linejoin:miter;stroke-miterlimit:4;stroke-opacity:1;stroke-dasharray:none"
         id="path5473"
         inkscape:connector-curvature="0" /></g><path
       inkscape:connector-curvature="0"
       id="path5441"
       style="fill:none;stroke:#000000;stroke-width:0.1;stroke-linecap:butt;stroke-linejoin:miter;stroke-miterlimit:4;stroke-opacity:1;stroke-dasharray:none"
       d="m 0.04232888,0.04232888 443.58734112,0 0,850.30904112 -443.58734112,0 0,-850.30904112 z" /><path
       inkscape:connector-curvature="0"
       id="path5443"
       style="fill:none;stroke:#000000;stroke-width:0.1;stroke-linecap:butt;stroke-linejoin:miter;stroke-miterlimit:4;stroke-opacity:1;stroke-dasharray:none"
       d="m 42.12283,28.8 c 0,2.6614 -2.15749,4.8189 -4.81889,4.8189 -2.66141,0 -4.8189,-2.1575 -4.8189,-4.8189 0,-2.6614 2.15749,-4.8189 4.8189,-4.8189 2.6614,0 4.81889,2.1575 4.81889,4.8189" /><path
       inkscape:connector-curvature="0"
       id="path5445"
       style="fill:none;stroke:#000000;stroke-width:0.1;stroke-linecap:butt;stroke-linejoin:miter;stroke-miterlimit:4;stroke-opacity:1;stroke-dasharray:none"
       d="m 344.5228,28.8 c 0,2.6614 -2.1575,4.8189 -4.8189,4.8189 -2.6614,0 -4.8189,-2.1575 -4.8189,-4.8189 0,-2.6614 2.1575,-4.8189 4.8189,-4.8189 2.6614,0 4.8189,2.1575 4.8189,4.8189" /><path
       inkscape:connector-curvature="0"
       id="path5447"
       style="fill:none;stroke:#000000;stroke-width:0.1;stroke-linecap:butt;stroke-linejoin:miter;stroke-miterlimit:4;stroke-opacity:1;stroke-dasharray:none"
       d="m 344.5228,821.5937 c 0,2.6614 -2.1575,4.8189 -4.8189,4.8189 -2.6614,0 -4.8189,-2.1575 -4.8189,-4.8189 0,-2.6614 2.1575,-4.8189 4.8189,-4.8189 2.6614,0 4.8189,2.1575 4.8189,4.8189" /><path
       inkscape:connector-curvature="0"
       id="path5449"
       style="fill:none;stroke:#000000;stroke-width:0.1;stroke-linecap:butt;stroke-linejoin:miter;stroke-miterlimit:4;stroke-opacity:1;stroke-dasharray:none"
       d="m 42.12283,821.5937 c 0,2.6614 -2.15749,4.8189 -4.81889,4.8189 -2.66141,0 -4.8189,-2.1575 -4.8189,-4.8189 0,-2.6614 2.15749,-4.8189 4.8189,-4.8189 2.6614,0 4.81889,2.1575 4.81889,4.8189" /><path
       d="m 42.12285,684.39685 c 0,2.6614 -2.15749,4.81889 -4.81889,4.81889 -2.66141,0 -4.8189,-2.15749 -4.8189,-4.81889 0,-2.66141 2.15749,-4.8189 4.8189,-4.8189 2.6614,0 4.81889,2.15749 4.81889,4.8189"
       style="fill:none;stroke:#000000;stroke-width:0.10000000000000001;stroke-linecap:butt;stroke-linejoin:miter;stroke-miterlimit:4;stroke-opacity:1;stroke-dasharray:none"
       id="path3081-8"
       inkscape:connector-curvature="0" /><path
       inkscape:connector-curvature="0"
       id="path4150"
       style="fill:none;stroke:#000000;stroke-width:0.10000000000000001;stroke-linecap:butt;stroke-linejoin:miter;stroke-miterlimit:4;stroke-opacity:1;stroke-dasharray:none"
       d="m 344.52285,684.39685 c 0,2.6614 -2.15749,4.81889 -4.81889,4.81889 -2.66141,0 -4.8189,-2.15749 -4.8189,-4.81889 0,-2.66141 2.15749,-4.8189 4.8189,-4.8189 2.6614,0 4.81889,2.15749 4.81889,4.8189" /><path
       inkscape:connector-curvature="0"
       id="path24"
       style="fill:none;stroke:#000000;stroke-width:0.1;stroke-linecap:butt;stroke-linejoin:miter;stroke-miterlimit:4;stroke-opacity:1;stroke-dasharray:none"
       d="m 424.72619,818.00742 c -2.6614,0 -4.8189,-2.1575 -4.8189,-4.8189 0,-2.6614 2.1575,-4.8189 4.8189,-4.8189 2.6614,0 4.8189,2.1575 4.8189,4.8189 0,2.6614 -2.1575,4.8189 -4.8189,4.8189" /><path
       inkscape:connector-curvature="0"
       id="path26"
       style="fill:none;stroke:#000000;stroke-width:0.1;stroke-linecap:butt;stroke-linejoin:miter;stroke-miterlimit:4;stroke-opacity:1;stroke-dasharray:none"
       d="m 424.72619,42.221529 c -2.6614,0 -4.8189,-2.15749 -4.8189,-4.81889 0,-2.66141 2.1575,-4.8189 4.8189,-4.8189 2.6614,0 4.8189,2.15749 4.8189,4.8189 0,2.6614 -2.1575,4.81889 -4.8189,4.81889" /><path
       inkscape:connector-curvature="0"
       id="path30"
       style="fill:none;stroke:#000000;stroke-width:0.1;stroke-linecap:butt;stroke-linejoin:miter;stroke-miterlimit:4;stroke-opacity:1;stroke-dasharray:none"
       d="m 424.72619,304.30894 c -4.59004,0 -8.31102,-3.72098 -8.31102,-8.31102 0,-4.59004 3.72098,-8.31102 8.31102,-8.31102 4.59004,0 8.31102,3.72098 8.31102,8.31102 0,4.59004 -3.72098,8.31102 -8.31102,8.31102" /><path
       inkscape:connector-curvature="0"
       id="path34"
       style="fill:none;stroke:#000000;stroke-width:0.1;stroke-linecap:butt;stroke-linejoin:miter;stroke-miterlimit:4;stroke-opacity:1;stroke-dasharray:none"
       d="m 424.72619,562.97082 c -4.62681,0 -8.3776,-3.75079 -8.3776,-8.3776 0,-4.62681 3.75079,-8.3776 8.3776,-8.3776 4.62681,0 8.3776,3.75079 8.3776,8.3776 0,4.62681 -3.75079,8.3776 -8.3776,8.3776" /><path
       transform="matrix(0.8,0,0,-0.8,-0.52145482,926.99932)"
       sodipodi:type="arc"
       style="fill:none;stroke:#000000;stroke-width:0.125;stroke-miterlimit:4;stroke-opacity:1;stroke-dasharray:none"
       id="path5190"
       sodipodi:cx="561.69257"
       sodipodi:cy="632.62543"
       sodipodi:rx="40.17754"
       sodipodi:ry="40.17754"
       d="m 556.55099,672.47262 a 40.17754,40.17754 0 0 1 0.12731,-79.71061"
       sodipodi:start="1.6991195"
       sodipodi:end="4.58726"
       sodipodi:open="true" /><g
       id="g5883"
       transform="translate(1065.762,0)"
       style="stroke-width:0.1;stroke-miterlimit:4;stroke-dasharray:none"><path
         inkscape:connector-curvature="0"
         id="path5853"
         style="fill:none;stroke:#000000;stroke-width:0.1;stroke-linecap:butt;stroke-linejoin:miter;stroke-miterlimit:4;stroke-opacity:1;stroke-dasharray:none"
         d="m -617.423,0.04232888 443.58734,0 0,850.30904112 -443.58734,0 0,-850.30904112 z" /><path
         inkscape:connector-curvature="0"
         id="path5855"
         style="fill:none;stroke:#000000;stroke-width:0.1;stroke-linecap:butt;stroke-linejoin:miter;stroke-miterlimit:4;stroke-opacity:1;stroke-dasharray:none"
         d="m -575.3425,28.8 c 0,2.6614 -2.15749,4.8189 -4.81889,4.8189 -2.66141,0 -4.8189,-2.1575 -4.8189,-4.8189 0,-2.6614 2.15749,-4.8189 4.8189,-4.8189 2.6614,0 4.81889,2.1575 4.81889,4.8189" /><path
         inkscape:connector-curvature="0"
         id="path5857"
         style="fill:none;stroke:#000000;stroke-width:0.1;stroke-linecap:butt;stroke-linejoin:miter;stroke-miterlimit:4;stroke-opacity:1;stroke-dasharray:none"
         d="m -272.94253,28.8 c 0,2.6614 -2.1575,4.8189 -4.8189,4.8189 -2.6614,0 -4.8189,-2.1575 -4.8189,-4.8189 0,-2.6614 2.1575,-4.8189 4.8189,-4.8189 2.6614,0 4.8189,2.1575 4.8189,4.8189" /><path
         inkscape:connector-curvature="0"
         id="path5859"
         style="fill:none;stroke:#000000;stroke-width:0.1;stroke-linecap:butt;stroke-linejoin:miter;stroke-miterlimit:4;stroke-opacity:1;stroke-dasharray:none"
         d="m -272.94253,821.5937 c 0,2.6614 -2.1575,4.8189 -4.8189,4.8189 -2.6614,0 -4.8189,-2.1575 -4.8189,-4.8189 0,-2.6614 2.1575,-4.8189 4.8189,-4.8189 2.6614,0 4.8189,2.1575 4.8189,4.8189" /><path
         inkscape:connector-curvature="0"
         id="path5861"
         style="fill:none;stroke:#000000;stroke-width:0.1;stroke-linecap:butt;stroke-linejoin:miter;stroke-miterlimit:4;stroke-opacity:1;stroke-dasharray:none"
         d="m -575.3425,821.5937 c 0,2.6614 -2.15749,4.8189 -4.81889,4.8189 -2.66141,0 -4.8189,-2.1575 -4.8189,-4.8189 0,-2.6614 2.15749,-4.8189 4.8189,-4.8189 2.6614,0 4.81889,2.1575 4.81889,4.8189" /><path
         inkscape:connector-curvature="0"
         id="path5873"
         style="fill:none;stroke:#000000;stroke-width:0.1;stroke-linecap:butt;stroke-linejoin:miter;stroke-miterlimit:4;stroke-opacity:1;stroke-dasharray:none"
         d="m -192.73914,818.00742 c -2.6614,0 -4.8189,-2.1575 -4.8189,-4.8189 0,-2.6614 2.1575,-4.8189 4.8189,-4.8189 2.6614,0 4.8189,2.1575 4.8189,4.8189 0,2.6614 -2.1575,4.8189 -4.8189,4.8189" /><path
         inkscape:connector-curvature="0"
         id="path5875"
         style="fill:none;stroke:#000000;stroke-width:0.1;stroke-linecap:butt;stroke-linejoin:miter;stroke-miterlimit:4;stroke-opacity:1;stroke-dasharray:none"
         d="m -192.73914,42.221529 c -2.6614,0 -4.8189,-2.15749 -4.8189,-4.81889 0,-2.66141 2.1575,-4.8189 4.8189,-4.8189 2.6614,0 4.8189,2.15749 4.8189,4.8189 0,2.6614 -2.1575,4.81889 -4.8189,4.81889" /><path
         inkscape:connector-curvature="0"
         id="path5877"
         style="fill:none;stroke:#000000;stroke-width:0.1;stroke-linecap:butt;stroke-linejoin:miter;stroke-miterlimit:4;stroke-opacity:1;stroke-dasharray:none"
         d="m -192.73914,304.30894 c -4.59004,0 -8.31102,-3.72098 -8.31102,-8.31102 0,-4.59004 3.72098,-8.31102 8.31102,-8.31102 4.59004,0 8.31102,3.72098 8.31102,8.31102 0,4.59004 -3.72098,8.31102 -8.31102,8.31102" /><path
         inkscape:connector-curvature="0"
         id="path5879"
         style="fill:none;stroke:#000000;stroke-width:0.1;stroke-linecap:butt;stroke-linejoin:miter;stroke-miterlimit:4;stroke-opacity:1;stroke-dasharray:none"
         d="m -192.73914,562.97082 c -4.62681,0 -8.3776,-3.75079 -8.3776,-8.3776 0,-4.62681 3.75079,-8.3776 8.3776,-8.3776 4.62681,0 8.3776,3.75079 8.3776,8.3776 0,4.62681 -3.75079,8.3776 -8.3776,8.3776" /></g><g
       id="g3217"
       transform="translate(-144,-473.34347)"><path
         d="m 1346.8936,473.38704 0,395.89752 -160.1551,0 0,-395.89752 160.1551,0 z"
         style="fill:none;stroke:#000000;stroke-width:0.1024738;stroke-linecap:butt;stroke-linejoin:miter;stroke-miterlimit:4;stroke-opacity:1;stroke-dasharray:none"
         id="path3219"
         inkscape:connector-curvature="0" /><path
         d="m 1309.5909,515.50863 c -2.6614,0 -4.8189,-2.15749 -4.8189,-4.81889 0,-2.66141 2.1575,-4.8189 4.8189,-4.8189 2.6614,0 4.8189,2.15749 4.8189,4.8189 0,2.6614 -2.1575,4.81889 -4.8189,4.81889"
         style="fill:none;stroke:#000000;stroke-width:0.1;stroke-linecap:butt;stroke-linejoin:miter;stroke-miterlimit:4;stroke-opacity:1;stroke-dasharray:none"
         id="path3221"
         inkscape:connector-curvature="0" /><path
         d="m 1309.5909,817.9086 c -2.6614,0 -4.8189,-2.1575 -4.8189,-4.8189 0,-2.6614 2.1575,-4.8189 4.8189,-4.8189 2.6614,0 4.8189,2.1575 4.8189,4.8189 0,2.6614 -2.1575,4.8189 -4.8189,4.8189"
         style="fill:none;stroke:#000000;stroke-width:0.1;stroke-linecap:butt;stroke-linejoin:miter;stroke-miterlimit:4;stroke-opacity:1;stroke-dasharray:none"
         id="path3223"
         inkscape:connector-curvature="0" /><path
         d="m 1224.0413,817.9086 c -2.6614,0 -4.8189,-2.1575 -4.8189,-4.8189 0,-2.6614 2.1575,-4.8189 4.8189,-4.8189 2.6614,0 4.8189,2.1575 4.8189,4.8189 0,2.6614 -2.1575,4.8189 -4.8189,4.8189"
         style="fill:none;stroke:#000000;stroke-width:0.1;stroke-linecap:butt;stroke-linejoin:miter;stroke-miterlimit:4;stroke-opacity:1;stroke-dasharray:none"
         id="path3225"
         inkscape:connector-curvature="0" /><path
         d="m 1224.0413,515.50863 c -2.6614,0 -4.8189,-2.15749 -4.8189,-4.81889 0,-2.66141 2.1575,-4.8189 4.8189,-4.8189 2.6614,0 4.8189,2.15749 4.8189,4.8189 0,2.6614 -2.1575,4.81889 -4.8189,4.81889"
         style="fill:none;stroke:#000000;stroke-width:0.1;stroke-linecap:butt;stroke-linejoin:miter;stroke-miterlimit:4;stroke-opacity:1;stroke-dasharray:none"
         id="path3227"
         inkscape:connector-curvature="0" /></g><g
       id="g3240"
       style="fill:none"><path
         inkscape:connector-curvature="0"
         id="path3228"
         style="fill:none;stroke:#000000;stroke-width:0.10000000000000001;stroke-linecap:butt;stroke-linejoin:miter;stroke-miterlimit:4;stroke-opacity:1;stroke-dasharray:none"
         d="m 42.12285,338.79685 c 0,2.6614 -2.15749,4.81889 -4.81889,4.81889 -2.66141,0 -4.8189,-2.15749 -4.8189,-4.81889 0,-2.66141 2.15749,-4.8189 4.8189,-4.8189 2.6614,0 4.81889,2.15749 4.81889,4.8189" /><path
         d="m 344.52285,338.79685 c 0,2.6614 -2.15749,4.81889 -4.81889,4.81889 -2.66141,0 -4.8189,-2.15749 -4.8189,-4.81889 0,-2.66141 2.15749,-4.8189 4.8189,-4.8189 2.6614,0 4.81889,2.15749 4.81889,4.8189"
         style="fill:none;stroke:#000000;stroke-width:0.10000000000000001;stroke-linecap:butt;stroke-linejoin:miter;stroke-miterlimit:4;stroke-opacity:1;stroke-dasharray:none"
         id="path3230"
         inkscape:connector-curvature="0" /><path
         d="m 42.12285,511.59685 c 0,2.6614 -2.15749,4.81889 -4.81889,4.81889 -2.66141,0 -4.8189,-2.15749 -4.8189,-4.81889 0,-2.66141 2.15749,-4.8189 4.8189,-4.8189 2.6614,0 4.81889,2.15749 4.81889,4.8189"
         style="fill:none;stroke:#000000;stroke-width:0.10000000000000001;stroke-linecap:butt;stroke-linejoin:miter;stroke-miterlimit:4;stroke-opacity:1;stroke-dasharray:none"
         id="path3232"
         inkscape:connector-curvature="0" /><path
         inkscape:connector-curvature="0"
         id="path3234"
         style="fill:none;stroke:#000000;stroke-width:0.10000000000000001;stroke-linecap:butt;stroke-linejoin:miter;stroke-miterlimit:4;stroke-opacity:1;stroke-dasharray:none"
         d="m 344.52285,511.59685 c 0,2.6614 -2.15749,4.81889 -4.81889,4.81889 -2.66141,0 -4.8189,-2.15749 -4.8189,-4.81889 0,-2.66141 2.15749,-4.8189 4.8189,-4.8189 2.6614,0 4.81889,2.15749 4.81889,4.8189" /><path
         inkscape:connector-curvature="0"
         id="path3236"
         style="fill:none;stroke:#000000;stroke-width:0.10000000000000001;stroke-linecap:butt;stroke-linejoin:miter;stroke-miterlimit:4;stroke-opacity:1;stroke-dasharray:none"
         d="m 42.12285,511.59685 c 0,2.6614 -2.15749,4.81889 -4.81889,4.81889 -2.66141,0 -4.8189,-2.15749 -4.8189,-4.81889 0,-2.66141 2.15749,-4.8189 4.8189,-4.8189 2.6614,0 4.81889,2.15749 4.81889,4.8189" /><path
         d="m 344.52285,511.59685 c 0,2.6614 -2.15749,4.81889 -4.81889,4.81889 -2.66141,0 -4.8189,-2.15749 -4.8189,-4.81889 0,-2.66141 2.15749,-4.8189 4.8189,-4.8189 2.6614,0 4.81889,2.15749 4.81889,4.8189"
         style="fill:none;stroke:#000000;stroke-width:0.10000000000000001;stroke-linecap:butt;stroke-linejoin:miter;stroke-miterlimit:4;stroke-opacity:1;stroke-dasharray:none"
         id="path3238"
         inkscape:connector-curvature="0" /></g></g></svg>