<?xml version="1.0" encoding="UTF-8" standalone="no"?>
<!-- Created with Inkscape (http://www.inkscape.org/) -->

<svg
   xmlns:dc="http://purl.org/dc/elements/1.1/"
   xmlns:cc="http://creativecommons.org/ns#"
   xmlns:rdf="http://www.w3.org/1999/02/22-rdf-syntax-ns#"
   xmlns:svg="http://www.w3.org/2000/svg"
   xmlns="http://www.w3.org/2000/svg"
   xmlns:sodipodi="http://sodipodi.sourceforge.net/DTD/sodipodi-0.dtd"
   xmlns:inkscape="http://www.inkscape.org/namespaces/inkscape"
   id="svg3040"
   version="1.1"
   inkscape:version="0.48.4 r9939"
   width="1890"
   height="1170"
   xml:space="preserve"
   sodipodi:docname="TiM_lada_front_and_back.svg"><metadata
     id="metadata3046"><rdf:RDF><cc:Work
         rdf:about=""><dc:format>image/svg+xml</dc:format><dc:type
           rdf:resource="http://purl.org/dc/dcmitype/StillImage" /><dc:title></dc:title></cc:Work></rdf:RDF></metadata><defs
     id="defs3044" /><sodipodi:namedview
     pagecolor="#ffffff"
     bordercolor="#666666"
     borderopacity="1"
     objecttolerance="10"
     gridtolerance="10"
     guidetolerance="10"
     inkscape:pageopacity="0"
     inkscape:pageshadow="2"
     inkscape:window-width="1855"
     inkscape:window-height="1056"
     id="namedview3042"
     showgrid="false"
     inkscape:zoom="0.66878307"
     inkscape:cx="1573.5571"
     inkscape:cy="555.9133"
     inkscape:window-x="65"
     inkscape:window-y="24"
     inkscape:window-maximized="1"
     inkscape:current-layer="g3048" /><g
     id="g3048"
     inkscape:groupmode="layer"
     inkscape:label="TiM_lada"
     transform="matrix(1.25,0,0,-1.25,0,1170)"><text
       transform="scale(1,-1)"
       id="text3050"
       x="958.72919"
       y="-902.59027"
       style="stroke:#000000;stroke-opacity:1;stroke-width:0.1;stroke-miterlimit:7.98601389;stroke-dasharray:none"><tspan
         style="font-size:12px;font-variant:normal;font-weight:normal;writing-mode:lr-tb;fill:#000000;fill-opacity:1;fill-rule:nonzero;stroke:#000000;font-family:Helvetica;-inkscape-font-specification:Helvetica;stroke-opacity:1;stroke-width:0.1;stroke-miterlimit:7.98601389;stroke-dasharray:none"
         x="958.72919 965.40118 972.07318 978.74518 985.41718 988.75323 992.08917 998.76117 1005.7692 1012.4412 1019.1132 1025.7852 1029.1211 1035.7931 1042.4651 1045.8011 1049.1371 1055.8091 1059.1451 1065.8171 1072.4891 1079.1611 1082.4971 1085.8331 1089.1692 1100.4972 1107.5051 1114.1771 1120.8491 1127.5211 1130.8572 1137.5292 1144.2012 1147.5371 1150.8732 1157.5452 1164.2172 1167.5531 1174.2251 1180.8971 1187.5691 1190.9052 1194.2411 1197.5771 1206.2411 1213.2491 1219.9211 1226.5931 1229.9292 1236.6012 1243.2731 1246.6091 1249.9452 1256.6172 1259.9531 1266.6251 1273.2971 1279.9691 1283.3052 1286.6411 1289.9772 1297.3091 1304.3171 1310.9891 1314.3252 1320.9972 1327.6692 1331.0051 1334.3412 1341.0132 1344.3491 1351.0211 1357.6931 1364.3651"
         y="-902.59027"
         sodipodi:role="line"
         id="tspan3052">Lada, L=133.00 [5.236], W=306.00 [12.047], H=56.50 [2.224], T=3.00 [0.118]</tspan></text>
<g
       transform="translate(1192.8234,17.507901)"
       id="g3224"
       style="stroke:#000000;stroke-width:0.1;stroke-miterlimit:7.98601389;stroke-opacity:1;stroke-dasharray:none"><path
         inkscape:connector-curvature="0"
         id="path3226"
         style="fill:none;stroke:#000000;stroke-width:0.1;stroke-linecap:butt;stroke-linejoin:miter;stroke-miterlimit:7.98601389;stroke-opacity:1;stroke-dasharray:none"
         d="m 0,0 143.1496,0 0,850.3937 L 0,850.3937 0,0 z" /><path
         inkscape:connector-curvature="0"
         id="path3228"
         style="fill:none;stroke:#000000;stroke-width:0.1;stroke-linecap:butt;stroke-linejoin:miter;stroke-miterlimit:7.98601389;stroke-opacity:1;stroke-dasharray:none"
         d="m 33.6189,28.8 c 0,2.6614 -2.1575,4.8189 -4.8189,4.8189 -2.6614,0 -4.8189,-2.1575 -4.8189,-4.8189 0,-2.6614 2.1575,-4.8189 4.8189,-4.8189 2.6614,0 4.8189,2.1575 4.8189,4.8189" /><path
         inkscape:connector-curvature="0"
         id="path3230"
         style="fill:none;stroke:#000000;stroke-width:0.1;stroke-linecap:butt;stroke-linejoin:miter;stroke-miterlimit:7.98601389;stroke-opacity:1;stroke-dasharray:none"
         d="m 119.1685,28.8 c 0,2.6614 -2.1575,4.8189 -4.8189,4.8189 -2.6614,0 -4.8189,-2.1575 -4.8189,-4.8189 0,-2.6614 2.1575,-4.8189 4.8189,-4.8189 2.6614,0 4.8189,2.1575 4.8189,4.8189" /><path
         inkscape:connector-curvature="0"
         id="path3232"
         style="fill:none;stroke:#000000;stroke-width:0.1;stroke-linecap:butt;stroke-linejoin:miter;stroke-miterlimit:7.98601389;stroke-opacity:1;stroke-dasharray:none"
         d="m 119.1685,821.5937 c 0,2.6614 -2.1575,4.8189 -4.8189,4.8189 -2.6614,0 -4.8189,-2.1575 -4.8189,-4.8189 0,-2.6614 2.1575,-4.8189 4.8189,-4.8189 2.6614,0 4.8189,2.1575 4.8189,4.8189" /><path
         inkscape:connector-curvature="0"
         id="path3234"
         style="fill:none;stroke:#000000;stroke-width:0.1;stroke-linecap:butt;stroke-linejoin:miter;stroke-miterlimit:7.98601389;stroke-opacity:1;stroke-dasharray:none"
         d="m 33.6189,821.5937 c 0,2.6614 -2.1575,4.8189 -4.8189,4.8189 -2.6614,0 -4.8189,-2.1575 -4.8189,-4.8189 0,-2.6614 2.1575,-4.8189 4.8189,-4.8189 2.6614,0 4.8189,2.1575 4.8189,4.8189" /><g
         transform="translate(-385.5118,-160.1575)"
         id="g3236"
         style="stroke:#000000;stroke-width:0.1;stroke-miterlimit:7.98601389;stroke-opacity:1;stroke-dasharray:none" /></g><g
       id="g5080"
       transform="matrix(0,1,-1,0,1921.1668,12.274495)"
       style="stroke:#000000;stroke-width:0.1;stroke-miterlimit:7.98601389;stroke-opacity:1;stroke-dasharray:none"><path
         inkscape:connector-curvature="0"
         id="path3240"
         style="fill:none;stroke:#000000;stroke-width:0.1;stroke-linecap:butt;stroke-linejoin:miter;stroke-miterlimit:7.98601389;stroke-opacity:1;stroke-dasharray:none"
         d="m 855.60874,1022.9699 -405.31822,0 0,-143.11283 405.31822,0 0,143.11283 z" /><path
         inkscape:connector-curvature="0"
         id="path3242"
         style="fill:none;stroke:#000000;stroke-width:0.1;stroke-linecap:butt;stroke-linejoin:miter;stroke-miterlimit:7.98601389;stroke-opacity:1;stroke-dasharray:none"
         d="m 785.15722,994.1883 c 0,-2.6614 2.15749,-4.8189 4.81889,-4.8189 2.66141,0 4.8189,2.1575 4.8189,4.8189 0,2.6614 -2.15749,4.8189 -4.8189,4.8189 -2.6614,0 -4.81889,-2.1575 -4.81889,-4.8189" /><path
         inkscape:connector-curvature="0"
         id="path3244"
         style="fill:none;stroke:#000000;stroke-width:0.1;stroke-linecap:butt;stroke-linejoin:miter;stroke-miterlimit:7.98601389;stroke-opacity:1;stroke-dasharray:none"
         d="m 482.75725,994.1883 c 0,-2.6614 2.1575,-4.8189 4.8189,-4.8189 2.6614,0 4.8189,2.1575 4.8189,4.8189 0,2.6614 -2.1575,4.8189 -4.8189,4.8189 -2.6614,0 -4.8189,-2.1575 -4.8189,-4.8189" /><path
         inkscape:connector-curvature="0"
         id="path3246"
         style="fill:none;stroke:#000000;stroke-width:0.1;stroke-linecap:butt;stroke-linejoin:miter;stroke-miterlimit:7.98601389;stroke-opacity:1;stroke-dasharray:none"
         d="m 482.75725,908.6387 c 0,-2.6614 2.1575,-4.8189 4.8189,-4.8189 2.6614,0 4.8189,2.1575 4.8189,4.8189 0,2.6614 -2.1575,4.8189 -4.8189,4.8189 -2.6614,0 -4.8189,-2.1575 -4.8189,-4.8189" /><path
         inkscape:connector-curvature="0"
         id="path3248"
         style="fill:none;stroke:#000000;stroke-width:0.1;stroke-linecap:butt;stroke-linejoin:miter;stroke-miterlimit:7.98601389;stroke-opacity:1;stroke-dasharray:none"
         d="m 785.15722,908.6387 c 0,-2.6614 2.15749,-4.8189 4.81889,-4.8189 2.66141,0 4.8189,2.1575 4.8189,4.8189 0,2.6614 -2.15749,4.8189 -4.8189,4.8189 -2.6614,0 -4.81889,-2.1575 -4.81889,-4.8189" /></g><g
       id="g3585"
       transform="translate(268.71369,1.2722589e-6)"
       style="stroke:#000000;stroke-width:0.1;stroke-miterlimit:7.98601389;stroke-opacity:1;stroke-dasharray:none"><g
         transform="translate(776.29119,17.5079)"
         id="g3078"
         style="stroke:#000000;stroke-width:0.1;stroke-miterlimit:7.98601389;stroke-opacity:1;stroke-dasharray:none"><path
           inkscape:connector-curvature="0"
           id="path3080"
           style="fill:none;stroke:#000000;stroke-width:0.1;stroke-linecap:butt;stroke-linejoin:miter;stroke-miterlimit:7.98601389;stroke-opacity:1;stroke-dasharray:none"
           d="m 0,0 143.1496,0 0,850.3937 L 0,850.3937 0,0 z" /><path
           inkscape:connector-curvature="0"
           id="path3082"
           style="fill:none;stroke:#000000;stroke-width:0.1;stroke-linecap:butt;stroke-linejoin:miter;stroke-miterlimit:7.98601389;stroke-opacity:1;stroke-dasharray:none"
           d="m 33.6189,28.8 c 0,2.6614 -2.1575,4.8189 -4.8189,4.8189 -2.6614,0 -4.8189,-2.1575 -4.8189,-4.8189 0,-2.6614 2.1575,-4.8189 4.8189,-4.8189 2.6614,0 4.8189,2.1575 4.8189,4.8189" /><path
           inkscape:connector-curvature="0"
           id="path3084"
           style="fill:none;stroke:#000000;stroke-width:0.1;stroke-linecap:butt;stroke-linejoin:miter;stroke-miterlimit:7.98601389;stroke-opacity:1;stroke-dasharray:none"
           d="m 119.1685,28.8 c 0,2.6614 -2.1575,4.8189 -4.8189,4.8189 -2.6614,0 -4.8189,-2.1575 -4.8189,-4.8189 0,-2.6614 2.1575,-4.8189 4.8189,-4.8189 2.6614,0 4.8189,2.1575 4.8189,4.8189" /><path
           inkscape:connector-curvature="0"
           id="path3086"
           style="fill:none;stroke:#000000;stroke-width:0.1;stroke-linecap:butt;stroke-linejoin:miter;stroke-miterlimit:7.98601389;stroke-opacity:1;stroke-dasharray:none"
           d="m 119.1685,821.5937 c 0,2.6614 -2.1575,4.8189 -4.8189,4.8189 -2.6614,0 -4.8189,-2.1575 -4.8189,-4.8189 0,-2.6614 2.1575,-4.8189 4.8189,-4.8189 2.6614,0 4.8189,2.1575 4.8189,4.8189" /><path
           inkscape:connector-curvature="0"
           id="path3088"
           style="fill:none;stroke:#000000;stroke-width:0.1;stroke-linecap:butt;stroke-linejoin:miter;stroke-miterlimit:7.98601389;stroke-opacity:1;stroke-dasharray:none"
           d="m 33.6189,821.5937 c 0,2.6614 -2.1575,4.8189 -4.8189,4.8189 -2.6614,0 -4.8189,-2.1575 -4.8189,-4.8189 0,-2.6614 2.1575,-4.8189 4.8189,-4.8189 2.6614,0 4.8189,2.1575 4.8189,4.8189" /><g
           transform="translate(-385.5118,-160.1575)"
           id="g3090"
           style="stroke:#000000;stroke-width:0.1;stroke-miterlimit:7.98601389;stroke-opacity:1;stroke-dasharray:none" /></g><path
         inkscape:connector-curvature="0"
         id="path3583"
         style="fill:none;stroke:#000000;stroke-width:0.1;stroke-linecap:butt;stroke-linejoin:miter;stroke-miterlimit:7.98601389;stroke-opacity:1;stroke-dasharray:none"
         d="m 848.23273,201.21363 c -9.37091,0 -16.96755,-7.59659 -16.96755,-16.9675 0,-9.37095 7.59664,-16.96756 16.96755,-16.96756 9.37089,0 16.96756,7.59661 16.96756,16.96756 0,9.37091 -7.59667,16.9675 -16.96756,16.9675" /></g><g
       id="g4154"
       transform="matrix(0,-1,1,0,164.60144,897.95147)"
       style="fill:none;stroke:#000000;stroke-opacity:1;stroke-width:0.1;stroke-miterlimit:7.98601389;stroke-dasharray:none"><path
         inkscape:connector-curvature="0"
         id="path3081-8"
         style="fill:none;stroke:#000000;stroke-width:0.1;stroke-linecap:butt;stroke-linejoin:miter;stroke-miterlimit:7.98601389;stroke-opacity:1;stroke-dasharray:none"
         d="m 204.55063,-121.97857 c -2.6614,0 -4.81889,-2.15749 -4.81889,-4.81889 0,-2.66141 2.15749,-4.8189 4.81889,-4.8189 2.66141,0 4.8189,2.15749 4.8189,4.8189 0,2.6614 -2.15749,4.81889 -4.8189,4.81889" /><path
         d="m 722.95063,-121.97857 c -2.6614,0 -4.81889,-2.15749 -4.81889,-4.81889 0,-2.66141 2.15749,-4.8189 4.81889,-4.8189 2.66141,0 4.8189,2.15749 4.8189,4.8189 0,2.6614 -2.15749,4.81889 -4.8189,4.81889"
         style="fill:none;stroke:#000000;stroke-width:0.1;stroke-linecap:butt;stroke-linejoin:miter;stroke-miterlimit:7.98601389;stroke-opacity:1;stroke-dasharray:none"
         id="path4148"
         inkscape:connector-curvature="0" /><path
         d="m 204.55063,180.42143 c -2.6614,0 -4.81889,-2.15749 -4.81889,-4.81889 0,-2.66141 2.15749,-4.8189 4.81889,-4.8189 2.66141,0 4.8189,2.15749 4.8189,4.8189 0,2.6614 -2.15749,4.81889 -4.8189,4.81889"
         style="fill:none;stroke:#000000;stroke-width:0.1;stroke-linecap:butt;stroke-linejoin:miter;stroke-miterlimit:7.98601389;stroke-opacity:1;stroke-dasharray:none"
         id="path4150"
         inkscape:connector-curvature="0" /><path
         inkscape:connector-curvature="0"
         id="path4152"
         style="fill:none;stroke:#000000;stroke-width:0.1;stroke-linecap:butt;stroke-linejoin:miter;stroke-miterlimit:7.98601389;stroke-opacity:1;stroke-dasharray:none"
         d="m 722.95063,180.42143 c -2.6614,0 -4.81889,-2.15749 -4.81889,-4.81889 0,-2.66141 2.15749,-4.8189 4.81889,-4.8189 2.66141,0 4.8189,2.15749 4.8189,4.8189 0,2.6614 -2.15749,4.81889 -4.8189,4.81889" /></g><path
       d="m 445.13239,867.85866 -444.58945,0 0,-867.31571873 444.58945,0 0,867.31571873 z"
       style="fill:none;stroke:#000000;stroke-width:0.1;stroke-linecap:butt;stroke-linejoin:miter;stroke-miterlimit:7.98601389;stroke-opacity:1;stroke-dasharray:none"
       id="path3068"
       inkscape:connector-curvature="0" /><g
       id="g4250"
       style="stroke:#000000;stroke-opacity:1;stroke-width:0.1;stroke-miterlimit:7.98601389;stroke-dasharray:none"><path
         inkscape:connector-curvature="0"
         id="path3070"
         style="fill:none;stroke:#000000;stroke-width:0.1;stroke-linecap:butt;stroke-linejoin:miter;stroke-miterlimit:7.98601389;stroke-opacity:1;stroke-dasharray:none"
         d="m 335.38507,830.59766 c 0,-2.6614 2.15749,-4.81889 4.81889,-4.81889 2.66141,0 4.8189,2.15749 4.8189,4.81889 0,2.66141 -2.15749,4.8189 -4.8189,4.8189 -2.6614,0 -4.81889,-2.15749 -4.81889,-4.8189" /><path
         inkscape:connector-curvature="0"
         id="path3072"
         style="fill:none;stroke:#000000;stroke-width:0.1;stroke-linecap:butt;stroke-linejoin:miter;stroke-miterlimit:7.98601389;stroke-opacity:1;stroke-dasharray:none"
         d="m 32.9851,830.59766 c 0,-2.6614 2.1575,-4.81889 4.8189,-4.81889 2.6614,0 4.8189,2.15749 4.8189,4.81889 0,2.66141 -2.1575,4.8189 -4.8189,4.8189 -2.6614,0 -4.8189,-2.15749 -4.8189,-4.8189" /><path
         inkscape:connector-curvature="0"
         id="path3074"
         style="fill:none;stroke:#000000;stroke-width:0.1;stroke-linecap:butt;stroke-linejoin:miter;stroke-miterlimit:7.98601389;stroke-opacity:1;stroke-dasharray:none"
         d="m 32.9851,37.804 c 0,-2.6614 2.1575,-4.8189 4.8189,-4.8189 2.6614,0 4.8189,2.1575 4.8189,4.8189 0,2.6614 -2.1575,4.8189 -4.8189,4.8189 -2.6614,0 -4.8189,-2.1575 -4.8189,-4.8189" /><path
         inkscape:connector-curvature="0"
         id="path3076"
         style="fill:none;stroke:#000000;stroke-width:0.1;stroke-linecap:butt;stroke-linejoin:miter;stroke-miterlimit:7.98601389;stroke-opacity:1;stroke-dasharray:none"
         d="m 335.38507,37.804 c 0,-2.6614 2.15749,-4.8189 4.81889,-4.8189 2.66141,0 4.8189,2.1575 4.8189,4.8189 0,2.6614 -2.15749,4.8189 -4.8189,4.8189 -2.6614,0 -4.81889,-2.1575 -4.81889,-4.8189" /></g><path
       inkscape:connector-curvature="0"
       id="path3614"
       style="fill:none;stroke:#000000;stroke-width:0.1;stroke-linecap:butt;stroke-linejoin:miter;stroke-miterlimit:7.98601389;stroke-opacity:1;stroke-dasharray:none"
       d="m 420.42444,822.09372 c 0,-2.6614 2.15749,-4.81889 4.81889,-4.81889 2.66141,0 4.8189,2.15749 4.8189,4.81889 0,2.66141 -2.15749,4.8189 -4.8189,4.8189 -2.6614,0 -4.81889,-2.15749 -4.81889,-4.8189" /><path
       inkscape:connector-curvature="0"
       id="path3616"
       style="fill:none;stroke:#000000;stroke-width:0.1;stroke-linecap:butt;stroke-linejoin:miter;stroke-miterlimit:7.98601389;stroke-opacity:1;stroke-dasharray:none"
       d="m 420.42444,46.307937 c 0,-2.6614 2.15749,-4.8189 4.81889,-4.8189 2.66141,0 4.8189,2.1575 4.8189,4.8189 0,2.6614 -2.15749,4.8189 -4.8189,4.8189 -2.6614,0 -4.81889,-2.1575 -4.81889,-4.8189" /><path
       inkscape:connector-curvature="0"
       id="path24"
       style="fill:none;stroke:#000000;stroke-width:0.1;stroke-linecap:butt;stroke-linejoin:miter;stroke-miterlimit:7.98601389;stroke-opacity:1;stroke-dasharray:none"
       d="m 425.24762,827.00813 c -2.6614,0 -4.8189,-2.1575 -4.8189,-4.8189 0,-2.6614 2.1575,-4.8189 4.8189,-4.8189 2.6614,0 4.8189,2.1575 4.8189,4.8189 0,2.6614 -2.1575,4.8189 -4.8189,4.8189" /><path
       inkscape:connector-curvature="0"
       id="path26"
       style="fill:none;stroke:#000000;stroke-width:0.1;stroke-linecap:butt;stroke-linejoin:miter;stroke-miterlimit:7.98601389;stroke-opacity:1;stroke-dasharray:none"
       d="m 425.24762,51.222262 c -2.6614,0 -4.8189,-2.15749 -4.8189,-4.81889 0,-2.66141 2.1575,-4.8189 4.8189,-4.8189 2.6614,0 4.8189,2.15749 4.8189,4.8189 0,2.6614 -2.1575,4.81889 -4.8189,4.81889" /><path
       inkscape:connector-curvature="0"
       id="path30"
       style="fill:none;stroke:#000000;stroke-width:0.1;stroke-linecap:butt;stroke-linejoin:miter;stroke-miterlimit:7.98601389;stroke-opacity:1;stroke-dasharray:none"
       d="m 425.24762,313.30965 c -4.59004,0 -8.31102,-3.72098 -8.31102,-8.31102 0,-4.59004 3.72098,-8.31102 8.31102,-8.31102 4.59004,0 8.31102,3.72098 8.31102,8.31102 0,4.59004 -3.72098,8.31102 -8.31102,8.31102" /><path
       inkscape:connector-curvature="0"
       id="path34"
       style="fill:none;stroke:#000000;stroke-width:0.1;stroke-linecap:butt;stroke-linejoin:miter;stroke-miterlimit:7.98601389;stroke-opacity:1;stroke-dasharray:none"
       d="m 425.24762,571.97153 c -4.62681,0 -8.3776,-3.75079 -8.3776,-8.3776 0,-4.62681 3.75079,-8.3776 8.3776,-8.3776 4.62681,0 8.3776,3.75079 8.3776,8.3776 0,4.62681 -3.75079,8.3776 -8.3776,8.3776" /><path
       inkscape:connector-curvature="0"
       id="path4214"
       style="fill:none;stroke:#000000;stroke-width:0.1;stroke-linecap:butt;stroke-linejoin:miter;stroke-miterlimit:7.98601389;stroke-opacity:1;stroke-dasharray:none"
       d="m 894.90454,867.85866 -444.58945,0 0,-867.31571873 444.58945,0 0,867.31571873 z" /><path
       inkscape:connector-curvature="0"
       id="path4216"
       style="fill:none;stroke:#000000;stroke-width:0.1;stroke-linecap:butt;stroke-linejoin:miter;stroke-miterlimit:7.98601389;stroke-opacity:1;stroke-dasharray:none"
       d="m 785.15722,830.59766 c 0,-2.6614 2.15749,-4.81889 4.81889,-4.81889 2.66141,0 4.8189,2.15749 4.8189,4.81889 0,2.66141 -2.15749,4.8189 -4.8189,4.8189 -2.6614,0 -4.81889,-2.15749 -4.81889,-4.8189" /><path
       inkscape:connector-curvature="0"
       id="path4218"
       style="fill:none;stroke:#000000;stroke-width:0.1;stroke-linecap:butt;stroke-linejoin:miter;stroke-miterlimit:7.98601389;stroke-opacity:1;stroke-dasharray:none"
       d="m 482.75725,830.59766 c 0,-2.6614 2.1575,-4.81889 4.8189,-4.81889 2.6614,0 4.8189,2.15749 4.8189,4.81889 0,2.66141 -2.1575,4.8189 -4.8189,4.8189 -2.6614,0 -4.8189,-2.15749 -4.8189,-4.8189" /><path
       inkscape:connector-curvature="0"
       id="path4220"
       style="fill:none;stroke:#000000;stroke-width:0.1;stroke-linecap:butt;stroke-linejoin:miter;stroke-miterlimit:7.98601389;stroke-opacity:1;stroke-dasharray:none"
       d="m 482.75725,37.804 c 0,-2.6614 2.1575,-4.8189 4.8189,-4.8189 2.6614,0 4.8189,2.1575 4.8189,4.8189 0,2.6614 -2.1575,4.8189 -4.8189,4.8189 -2.6614,0 -4.8189,-2.1575 -4.8189,-4.8189" /><path
       inkscape:connector-curvature="0"
       id="path4222"
       style="fill:none;stroke:#000000;stroke-width:0.1;stroke-linecap:butt;stroke-linejoin:miter;stroke-miterlimit:7.98601389;stroke-opacity:1;stroke-dasharray:none"
       d="m 785.15722,37.804 c 0,-2.6614 2.15749,-4.8189 4.81889,-4.8189 2.66141,0 4.8189,2.1575 4.8189,4.8189 0,2.6614 -2.15749,4.8189 -4.8189,4.8189 -2.6614,0 -4.81889,-2.1575 -4.81889,-4.8189" /><path
       d="m 870.19659,822.09372 c 0,-2.6614 2.15749,-4.81889 4.81889,-4.81889 2.66141,0 4.8189,2.15749 4.8189,4.81889 0,2.66141 -2.15749,4.8189 -4.8189,4.8189 -2.6614,0 -4.81889,-2.15749 -4.81889,-4.8189"
       style="fill:none;stroke:#000000;stroke-width:0.1;stroke-linecap:butt;stroke-linejoin:miter;stroke-miterlimit:7.98601389;stroke-opacity:1;stroke-dasharray:none"
       id="path4224"
       inkscape:connector-curvature="0" /><path
       d="m 870.19659,46.307937 c 0,-2.6614 2.15749,-4.8189 4.81889,-4.8189 2.66141,0 4.8189,2.1575 4.8189,4.8189 0,2.6614 -2.15749,4.8189 -4.8189,4.8189 -2.6614,0 -4.81889,-2.1575 -4.81889,-4.8189"
       style="fill:none;stroke:#000000;stroke-width:0.1;stroke-linecap:butt;stroke-linejoin:miter;stroke-miterlimit:7.98601389;stroke-opacity:1;stroke-dasharray:none"
       id="path4226"
       inkscape:connector-curvature="0" /><path
       d="m 875.01977,827.00813 c -2.6614,0 -4.8189,-2.1575 -4.8189,-4.8189 0,-2.6614 2.1575,-4.8189 4.8189,-4.8189 2.6614,0 4.8189,2.1575 4.8189,4.8189 0,2.6614 -2.1575,4.8189 -4.8189,4.8189"
       style="fill:none;stroke:#000000;stroke-width:0.1;stroke-linecap:butt;stroke-linejoin:miter;stroke-miterlimit:7.98601389;stroke-opacity:1;stroke-dasharray:none"
       id="path4228"
       inkscape:connector-curvature="0" /><path
       d="m 875.01977,51.222262 c -2.6614,0 -4.8189,-2.15749 -4.8189,-4.81889 0,-2.66141 2.1575,-4.8189 4.8189,-4.8189 2.6614,0 4.8189,2.15749 4.8189,4.8189 0,2.6614 -2.1575,4.81889 -4.8189,4.81889"
       style="fill:none;stroke:#000000;stroke-width:0.1;stroke-linecap:butt;stroke-linejoin:miter;stroke-miterlimit:7.98601389;stroke-opacity:1;stroke-dasharray:none"
       id="path4230"
       inkscape:connector-curvature="0" /><path
       d="m 875.01977,313.30965 c -4.59004,0 -8.31102,-3.72098 -8.31102,-8.31102 0,-4.59004 3.72098,-8.31102 8.31102,-8.31102 4.59004,0 8.31102,3.72098 8.31102,8.31102 0,4.59004 -3.72098,8.31102 -8.31102,8.31102"
       style="fill:none;stroke:#000000;stroke-width:0.1;stroke-linecap:butt;stroke-linejoin:miter;stroke-miterlimit:7.98601389;stroke-opacity:1;stroke-dasharray:none"
       id="path4232"
       inkscape:connector-curvature="0" /><path
       d="m 875.01977,571.97153 c -4.62681,0 -8.3776,-3.75079 -8.3776,-8.3776 0,-4.62681 3.75079,-8.3776 8.3776,-8.3776 4.62681,0 8.3776,3.75079 8.3776,8.3776 0,4.62681 -3.75079,8.3776 -8.3776,8.3776"
       style="fill:none;stroke:#000000;stroke-width:0.1;stroke-linecap:butt;stroke-linejoin:miter;stroke-miterlimit:7.98601389;stroke-opacity:1;stroke-dasharray:none"
       id="path4234"
       inkscape:connector-curvature="0" /><g
       transform="matrix(0,1,-1,0,1921.1668,-407.26359)"
       id="g5087"
       style="stroke:#000000;stroke-width:0.1;stroke-miterlimit:7.98601389;stroke-opacity:1;stroke-dasharray:none"><path
         d="m 855.60874,1022.9699 -405.31822,0 0,-143.11283 405.31822,0 0,143.11283 z"
         style="fill:none;stroke:#000000;stroke-width:0.1;stroke-linecap:butt;stroke-linejoin:miter;stroke-miterlimit:7.98601389;stroke-opacity:1;stroke-dasharray:none"
         id="path5089"
         inkscape:connector-curvature="0" /><path
         d="m 785.15722,994.1883 c 0,-2.6614 2.15749,-4.8189 4.81889,-4.8189 2.66141,0 4.8189,2.1575 4.8189,4.8189 0,2.6614 -2.15749,4.8189 -4.8189,4.8189 -2.6614,0 -4.81889,-2.1575 -4.81889,-4.8189"
         style="fill:none;stroke:#000000;stroke-width:0.1;stroke-linecap:butt;stroke-linejoin:miter;stroke-miterlimit:7.98601389;stroke-opacity:1;stroke-dasharray:none"
         id="path5091"
         inkscape:connector-curvature="0" /><path
         d="m 482.75725,994.1883 c 0,-2.6614 2.1575,-4.8189 4.8189,-4.8189 2.6614,0 4.8189,2.1575 4.8189,4.8189 0,2.6614 -2.1575,4.8189 -4.8189,4.8189 -2.6614,0 -4.8189,-2.1575 -4.8189,-4.8189"
         style="fill:none;stroke:#000000;stroke-width:0.1;stroke-linecap:butt;stroke-linejoin:miter;stroke-miterlimit:7.98601389;stroke-opacity:1;stroke-dasharray:none"
         id="path5093"
         inkscape:connector-curvature="0" /><path
         d="m 482.75725,908.6387 c 0,-2.6614 2.1575,-4.8189 4.8189,-4.8189 2.6614,0 4.8189,2.1575 4.8189,4.8189 0,2.6614 -2.1575,4.8189 -4.8189,4.8189 -2.6614,0 -4.8189,-2.1575 -4.8189,-4.8189"
         style="fill:none;stroke:#000000;stroke-width:0.1;stroke-linecap:butt;stroke-linejoin:miter;stroke-miterlimit:7.98601389;stroke-opacity:1;stroke-dasharray:none"
         id="path5095"
         inkscape:connector-curvature="0" /><path
         d="m 785.15722,908.6387 c 0,-2.6614 2.15749,-4.8189 4.81889,-4.8189 2.66141,0 4.8189,2.1575 4.8189,4.8189 0,2.6614 -2.15749,4.8189 -4.8189,4.8189 -2.6614,0 -4.81889,-2.1575 -4.81889,-4.8189"
         style="fill:none;stroke:#000000;stroke-width:0.1;stroke-linecap:butt;stroke-linejoin:miter;stroke-miterlimit:7.98601389;stroke-opacity:1;stroke-dasharray:none"
         id="path5097"
         inkscape:connector-curvature="0" /></g><path
       sodipodi:type="arc"
       style="fill:none;stroke:#000000;stroke-width:0.125;stroke-miterlimit:7.98601389;stroke-opacity:1;stroke-dasharray:none"
       id="path5190"
       sodipodi:cx="561.69257"
       sodipodi:cy="632.62543"
       sodipodi:rx="40.17754"
       sodipodi:ry="40.17754"
       d="m 556.55099,672.47262 a 40.17754,40.17754 0 0 1 0.12731,-79.71061"
       transform="matrix(0.8,0,0,-0.8,0,936)"
       sodipodi:start="1.6991195"
       sodipodi:end="4.58726"
       sodipodi:open="true" /><g
       id="g5400"
       transform="translate(-72,2.3675477)"><path
         inkscape:connector-curvature="0"
         id="path42"
         style="fill:none;stroke:#000000;stroke-width:0.28346458;stroke-linecap:butt;stroke-linejoin:miter;stroke-miterlimit:10;stroke-opacity:1;stroke-dasharray:none"
         d="m 1553.6697,15.005684 0,850.393696 -143.1496,0 0,-850.393696 143.1496,0 z" /><path
         inkscape:connector-curvature="0"
         id="path44"
         style="fill:none;stroke:#000000;stroke-width:0.28346458;stroke-linecap:butt;stroke-linejoin:miter;stroke-miterlimit:10;stroke-opacity:1;stroke-dasharray:none"
         d="m 1516.3658,57.128514 c -2.6614,0 -4.8189,-2.15749 -4.8189,-4.81889 0,-2.66141 2.1575,-4.8189 4.8189,-4.8189 2.6614,0 4.8189,2.15749 4.8189,4.8189 0,2.6614 -2.1575,4.81889 -4.8189,4.81889" /><path
         inkscape:connector-curvature="0"
         id="path46"
         style="fill:none;stroke:#000000;stroke-width:0.28346458;stroke-linecap:butt;stroke-linejoin:miter;stroke-miterlimit:10;stroke-opacity:1;stroke-dasharray:none"
         d="m 1516.3658,832.91438 c -2.6614,0 -4.8189,-2.1575 -4.8189,-4.8189 0,-2.6614 2.1575,-4.8189 4.8189,-4.8189 2.6614,0 4.8189,2.1575 4.8189,4.8189 0,2.6614 -2.1575,4.8189 -4.8189,4.8189" /><path
         inkscape:connector-curvature="0"
         id="path48"
         style="fill:none;stroke:#000000;stroke-width:0.28346458;stroke-linecap:butt;stroke-linejoin:miter;stroke-miterlimit:10;stroke-opacity:1;stroke-dasharray:none"
         d="m 1447.824,832.91438 c -2.6614,0 -4.8189,-2.1575 -4.8189,-4.8189 0,-2.6614 2.1575,-4.8189 4.8189,-4.8189 2.6614,0 4.8189,2.1575 4.8189,4.8189 0,2.6614 -2.1575,4.8189 -4.8189,4.8189" /><path
         inkscape:connector-curvature="0"
         id="path50"
         style="fill:none;stroke:#000000;stroke-width:0.28346458;stroke-linecap:butt;stroke-linejoin:miter;stroke-miterlimit:10;stroke-opacity:1;stroke-dasharray:none"
         d="m 1447.824,57.128514 c -2.6614,0 -4.8189,-2.15749 -4.8189,-4.81889 0,-2.66141 2.1575,-4.8189 4.8189,-4.8189 2.6614,0 4.8189,2.15749 4.8189,4.8189 0,2.6614 -2.1575,4.81889 -4.8189,4.81889" /><path
         inkscape:connector-curvature="0"
         id="path52"
         style="fill:none;stroke:#000000;stroke-width:0.28346458;stroke-linecap:butt;stroke-linejoin:miter;stroke-miterlimit:10;stroke-opacity:1;stroke-dasharray:none"
         d="m 1516.3658,315.72378 c -2.6614,0 -4.8189,-2.1575 -4.8189,-4.8189 0,-2.6614 2.1575,-4.8189 4.8189,-4.8189 2.6614,0 4.8189,2.1575 4.8189,4.8189 0,2.6614 -2.1575,4.8189 -4.8189,4.8189" /><path
         inkscape:connector-curvature="0"
         id="path54"
         style="fill:none;stroke:#000000;stroke-width:0.28346458;stroke-linecap:butt;stroke-linejoin:miter;stroke-miterlimit:10;stroke-opacity:1;stroke-dasharray:none"
         d="m 1447.824,315.72378 c -2.6614,0 -4.8189,-2.1575 -4.8189,-4.8189 0,-2.6614 2.1575,-4.8189 4.8189,-4.8189 2.6614,0 4.8189,2.1575 4.8189,4.8189 0,2.6614 -2.1575,4.8189 -4.8189,4.8189" /><path
         inkscape:connector-curvature="0"
         id="path56"
         style="fill:none;stroke:#000000;stroke-width:0.28346458;stroke-linecap:butt;stroke-linejoin:miter;stroke-miterlimit:10;stroke-opacity:1;stroke-dasharray:none"
         d="m 1516.3658,574.31908 c -2.6614,0 -4.8189,-2.1575 -4.8189,-4.8189 0,-2.6614 2.1575,-4.8189 4.8189,-4.8189 2.6614,0 4.8189,2.1575 4.8189,4.8189 0,2.6614 -2.1575,4.8189 -4.8189,4.8189" /><path
         inkscape:connector-curvature="0"
         id="path58"
         style="fill:none;stroke:#000000;stroke-width:0.28346458;stroke-linecap:butt;stroke-linejoin:miter;stroke-miterlimit:10;stroke-opacity:1;stroke-dasharray:none"
         d="m 1447.824,574.31908 c -2.6614,0 -4.8189,-2.1575 -4.8189,-4.8189 0,-2.6614 2.1575,-4.8189 4.8189,-4.8189 2.6614,0 4.8189,2.1575 4.8189,4.8189 0,2.6614 -2.1575,4.8189 -4.8189,4.8189" /><path
         inkscape:connector-curvature="0"
         id="path3297"
         style="fill:none;stroke:#000000;stroke-width:0.06598964;stroke-linecap:butt;stroke-linejoin:miter;stroke-miterlimit:4;stroke-opacity:1;stroke-dasharray:none"
         d="m 1482.4616,193.05442 c -6.2466,0 -11.3105,-5.0639 -11.3105,-11.3105 0,-6.2467 5.0639,-11.3106 11.3105,-11.3106 6.2467,0 11.3106,5.0639 11.3106,11.3106 0,6.2466 -5.0639,11.3105 -11.3106,11.3105" /></g></g></svg>