<?xml version="1.0" encoding="UTF-8" standalone="no"?>
<!-- Created with Inkscape (http://www.inkscape.org/) -->

<svg
   xmlns:dc="http://purl.org/dc/elements/1.1/"
   xmlns:cc="http://creativecommons.org/ns#"
   xmlns:rdf="http://www.w3.org/1999/02/22-rdf-syntax-ns#"
   xmlns:svg="http://www.w3.org/2000/svg"
   xmlns="http://www.w3.org/2000/svg"
   xmlns:sodipodi="http://sodipodi.sourceforge.net/DTD/sodipodi-0.dtd"
   xmlns:inkscape="http://www.inkscape.org/namespaces/inkscape"
   id="svg5425"
   version="1.1"
   inkscape:version="0.48.4 r9939"
   width="1890"
   height="1170"
   xml:space="preserve"
   sodipodi:docname="TiM_lada_front_and_back.svg"><metadata
     id="metadata5431"><rdf:RDF><cc:Work
         rdf:about=""><dc:format>image/svg+xml</dc:format><dc:type
           rdf:resource="http://purl.org/dc/dcmitype/StillImage" /><dc:title></dc:title></cc:Work></rdf:RDF></metadata><defs
     id="defs5429" /><sodipodi:namedview
     pagecolor="#ffffff"
     bordercolor="#666666"
     borderopacity="1"
     objecttolerance="10"
     gridtolerance="10"
     guidetolerance="10"
     inkscape:pageopacity="0"
     inkscape:pageshadow="2"
     inkscape:window-width="1855"
     inkscape:window-height="1056"
     id="namedview5427"
     showgrid="false"
     inkscape:zoom="0.66878306"
     inkscape:cx="678.48032"
     inkscape:cy="485.05189"
     inkscape:window-x="65"
     inkscape:window-y="24"
     inkscape:window-maximized="1"
     inkscape:current-layer="g5433" /><g
     id="g5433"
     inkscape:groupmode="layer"
     inkscape:label="TiM_lada"
     transform="matrix(1.25,0,0,-1.25,0,1170)"><text
       transform="matrix(1,0,0,-1,0,1244.409)"
       id="text5435"
       style="stroke-width:0.1;stroke-miterlimit:4;stroke-dasharray:none"><tspan
         style="fill:#000000;fill-opacity:1;fill-rule:nonzero;stroke:none;font-family:Helvetica;font-variant:normal;font-weight:normal;font-size:12;writing-mode:lr;-inkscape-font-specification:Helvetica;stroke-width:0.1;stroke-miterlimit:4;stroke-dasharray:none"
         x="0 6.672 13.344 20.016 26.688 30.024 33.36 40.032 47.04 53.712 60.384 67.056 70.392 77.064 83.736 87.072 90.408 97.08 100.416 107.088 113.76 120.432 123.768 127.104 130.44 141.768 148.776 155.448 162.12 165.456 172.128 178.8 182.136 185.472 192.144 195.48 202.152 208.824 215.496 218.832 222.168 225.504 234.168 241.176 247.848 254.52 261.192 264.528 271.2 277.872 281.208 284.544 291.216 297.888 301.224 307.896 314.568 321.24 324.576 327.912 331.248 338.58 345.588 352.26 355.596 362.268 368.94 372.276 375.612 382.284 385.62 392.292 398.964 405.636"
         y="0"
         sodipodi:role="line"
         id="tspan5437">Lada, L=133.00 [5.236], W=56.50 [2.224], H=306.00 [12.047], T=3.00 [0.118]</tspan></text>
<path
       d="m 1202.8936,454.45261 0,395.89752 -160.1551,0 0,-395.89752 160.1551,0 z"
       style="fill:none;stroke:#000000;stroke-width:0.1024738;stroke-linecap:butt;stroke-linejoin:miter;stroke-miterlimit:4;stroke-opacity:1;stroke-dasharray:none"
       id="path5453"
       inkscape:connector-curvature="0" /><path
       d="m 1165.5909,496.5742 c -2.6614,0 -4.8189,-2.15749 -4.8189,-4.81889 0,-2.66141 2.1575,-4.8189 4.8189,-4.8189 2.6614,0 4.8189,2.15749 4.8189,4.8189 0,2.6614 -2.1575,4.81889 -4.8189,4.81889"
       style="fill:none;stroke:#000000;stroke-width:0.1;stroke-linecap:butt;stroke-linejoin:miter;stroke-miterlimit:4;stroke-opacity:1;stroke-dasharray:none"
       id="path5455"
       inkscape:connector-curvature="0" /><path
       d="m 1165.5909,798.97417 c -2.6614,0 -4.8189,-2.1575 -4.8189,-4.8189 0,-2.6614 2.1575,-4.8189 4.8189,-4.8189 2.6614,0 4.8189,2.1575 4.8189,4.8189 0,2.6614 -2.1575,4.8189 -4.8189,4.8189"
       style="fill:none;stroke:#000000;stroke-width:0.1;stroke-linecap:butt;stroke-linejoin:miter;stroke-miterlimit:4;stroke-opacity:1;stroke-dasharray:none"
       id="path5457"
       inkscape:connector-curvature="0" /><path
       d="m 1080.0413,798.97417 c -2.6614,0 -4.8189,-2.1575 -4.8189,-4.8189 0,-2.6614 2.1575,-4.8189 4.8189,-4.8189 2.6614,0 4.8189,2.1575 4.8189,4.8189 0,2.6614 -2.1575,4.8189 -4.8189,4.8189"
       style="fill:none;stroke:#000000;stroke-width:0.1;stroke-linecap:butt;stroke-linejoin:miter;stroke-miterlimit:4;stroke-opacity:1;stroke-dasharray:none"
       id="path5459"
       inkscape:connector-curvature="0" /><path
       d="m 1080.0413,496.5742 c -2.6614,0 -4.8189,-2.15749 -4.8189,-4.81889 0,-2.66141 2.1575,-4.8189 4.8189,-4.8189 2.6614,0 4.8189,2.15749 4.8189,4.8189 0,2.6614 -2.1575,4.81889 -4.8189,4.81889"
       style="fill:none;stroke:#000000;stroke-width:0.1;stroke-linecap:butt;stroke-linejoin:miter;stroke-miterlimit:4;stroke-opacity:1;stroke-dasharray:none"
       id="path5461"
       inkscape:connector-curvature="0" /><path
       inkscape:connector-curvature="0"
       id="path5465"
       style="fill:none;stroke:#000000;stroke-width:0.1;stroke-linecap:butt;stroke-linejoin:miter;stroke-miterlimit:4;stroke-opacity:1;stroke-dasharray:none"
       d="m 895.90008,850.3937 0,-850.393751391724 143.14962,0 0,850.393751391724 -143.14962,0 z" /><path
       inkscape:connector-curvature="0"
       id="path5467"
       style="fill:none;stroke:#000000;stroke-width:0.1;stroke-linecap:butt;stroke-linejoin:miter;stroke-miterlimit:4;stroke-opacity:1;stroke-dasharray:none"
       d="m 924.69998,816.73362 c 2.6614,0 4.8189,2.1575 4.8189,4.8189 0,2.6614 -2.1575,4.8189 -4.8189,4.8189 -2.6613,0 -4.8188,-2.1575 -4.8188,-4.8189 0,-2.6614 2.1575,-4.8189 4.8188,-4.8189" /><path
       inkscape:connector-curvature="0"
       id="path5469"
       style="fill:none;stroke:#000000;stroke-width:0.1;stroke-linecap:butt;stroke-linejoin:miter;stroke-miterlimit:4;stroke-opacity:1;stroke-dasharray:none"
       d="m 924.69998,23.93987 c 2.6614,0 4.8189,2.1575 4.8189,4.8189 0,2.6614 -2.1575,4.8189 -4.8189,4.8189 -2.6613,0 -4.8188,-2.1575 -4.8188,-4.8189 0,-2.6614 2.1575,-4.8189 4.8188,-4.8189" /><path
       inkscape:connector-curvature="0"
       id="path5471"
       style="fill:none;stroke:#000000;stroke-width:0.1;stroke-linecap:butt;stroke-linejoin:miter;stroke-miterlimit:4;stroke-opacity:1;stroke-dasharray:none"
       d="m 1010.2496,23.93987 c 2.6614,0 4.8189,2.1575 4.8189,4.8189 0,2.6614 -2.1575,4.8189 -4.8189,4.8189 -2.6614,0 -4.8189,-2.1575 -4.8189,-4.8189 0,-2.6614 2.1575,-4.8189 4.8189,-4.8189" /><path
       inkscape:connector-curvature="0"
       id="path5473"
       style="fill:none;stroke:#000000;stroke-width:0.1;stroke-linecap:butt;stroke-linejoin:miter;stroke-miterlimit:4;stroke-opacity:1;stroke-dasharray:none"
       d="m 1010.2496,816.73362 c 2.6614,0 4.8189,2.1575 4.8189,4.8189 0,2.6614 -2.1575,4.8189 -4.8189,4.8189 -2.6614,0 -4.8189,-2.1575 -4.8189,-4.8189 0,-2.6614 2.1575,-4.8189 4.8189,-4.8189" /><path
       inkscape:connector-curvature="0"
       id="path5441"
       style="fill:none;stroke:#000000;stroke-width:0.1;stroke-linecap:butt;stroke-linejoin:miter;stroke-miterlimit:4;stroke-opacity:1;stroke-dasharray:none"
       d="m 0.04232888,0.04232888 443.58734112,0 0,850.30904112 -443.58734112,0 0,-850.30904112 z" /><path
       inkscape:connector-curvature="0"
       id="path5443"
       style="fill:none;stroke:#000000;stroke-width:0.1;stroke-linecap:butt;stroke-linejoin:miter;stroke-miterlimit:4;stroke-opacity:1;stroke-dasharray:none"
       d="m 42.12283,28.8 c 0,2.6614 -2.15749,4.8189 -4.81889,4.8189 -2.66141,0 -4.8189,-2.1575 -4.8189,-4.8189 0,-2.6614 2.15749,-4.8189 4.8189,-4.8189 2.6614,0 4.81889,2.1575 4.81889,4.8189" /><path
       inkscape:connector-curvature="0"
       id="path5445"
       style="fill:none;stroke:#000000;stroke-width:0.1;stroke-linecap:butt;stroke-linejoin:miter;stroke-miterlimit:4;stroke-opacity:1;stroke-dasharray:none"
       d="m 344.5228,28.8 c 0,2.6614 -2.1575,4.8189 -4.8189,4.8189 -2.6614,0 -4.8189,-2.1575 -4.8189,-4.8189 0,-2.6614 2.1575,-4.8189 4.8189,-4.8189 2.6614,0 4.8189,2.1575 4.8189,4.8189" /><path
       inkscape:connector-curvature="0"
       id="path5447"
       style="fill:none;stroke:#000000;stroke-width:0.1;stroke-linecap:butt;stroke-linejoin:miter;stroke-miterlimit:4;stroke-opacity:1;stroke-dasharray:none"
       d="m 344.5228,821.5937 c 0,2.6614 -2.1575,4.8189 -4.8189,4.8189 -2.6614,0 -4.8189,-2.1575 -4.8189,-4.8189 0,-2.6614 2.1575,-4.8189 4.8189,-4.8189 2.6614,0 4.8189,2.1575 4.8189,4.8189" /><path
       inkscape:connector-curvature="0"
       id="path5449"
       style="fill:none;stroke:#000000;stroke-width:0.1;stroke-linecap:butt;stroke-linejoin:miter;stroke-miterlimit:4;stroke-opacity:1;stroke-dasharray:none"
       d="m 42.12283,821.5937 c 0,2.6614 -2.15749,4.8189 -4.81889,4.8189 -2.66141,0 -4.8189,-2.1575 -4.8189,-4.8189 0,-2.6614 2.15749,-4.8189 4.8189,-4.8189 2.6614,0 4.81889,2.1575 4.81889,4.8189" /><path
       d="m 42.12285,684.39685 c 0,2.6614 -2.15749,4.81889 -4.81889,4.81889 -2.66141,0 -4.8189,-2.15749 -4.8189,-4.81889 0,-2.66141 2.15749,-4.8189 4.8189,-4.8189 2.6614,0 4.81889,2.15749 4.81889,4.8189"
       style="fill:none;stroke:#000000;stroke-width:0.10000000000000001;stroke-linecap:butt;stroke-linejoin:miter;stroke-miterlimit:4;stroke-opacity:1;stroke-dasharray:none"
       id="path3081-8"
       inkscape:connector-curvature="0" /><path
       inkscape:connector-curvature="0"
       id="path4150"
       style="fill:none;stroke:#000000;stroke-width:0.10000000000000001;stroke-linecap:butt;stroke-linejoin:miter;stroke-miterlimit:4;stroke-opacity:1;stroke-dasharray:none"
       d="m 344.52285,684.39685 c 0,2.6614 -2.15749,4.81889 -4.81889,4.81889 -2.66141,0 -4.8189,-2.15749 -4.8189,-4.81889 0,-2.66141 2.15749,-4.8189 4.8189,-4.8189 2.6614,0 4.81889,2.15749 4.81889,4.8189" /><path
       inkscape:connector-curvature="0"
       id="path24"
       style="fill:none;stroke:#000000;stroke-width:0.1;stroke-linecap:butt;stroke-linejoin:miter;stroke-miterlimit:4;stroke-opacity:1;stroke-dasharray:none"
       d="m 424.72619,818.00742 c -2.6614,0 -4.8189,-2.1575 -4.8189,-4.8189 0,-2.6614 2.1575,-4.8189 4.8189,-4.8189 2.6614,0 4.8189,2.1575 4.8189,4.8189 0,2.6614 -2.1575,4.8189 -4.8189,4.8189" /><path
       inkscape:connector-curvature="0"
       id="path26"
       style="fill:none;stroke:#000000;stroke-width:0.1;stroke-linecap:butt;stroke-linejoin:miter;stroke-miterlimit:4;stroke-opacity:1;stroke-dasharray:none"
       d="m 424.72619,42.221529 c -2.6614,0 -4.8189,-2.15749 -4.8189,-4.81889 0,-2.66141 2.1575,-4.8189 4.8189,-4.8189 2.6614,0 4.8189,2.15749 4.8189,4.8189 0,2.6614 -2.1575,4.81889 -4.8189,4.81889" /><path
       inkscape:connector-curvature="0"
       id="path30"
       style="fill:none;stroke:#000000;stroke-width:0.1;stroke-linecap:butt;stroke-linejoin:miter;stroke-miterlimit:4;stroke-opacity:1;stroke-dasharray:none"
       d="m 424.72619,304.30894 c -4.59004,0 -8.31102,-3.72098 -8.31102,-8.31102 0,-4.59004 3.72098,-8.31102 8.31102,-8.31102 4.59004,0 8.31102,3.72098 8.31102,8.31102 0,4.59004 -3.72098,8.31102 -8.31102,8.31102" /><path
       inkscape:connector-curvature="0"
       id="path34"
       style="fill:none;stroke:#000000;stroke-width:0.1;stroke-linecap:butt;stroke-linejoin:miter;stroke-miterlimit:4;stroke-opacity:1;stroke-dasharray:none"
       d="m 424.72619,562.97082 c -4.62681,0 -8.3776,-3.75079 -8.3776,-8.3776 0,-4.62681 3.75079,-8.3776 8.3776,-8.3776 4.62681,0 8.3776,3.75079 8.3776,8.3776 0,4.62681 -3.75079,8.3776 -8.3776,8.3776" /><path
       transform="matrix(0.8,0,0,-0.8,-0.52145482,926.99932)"
       sodipodi:type="arc"
       style="fill:none;stroke:#000000;stroke-width:0.125;stroke-miterlimit:4;stroke-opacity:1;stroke-dasharray:none"
       id="path5190"
       sodipodi:cx="561.69257"
       sodipodi:cy="632.62543"
       sodipodi:rx="40.17754"
       sodipodi:ry="40.17754"
       d="m 556.55099,672.47262 a 40.17754,40.17754 0 0 1 0.12731,-79.71061"
       sodipodi:start="1.6991195"
       sodipodi:end="4.58726"
       sodipodi:open="true" /><path
       d="m 448.339,0.04232888 443.58734,0 0,850.30904112 -443.58734,0 0,-850.30904112 z"
       style="fill:none;stroke:#000000;stroke-width:0.1;stroke-linecap:butt;stroke-linejoin:miter;stroke-miterlimit:4;stroke-opacity:1;stroke-dasharray:none"
       id="path5853"
       inkscape:connector-curvature="0" /><path
       d="m 490.4195,28.8 c 0,2.6614 -2.15749,4.8189 -4.81889,4.8189 -2.66141,0 -4.8189,-2.1575 -4.8189,-4.8189 0,-2.6614 2.15749,-4.8189 4.8189,-4.8189 2.6614,0 4.81889,2.1575 4.81889,4.8189"
       style="fill:none;stroke:#000000;stroke-width:0.1;stroke-linecap:butt;stroke-linejoin:miter;stroke-miterlimit:4;stroke-opacity:1;stroke-dasharray:none"
       id="path5855"
       inkscape:connector-curvature="0" /><path
       d="m 792.81947,28.8 c 0,2.6614 -2.1575,4.8189 -4.8189,4.8189 -2.6614,0 -4.8189,-2.1575 -4.8189,-4.8189 0,-2.6614 2.1575,-4.8189 4.8189,-4.8189 2.6614,0 4.8189,2.1575 4.8189,4.8189"
       style="fill:none;stroke:#000000;stroke-width:0.1;stroke-linecap:butt;stroke-linejoin:miter;stroke-miterlimit:4;stroke-opacity:1;stroke-dasharray:none"
       id="path5857"
       inkscape:connector-curvature="0" /><path
       d="m 792.81947,821.5937 c 0,2.6614 -2.1575,4.8189 -4.8189,4.8189 -2.6614,0 -4.8189,-2.1575 -4.8189,-4.8189 0,-2.6614 2.1575,-4.8189 4.8189,-4.8189 2.6614,0 4.8189,2.1575 4.8189,4.8189"
       style="fill:none;stroke:#000000;stroke-width:0.1;stroke-linecap:butt;stroke-linejoin:miter;stroke-miterlimit:4;stroke-opacity:1;stroke-dasharray:none"
       id="path5859"
       inkscape:connector-curvature="0" /><path
       d="m 490.4195,821.5937 c 0,2.6614 -2.15749,4.8189 -4.81889,4.8189 -2.66141,0 -4.8189,-2.1575 -4.8189,-4.8189 0,-2.6614 2.15749,-4.8189 4.8189,-4.8189 2.6614,0 4.81889,2.1575 4.81889,4.8189"
       style="fill:none;stroke:#000000;stroke-width:0.1;stroke-linecap:butt;stroke-linejoin:miter;stroke-miterlimit:4;stroke-opacity:1;stroke-dasharray:none"
       id="path5861"
       inkscape:connector-curvature="0" /><path
       d="m 873.02286,818.00742 c -2.6614,0 -4.8189,-2.1575 -4.8189,-4.8189 0,-2.6614 2.1575,-4.8189 4.8189,-4.8189 2.6614,0 4.8189,2.1575 4.8189,4.8189 0,2.6614 -2.1575,4.8189 -4.8189,4.8189"
       style="fill:none;stroke:#000000;stroke-width:0.1;stroke-linecap:butt;stroke-linejoin:miter;stroke-miterlimit:4;stroke-opacity:1;stroke-dasharray:none"
       id="path5873"
       inkscape:connector-curvature="0" /><path
       d="m 873.02286,42.221529 c -2.6614,0 -4.8189,-2.15749 -4.8189,-4.81889 0,-2.66141 2.1575,-4.8189 4.8189,-4.8189 2.6614,0 4.8189,2.15749 4.8189,4.8189 0,2.6614 -2.1575,4.81889 -4.8189,4.81889"
       style="fill:none;stroke:#000000;stroke-width:0.1;stroke-linecap:butt;stroke-linejoin:miter;stroke-miterlimit:4;stroke-opacity:1;stroke-dasharray:none"
       id="path5875"
       inkscape:connector-curvature="0" /><path
       d="m 873.02286,304.30894 c -4.59004,0 -8.31102,-3.72098 -8.31102,-8.31102 0,-4.59004 3.72098,-8.31102 8.31102,-8.31102 4.59004,0 8.31102,3.72098 8.31102,8.31102 0,4.59004 -3.72098,8.31102 -8.31102,8.31102"
       style="fill:none;stroke:#000000;stroke-width:0.1;stroke-linecap:butt;stroke-linejoin:miter;stroke-miterlimit:4;stroke-opacity:1;stroke-dasharray:none"
       id="path5877"
       inkscape:connector-curvature="0" /><path
       d="m 873.02286,562.97082 c -4.62681,0 -8.3776,-3.75079 -8.3776,-8.3776 0,-4.62681 3.75079,-8.3776 8.3776,-8.3776 4.62681,0 8.3776,3.75079 8.3776,8.3776 0,4.62681 -3.75079,8.3776 -8.3776,8.3776"
       style="fill:none;stroke:#000000;stroke-width:0.1;stroke-linecap:butt;stroke-linejoin:miter;stroke-miterlimit:4;stroke-opacity:1;stroke-dasharray:none"
       id="path5879"
       inkscape:connector-curvature="0" /><path
       inkscape:connector-curvature="0"
       id="path3219"
       style="fill:none;stroke:#000000;stroke-width:0.1024738;stroke-linecap:butt;stroke-linejoin:miter;stroke-miterlimit:4;stroke-opacity:1;stroke-dasharray:none"
       d="m 1202.8936,0.04357 0,395.89752 -160.1551,0 0,-395.89752 160.1551,0 z" /><path
       inkscape:connector-curvature="0"
       id="path3221"
       style="fill:none;stroke:#000000;stroke-width:0.1;stroke-linecap:butt;stroke-linejoin:miter;stroke-miterlimit:4;stroke-opacity:1;stroke-dasharray:none"
       d="m 1165.5909,42.16516 c -2.6614,0 -4.8189,-2.15749 -4.8189,-4.81889 0,-2.66141 2.1575,-4.8189 4.8189,-4.8189 2.6614,0 4.8189,2.15749 4.8189,4.8189 0,2.6614 -2.1575,4.81889 -4.8189,4.81889" /><path
       inkscape:connector-curvature="0"
       id="path3223"
       style="fill:none;stroke:#000000;stroke-width:0.1;stroke-linecap:butt;stroke-linejoin:miter;stroke-miterlimit:4;stroke-opacity:1;stroke-dasharray:none"
       d="m 1165.5909,344.56513 c -2.6614,0 -4.8189,-2.1575 -4.8189,-4.8189 0,-2.6614 2.1575,-4.8189 4.8189,-4.8189 2.6614,0 4.8189,2.1575 4.8189,4.8189 0,2.6614 -2.1575,4.8189 -4.8189,4.8189" /><path
       inkscape:connector-curvature="0"
       id="path3225"
       style="fill:none;stroke:#000000;stroke-width:0.1;stroke-linecap:butt;stroke-linejoin:miter;stroke-miterlimit:4;stroke-opacity:1;stroke-dasharray:none"
       d="m 1080.0413,344.56513 c -2.6614,0 -4.8189,-2.1575 -4.8189,-4.8189 0,-2.6614 2.1575,-4.8189 4.8189,-4.8189 2.6614,0 4.8189,2.1575 4.8189,4.8189 0,2.6614 -2.1575,4.8189 -4.8189,4.8189" /><path
       inkscape:connector-curvature="0"
       id="path3227"
       style="fill:none;stroke:#000000;stroke-width:0.1;stroke-linecap:butt;stroke-linejoin:miter;stroke-miterlimit:4;stroke-opacity:1;stroke-dasharray:none"
       d="m 1080.0413,42.16516 c -2.6614,0 -4.8189,-2.15749 -4.8189,-4.81889 0,-2.66141 2.1575,-4.8189 4.8189,-4.8189 2.6614,0 4.8189,2.15749 4.8189,4.8189 0,2.6614 -2.1575,4.81889 -4.8189,4.81889" /><path
       inkscape:connector-curvature="0"
       id="path4148"
       style="fill:none;stroke:#000000;stroke-width:0.1;stroke-linecap:butt;stroke-linejoin:miter;stroke-miterlimit:4;stroke-opacity:1;stroke-dasharray:none"
       d="m 42.12285,165.99685 c 0,2.6614 -2.15749,4.81889 -4.81889,4.81889 -2.66141,0 -4.8189,-2.15749 -4.8189,-4.81889 0,-2.66141 2.15749,-4.8189 4.8189,-4.8189 2.6614,0 4.81889,2.15749 4.81889,4.8189" /><path
       d="m 344.52285,165.99685 c 0,2.6614 -2.15749,4.81889 -4.81889,4.81889 -2.66141,0 -4.8189,-2.15749 -4.8189,-4.81889 0,-2.66141 2.15749,-4.8189 4.8189,-4.8189 2.6614,0 4.81889,2.15749 4.81889,4.8189"
       style="fill:none;stroke:#000000;stroke-width:0.1;stroke-linecap:butt;stroke-linejoin:miter;stroke-miterlimit:4;stroke-opacity:1;stroke-dasharray:none"
       id="path4152"
       inkscape:connector-curvature="0" /><path
       inkscape:connector-curvature="0"
       id="path3220"
       style="fill:none;stroke:#000000;stroke-width:0.1;stroke-linecap:butt;stroke-linejoin:miter;stroke-miterlimit:4;stroke-opacity:1;stroke-dasharray:none"
       d="m 42.12285,684.39685 c 0,2.6614 -2.15749,4.81889 -4.81889,4.81889 -2.66141,0 -4.8189,-2.15749 -4.8189,-4.81889 0,-2.66141 2.15749,-4.8189 4.8189,-4.8189 2.6614,0 4.81889,2.15749 4.81889,4.8189" /><path
       d="m 344.52285,684.39685 c 0,2.6614 -2.15749,4.81889 -4.81889,4.81889 -2.66141,0 -4.8189,-2.15749 -4.8189,-4.81889 0,-2.66141 2.15749,-4.8189 4.8189,-4.8189 2.6614,0 4.81889,2.15749 4.81889,4.8189"
       style="fill:none;stroke:#000000;stroke-width:0.1;stroke-linecap:butt;stroke-linejoin:miter;stroke-miterlimit:4;stroke-opacity:1;stroke-dasharray:none"
       id="path3222"
       inkscape:connector-curvature="0" /><path
       d="m 42.12285,338.79685 c 0,2.6614 -2.15749,4.81889 -4.81889,4.81889 -2.66141,0 -4.8189,-2.15749 -4.8189,-4.81889 0,-2.66141 2.15749,-4.8189 4.8189,-4.8189 2.6614,0 4.81889,2.15749 4.81889,4.8189"
       style="fill:none;stroke:#000000;stroke-width:0.1;stroke-linecap:butt;stroke-linejoin:miter;stroke-miterlimit:4;stroke-opacity:1;stroke-dasharray:none"
       id="path3228"
       inkscape:connector-curvature="0" /><path
       inkscape:connector-curvature="0"
       id="path3230"
       style="fill:none;stroke:#000000;stroke-width:0.1;stroke-linecap:butt;stroke-linejoin:miter;stroke-miterlimit:4;stroke-opacity:1;stroke-dasharray:none"
       d="m 344.52285,338.79685 c 0,2.6614 -2.15749,4.81889 -4.81889,4.81889 -2.66141,0 -4.8189,-2.15749 -4.8189,-4.81889 0,-2.66141 2.15749,-4.8189 4.8189,-4.8189 2.6614,0 4.81889,2.15749 4.81889,4.8189" /><path
       inkscape:connector-curvature="0"
       id="path3232"
       style="fill:none;stroke:#000000;stroke-width:0.1;stroke-linecap:butt;stroke-linejoin:miter;stroke-miterlimit:4;stroke-opacity:1;stroke-dasharray:none"
       d="m 42.12285,511.59685 c 0,2.6614 -2.15749,4.81889 -4.81889,4.81889 -2.66141,0 -4.8189,-2.15749 -4.8189,-4.81889 0,-2.66141 2.15749,-4.8189 4.8189,-4.8189 2.6614,0 4.81889,2.15749 4.81889,4.8189" /><path
       d="m 344.52285,511.59685 c 0,2.6614 -2.15749,4.81889 -4.81889,4.81889 -2.66141,0 -4.8189,-2.15749 -4.8189,-4.81889 0,-2.66141 2.15749,-4.8189 4.8189,-4.8189 2.6614,0 4.81889,2.15749 4.81889,4.8189"
       style="fill:none;stroke:#000000;stroke-width:0.1;stroke-linecap:butt;stroke-linejoin:miter;stroke-miterlimit:4;stroke-opacity:1;stroke-dasharray:none"
       id="path3234"
       inkscape:connector-curvature="0" /><path
       d="m 42.12285,511.59685 c 0,2.6614 -2.15749,4.81889 -4.81889,4.81889 -2.66141,0 -4.8189,-2.15749 -4.8189,-4.81889 0,-2.66141 2.15749,-4.8189 4.8189,-4.8189 2.6614,0 4.81889,2.15749 4.81889,4.8189"
       style="fill:none;stroke:#000000;stroke-width:0.1;stroke-linecap:butt;stroke-linejoin:miter;stroke-miterlimit:4;stroke-opacity:1;stroke-dasharray:none"
       id="path3236"
       inkscape:connector-curvature="0" /><path
       inkscape:connector-curvature="0"
       id="path3238"
       style="fill:none;stroke:#000000;stroke-width:0.1;stroke-linecap:butt;stroke-linejoin:miter;stroke-miterlimit:4;stroke-opacity:1;stroke-dasharray:none"
       d="m 344.52285,511.59685 c 0,2.6614 -2.15749,4.81889 -4.81889,4.81889 -2.66141,0 -4.8189,-2.15749 -4.8189,-4.81889 0,-2.66141 2.15749,-4.8189 4.8189,-4.8189 2.6614,0 4.81889,2.15749 4.81889,4.8189" /><path
       inkscape:connector-curvature="0"
       id="path4077"
       style="fill:none;stroke:#000000;stroke-width:0.1;stroke-linecap:butt;stroke-linejoin:miter;stroke-miterlimit:4;stroke-opacity:1;stroke-dasharray:none"
       d="m 1165.5909,496.5742 c -2.6614,0 -4.8189,-2.15749 -4.8189,-4.81889 0,-2.66141 2.1575,-4.8189 4.8189,-4.8189 2.6614,0 4.8189,2.15749 4.8189,4.8189 0,2.6614 -2.1575,4.81889 -4.8189,4.81889" /><path
       inkscape:connector-curvature="0"
       id="path4079"
       style="fill:none;stroke:#000000;stroke-width:0.1;stroke-linecap:butt;stroke-linejoin:miter;stroke-miterlimit:4;stroke-opacity:1;stroke-dasharray:none"
       d="m 1165.5909,798.97417 c -2.6614,0 -4.8189,-2.1575 -4.8189,-4.8189 0,-2.6614 2.1575,-4.8189 4.8189,-4.8189 2.6614,0 4.8189,2.1575 4.8189,4.8189 0,2.6614 -2.1575,4.8189 -4.8189,4.8189" /><path
       inkscape:connector-curvature="0"
       id="path4081"
       style="fill:none;stroke:#000000;stroke-width:0.1;stroke-linecap:butt;stroke-linejoin:miter;stroke-miterlimit:4;stroke-opacity:1;stroke-dasharray:none"
       d="m 1080.0413,798.97417 c -2.6614,0 -4.8189,-2.1575 -4.8189,-4.8189 0,-2.6614 2.1575,-4.8189 4.8189,-4.8189 2.6614,0 4.8189,2.1575 4.8189,4.8189 0,2.6614 -2.1575,4.8189 -4.8189,4.8189" /><path
       inkscape:connector-curvature="0"
       id="path4083"
       style="fill:none;stroke:#000000;stroke-width:0.1;stroke-linecap:butt;stroke-linejoin:miter;stroke-miterlimit:4;stroke-opacity:1;stroke-dasharray:none"
       d="m 1080.0413,496.5742 c -2.6614,0 -4.8189,-2.15749 -4.8189,-4.81889 0,-2.66141 2.1575,-4.8189 4.8189,-4.8189 2.6614,0 4.8189,2.15749 4.8189,4.8189 0,2.6614 -2.1575,4.81889 -4.8189,4.81889" /><path
       d="m 924.69998,816.73362 c 2.6614,0 4.8189,2.1575 4.8189,4.8189 0,2.6614 -2.1575,4.8189 -4.8189,4.8189 -2.6613,0 -4.8188,-2.1575 -4.8188,-4.8189 0,-2.6614 2.1575,-4.8189 4.8188,-4.8189"
       style="fill:none;stroke:#000000;stroke-width:0.1;stroke-linecap:butt;stroke-linejoin:miter;stroke-miterlimit:4;stroke-opacity:1;stroke-dasharray:none"
       id="path4085"
       inkscape:connector-curvature="0" /><path
       d="m 924.69998,23.93987 c 2.6614,0 4.8189,2.1575 4.8189,4.8189 0,2.6614 -2.1575,4.8189 -4.8189,4.8189 -2.6613,0 -4.8188,-2.1575 -4.8188,-4.8189 0,-2.6614 2.1575,-4.8189 4.8188,-4.8189"
       style="fill:none;stroke:#000000;stroke-width:0.1;stroke-linecap:butt;stroke-linejoin:miter;stroke-miterlimit:4;stroke-opacity:1;stroke-dasharray:none"
       id="path4087"
       inkscape:connector-curvature="0" /><path
       d="m 1010.2496,23.93987 c 2.6614,0 4.8189,2.1575 4.8189,4.8189 0,2.6614 -2.1575,4.8189 -4.8189,4.8189 -2.6614,0 -4.8189,-2.1575 -4.8189,-4.8189 0,-2.6614 2.1575,-4.8189 4.8189,-4.8189"
       style="fill:none;stroke:#000000;stroke-width:0.1;stroke-linecap:butt;stroke-linejoin:miter;stroke-miterlimit:4;stroke-opacity:1;stroke-dasharray:none"
       id="path4089"
       inkscape:connector-curvature="0" /><path
       d="m 1010.2496,816.73362 c 2.6614,0 4.8189,2.1575 4.8189,4.8189 0,2.6614 -2.1575,4.8189 -4.8189,4.8189 -2.6614,0 -4.8189,-2.1575 -4.8189,-4.8189 0,-2.6614 2.1575,-4.8189 4.8189,-4.8189"
       style="fill:none;stroke:#000000;stroke-width:0.1;stroke-linecap:butt;stroke-linejoin:miter;stroke-miterlimit:4;stroke-opacity:1;stroke-dasharray:none"
       id="path4091"
       inkscape:connector-curvature="0" /><path
       d="m 42.12283,28.8 c 0,2.6614 -2.15749,4.8189 -4.81889,4.8189 -2.66141,0 -4.8189,-2.1575 -4.8189,-4.8189 0,-2.6614 2.15749,-4.8189 4.8189,-4.8189 2.6614,0 4.81889,2.1575 4.81889,4.8189"
       style="fill:none;stroke:#000000;stroke-width:0.1;stroke-linecap:butt;stroke-linejoin:miter;stroke-miterlimit:4;stroke-opacity:1;stroke-dasharray:none"
       id="path4093"
       inkscape:connector-curvature="0" /><path
       d="m 344.5228,28.8 c 0,2.6614 -2.1575,4.8189 -4.8189,4.8189 -2.6614,0 -4.8189,-2.1575 -4.8189,-4.8189 0,-2.6614 2.1575,-4.8189 4.8189,-4.8189 2.6614,0 4.8189,2.1575 4.8189,4.8189"
       style="fill:none;stroke:#000000;stroke-width:0.1;stroke-linecap:butt;stroke-linejoin:miter;stroke-miterlimit:4;stroke-opacity:1;stroke-dasharray:none"
       id="path4095"
       inkscape:connector-curvature="0" /><path
       d="m 344.5228,821.5937 c 0,2.6614 -2.1575,4.8189 -4.8189,4.8189 -2.6614,0 -4.8189,-2.1575 -4.8189,-4.8189 0,-2.6614 2.1575,-4.8189 4.8189,-4.8189 2.6614,0 4.8189,2.1575 4.8189,4.8189"
       style="fill:none;stroke:#000000;stroke-width:0.1;stroke-linecap:butt;stroke-linejoin:miter;stroke-miterlimit:4;stroke-opacity:1;stroke-dasharray:none"
       id="path4097"
       inkscape:connector-curvature="0" /><path
       d="m 42.12283,821.5937 c 0,2.6614 -2.15749,4.8189 -4.81889,4.8189 -2.66141,0 -4.8189,-2.1575 -4.8189,-4.8189 0,-2.6614 2.15749,-4.8189 4.8189,-4.8189 2.6614,0 4.81889,2.1575 4.81889,4.8189"
       style="fill:none;stroke:#000000;stroke-width:0.1;stroke-linecap:butt;stroke-linejoin:miter;stroke-miterlimit:4;stroke-opacity:1;stroke-dasharray:none"
       id="path4099"
       inkscape:connector-curvature="0" /><path
       inkscape:connector-curvature="0"
       id="path4101"
       style="fill:none;stroke:#000000;stroke-width:0.10000000000000001;stroke-linecap:butt;stroke-linejoin:miter;stroke-miterlimit:4;stroke-opacity:1;stroke-dasharray:none"
       d="m 42.12285,684.39685 c 0,2.6614 -2.15749,4.81889 -4.81889,4.81889 -2.66141,0 -4.8189,-2.15749 -4.8189,-4.81889 0,-2.66141 2.15749,-4.8189 4.8189,-4.8189 2.6614,0 4.81889,2.15749 4.81889,4.8189" /><path
       d="m 344.52285,684.39685 c 0,2.6614 -2.15749,4.81889 -4.81889,4.81889 -2.66141,0 -4.8189,-2.15749 -4.8189,-4.81889 0,-2.66141 2.15749,-4.8189 4.8189,-4.8189 2.6614,0 4.81889,2.15749 4.81889,4.8189"
       style="fill:none;stroke:#000000;stroke-width:0.10000000000000001;stroke-linecap:butt;stroke-linejoin:miter;stroke-miterlimit:4;stroke-opacity:1;stroke-dasharray:none"
       id="path4103"
       inkscape:connector-curvature="0" /><path
       d="m 424.72619,818.00742 c -2.6614,0 -4.8189,-2.1575 -4.8189,-4.8189 0,-2.6614 2.1575,-4.8189 4.8189,-4.8189 2.6614,0 4.8189,2.1575 4.8189,4.8189 0,2.6614 -2.1575,4.8189 -4.8189,4.8189"
       style="fill:none;stroke:#000000;stroke-width:0.1;stroke-linecap:butt;stroke-linejoin:miter;stroke-miterlimit:4;stroke-opacity:1;stroke-dasharray:none"
       id="path4105"
       inkscape:connector-curvature="0" /><path
       d="m 424.72619,42.221529 c -2.6614,0 -4.8189,-2.15749 -4.8189,-4.81889 0,-2.66141 2.1575,-4.8189 4.8189,-4.8189 2.6614,0 4.8189,2.15749 4.8189,4.8189 0,2.6614 -2.1575,4.81889 -4.8189,4.81889"
       style="fill:none;stroke:#000000;stroke-width:0.1;stroke-linecap:butt;stroke-linejoin:miter;stroke-miterlimit:4;stroke-opacity:1;stroke-dasharray:none"
       id="path4107"
       inkscape:connector-curvature="0" /><path
       d="m 424.72619,304.30894 c -4.59004,0 -8.31102,-3.72098 -8.31102,-8.31102 0,-4.59004 3.72098,-8.31102 8.31102,-8.31102 4.59004,0 8.31102,3.72098 8.31102,8.31102 0,4.59004 -3.72098,8.31102 -8.31102,8.31102"
       style="fill:none;stroke:#000000;stroke-width:0.1;stroke-linecap:butt;stroke-linejoin:miter;stroke-miterlimit:4;stroke-opacity:1;stroke-dasharray:none"
       id="path4109"
       inkscape:connector-curvature="0" /><path
       d="m 424.72619,562.97082 c -4.62681,0 -8.3776,-3.75079 -8.3776,-8.3776 0,-4.62681 3.75079,-8.3776 8.3776,-8.3776 4.62681,0 8.3776,3.75079 8.3776,8.3776 0,4.62681 -3.75079,8.3776 -8.3776,8.3776"
       style="fill:none;stroke:#000000;stroke-width:0.1;stroke-linecap:butt;stroke-linejoin:miter;stroke-miterlimit:4;stroke-opacity:1;stroke-dasharray:none"
       id="path4111"
       inkscape:connector-curvature="0" /><path
       sodipodi:open="true"
       sodipodi:end="4.58726"
       sodipodi:start="1.6991195"
       d="m 556.55099,672.47262 a 40.17754,40.17754 0 0 1 0.12731,-79.71061"
       sodipodi:ry="40.17754"
       sodipodi:rx="40.17754"
       sodipodi:cy="632.62543"
       sodipodi:cx="561.69257"
       id="path4113"
       style="fill:none;stroke:#000000;stroke-width:0.125;stroke-miterlimit:4;stroke-opacity:1;stroke-dasharray:none"
       sodipodi:type="arc"
       transform="matrix(0.8,0,0,-0.8,-0.52145482,926.99932)" /><path
       inkscape:connector-curvature="0"
       id="path4115"
       style="fill:none;stroke:#000000;stroke-width:0.1;stroke-linecap:butt;stroke-linejoin:miter;stroke-miterlimit:4;stroke-opacity:1;stroke-dasharray:none"
       d="m 490.4195,28.8 c 0,2.6614 -2.15749,4.8189 -4.81889,4.8189 -2.66141,0 -4.8189,-2.1575 -4.8189,-4.8189 0,-2.6614 2.15749,-4.8189 4.8189,-4.8189 2.6614,0 4.81889,2.1575 4.81889,4.8189" /><path
       inkscape:connector-curvature="0"
       id="path4117"
       style="fill:none;stroke:#000000;stroke-width:0.1;stroke-linecap:butt;stroke-linejoin:miter;stroke-miterlimit:4;stroke-opacity:1;stroke-dasharray:none"
       d="m 792.81947,28.8 c 0,2.6614 -2.1575,4.8189 -4.8189,4.8189 -2.6614,0 -4.8189,-2.1575 -4.8189,-4.8189 0,-2.6614 2.1575,-4.8189 4.8189,-4.8189 2.6614,0 4.8189,2.1575 4.8189,4.8189" /><path
       inkscape:connector-curvature="0"
       id="path4119"
       style="fill:none;stroke:#000000;stroke-width:0.1;stroke-linecap:butt;stroke-linejoin:miter;stroke-miterlimit:4;stroke-opacity:1;stroke-dasharray:none"
       d="m 792.81947,821.5937 c 0,2.6614 -2.1575,4.8189 -4.8189,4.8189 -2.6614,0 -4.8189,-2.1575 -4.8189,-4.8189 0,-2.6614 2.1575,-4.8189 4.8189,-4.8189 2.6614,0 4.8189,2.1575 4.8189,4.8189" /><path
       inkscape:connector-curvature="0"
       id="path4121"
       style="fill:none;stroke:#000000;stroke-width:0.1;stroke-linecap:butt;stroke-linejoin:miter;stroke-miterlimit:4;stroke-opacity:1;stroke-dasharray:none"
       d="m 490.4195,821.5937 c 0,2.6614 -2.15749,4.8189 -4.81889,4.8189 -2.66141,0 -4.8189,-2.1575 -4.8189,-4.8189 0,-2.6614 2.15749,-4.8189 4.8189,-4.8189 2.6614,0 4.81889,2.1575 4.81889,4.8189" /><path
       inkscape:connector-curvature="0"
       id="path4123"
       style="fill:none;stroke:#000000;stroke-width:0.1;stroke-linecap:butt;stroke-linejoin:miter;stroke-miterlimit:4;stroke-opacity:1;stroke-dasharray:none"
       d="m 873.02286,818.00742 c -2.6614,0 -4.8189,-2.1575 -4.8189,-4.8189 0,-2.6614 2.1575,-4.8189 4.8189,-4.8189 2.6614,0 4.8189,2.1575 4.8189,4.8189 0,2.6614 -2.1575,4.8189 -4.8189,4.8189" /><path
       inkscape:connector-curvature="0"
       id="path4125"
       style="fill:none;stroke:#000000;stroke-width:0.1;stroke-linecap:butt;stroke-linejoin:miter;stroke-miterlimit:4;stroke-opacity:1;stroke-dasharray:none"
       d="m 873.02286,42.221529 c -2.6614,0 -4.8189,-2.15749 -4.8189,-4.81889 0,-2.66141 2.1575,-4.8189 4.8189,-4.8189 2.6614,0 4.8189,2.15749 4.8189,4.8189 0,2.6614 -2.1575,4.81889 -4.8189,4.81889" /><path
       inkscape:connector-curvature="0"
       id="path4127"
       style="fill:none;stroke:#000000;stroke-width:0.1;stroke-linecap:butt;stroke-linejoin:miter;stroke-miterlimit:4;stroke-opacity:1;stroke-dasharray:none"
       d="m 873.02286,304.30894 c -4.59004,0 -8.31102,-3.72098 -8.31102,-8.31102 0,-4.59004 3.72098,-8.31102 8.31102,-8.31102 4.59004,0 8.31102,3.72098 8.31102,8.31102 0,4.59004 -3.72098,8.31102 -8.31102,8.31102" /><path
       inkscape:connector-curvature="0"
       id="path4129"
       style="fill:none;stroke:#000000;stroke-width:0.1;stroke-linecap:butt;stroke-linejoin:miter;stroke-miterlimit:4;stroke-opacity:1;stroke-dasharray:none"
       d="m 873.02286,562.97082 c -4.62681,0 -8.3776,-3.75079 -8.3776,-8.3776 0,-4.62681 3.75079,-8.3776 8.3776,-8.3776 4.62681,0 8.3776,3.75079 8.3776,8.3776 0,4.62681 -3.75079,8.3776 -8.3776,8.3776" /><path
       d="m 1165.5909,42.16516 c -2.6614,0 -4.8189,-2.15749 -4.8189,-4.81889 0,-2.66141 2.1575,-4.8189 4.8189,-4.8189 2.6614,0 4.8189,2.15749 4.8189,4.8189 0,2.6614 -2.1575,4.81889 -4.8189,4.81889"
       style="fill:none;stroke:#000000;stroke-width:0.1;stroke-linecap:butt;stroke-linejoin:miter;stroke-miterlimit:4;stroke-opacity:1;stroke-dasharray:none"
       id="path4131"
       inkscape:connector-curvature="0" /><path
       d="m 1165.5909,344.56513 c -2.6614,0 -4.8189,-2.1575 -4.8189,-4.8189 0,-2.6614 2.1575,-4.8189 4.8189,-4.8189 2.6614,0 4.8189,2.1575 4.8189,4.8189 0,2.6614 -2.1575,4.8189 -4.8189,4.8189"
       style="fill:none;stroke:#000000;stroke-width:0.1;stroke-linecap:butt;stroke-linejoin:miter;stroke-miterlimit:4;stroke-opacity:1;stroke-dasharray:none"
       id="path4133"
       inkscape:connector-curvature="0" /><path
       d="m 1080.0413,344.56513 c -2.6614,0 -4.8189,-2.1575 -4.8189,-4.8189 0,-2.6614 2.1575,-4.8189 4.8189,-4.8189 2.6614,0 4.8189,2.1575 4.8189,4.8189 0,2.6614 -2.1575,4.8189 -4.8189,4.8189"
       style="fill:none;stroke:#000000;stroke-width:0.1;stroke-linecap:butt;stroke-linejoin:miter;stroke-miterlimit:4;stroke-opacity:1;stroke-dasharray:none"
       id="path4135"
       inkscape:connector-curvature="0" /><path
       d="m 1080.0413,42.16516 c -2.6614,0 -4.8189,-2.15749 -4.8189,-4.81889 0,-2.66141 2.1575,-4.8189 4.8189,-4.8189 2.6614,0 4.8189,2.15749 4.8189,4.8189 0,2.6614 -2.1575,4.81889 -4.8189,4.81889"
       style="fill:none;stroke:#000000;stroke-width:0.1;stroke-linecap:butt;stroke-linejoin:miter;stroke-miterlimit:4;stroke-opacity:1;stroke-dasharray:none"
       id="path4137"
       inkscape:connector-curvature="0" /><path
       d="m 42.12285,165.99685 c 0,2.6614 -2.15749,4.81889 -4.81889,4.81889 -2.66141,0 -4.8189,-2.15749 -4.8189,-4.81889 0,-2.66141 2.15749,-4.8189 4.8189,-4.8189 2.6614,0 4.81889,2.15749 4.81889,4.8189"
       style="fill:none;stroke:#000000;stroke-width:0.1;stroke-linecap:butt;stroke-linejoin:miter;stroke-miterlimit:4;stroke-opacity:1;stroke-dasharray:none"
       id="path4139"
       inkscape:connector-curvature="0" /><path
       inkscape:connector-curvature="0"
       id="path4141"
       style="fill:none;stroke:#000000;stroke-width:0.1;stroke-linecap:butt;stroke-linejoin:miter;stroke-miterlimit:4;stroke-opacity:1;stroke-dasharray:none"
       d="m 344.52285,165.99685 c 0,2.6614 -2.15749,4.81889 -4.81889,4.81889 -2.66141,0 -4.8189,-2.15749 -4.8189,-4.81889 0,-2.66141 2.15749,-4.8189 4.8189,-4.8189 2.6614,0 4.81889,2.15749 4.81889,4.8189" /><path
       d="m 42.12285,684.39685 c 0,2.6614 -2.15749,4.81889 -4.81889,4.81889 -2.66141,0 -4.8189,-2.15749 -4.8189,-4.81889 0,-2.66141 2.15749,-4.8189 4.8189,-4.8189 2.6614,0 4.81889,2.15749 4.81889,4.8189"
       style="fill:none;stroke:#000000;stroke-width:0.1;stroke-linecap:butt;stroke-linejoin:miter;stroke-miterlimit:4;stroke-opacity:1;stroke-dasharray:none"
       id="path4143"
       inkscape:connector-curvature="0" /><path
       inkscape:connector-curvature="0"
       id="path4145"
       style="fill:none;stroke:#000000;stroke-width:0.1;stroke-linecap:butt;stroke-linejoin:miter;stroke-miterlimit:4;stroke-opacity:1;stroke-dasharray:none"
       d="m 344.52285,684.39685 c 0,2.6614 -2.15749,4.81889 -4.81889,4.81889 -2.66141,0 -4.8189,-2.15749 -4.8189,-4.81889 0,-2.66141 2.15749,-4.8189 4.8189,-4.8189 2.6614,0 4.81889,2.15749 4.81889,4.8189" /><path
       inkscape:connector-curvature="0"
       id="path4147"
       style="fill:none;stroke:#000000;stroke-width:0.1;stroke-linecap:butt;stroke-linejoin:miter;stroke-miterlimit:4;stroke-opacity:1;stroke-dasharray:none"
       d="m 42.12285,338.79685 c 0,2.6614 -2.15749,4.81889 -4.81889,4.81889 -2.66141,0 -4.8189,-2.15749 -4.8189,-4.81889 0,-2.66141 2.15749,-4.8189 4.8189,-4.8189 2.6614,0 4.81889,2.15749 4.81889,4.8189" /><path
       d="m 344.52285,338.79685 c 0,2.6614 -2.15749,4.81889 -4.81889,4.81889 -2.66141,0 -4.8189,-2.15749 -4.8189,-4.81889 0,-2.66141 2.15749,-4.8189 4.8189,-4.8189 2.6614,0 4.81889,2.15749 4.81889,4.8189"
       style="fill:none;stroke:#000000;stroke-width:0.1;stroke-linecap:butt;stroke-linejoin:miter;stroke-miterlimit:4;stroke-opacity:1;stroke-dasharray:none"
       id="path4149"
       inkscape:connector-curvature="0" /><path
       d="m 42.12285,511.59685 c 0,2.6614 -2.15749,4.81889 -4.81889,4.81889 -2.66141,0 -4.8189,-2.15749 -4.8189,-4.81889 0,-2.66141 2.15749,-4.8189 4.8189,-4.8189 2.6614,0 4.81889,2.15749 4.81889,4.8189"
       style="fill:none;stroke:#000000;stroke-width:0.1;stroke-linecap:butt;stroke-linejoin:miter;stroke-miterlimit:4;stroke-opacity:1;stroke-dasharray:none"
       id="path4151"
       inkscape:connector-curvature="0" /><path
       inkscape:connector-curvature="0"
       id="path4153"
       style="fill:none;stroke:#000000;stroke-width:0.1;stroke-linecap:butt;stroke-linejoin:miter;stroke-miterlimit:4;stroke-opacity:1;stroke-dasharray:none"
       d="m 344.52285,511.59685 c 0,2.6614 -2.15749,4.81889 -4.81889,4.81889 -2.66141,0 -4.8189,-2.15749 -4.8189,-4.81889 0,-2.66141 2.15749,-4.8189 4.8189,-4.8189 2.6614,0 4.81889,2.15749 4.81889,4.8189" /><path
       inkscape:connector-curvature="0"
       id="path4155"
       style="fill:none;stroke:#000000;stroke-width:0.1;stroke-linecap:butt;stroke-linejoin:miter;stroke-miterlimit:4;stroke-opacity:1;stroke-dasharray:none"
       d="m 42.12285,511.59685 c 0,2.6614 -2.15749,4.81889 -4.81889,4.81889 -2.66141,0 -4.8189,-2.15749 -4.8189,-4.81889 0,-2.66141 2.15749,-4.8189 4.8189,-4.8189 2.6614,0 4.81889,2.15749 4.81889,4.8189" /><path
       d="m 344.52285,511.59685 c 0,2.6614 -2.15749,4.81889 -4.81889,4.81889 -2.66141,0 -4.8189,-2.15749 -4.8189,-4.81889 0,-2.66141 2.15749,-4.8189 4.8189,-4.8189 2.6614,0 4.81889,2.15749 4.81889,4.8189"
       style="fill:none;stroke:#000000;stroke-width:0.1;stroke-linecap:butt;stroke-linejoin:miter;stroke-miterlimit:4;stroke-opacity:1;stroke-dasharray:none"
       id="path4157"
       inkscape:connector-curvature="0" /></g></svg>