<?xml version="1.0" encoding="UTF-8" standalone="no"?>
<!-- Created with Inkscape (http://www.inkscape.org/) -->

<svg
   xmlns:dc="http://purl.org/dc/elements/1.1/"
   xmlns:cc="http://creativecommons.org/ns#"
   xmlns:rdf="http://www.w3.org/1999/02/22-rdf-syntax-ns#"
   xmlns:svg="http://www.w3.org/2000/svg"
   xmlns="http://www.w3.org/2000/svg"
   xmlns:sodipodi="http://sodipodi.sourceforge.net/DTD/sodipodi-0.dtd"
   xmlns:inkscape="http://www.inkscape.org/namespaces/inkscape"
   id="svg3051"
   version="1.1"
   inkscape:version="0.48.4 r9939"
   width="1890"
   height="1170"
   xml:space="preserve"
   sodipodi:docname="TiM_lada_front_and_back.svg"><metadata
     id="metadata3057"><rdf:RDF><cc:Work
         rdf:about=""><dc:format>image/svg+xml</dc:format><dc:type
           rdf:resource="http://purl.org/dc/dcmitype/StillImage" /><dc:title></dc:title></cc:Work></rdf:RDF></metadata><defs
     id="defs3055" /><sodipodi:namedview
     pagecolor="#ffffff"
     bordercolor="#666666"
     borderopacity="1"
     objecttolerance="10"
     gridtolerance="10"
     guidetolerance="10"
     inkscape:pageopacity="0"
     inkscape:pageshadow="2"
     inkscape:window-width="1855"
     inkscape:window-height="1056"
     id="namedview3053"
     showgrid="false"
     inkscape:zoom="0.66878307"
     inkscape:cx="815.18172"
     inkscape:cy="591.98023"
     inkscape:window-x="65"
     inkscape:window-y="24"
     inkscape:window-maximized="1"
     inkscape:current-layer="g3059" /><g
     id="g3059"
     inkscape:groupmode="layer"
     inkscape:label="TiM_lada"
     transform="matrix(1.25,0,0,-1.25,0,1170)"><text
       transform="scale(1,-1)"
       id="text3061"
       x="1052.2285"
       y="-897.58539"
       style="stroke-width:0.1;stroke-miterlimit:4;stroke-dasharray:none"><tspan
         style="font-size:12px;font-variant:normal;font-weight:normal;writing-mode:lr-tb;fill:#000000;fill-opacity:1;fill-rule:nonzero;stroke:none;font-family:Helvetica;-inkscape-font-specification:Helvetica;stroke-width:0.1;stroke-miterlimit:4;stroke-dasharray:none"
         x="1052.2285 1058.9005 1065.5726 1072.2446 1078.9166 1082.2526 1085.5886 1092.2606 1099.2686 1105.9406 1112.6125 1119.2845 1122.6206 1129.2926 1135.9646 1139.3005 1142.6366 1149.3086 1152.6447 1159.3167 1165.9886 1172.6606 1175.9966 1179.3326 1182.6686 1193.9966 1201.0046 1207.6766 1214.3486 1221.0206 1224.3566 1231.0286 1237.7006 1241.0366 1244.3726 1251.0446 1257.7166 1261.0526 1267.7246 1274.3966 1281.0686 1284.4045 1287.7406 1291.0767 1299.7406 1306.7487 1313.4205 1320.0927 1323.4286 1330.1006 1336.7726 1340.1086 1343.4446 1350.1166 1353.4526 1360.1246 1366.7966 1373.4686 1376.8046 1380.1406 1383.4766 1390.8086 1397.8167 1404.4886 1407.8246 1414.4966 1421.1686 1424.5046 1427.8406 1434.5126 1437.8486 1444.5206 1451.1926 1457.8646"
         y="-897.58539"
         sodipodi:role="line"
         id="tspan3063">Lada, L=133.00 [5.236], W=306.00 [12.047], H=62.50 [2.461], T=3.00 [0.118]</tspan></text>
<g
       id="g3219"
       style="stroke-width:0.1;stroke-miterlimit:4;stroke-dasharray:none"><path
         d="m 1036.5398,0.52321769 0,412.95356231 -160.11108,0 0,-412.95356231 160.11108,0 z"
         style="fill:none;stroke:#000000;stroke-width:0.1;stroke-linecap:butt;stroke-linejoin:miter;stroke-miterlimit:4;stroke-opacity:1;stroke-dasharray:none"
         id="path3067"
         inkscape:connector-curvature="0" /><path
         d="m 1007.763,42.62283 c -2.6614,0 -4.8189,-2.15749 -4.8189,-4.81889 0,-2.66141 2.1575,-4.8189 4.8189,-4.8189 2.6614,0 4.8189,2.15749 4.8189,4.8189 0,2.6614 -2.1575,4.81889 -4.8189,4.81889"
         style="fill:none;stroke:#000000;stroke-width:0.1;stroke-linecap:butt;stroke-linejoin:miter;stroke-miterlimit:4;stroke-opacity:1;stroke-dasharray:none"
         id="path3069"
         inkscape:connector-curvature="0" /><path
         d="m 1007.763,345.0228 c -2.6614,0 -4.8189,-2.1575 -4.8189,-4.8189 0,-2.6614 2.1575,-4.8189 4.8189,-4.8189 2.6614,0 4.8189,2.1575 4.8189,4.8189 0,2.6614 -2.1575,4.8189 -4.8189,4.8189"
         style="fill:none;stroke:#000000;stroke-width:0.1;stroke-linecap:butt;stroke-linejoin:miter;stroke-miterlimit:4;stroke-opacity:1;stroke-dasharray:none"
         id="path3071"
         inkscape:connector-curvature="0" /><path
         d="m 905.2055,345.0228 c -2.6614,0 -4.8189,-2.1575 -4.8189,-4.8189 0,-2.6614 2.1575,-4.8189 4.8189,-4.8189 2.6614,0 4.8189,2.1575 4.8189,4.8189 0,2.6614 -2.1575,4.8189 -4.8189,4.8189"
         style="fill:none;stroke:#000000;stroke-width:0.1;stroke-linecap:butt;stroke-linejoin:miter;stroke-miterlimit:4;stroke-opacity:1;stroke-dasharray:none"
         id="path3073"
         inkscape:connector-curvature="0" /><path
         d="m 905.2055,42.62283 c -2.6614,0 -4.8189,-2.15749 -4.8189,-4.81889 0,-2.66141 2.1575,-4.8189 4.8189,-4.8189 2.6614,0 4.8189,2.15749 4.8189,4.8189 0,2.6614 -2.1575,4.81889 -4.8189,4.81889"
         style="fill:none;stroke:#000000;stroke-width:0.1;stroke-linecap:butt;stroke-linejoin:miter;stroke-miterlimit:4;stroke-opacity:1;stroke-dasharray:none"
         id="path3075"
         inkscape:connector-curvature="0" /></g><g
       id="g3208"
       transform="matrix(0,-1,1,0,656.99313,859.89765)"
       style="stroke-width:0.1;stroke-miterlimit:4;stroke-dasharray:none"><g
         id="g3195"
         style="stroke-width:0.1;stroke-miterlimit:4;stroke-dasharray:none"><g
           id="g3089"
           transform="matrix(0,1,-1,0,859.39765,386.0118)"
           style="stroke-width:0.1;stroke-miterlimit:4;stroke-dasharray:none"><path
             d="m 0,0 160.1575,0 0,850.3937 L 0,850.3937 0,0 z"
             style="fill:none;stroke:#000000;stroke-width:0.1;stroke-linecap:butt;stroke-linejoin:miter;stroke-miterlimit:4;stroke-opacity:1;stroke-dasharray:none"
             id="path3091"
             inkscape:connector-curvature="0" /><path
             d="m 33.6189,28.8 c 0,2.6614 -2.1575,4.8189 -4.8189,4.8189 -2.6614,0 -4.8189,-2.1575 -4.8189,-4.8189 0,-2.6614 2.1575,-4.8189 4.8189,-4.8189 2.6614,0 4.8189,2.1575 4.8189,4.8189"
             style="fill:none;stroke:#000000;stroke-width:0.1;stroke-linecap:butt;stroke-linejoin:miter;stroke-miterlimit:4;stroke-opacity:1;stroke-dasharray:none"
             id="path3093"
             inkscape:connector-curvature="0" /><path
             d="m 136.1764,28.8 c 0,2.6614 -2.1575,4.8189 -4.8189,4.8189 -2.6614,0 -4.8189,-2.1575 -4.8189,-4.8189 0,-2.6614 2.1575,-4.8189 4.8189,-4.8189 2.6614,0 4.8189,2.1575 4.8189,4.8189"
             style="fill:none;stroke:#000000;stroke-width:0.1;stroke-linecap:butt;stroke-linejoin:miter;stroke-miterlimit:4;stroke-opacity:1;stroke-dasharray:none"
             id="path3095"
             inkscape:connector-curvature="0" /><path
             d="m 136.1764,821.5937 c 0,2.6614 -2.1575,4.8189 -4.8189,4.8189 -2.6614,0 -4.8189,-2.1575 -4.8189,-4.8189 0,-2.6614 2.1575,-4.8189 4.8189,-4.8189 2.6614,0 4.8189,2.1575 4.8189,4.8189"
             style="fill:none;stroke:#000000;stroke-width:0.1;stroke-linecap:butt;stroke-linejoin:miter;stroke-miterlimit:4;stroke-opacity:1;stroke-dasharray:none"
             id="path3097"
             inkscape:connector-curvature="0" /><path
             d="m 33.6189,821.5937 c 0,2.6614 -2.1575,4.8189 -4.8189,4.8189 -2.6614,0 -4.8189,-2.1575 -4.8189,-4.8189 0,-2.6614 2.1575,-4.8189 4.8189,-4.8189 2.6614,0 4.8189,2.1575 4.8189,4.8189"
             style="fill:none;stroke:#000000;stroke-width:0.1;stroke-linecap:butt;stroke-linejoin:miter;stroke-miterlimit:4;stroke-opacity:1;stroke-dasharray:none"
             id="path3099"
             inkscape:connector-curvature="0" /><g
             id="g3101"
             transform="translate(-385.5118,-177.1654)"
             style="stroke-width:0.1;stroke-miterlimit:4;stroke-dasharray:none" /></g></g><path
         d="m 192.88208,465.72382 c 0,9.46612 -7.67378,17.13995 -17.1399,17.13995 -9.46616,0 -17.13996,-7.67383 -17.13996,-17.13995 0,-9.46611 7.6738,-17.13996 17.13996,-17.13996 9.46612,0 17.1399,7.67385 17.1399,17.13996"
         style="fill:none;stroke:#000000;stroke-width:0.1;stroke-linecap:butt;stroke-linejoin:miter;stroke-miterlimit:4;stroke-opacity:1;stroke-dasharray:none"
         id="path3206"
         inkscape:connector-curvature="0" /></g><g
       id="g3233"
       transform="translate(0,424.61315)"
       style="stroke-width:0.1;stroke-miterlimit:4;stroke-dasharray:none"><path
         d="m 867.87832,0.52327944 0,412.95344056 -867.35504056,0 0,-412.95344056 867.35504056,0 z"
         style="fill:none;stroke:#000000;stroke-width:0.1;stroke-linecap:butt;stroke-linejoin:miter;stroke-miterlimit:4;stroke-opacity:1;stroke-dasharray:none"
         id="path3235"
         inkscape:connector-curvature="0" /><path
         d="m 830.59766,42.62283 c -2.6614,0 -4.81889,-2.15749 -4.81889,-4.81889 0,-2.66141 2.15749,-4.8189 4.81889,-4.8189 2.66141,0 4.8189,2.15749 4.8189,4.8189 0,2.6614 -2.15749,4.81889 -4.8189,4.81889"
         style="fill:none;stroke:#000000;stroke-width:0.1;stroke-linecap:butt;stroke-linejoin:miter;stroke-miterlimit:4;stroke-opacity:1;stroke-dasharray:none"
         id="path3237"
         inkscape:connector-curvature="0" /><path
         d="m 830.59766,345.0228 c -2.6614,0 -4.81889,-2.1575 -4.81889,-4.8189 0,-2.6614 2.15749,-4.8189 4.81889,-4.8189 2.66141,0 4.8189,2.1575 4.8189,4.8189 0,2.6614 -2.15749,4.8189 -4.8189,4.8189"
         style="fill:none;stroke:#000000;stroke-width:0.1;stroke-linecap:butt;stroke-linejoin:miter;stroke-miterlimit:4;stroke-opacity:1;stroke-dasharray:none"
         id="path3239"
         inkscape:connector-curvature="0" /><path
         d="m 37.804,345.0228 c -2.6614,0 -4.8189,-2.1575 -4.8189,-4.8189 0,-2.6614 2.1575,-4.8189 4.8189,-4.8189 2.6614,0 4.8189,2.1575 4.8189,4.8189 0,2.6614 -2.1575,4.8189 -4.8189,4.8189"
         style="fill:none;stroke:#000000;stroke-width:0.1;stroke-linecap:butt;stroke-linejoin:miter;stroke-miterlimit:4;stroke-opacity:1;stroke-dasharray:none"
         id="path3241"
         inkscape:connector-curvature="0" /><path
         d="m 37.804,42.62283 c -2.6614,0 -4.8189,-2.15749 -4.8189,-4.81889 0,-2.66141 2.1575,-4.8189 4.8189,-4.8189 2.6614,0 4.8189,2.15749 4.8189,4.8189 0,2.6614 -2.1575,4.81889 -4.8189,4.81889"
         style="fill:none;stroke:#000000;stroke-width:0.1;stroke-linecap:butt;stroke-linejoin:miter;stroke-miterlimit:4;stroke-opacity:1;stroke-dasharray:none"
         id="path3243"
         inkscape:connector-curvature="0" /></g><g
       id="g3245"
       transform="translate(0,424.61315)"
       style="stroke-width:0.1;stroke-miterlimit:4;stroke-dasharray:none"><path
         inkscape:connector-curvature="0"
         id="path3247"
         style="fill:none;stroke:#000000;stroke-width:0.1;stroke-linecap:butt;stroke-linejoin:miter;stroke-miterlimit:4;stroke-opacity:1;stroke-dasharray:none"
         d="m 1036.5398,0.52321769 0,412.95356231 -160.11108,0 0,-412.95356231 160.11108,0 z" /><path
         inkscape:connector-curvature="0"
         id="path3249"
         style="fill:none;stroke:#000000;stroke-width:0.1;stroke-linecap:butt;stroke-linejoin:miter;stroke-miterlimit:4;stroke-opacity:1;stroke-dasharray:none"
         d="m 1007.763,42.62283 c -2.6614,0 -4.8189,-2.15749 -4.8189,-4.81889 0,-2.66141 2.1575,-4.8189 4.8189,-4.8189 2.6614,0 4.8189,2.15749 4.8189,4.8189 0,2.6614 -2.1575,4.81889 -4.8189,4.81889" /><path
         inkscape:connector-curvature="0"
         id="path3251"
         style="fill:none;stroke:#000000;stroke-width:0.1;stroke-linecap:butt;stroke-linejoin:miter;stroke-miterlimit:4;stroke-opacity:1;stroke-dasharray:none"
         d="m 1007.763,345.0228 c -2.6614,0 -4.8189,-2.1575 -4.8189,-4.8189 0,-2.6614 2.1575,-4.8189 4.8189,-4.8189 2.6614,0 4.8189,2.1575 4.8189,4.8189 0,2.6614 -2.1575,4.8189 -4.8189,4.8189" /><path
         inkscape:connector-curvature="0"
         id="path3253"
         style="fill:none;stroke:#000000;stroke-width:0.1;stroke-linecap:butt;stroke-linejoin:miter;stroke-miterlimit:4;stroke-opacity:1;stroke-dasharray:none"
         d="m 905.2055,345.0228 c -2.6614,0 -4.8189,-2.1575 -4.8189,-4.8189 0,-2.6614 2.1575,-4.8189 4.8189,-4.8189 2.6614,0 4.8189,2.1575 4.8189,4.8189 0,2.6614 -2.1575,4.8189 -4.8189,4.8189" /><path
         inkscape:connector-curvature="0"
         id="path3255"
         style="fill:none;stroke:#000000;stroke-width:0.1;stroke-linecap:butt;stroke-linejoin:miter;stroke-miterlimit:4;stroke-opacity:1;stroke-dasharray:none"
         d="m 905.2055,42.62283 c -2.6614,0 -4.8189,-2.15749 -4.8189,-4.81889 0,-2.66141 2.1575,-4.8189 4.8189,-4.8189 2.6614,0 4.8189,2.15749 4.8189,4.8189 0,2.6614 -2.1575,4.81889 -4.8189,4.81889" /></g><g
       id="g3259"
       transform="matrix(0,-1,1,0,826.16171,859.89765)"
       style="stroke-width:0.1;stroke-miterlimit:4;stroke-dasharray:none"><g
         id="g3261"
         transform="matrix(0,1,-1,0,859.39765,386.0118)"
         style="stroke-width:0.1;stroke-miterlimit:4;stroke-dasharray:none"><path
           d="m 0,0 160.1575,0 0,850.3937 L 0,850.3937 0,0 z"
           style="fill:none;stroke:#000000;stroke-width:0.1;stroke-linecap:butt;stroke-linejoin:miter;stroke-miterlimit:4;stroke-opacity:1;stroke-dasharray:none"
           id="path3263"
           inkscape:connector-curvature="0" /><path
           d="m 33.6189,28.8 c 0,2.6614 -2.1575,4.8189 -4.8189,4.8189 -2.6614,0 -4.8189,-2.1575 -4.8189,-4.8189 0,-2.6614 2.1575,-4.8189 4.8189,-4.8189 2.6614,0 4.8189,2.1575 4.8189,4.8189"
           style="fill:none;stroke:#000000;stroke-width:0.1;stroke-linecap:butt;stroke-linejoin:miter;stroke-miterlimit:4;stroke-opacity:1;stroke-dasharray:none"
           id="path3265"
           inkscape:connector-curvature="0" /><path
           d="m 136.1764,28.8 c 0,2.6614 -2.1575,4.8189 -4.8189,4.8189 -2.6614,0 -4.8189,-2.1575 -4.8189,-4.8189 0,-2.6614 2.1575,-4.8189 4.8189,-4.8189 2.6614,0 4.8189,2.1575 4.8189,4.8189"
           style="fill:none;stroke:#000000;stroke-width:0.1;stroke-linecap:butt;stroke-linejoin:miter;stroke-miterlimit:4;stroke-opacity:1;stroke-dasharray:none"
           id="path3267"
           inkscape:connector-curvature="0" /><path
           d="m 136.1764,821.5937 c 0,2.6614 -2.1575,4.8189 -4.8189,4.8189 -2.6614,0 -4.8189,-2.1575 -4.8189,-4.8189 0,-2.6614 2.1575,-4.8189 4.8189,-4.8189 2.6614,0 4.8189,2.1575 4.8189,4.8189"
           style="fill:none;stroke:#000000;stroke-width:0.1;stroke-linecap:butt;stroke-linejoin:miter;stroke-miterlimit:4;stroke-opacity:1;stroke-dasharray:none"
           id="path3269"
           inkscape:connector-curvature="0" /><path
           d="m 33.6189,821.5937 c 0,2.6614 -2.1575,4.8189 -4.8189,4.8189 -2.6614,0 -4.8189,-2.1575 -4.8189,-4.8189 0,-2.6614 2.1575,-4.8189 4.8189,-4.8189 2.6614,0 4.8189,2.1575 4.8189,4.8189"
           style="fill:none;stroke:#000000;stroke-width:0.1;stroke-linecap:butt;stroke-linejoin:miter;stroke-miterlimit:4;stroke-opacity:1;stroke-dasharray:none"
           id="path3271"
           inkscape:connector-curvature="0" /><g
           id="g3273"
           transform="translate(-385.5118,-177.1654)"
           style="stroke-width:0.1;stroke-miterlimit:4;stroke-dasharray:none" /></g></g><g
       id="g4171"><path
         inkscape:connector-curvature="0"
         id="path3079"
         style="fill:none;stroke:#000000;stroke-width:0.1;stroke-linecap:butt;stroke-linejoin:miter;stroke-miterlimit:4;stroke-opacity:1;stroke-dasharray:none"
         d="m 867.87832,0.52327944 0,412.95344056 -867.35504056,0 0,-412.95344056 867.35504056,0 z" /><g
         id="g4165"><path
           d="m 830.59766,42.62283 c -2.6614,0 -4.81889,-2.15749 -4.81889,-4.81889 0,-2.66141 2.15749,-4.8189 4.81889,-4.8189 2.66141,0 4.8189,2.15749 4.8189,4.8189 0,2.6614 -2.15749,4.81889 -4.8189,4.81889"
           style="fill:none;stroke:#000000;stroke-width:0.1;stroke-linecap:butt;stroke-linejoin:miter;stroke-miterlimit:4;stroke-opacity:1;stroke-dasharray:none"
           id="path3081"
           inkscape:connector-curvature="0" /><path
           d="m 830.59766,345.0228 c -2.6614,0 -4.81889,-2.1575 -4.81889,-4.8189 0,-2.6614 2.15749,-4.8189 4.81889,-4.8189 2.66141,0 4.8189,2.1575 4.8189,4.8189 0,2.6614 -2.15749,4.8189 -4.8189,4.8189"
           style="fill:none;stroke:#000000;stroke-width:0.1;stroke-linecap:butt;stroke-linejoin:miter;stroke-miterlimit:4;stroke-opacity:1;stroke-dasharray:none"
           id="path3083"
           inkscape:connector-curvature="0" /><path
           d="m 37.804,345.0228 c -2.6614,0 -4.8189,-2.1575 -4.8189,-4.8189 0,-2.6614 2.1575,-4.8189 4.8189,-4.8189 2.6614,0 4.8189,2.1575 4.8189,4.8189 0,2.6614 -2.1575,4.8189 -4.8189,4.8189"
           style="fill:none;stroke:#000000;stroke-width:0.1;stroke-linecap:butt;stroke-linejoin:miter;stroke-miterlimit:4;stroke-opacity:1;stroke-dasharray:none"
           id="path3085"
           inkscape:connector-curvature="0" /><path
           d="m 37.804,42.62283 c -2.6614,0 -4.8189,-2.15749 -4.8189,-4.81889 0,-2.66141 2.1575,-4.8189 4.8189,-4.8189 2.6614,0 4.8189,2.15749 4.8189,4.8189 0,2.6614 -2.1575,4.81889 -4.8189,4.81889"
           style="fill:none;stroke:#000000;stroke-width:0.1;stroke-linecap:butt;stroke-linejoin:miter;stroke-miterlimit:4;stroke-opacity:1;stroke-dasharray:none"
           id="path3087"
           inkscape:connector-curvature="0" /></g><g
         transform="translate(-29.549805,164.60139)"
         id="g4154"><path
           d="m 204.55063,-121.97857 c -2.6614,0 -4.81889,-2.15749 -4.81889,-4.81889 0,-2.66141 2.15749,-4.8189 4.81889,-4.8189 2.66141,0 4.8189,2.15749 4.8189,4.8189 0,2.6614 -2.15749,4.81889 -4.8189,4.81889"
           style="fill:none;stroke:#000000;stroke-width:0.1;stroke-linecap:butt;stroke-linejoin:miter;stroke-miterlimit:4;stroke-opacity:1;stroke-dasharray:none"
           id="path3081-8"
           inkscape:connector-curvature="0" /><path
           inkscape:connector-curvature="0"
           id="path4148"
           style="fill:none;stroke:#000000;stroke-width:0.1;stroke-linecap:butt;stroke-linejoin:miter;stroke-miterlimit:4;stroke-opacity:1;stroke-dasharray:none"
           d="m 722.95063,-121.97857 c -2.6614,0 -4.81889,-2.15749 -4.81889,-4.81889 0,-2.66141 2.15749,-4.8189 4.81889,-4.8189 2.66141,0 4.8189,2.15749 4.8189,4.8189 0,2.6614 -2.15749,4.81889 -4.8189,4.81889" /><path
           inkscape:connector-curvature="0"
           id="path4150"
           style="fill:none;stroke:#000000;stroke-width:0.1;stroke-linecap:butt;stroke-linejoin:miter;stroke-miterlimit:4;stroke-opacity:1;stroke-dasharray:none"
           d="m 204.55063,180.42143 c -2.6614,0 -4.81889,-2.15749 -4.81889,-4.81889 0,-2.66141 2.15749,-4.8189 4.81889,-4.8189 2.66141,0 4.8189,2.15749 4.8189,4.8189 0,2.6614 -2.15749,4.81889 -4.8189,4.81889" /><path
           d="m 722.95063,180.42143 c -2.6614,0 -4.81889,-2.15749 -4.81889,-4.81889 0,-2.66141 2.15749,-4.8189 4.81889,-4.8189 2.66141,0 4.8189,2.15749 4.8189,4.8189 0,2.6614 -2.15749,4.81889 -4.8189,4.81889"
           style="fill:none;stroke:#000000;stroke-width:0.1;stroke-linecap:butt;stroke-linejoin:miter;stroke-miterlimit:4;stroke-opacity:1;stroke-dasharray:none"
           id="path4152"
           inkscape:connector-curvature="0" /></g></g></g></svg>