<?xml version="1.0" encoding="UTF-8" standalone="no"?>
<!-- Created with Inkscape (http://www.inkscape.org/) -->

<svg
   xmlns:dc="http://purl.org/dc/elements/1.1/"
   xmlns:cc="http://creativecommons.org/ns#"
   xmlns:rdf="http://www.w3.org/1999/02/22-rdf-syntax-ns#"
   xmlns:svg="http://www.w3.org/2000/svg"
   xmlns="http://www.w3.org/2000/svg"
   xmlns:sodipodi="http://sodipodi.sourceforge.net/DTD/sodipodi-0.dtd"
   xmlns:inkscape="http://www.inkscape.org/namespaces/inkscape"
   id="svg5425"
   version="1.1"
   inkscape:version="0.48.4 r9939"
   width="1890"
   height="1170"
   xml:space="preserve"
   sodipodi:docname="TiM_lada.pdf"><metadata
     id="metadata5431"><rdf:RDF><cc:Work
         rdf:about=""><dc:format>image/svg+xml</dc:format><dc:type
           rdf:resource="http://purl.org/dc/dcmitype/StillImage" /><dc:title></dc:title></cc:Work></rdf:RDF></metadata><defs
     id="defs5429" /><sodipodi:namedview
     pagecolor="#ffffff"
     bordercolor="#666666"
     borderopacity="1"
     objecttolerance="10"
     gridtolerance="10"
     guidetolerance="10"
     inkscape:pageopacity="0"
     inkscape:pageshadow="2"
     inkscape:window-width="1855"
     inkscape:window-height="1056"
     id="namedview5427"
     showgrid="false"
     inkscape:zoom="0.66878307"
     inkscape:cx="250.55573"
     inkscape:cy="803.63889"
     inkscape:window-x="65"
     inkscape:window-y="24"
     inkscape:window-maximized="1"
     inkscape:current-layer="g5433" /><g
     id="g5433"
     inkscape:groupmode="layer"
     inkscape:label="TiM_lada"
     transform="matrix(1.25,0,0,-1.25,0,1170)"><text
       transform="matrix(1,0,0,-1,0,1244.409)"
       id="text5435"
       style="stroke-width:0.1;stroke-miterlimit:4;stroke-dasharray:none"><tspan
         style="fill:#000000;fill-opacity:1;fill-rule:nonzero;stroke:none;font-family:Helvetica;font-variant:normal;font-weight:normal;font-size:12;writing-mode:lr;-inkscape-font-specification:Helvetica;stroke-width:0.1;stroke-miterlimit:4;stroke-dasharray:none"
         x="0 6.672 13.344 20.016 26.688 30.024 33.36 40.032 47.04 53.712 60.384 67.056 70.392 77.064 83.736 87.072 90.408 97.08 100.416 107.088 113.76 120.432 123.768 127.104 130.44 141.768 148.776 155.448 162.12 165.456 172.128 178.8 182.136 185.472 192.144 195.48 202.152 208.824 215.496 218.832 222.168 225.504 234.168 241.176 247.848 254.52 261.192 264.528 271.2 277.872 281.208 284.544 291.216 297.888 301.224 307.896 314.568 321.24 324.576 327.912 331.248 338.58 345.588 352.26 355.596 362.268 368.94 372.276 375.612 382.284 385.62 392.292 398.964 405.636"
         y="0"
         sodipodi:role="line"
         id="tspan5437">Lada, L=133.00 [5.236], W=56.50 [2.224], H=306.00 [12.047], T=3.00 [0.118]</tspan></text>
<g
       id="g5722"
       transform="translate(511.31206,-423.0233)"
       style="stroke-width:0.1;stroke-miterlimit:4;stroke-dasharray:none"><path
         inkscape:connector-curvature="0"
         id="path5453"
         style="fill:none;stroke:#000000;stroke-width:0.1;stroke-linecap:butt;stroke-linejoin:miter;stroke-miterlimit:4;stroke-opacity:1;stroke-dasharray:none"
         d="m 835.5827,896.4091 0,377.0079 -160.1575,0 0,-377.0079 160.1575,0 z" /><path
         inkscape:connector-curvature="0"
         id="path5455"
         style="fill:none;stroke:#000000;stroke-width:0.1;stroke-linecap:butt;stroke-linejoin:miter;stroke-miterlimit:4;stroke-opacity:1;stroke-dasharray:none"
         d="m 798.2788,938.53193 c -2.6614,0 -4.8189,-2.15749 -4.8189,-4.81889 0,-2.66141 2.1575,-4.8189 4.8189,-4.8189 2.6614,0 4.8189,2.15749 4.8189,4.8189 0,2.6614 -2.1575,4.81889 -4.8189,4.81889" /><path
         inkscape:connector-curvature="0"
         id="path5457"
         style="fill:none;stroke:#000000;stroke-width:0.1;stroke-linecap:butt;stroke-linejoin:miter;stroke-miterlimit:4;stroke-opacity:1;stroke-dasharray:none"
         d="m 798.2788,1240.9319 c -2.6614,0 -4.8189,-2.1575 -4.8189,-4.8189 0,-2.6614 2.1575,-4.8189 4.8189,-4.8189 2.6614,0 4.8189,2.1575 4.8189,4.8189 0,2.6614 -2.1575,4.8189 -4.8189,4.8189" /><path
         inkscape:connector-curvature="0"
         id="path5459"
         style="fill:none;stroke:#000000;stroke-width:0.1;stroke-linecap:butt;stroke-linejoin:miter;stroke-miterlimit:4;stroke-opacity:1;stroke-dasharray:none"
         d="m 712.7292,1240.9319 c -2.6614,0 -4.8189,-2.1575 -4.8189,-4.8189 0,-2.6614 2.1575,-4.8189 4.8189,-4.8189 2.6614,0 4.8189,2.1575 4.8189,4.8189 0,2.6614 -2.1575,4.8189 -4.8189,4.8189" /><path
         inkscape:connector-curvature="0"
         id="path5461"
         style="fill:none;stroke:#000000;stroke-width:0.1;stroke-linecap:butt;stroke-linejoin:miter;stroke-miterlimit:4;stroke-opacity:1;stroke-dasharray:none"
         d="m 712.7292,938.53193 c -2.6614,0 -4.8189,-2.15749 -4.8189,-4.81889 0,-2.66141 2.1575,-4.8189 4.8189,-4.8189 2.6614,0 4.8189,2.15749 4.8189,4.8189 0,2.6614 -2.1575,4.81889 -4.8189,4.81889" /></g><g
       id="g5701"
       transform="translate(-7.6125861,-1.1058617e-6)"
       style="stroke-width:0.1;stroke-miterlimit:4;stroke-dasharray:none"><path
         d="m 903.51267,850.3937 0,-850.393750285862 143.14963,0 0,850.393750285862 -143.14963,0 z"
         style="fill:none;stroke:#000000;stroke-width:0.1;stroke-linecap:butt;stroke-linejoin:miter;stroke-miterlimit:4;stroke-opacity:1;stroke-dasharray:none"
         id="path5465"
         inkscape:connector-curvature="0" /><path
         d="m 932.31257,816.73362 c 2.6614,0 4.8189,2.1575 4.8189,4.8189 0,2.6614 -2.1575,4.8189 -4.8189,4.8189 -2.6613,0 -4.8188,-2.1575 -4.8188,-4.8189 0,-2.6614 2.1575,-4.8189 4.8188,-4.8189"
         style="fill:none;stroke:#000000;stroke-width:0.1;stroke-linecap:butt;stroke-linejoin:miter;stroke-miterlimit:4;stroke-opacity:1;stroke-dasharray:none"
         id="path5467"
         inkscape:connector-curvature="0" /><path
         d="m 932.31257,23.939871 c 2.6614,0 4.8189,2.1575 4.8189,4.8189 0,2.6614 -2.1575,4.8189 -4.8189,4.8189 -2.6613,0 -4.8188,-2.1575 -4.8188,-4.8189 0,-2.6614 2.1575,-4.8189 4.8188,-4.8189"
         style="fill:none;stroke:#000000;stroke-width:0.1;stroke-linecap:butt;stroke-linejoin:miter;stroke-miterlimit:4;stroke-opacity:1;stroke-dasharray:none"
         id="path5469"
         inkscape:connector-curvature="0" /><path
         d="m 1017.8622,23.939871 c 2.6614,0 4.8189,2.1575 4.8189,4.8189 0,2.6614 -2.1575,4.8189 -4.8189,4.8189 -2.6614,0 -4.8189,-2.1575 -4.8189,-4.8189 0,-2.6614 2.1575,-4.8189 4.8189,-4.8189"
         style="fill:none;stroke:#000000;stroke-width:0.1;stroke-linecap:butt;stroke-linejoin:miter;stroke-miterlimit:4;stroke-opacity:1;stroke-dasharray:none"
         id="path5471"
         inkscape:connector-curvature="0" /><path
         d="m 1017.8622,816.73362 c 2.6614,0 4.8189,2.1575 4.8189,4.8189 0,2.6614 -2.1575,4.8189 -4.8189,4.8189 -2.6614,0 -4.8189,-2.1575 -4.8189,-4.8189 0,-2.6614 2.1575,-4.8189 4.8189,-4.8189"
         style="fill:none;stroke:#000000;stroke-width:0.1;stroke-linecap:butt;stroke-linejoin:miter;stroke-miterlimit:4;stroke-opacity:1;stroke-dasharray:none"
         id="path5473"
         inkscape:connector-curvature="0" /></g><g
       id="g5708"
       transform="translate(138.26954,-1.1058617e-6)"
       style="stroke-width:0.1;stroke-miterlimit:4;stroke-dasharray:none"><path
         inkscape:connector-curvature="0"
         id="path5710"
         style="fill:none;stroke:#000000;stroke-width:0.1;stroke-linecap:butt;stroke-linejoin:miter;stroke-miterlimit:4;stroke-opacity:1;stroke-dasharray:none"
         d="m 903.51267,850.3937 0,-850.393750285862 143.14963,0 0,850.393750285862 -143.14963,0 z" /><path
         inkscape:connector-curvature="0"
         id="path5712"
         style="fill:none;stroke:#000000;stroke-width:0.1;stroke-linecap:butt;stroke-linejoin:miter;stroke-miterlimit:4;stroke-opacity:1;stroke-dasharray:none"
         d="m 932.31257,816.73362 c 2.6614,0 4.8189,2.1575 4.8189,4.8189 0,2.6614 -2.1575,4.8189 -4.8189,4.8189 -2.6613,0 -4.8188,-2.1575 -4.8188,-4.8189 0,-2.6614 2.1575,-4.8189 4.8188,-4.8189" /><path
         inkscape:connector-curvature="0"
         id="path5714"
         style="fill:none;stroke:#000000;stroke-width:0.1;stroke-linecap:butt;stroke-linejoin:miter;stroke-miterlimit:4;stroke-opacity:1;stroke-dasharray:none"
         d="m 932.31257,23.939871 c 2.6614,0 4.8189,2.1575 4.8189,4.8189 0,2.6614 -2.1575,4.8189 -4.8189,4.8189 -2.6613,0 -4.8188,-2.1575 -4.8188,-4.8189 0,-2.6614 2.1575,-4.8189 4.8188,-4.8189" /><path
         inkscape:connector-curvature="0"
         id="path5716"
         style="fill:none;stroke:#000000;stroke-width:0.1;stroke-linecap:butt;stroke-linejoin:miter;stroke-miterlimit:4;stroke-opacity:1;stroke-dasharray:none"
         d="m 1017.8622,23.939871 c 2.6614,0 4.8189,2.1575 4.8189,4.8189 0,2.6614 -2.1575,4.8189 -4.8189,4.8189 -2.6614,0 -4.8189,-2.1575 -4.8189,-4.8189 0,-2.6614 2.1575,-4.8189 4.8189,-4.8189" /><path
         inkscape:connector-curvature="0"
         id="path5718"
         style="fill:none;stroke:#000000;stroke-width:0.1;stroke-linecap:butt;stroke-linejoin:miter;stroke-miterlimit:4;stroke-opacity:1;stroke-dasharray:none"
         d="m 1017.8622,816.73362 c 2.6614,0 4.8189,2.1575 4.8189,4.8189 0,2.6614 -2.1575,4.8189 -4.8189,4.8189 -2.6614,0 -4.8189,-2.1575 -4.8189,-4.8189 0,-2.6614 2.1575,-4.8189 4.8189,-4.8189" /></g><g
       transform="translate(511.31206,-896.4091)"
       id="g5741"
       style="stroke-width:0.1;stroke-miterlimit:4;stroke-dasharray:none"><path
         d="m 835.5827,896.4091 0,377.0079 -160.1575,0 0,-377.0079 160.1575,0 z"
         style="fill:none;stroke:#000000;stroke-width:0.1;stroke-linecap:butt;stroke-linejoin:miter;stroke-miterlimit:4;stroke-opacity:1;stroke-dasharray:none"
         id="path5743"
         inkscape:connector-curvature="0" /><path
         d="m 798.2788,938.53193 c -2.6614,0 -4.8189,-2.15749 -4.8189,-4.81889 0,-2.66141 2.1575,-4.8189 4.8189,-4.8189 2.6614,0 4.8189,2.15749 4.8189,4.8189 0,2.6614 -2.1575,4.81889 -4.8189,4.81889"
         style="fill:none;stroke:#000000;stroke-width:0.1;stroke-linecap:butt;stroke-linejoin:miter;stroke-miterlimit:4;stroke-opacity:1;stroke-dasharray:none"
         id="path5745"
         inkscape:connector-curvature="0" /><path
         d="m 798.2788,1240.9319 c -2.6614,0 -4.8189,-2.1575 -4.8189,-4.8189 0,-2.6614 2.1575,-4.8189 4.8189,-4.8189 2.6614,0 4.8189,2.1575 4.8189,4.8189 0,2.6614 -2.1575,4.8189 -4.8189,4.8189"
         style="fill:none;stroke:#000000;stroke-width:0.1;stroke-linecap:butt;stroke-linejoin:miter;stroke-miterlimit:4;stroke-opacity:1;stroke-dasharray:none"
         id="path5747"
         inkscape:connector-curvature="0" /><path
         d="m 712.7292,1240.9319 c -2.6614,0 -4.8189,-2.1575 -4.8189,-4.8189 0,-2.6614 2.1575,-4.8189 4.8189,-4.8189 2.6614,0 4.8189,2.1575 4.8189,4.8189 0,2.6614 -2.1575,4.8189 -4.8189,4.8189"
         style="fill:none;stroke:#000000;stroke-width:0.1;stroke-linecap:butt;stroke-linejoin:miter;stroke-miterlimit:4;stroke-opacity:1;stroke-dasharray:none"
         id="path5749"
         inkscape:connector-curvature="0" /><path
         d="m 712.7292,938.53193 c -2.6614,0 -4.8189,-2.15749 -4.8189,-4.81889 0,-2.66141 2.1575,-4.8189 4.8189,-4.8189 2.6614,0 4.8189,2.15749 4.8189,4.8189 0,2.6614 -2.1575,4.81889 -4.8189,4.81889"
         style="fill:none;stroke:#000000;stroke-width:0.1;stroke-linecap:butt;stroke-linejoin:miter;stroke-miterlimit:4;stroke-opacity:1;stroke-dasharray:none"
         id="path5751"
         inkscape:connector-curvature="0" /></g><g
       id="g5894"
       style="stroke-width:0.1;stroke-miterlimit:4;stroke-dasharray:none"><path
         d="m 0.04232888,0.04232888 443.58734112,0 0,850.30904112 -443.58734112,0 0,-850.30904112 z"
         style="fill:none;stroke:#000000;stroke-width:0.1;stroke-linecap:butt;stroke-linejoin:miter;stroke-miterlimit:4;stroke-opacity:1;stroke-dasharray:none"
         id="path5441"
         inkscape:connector-curvature="0" /><path
         d="m 42.12283,28.8 c 0,2.6614 -2.15749,4.8189 -4.81889,4.8189 -2.66141,0 -4.8189,-2.1575 -4.8189,-4.8189 0,-2.6614 2.15749,-4.8189 4.8189,-4.8189 2.6614,0 4.81889,2.1575 4.81889,4.8189"
         style="fill:none;stroke:#000000;stroke-width:0.1;stroke-linecap:butt;stroke-linejoin:miter;stroke-miterlimit:4;stroke-opacity:1;stroke-dasharray:none"
         id="path5443"
         inkscape:connector-curvature="0" /><path
         d="m 344.5228,28.8 c 0,2.6614 -2.1575,4.8189 -4.8189,4.8189 -2.6614,0 -4.8189,-2.1575 -4.8189,-4.8189 0,-2.6614 2.1575,-4.8189 4.8189,-4.8189 2.6614,0 4.8189,2.1575 4.8189,4.8189"
         style="fill:none;stroke:#000000;stroke-width:0.1;stroke-linecap:butt;stroke-linejoin:miter;stroke-miterlimit:4;stroke-opacity:1;stroke-dasharray:none"
         id="path5445"
         inkscape:connector-curvature="0" /><path
         d="m 344.5228,821.5937 c 0,2.6614 -2.1575,4.8189 -4.8189,4.8189 -2.6614,0 -4.8189,-2.1575 -4.8189,-4.8189 0,-2.6614 2.1575,-4.8189 4.8189,-4.8189 2.6614,0 4.8189,2.1575 4.8189,4.8189"
         style="fill:none;stroke:#000000;stroke-width:0.1;stroke-linecap:butt;stroke-linejoin:miter;stroke-miterlimit:4;stroke-opacity:1;stroke-dasharray:none"
         id="path5447"
         inkscape:connector-curvature="0" /><path
         d="m 42.12283,821.5937 c 0,2.6614 -2.15749,4.8189 -4.81889,4.8189 -2.66141,0 -4.8189,-2.1575 -4.8189,-4.8189 0,-2.6614 2.15749,-4.8189 4.8189,-4.8189 2.6614,0 4.81889,2.1575 4.81889,4.8189"
         style="fill:none;stroke:#000000;stroke-width:0.1;stroke-linecap:butt;stroke-linejoin:miter;stroke-miterlimit:4;stroke-opacity:1;stroke-dasharray:none"
         id="path5449"
         inkscape:connector-curvature="0" /><g
         style="fill:none;stroke:#000000;stroke-width:0.1;stroke-miterlimit:4;stroke-opacity:1;stroke-dasharray:none"
         transform="matrix(0,-1,1,0,164.10142,888.94748)"
         id="g4154"><path
           d="m 204.55063,-121.97857 c -2.6614,0 -4.81889,-2.15749 -4.81889,-4.81889 0,-2.66141 2.15749,-4.8189 4.81889,-4.8189 2.66141,0 4.8189,2.15749 4.8189,4.8189 0,2.6614 -2.15749,4.81889 -4.8189,4.81889"
           style="fill:none;stroke:#000000;stroke-width:0.1;stroke-linecap:butt;stroke-linejoin:miter;stroke-miterlimit:4;stroke-opacity:1;stroke-dasharray:none"
           id="path3081-8"
           inkscape:connector-curvature="0" /><path
           inkscape:connector-curvature="0"
           id="path4148"
           style="fill:none;stroke:#000000;stroke-width:0.1;stroke-linecap:butt;stroke-linejoin:miter;stroke-miterlimit:4;stroke-opacity:1;stroke-dasharray:none"
           d="m 722.95063,-121.97857 c -2.6614,0 -4.81889,-2.15749 -4.81889,-4.81889 0,-2.66141 2.15749,-4.8189 4.81889,-4.8189 2.66141,0 4.8189,2.15749 4.8189,4.8189 0,2.6614 -2.15749,4.81889 -4.8189,4.81889" /><path
           inkscape:connector-curvature="0"
           id="path4150"
           style="fill:none;stroke:#000000;stroke-width:0.1;stroke-linecap:butt;stroke-linejoin:miter;stroke-miterlimit:4;stroke-opacity:1;stroke-dasharray:none"
           d="m 204.55063,180.42143 c -2.6614,0 -4.81889,-2.15749 -4.81889,-4.81889 0,-2.66141 2.15749,-4.8189 4.81889,-4.8189 2.66141,0 4.8189,2.15749 4.8189,4.8189 0,2.6614 -2.15749,4.81889 -4.8189,4.81889" /><path
           d="m 722.95063,180.42143 c -2.6614,0 -4.81889,-2.15749 -4.81889,-4.81889 0,-2.66141 2.15749,-4.8189 4.81889,-4.8189 2.66141,0 4.8189,2.15749 4.8189,4.8189 0,2.6614 -2.15749,4.81889 -4.8189,4.81889"
           style="fill:none;stroke:#000000;stroke-width:0.1;stroke-linecap:butt;stroke-linejoin:miter;stroke-miterlimit:4;stroke-opacity:1;stroke-dasharray:none"
           id="path4152"
           inkscape:connector-curvature="0" /></g><path
         d="m 424.72619,818.00742 c -2.6614,0 -4.8189,-2.1575 -4.8189,-4.8189 0,-2.6614 2.1575,-4.8189 4.8189,-4.8189 2.6614,0 4.8189,2.1575 4.8189,4.8189 0,2.6614 -2.1575,4.8189 -4.8189,4.8189"
         style="fill:none;stroke:#000000;stroke-width:0.1;stroke-linecap:butt;stroke-linejoin:miter;stroke-miterlimit:4;stroke-opacity:1;stroke-dasharray:none"
         id="path24"
         inkscape:connector-curvature="0" /><path
         d="m 424.72619,42.221529 c -2.6614,0 -4.8189,-2.15749 -4.8189,-4.81889 0,-2.66141 2.1575,-4.8189 4.8189,-4.8189 2.6614,0 4.8189,2.15749 4.8189,4.8189 0,2.6614 -2.1575,4.81889 -4.8189,4.81889"
         style="fill:none;stroke:#000000;stroke-width:0.1;stroke-linecap:butt;stroke-linejoin:miter;stroke-miterlimit:4;stroke-opacity:1;stroke-dasharray:none"
         id="path26"
         inkscape:connector-curvature="0" /><path
         d="m 424.72619,304.30894 c -4.59004,0 -8.31102,-3.72098 -8.31102,-8.31102 0,-4.59004 3.72098,-8.31102 8.31102,-8.31102 4.59004,0 8.31102,3.72098 8.31102,8.31102 0,4.59004 -3.72098,8.31102 -8.31102,8.31102"
         style="fill:none;stroke:#000000;stroke-width:0.1;stroke-linecap:butt;stroke-linejoin:miter;stroke-miterlimit:4;stroke-opacity:1;stroke-dasharray:none"
         id="path30"
         inkscape:connector-curvature="0" /><path
         d="m 424.72619,562.97082 c -4.62681,0 -8.3776,-3.75079 -8.3776,-8.3776 0,-4.62681 3.75079,-8.3776 8.3776,-8.3776 4.62681,0 8.3776,3.75079 8.3776,8.3776 0,4.62681 -3.75079,8.3776 -8.3776,8.3776"
         style="fill:none;stroke:#000000;stroke-width:0.1;stroke-linecap:butt;stroke-linejoin:miter;stroke-miterlimit:4;stroke-opacity:1;stroke-dasharray:none"
         id="path34"
         inkscape:connector-curvature="0" /><path
         sodipodi:open="true"
         sodipodi:end="4.58726"
         sodipodi:start="1.6991195"
         d="m 556.55099,672.47262 a 40.17754,40.17754 0 0 1 0.12731,-79.71061"
         sodipodi:ry="40.17754"
         sodipodi:rx="40.17754"
         sodipodi:cy="632.62543"
         sodipodi:cx="561.69257"
         id="path5190"
         style="fill:none;stroke:#000000;stroke-width:0.125;stroke-miterlimit:4;stroke-opacity:1;stroke-dasharray:none"
         sodipodi:type="arc"
         transform="matrix(0.8,0,0,-0.8,-0.52145482,926.99932)" /></g><g
       id="g5883"
       transform="translate(1065.762,0)"
       style="stroke-width:0.1;stroke-miterlimit:4;stroke-dasharray:none"><path
         inkscape:connector-curvature="0"
         id="path5853"
         style="fill:none;stroke:#000000;stroke-width:0.1;stroke-linecap:butt;stroke-linejoin:miter;stroke-miterlimit:4;stroke-opacity:1;stroke-dasharray:none"
         d="m -617.423,0.04232888 443.58734,0 0,850.30904112 -443.58734,0 0,-850.30904112 z" /><path
         inkscape:connector-curvature="0"
         id="path5855"
         style="fill:none;stroke:#000000;stroke-width:0.1;stroke-linecap:butt;stroke-linejoin:miter;stroke-miterlimit:4;stroke-opacity:1;stroke-dasharray:none"
         d="m -575.3425,28.8 c 0,2.6614 -2.15749,4.8189 -4.81889,4.8189 -2.66141,0 -4.8189,-2.1575 -4.8189,-4.8189 0,-2.6614 2.15749,-4.8189 4.8189,-4.8189 2.6614,0 4.81889,2.1575 4.81889,4.8189" /><path
         inkscape:connector-curvature="0"
         id="path5857"
         style="fill:none;stroke:#000000;stroke-width:0.1;stroke-linecap:butt;stroke-linejoin:miter;stroke-miterlimit:4;stroke-opacity:1;stroke-dasharray:none"
         d="m -272.94253,28.8 c 0,2.6614 -2.1575,4.8189 -4.8189,4.8189 -2.6614,0 -4.8189,-2.1575 -4.8189,-4.8189 0,-2.6614 2.1575,-4.8189 4.8189,-4.8189 2.6614,0 4.8189,2.1575 4.8189,4.8189" /><path
         inkscape:connector-curvature="0"
         id="path5859"
         style="fill:none;stroke:#000000;stroke-width:0.1;stroke-linecap:butt;stroke-linejoin:miter;stroke-miterlimit:4;stroke-opacity:1;stroke-dasharray:none"
         d="m -272.94253,821.5937 c 0,2.6614 -2.1575,4.8189 -4.8189,4.8189 -2.6614,0 -4.8189,-2.1575 -4.8189,-4.8189 0,-2.6614 2.1575,-4.8189 4.8189,-4.8189 2.6614,0 4.8189,2.1575 4.8189,4.8189" /><path
         inkscape:connector-curvature="0"
         id="path5861"
         style="fill:none;stroke:#000000;stroke-width:0.1;stroke-linecap:butt;stroke-linejoin:miter;stroke-miterlimit:4;stroke-opacity:1;stroke-dasharray:none"
         d="m -575.3425,821.5937 c 0,2.6614 -2.15749,4.8189 -4.81889,4.8189 -2.66141,0 -4.8189,-2.1575 -4.8189,-4.8189 0,-2.6614 2.15749,-4.8189 4.8189,-4.8189 2.6614,0 4.81889,2.1575 4.81889,4.8189" /><path
         inkscape:connector-curvature="0"
         id="path5873"
         style="fill:none;stroke:#000000;stroke-width:0.1;stroke-linecap:butt;stroke-linejoin:miter;stroke-miterlimit:4;stroke-opacity:1;stroke-dasharray:none"
         d="m -192.73914,818.00742 c -2.6614,0 -4.8189,-2.1575 -4.8189,-4.8189 0,-2.6614 2.1575,-4.8189 4.8189,-4.8189 2.6614,0 4.8189,2.1575 4.8189,4.8189 0,2.6614 -2.1575,4.8189 -4.8189,4.8189" /><path
         inkscape:connector-curvature="0"
         id="path5875"
         style="fill:none;stroke:#000000;stroke-width:0.1;stroke-linecap:butt;stroke-linejoin:miter;stroke-miterlimit:4;stroke-opacity:1;stroke-dasharray:none"
         d="m -192.73914,42.221529 c -2.6614,0 -4.8189,-2.15749 -4.8189,-4.81889 0,-2.66141 2.1575,-4.8189 4.8189,-4.8189 2.6614,0 4.8189,2.15749 4.8189,4.8189 0,2.6614 -2.1575,4.81889 -4.8189,4.81889" /><path
         inkscape:connector-curvature="0"
         id="path5877"
         style="fill:none;stroke:#000000;stroke-width:0.1;stroke-linecap:butt;stroke-linejoin:miter;stroke-miterlimit:4;stroke-opacity:1;stroke-dasharray:none"
         d="m -192.73914,304.30894 c -4.59004,0 -8.31102,-3.72098 -8.31102,-8.31102 0,-4.59004 3.72098,-8.31102 8.31102,-8.31102 4.59004,0 8.31102,3.72098 8.31102,8.31102 0,4.59004 -3.72098,8.31102 -8.31102,8.31102" /><path
         inkscape:connector-curvature="0"
         id="path5879"
         style="fill:none;stroke:#000000;stroke-width:0.1;stroke-linecap:butt;stroke-linejoin:miter;stroke-miterlimit:4;stroke-opacity:1;stroke-dasharray:none"
         d="m -192.73914,562.97082 c -4.62681,0 -8.3776,-3.75079 -8.3776,-8.3776 0,-4.62681 3.75079,-8.3776 8.3776,-8.3776 4.62681,0 8.3776,3.75079 8.3776,8.3776 0,4.62681 -3.75079,8.3776 -8.3776,8.3776" /></g><g
       id="g5400"
       transform="translate(-51.436671,-14.647413)"
       style="stroke-width:0.1;stroke-miterlimit:4;stroke-dasharray:none"><path
         inkscape:connector-curvature="0"
         id="path42"
         style="fill:none;stroke:#000000;stroke-width:0.1;stroke-linecap:butt;stroke-linejoin:miter;stroke-miterlimit:4;stroke-opacity:1;stroke-dasharray:none"
         d="m 1553.6697,15.005684 0,850.393696 -143.1496,0 0,-850.393696 143.1496,0 z" /><path
         inkscape:connector-curvature="0"
         id="path44"
         style="fill:none;stroke:#000000;stroke-width:0.1;stroke-linecap:butt;stroke-linejoin:miter;stroke-miterlimit:4;stroke-opacity:1;stroke-dasharray:none"
         d="m 1516.3658,57.128514 c -2.6614,0 -4.8189,-2.15749 -4.8189,-4.81889 0,-2.66141 2.1575,-4.8189 4.8189,-4.8189 2.6614,0 4.8189,2.15749 4.8189,4.8189 0,2.6614 -2.1575,4.81889 -4.8189,4.81889" /><path
         inkscape:connector-curvature="0"
         id="path46"
         style="fill:none;stroke:#000000;stroke-width:0.1;stroke-linecap:butt;stroke-linejoin:miter;stroke-miterlimit:4;stroke-opacity:1;stroke-dasharray:none"
         d="m 1516.3658,832.91438 c -2.6614,0 -4.8189,-2.1575 -4.8189,-4.8189 0,-2.6614 2.1575,-4.8189 4.8189,-4.8189 2.6614,0 4.8189,2.1575 4.8189,4.8189 0,2.6614 -2.1575,4.8189 -4.8189,4.8189" /><path
         inkscape:connector-curvature="0"
         id="path48"
         style="fill:none;stroke:#000000;stroke-width:0.1;stroke-linecap:butt;stroke-linejoin:miter;stroke-miterlimit:4;stroke-opacity:1;stroke-dasharray:none"
         d="m 1447.824,832.91438 c -2.6614,0 -4.8189,-2.1575 -4.8189,-4.8189 0,-2.6614 2.1575,-4.8189 4.8189,-4.8189 2.6614,0 4.8189,2.1575 4.8189,4.8189 0,2.6614 -2.1575,4.8189 -4.8189,4.8189" /><path
         inkscape:connector-curvature="0"
         id="path50"
         style="fill:none;stroke:#000000;stroke-width:0.1;stroke-linecap:butt;stroke-linejoin:miter;stroke-miterlimit:4;stroke-opacity:1;stroke-dasharray:none"
         d="m 1447.824,57.128514 c -2.6614,0 -4.8189,-2.15749 -4.8189,-4.81889 0,-2.66141 2.1575,-4.8189 4.8189,-4.8189 2.6614,0 4.8189,2.15749 4.8189,4.8189 0,2.6614 -2.1575,4.81889 -4.8189,4.81889" /><path
         inkscape:connector-curvature="0"
         id="path52"
         style="fill:none;stroke:#000000;stroke-width:0.1;stroke-linecap:butt;stroke-linejoin:miter;stroke-miterlimit:4;stroke-opacity:1;stroke-dasharray:none"
         d="m 1516.3658,315.72378 c -2.6614,0 -4.8189,-2.1575 -4.8189,-4.8189 0,-2.6614 2.1575,-4.8189 4.8189,-4.8189 2.6614,0 4.8189,2.1575 4.8189,4.8189 0,2.6614 -2.1575,4.8189 -4.8189,4.8189" /><path
         inkscape:connector-curvature="0"
         id="path54"
         style="fill:none;stroke:#000000;stroke-width:0.1;stroke-linecap:butt;stroke-linejoin:miter;stroke-miterlimit:4;stroke-opacity:1;stroke-dasharray:none"
         d="m 1447.824,315.72378 c -2.6614,0 -4.8189,-2.1575 -4.8189,-4.8189 0,-2.6614 2.1575,-4.8189 4.8189,-4.8189 2.6614,0 4.8189,2.1575 4.8189,4.8189 0,2.6614 -2.1575,4.8189 -4.8189,4.8189" /><path
         inkscape:connector-curvature="0"
         id="path56"
         style="fill:none;stroke:#000000;stroke-width:0.1;stroke-linecap:butt;stroke-linejoin:miter;stroke-miterlimit:4;stroke-opacity:1;stroke-dasharray:none"
         d="m 1516.3658,574.31908 c -2.6614,0 -4.8189,-2.1575 -4.8189,-4.8189 0,-2.6614 2.1575,-4.8189 4.8189,-4.8189 2.6614,0 4.8189,2.1575 4.8189,4.8189 0,2.6614 -2.1575,4.8189 -4.8189,4.8189" /><path
         inkscape:connector-curvature="0"
         id="path58"
         style="fill:none;stroke:#000000;stroke-width:0.1;stroke-linecap:butt;stroke-linejoin:miter;stroke-miterlimit:4;stroke-opacity:1;stroke-dasharray:none"
         d="m 1447.824,574.31908 c -2.6614,0 -4.8189,-2.1575 -4.8189,-4.8189 0,-2.6614 2.1575,-4.8189 4.8189,-4.8189 2.6614,0 4.8189,2.1575 4.8189,4.8189 0,2.6614 -2.1575,4.8189 -4.8189,4.8189" /><path
         inkscape:connector-curvature="0"
         id="path3297"
         style="fill:none;stroke:#000000;stroke-width:0.1;stroke-linecap:butt;stroke-linejoin:miter;stroke-miterlimit:4;stroke-opacity:1;stroke-dasharray:none"
         d="m 1482.4616,193.05442 c -6.2466,0 -11.3105,-5.0639 -11.3105,-11.3105 0,-6.2467 5.0639,-11.3106 11.3105,-11.3106 6.2467,0 11.3106,5.0639 11.3106,11.3106 0,6.2466 -5.0639,11.3105 -11.3106,11.3105" /></g></g></svg>